# Hopf drift winding d48_210 (Deep 210°), 10 circuits, unit ball; ccsim.geometry.hopf_drift('d48_210', 10)
o drift
v 0.000000000 1.000000000 0.000000000
v -0.014787413 0.999476975 -0.014991616
v -0.029554442 0.998219751 -0.029958588
v -0.044283268 0.996230118 -0.044883180
v -0.058956149 0.993510858 -0.059747745
v -0.073555456 0.990065735 -0.074534755
v -0.088058604 0.985866183 -0.089221555
v -0.102440852 0.980888328 -0.103783376
v -0.116693415 0.975202302 -0.118211897
v -0.130799469 0.968815894 -0.132490426
v -0.144742484 0.961737803 -0.146602566
v -0.158498632 0.953951635 -0.160524519
v -0.172035052 0.945420399 -0.174223380
v -0.185356362 0.936230239 -0.187704274
v -0.198447548 0.926393523 -0.200952356
v -0.211294053 0.915923392 -0.213953246
v -0.223840043 0.904741040 -0.226650963
v -0.236105097 0.892946873 -0.239065613
v -0.248080200 0.880565717 -0.251188418
v -0.259739984 0.867590970 -0.262994150
v -0.271037164 0.853984322 -0.274435618
v -0.282004502 0.839844441 -0.285546039
v -0.292627024 0.825182872 -0.296310651
v -0.302830301 0.809932816 -0.306655161
v -0.312670170 0.794209274 -0.316635811
v -0.322111553 0.778000992 -0.326217768
v -0.331114244 0.761296951 -0.335361124
v -0.339726969 0.744183438 -0.344114874
v -0.347858195 0.726601768 -0.352387916
v -0.355575714 0.708648117 -0.360248219
v -0.362807388 0.690291566 -0.367624161
v -0.369597471 0.671597493 -0.374560160
v -0.375880947 0.652549646 -0.380991810
v -0.381716242 0.633215618 -0.386977590
v -0.387013753 0.613571008 -0.392428753
v -0.391835880 0.593680877 -0.397407701
v -0.396157613 0.573558175 -0.401889939
v -0.399939645 0.553216105 -0.405836890
v -0.403217620 0.532697047 -0.409284320
v -0.405980585 0.512023092 -0.412221778
v -0.408216146 0.491217673 -0.414637436
v -0.409903122 0.470304953 -0.416510845
v -0.411061191 0.449316493 -0.417861958
v -0.411686046 0.428278301 -0.418687031
v -0.411775150 0.407216955 -0.418984098
v -0.411327682 0.386159273 -0.418752916
v -0.410344466 0.365132024 -0.417994886
v -0.408820260 0.344162860 -0.416705487
v -0.406749810 0.323280596 -0.414880242
v -0.404151154 0.302509488 -0.412537535
v -0.401031196 0.281874187 -0.409684815
v -0.397362019 0.261411095 -0.406295574
v -0.393184108 0.241134601 -0.402410133
v -0.388470247 0.221083628 -0.398002799
v -0.383250203 0.201273806 -0.393103421
v -0.377520689 0.181734787 -0.387709681
v -0.371278266 0.162498669 -0.381819212
v -0.364540924 0.143584788 -0.375450416
v -0.357314993 0.125018991 -0.368610399
v -0.349607386 0.106827161 -0.361306853
v -0.341420367 0.089039943 -0.353543025
v -0.332773514 0.071673072 -0.345338767
v -0.323671718 0.054755298 -0.336699818
v -0.314127902 0.038307897 -0.327639567
v -0.304147151 0.022361567 -0.318163899
v -0.293747037 0.006933048 -0.308290497
v -0.282939017 -0.007953791 -0.298031122
v -0.271736097 -0.022276450 -0.287398878
v -0.260147843 -0.036006010 -0.276403465
v -0.248195863 -0.049132035 -0.265065723
v -0.235889051 -0.061622333 -0.253394263
v -0.223246583 -0.073461276 -0.241407062
v -0.210285321 -0.084628574 -0.229119555
v -0.197021382 -0.095100420 -0.216546032
v -0.183474518 -0.104859564 -0.203703701
v -0.169664101 -0.113886114 -0.190608824
v -0.155611070 -0.122162341 -0.177278493
v -0.141336814 -0.129669004 -0.163729457
v -0.126864592 -0.136390037 -0.149979449
v -0.112218505 -0.142309002 -0.136046103
v -0.097423752 -0.147409397 -0.121947119
v -0.082507205 -0.151677721 -0.107700845
v -0.067496958 -0.155102533 -0.093325865
v -0.052422092 -0.157672375 -0.078840680
v -0.037312884 -0.159378498 -0.064264070
v -0.022200637 -0.160211475 -0.049614755
v -0.007117595 -0.160167054 -0.034911868
v 0.007903631 -0.159244894 -0.020174584
v 0.022829201 -0.157438834 -0.005421946
v 0.037626472 -0.154757394 0.009326792
v 0.052260832 -0.151197918 0.024052284
v 0.066700540 -0.146774036 0.038735549
v 0.080911650 -0.141489135 0.053357057
v 0.094863349 -0.135358297 0.067897907
v 0.108524995 -0.128395134 0.082339081
v 0.121866797 -0.120614481 0.096661525
v 0.134860460 -0.112033656 0.110846342
v 0.147479648 -0.102672696 0.124874991
v 0.159700580 -0.092554627 0.138729606
v 0.171496171 -0.081695230 0.152390310
v 0.182848012 -0.070123756 0.165840688
v 0.193734580 -0.057862269 0.179062452
v 0.204136883 -0.044935440 0.192038040
v 0.214039181 -0.031370777 0.204751141
v 0.223422023 -0.017190158 0.217183017
v 0.232275444 -0.002425431 0.229319705
v 0.240583691 0.012899297 0.241143734
v 0.248333720 0.028757534 0.252638758
v 0.255515911 0.045120353 0.263790173
v 0.262124956 0.061956449 0.274585913
v 0.268143194 0.079244793 0.285005893
v 0.273571681 0.096950531 0.295041731
v 0.278400928 0.115047422 0.304678198
v 0.282624267 0.133507403 0.313901697
v 0.286238442 0.152300786 0.322700859
v 0.289244280 0.171396621 0.331067258
v 0.291626714 0.190771404 0.338980861
v 0.293402248 0.210388331 0.346444688
v 0.294547600 0.230226409 0.353432132
v 0.295078578 0.250250580 0.359945936
v 0.294993275 0.270432583 0.365975554
v 0.294292128 0.290743419 0.371512176
v 0.292978400 0.311153661 0.376549251
v 0.291058450 0.331633951 0.381082896
v 0.288524401 0.352155908 0.385097160
v 0.285387944 0.372689336 0.388592454
v 0.281667411 0.393206212 0.391575639
v 0.277340268 0.413675589 0.394017158
v 0.272442483 0.434071504 0.395939812
v 0.266971027 0.454364548 0.397331451
v 0.260921469 0.474523074 0.398177981
v 0.254321747 0.494523421 0.398495975
v 0.247178414 0.514337518 0.398282028
v 0.239499616 0.533937318 0.397534131
v 0.231295105 0.553295027 0.396251752
v 0.222576235 0.572383359 0.394435921
v 0.213355924 0.591175800 0.392089282
v 0.203648583 0.609646902 0.389216130
v 0.193470012 0.627772579 0.385822409
v 0.182837250 0.645530415 0.381915688
v 0.171768383 0.662899958 0.377505087
v 0.160264168 0.679843349 0.372579075
v 0.148341439 0.696335110 0.367144083
v 0.136037474 0.712376495 0.361232917
v 0.123361624 0.727939224 0.354844621
v 0.110308564 0.742967284 0.347956576
v 0.096935520 0.757498469 0.340630696
v 0.083226558 0.771458495 0.332829285
v 0.069222982 0.784864827 0.324593898
v 0.054936011 0.797686614 0.315924413
v 0.040384669 0.809901627 0.306830278
v 0.025592769 0.821504480 0.297330512
v 0.010579210 0.832473308 0.287434585
v -0.004638771 0.842783625 0.277149682
v -0.020028202 0.852463437 0.266513516
v -0.035588678 0.861415756 0.255495404
v -0.051274950 0.869737506 0.244165826
v -0.067084525 0.877313194 0.232490012
v -0.082985535 0.884194609 0.220512341
v -0.098954198 0.890408196 0.208262024
v -0.114978742 0.895806316 0.195702127
v -0.131028216 0.900518245 0.182901014
v -0.147083985 0.904532682 0.169871348
v -0.163121302 0.907713104 0.156591084
v -0.179121208 0.910187042 0.143117568
v -0.195064700 0.911949967 0.129465953
v -0.210918837 0.912893856 0.115630476
v -0.226669392 0.913092353 0.101647119
v -0.242300525 0.912572843 0.087538485
v -0.257784462 0.911295220 0.073316017
v -0.273087856 0.909211815 0.058993612
v -0.288209887 0.906413760 0.044601134
v -0.303132147 0.902903987 0.030155611
v -0.317808459 0.898603276 0.015672058
v -0.332230951 0.893560781 0.001173076
v -0.346394918 0.887823375 -0.013322231
v -0.360283252 0.881398158 -0.027796646
v -0.373825376 0.874176092 -0.042223371
v -0.387053280 0.866284254 -0.056589721
v -0.399951937 0.857734277 -0.070878853
v -0.412481390 0.848493557 -0.085066288
v -0.424607985 0.838548414 -0.099127008
v -0.436356793 0.827983950 -0.113055717
v -0.447714485 0.816813852 -0.126836405
v -0.458593291 0.804948613 -0.140421043
v -0.469048241 0.792506121 -0.153820028
v -0.479071697 0.779507603 -0.167019924
v -0.488583864 0.765889826 -0.179971291
v -0.497619951 0.751730278 -0.192680139
v -0.506191305 0.737071353 -0.205142858
v -0.514204061 0.721849151 -0.217297970
v -0.521718116 0.706155468 -0.229168473
v -0.528721788 0.690007902 -0.240738596
v -0.535138488 0.673372190 -0.251952517
v -0.541051639 0.656345550 -0.262852025
v -0.546367751 0.638887083 -0.273368708
v -0.551142070 0.621064598 -0.283529170
v -0.555334417 0.602880716 -0.293297629
v -0.558950353 0.584366558 -0.302669092
v -0.561982605 0.565547125 -0.311629348
v -0.564429448 0.546448216 -0.320168772
v -0.566273888 0.527091315 -0.328265838
v -0.567549806 0.507515855 -0.335937601
v -0.568188423 0.487726080 -0.343122988
v -0.568261836 0.467772419 -0.349868830
v -0.567725325 0.447668422 -0.356132067
v -0.566577901 0.427443473 -0.361902682
v -0.564850569 0.407129940 -0.367197520
v -0.562537875 0.386752595 -0.372004158
v -0.559605089 0.366337566 -0.376284369
v -0.556087589 0.345915793 -0.380059293
v -0.551990163 0.325514548 -0.383324686
v -0.547314826 0.305161517 -0.386073787
v -0.542065534 0.284884754 -0.388301431
v -0.536248102 0.264712371 -0.390004074
v -0.529870083 0.244672255 -0.391179774
v -0.522940638 0.224791820 -0.391828152
v -0.515470384 0.205097793 -0.391950335
v -0.507471246 0.185616031 -0.391548869
v -0.498930970 0.166384478 -0.390601672
v -0.489884806 0.147418916 -0.389134662
v -0.480348589 0.128742065 -0.387154809
v -0.470305224 0.110399205 -0.384633711
v -0.459801918 0.092392795 -0.381611754
v -0.448824244 0.074769504 -0.378062497
v -0.437402932 0.057541624 -0.374009095
v -0.425551194 0.040734448 -0.369455598
v -0.413281266 0.024375291 -0.364404618
v -0.400608018 0.008489699 -0.358861606
v -0.387548401 -0.006898795 -0.352834435
v -0.374120966 -0.021768819 -0.346333014
v -0.360345437 -0.036101209 -0.339368923
v -0.346238983 -0.049872741 -0.331950297
v -0.331817150 -0.063055829 -0.324082536
v -0.317103279 -0.075636859 -0.315781925
v -0.302116952 -0.087595596 -0.307059454
v -0.286877224 -0.098909009 -0.297924739
v -0.271405156 -0.109557449 -0.288390032
v -0.255723158 -0.119524470 -0.278469573
v -0.239854469 -0.128796591 -0.268179039
v -0.223819880 -0.137348387 -0.257528183
v -0.207644699 -0.145172132 -0.246535736
v -0.191352062 -0.152247641 -0.235214481
v -0.174966755 -0.158558922 -0.223579514
v -0.158514580 -0.164093680 -0.211647507
v -0.142021906 -0.168842839 -0.199436139
v -0.125515529 -0.172786997 -0.186959655
v -0.109023351 -0.175921287 -0.174237169
v -0.092573989 -0.178233355 -0.161285340
v -0.076196920 -0.179714726 -0.148122004
v -0.059922122 -0.180360235 -0.134765690
v -0.043781488 -0.180158963 -0.121233676
v -0.027805767 -0.179113111 -0.107545819
v -0.012028052 -0.177217069 -0.093720305
v 0.003518360 -0.174470085 -0.079776171
v 0.018800331 -0.170875422 -0.065732857
v 0.033783459 -0.166435485 -0.051609612
v 0.048434552 -0.161158591 -0.037426138
v 0.062720393 -0.155054425 -0.023202050
v 0.076606652 -0.148132012 -0.008956949
v 0.090060750 -0.140405428 0.005289355
v 0.103052515 -0.131893437 0.019517166
v 0.115548674 -0.122610204 0.033706537
v 0.127521909 -0.112579407 0.047837855
v 0.138944808 -0.101823862 0.061891509
v 0.149790990 -0.090367358 0.075847855
v 0.160036010 -0.078235572 0.089687324
v 0.169657768 -0.065456101 0.103390538
v 0.178637023 -0.052058490 0.116938506
v 0.186957563 -0.038073860 0.130312796
v 0.194598104 -0.023528303 0.143493167
v 0.201549599 -0.008457015 0.156462549
v 0.207798703 0.007109527 0.169202395
v 0.213334872 0.023139669 0.181694708
v 0.218151531 0.039600274 0.193922653
v 0.222237588 0.056461560 0.205867379
v 0.225594381 0.073687950 0.217514694
v 0.228212490 0.091250117 0.228845846
v 0.230092696 0.109114572 0.239846156
v 0.231230374 0.127250634 0.250498330
v 0.231630102 0.145624878 0.260789261
v 0.231296316 0.164205110 0.270705977
v 0.230226211 0.182961363 0.280231575
v 0.228424400 0.201861999 0.289352848
v 0.225899417 0.220875322 0.298058864
v 0.222657812 0.239970650 0.306337701
v 0.218703361 0.259117734 0.314175646
v 0.214041766 0.278285939 0.321559878
v 0.208695713 0.297445443 0.328489046
v 0.202655673 0.316565649 0.334940059
v 0.195946632 0.335617762 0.340913421
v 0.188579363 0.354572823 0.346400111
v 0.180563917 0.373401665 0.351390447
v 0.171913023 0.392075482 0.355876652
v 0.162642177 0.410566314 0.359853190
v 0.152769658 0.428847606 0.363317104
v 0.142316465 0.446894888 0.366268365
v 0.131274716 0.464669746 0.368680121
v 0.119692803 0.482160662 0.370577567
v 0.107567545 0.499330553 0.371937652
v 0.094939180 0.516167828 0.372780168
v 0.081796840 0.532626053 0.373071726
v 0.068187765 0.548701179 0.372840962
v 0.054128692 0.564367891 0.372084506
v 0.039633947 0.579596979 0.370795212
v 0.024720734 0.594359843 0.368968162
v 0.009421238 0.608645430 0.366618181
v -0.006242358 0.622432490 0.363747782
v -0.022246809 0.635701120 0.360360941
v -0.038567981 0.648432956 0.356463094
v -0.055181047 0.660611361 0.352061112
v -0.072066000 0.672208685 0.347152493
v -0.089197877 0.683204372 0.341742002
v -0.106545047 0.693597395 0.335849813
v -0.124081077 0.703378326 0.329487961
v -0.141780024 0.712540055 0.322669466
v -0.159627024 0.721015507 0.315366225
v -0.177584003 0.728842820 0.307624795
v -0.195624919 0.736028039 0.299465710
v -0.213730319 0.742487172 0.290854358
v -0.231867175 0.748278202 0.281845198
v -0.250011799 0.753381304 0.272442637
v -0.268135313 0.757747713 0.262638166
v -0.286216556 0.761453186 0.252488483
v -0.304218166 0.764376060 0.241949536
v -0.322130972 0.766651638 0.231103745
v -0.339904487 0.768123389 0.219896034
v -0.357542622 0.768946717 0.208411558
v -0.374985623 0.768970428 0.196604374
v -0.392242936 0.768329398 0.184544401
v -0.409257812 0.766917768 0.172209320
v -0.426029425 0.764810620 0.159642071
v -0.442523969 0.761984612 0.146851794
v -0.458707349 0.758419823 0.133849751
v -0.474593763 0.754204935 0.120676652
v -0.490090743 0.749203186 0.107316321
v -0.505244971 0.743559452 0.093819759
v -0.520002847 0.737221796 0.080193033
v -0.534331699 0.730182016 0.066453091
v -0.548258773 0.722525236 0.052630023
v -0.561691403 0.714156030 0.038731136
v -0.574666042 0.705166763 0.024784527
v -0.587170799 0.695576506 0.010808823
v -0.599113533 0.685309507 -0.003177902
v -0.610565386 0.674485648 -0.017154927
v -0.621463146 0.663067426 -0.031101683
v -0.631779119 0.651060412 -0.044996737
v -0.641561458 0.638543167 -0.058827527
v -0.650703519 0.625448844 -0.072561383
v -0.659262355 0.611859403 -0.086189707
v -0.667226416 0.597793373 -0.099694418
v -0.674511253 0.583215768 -0.113039527
v -0.681208891 0.568223021 -0.126231363
v -0.687215040 0.552772027 -0.139225433
v -0.692581992 0.536925024 -0.152021144
v -0.697293157 0.520699142 -0.164597907
v -0.701300943 0.504095546 -0.176923688
v -0.704679349 0.487179352 -0.189010605
v -0.707309036 0.469921069 -0.200796612
v -0.709321216 0.452404811 -0.212320848
v -0.710566078 0.434597905 -0.223502997
v -0.711192385 0.416580484 -0.234396021
v -0.711050001 0.398330913 -0.244913202
v -0.710277013 0.379915471 -0.255108270
v -0.708758118 0.361331590 -0.264906768
v -0.706581318 0.342625629 -0.274340644
v -0.703707839 0.323815647 -0.283374277
v -0.700134996 0.304930222 -0.291989918
v -0.695914066 0.285999507 -0.300204458
v -0.690986856 0.267047851 -0.307966021
v -0.685395323 0.248105419 -0.315285387
v -0.679161289 0.229197801 -0.322162661
v -0.672279082 0.210352217 -0.328578961
v -0.664726746 0.191601936 -0.334501348
v -0.656552907 0.172969476 -0.339949322
v -0.647764483 0.154481996 -0.344912373
v -0.638370484 0.136166953 -0.349381228
v -0.628381936 0.118051813 -0.353347951
v -0.617811762 0.100163789 -0.356806023
v -0.606674655 0.082529598 -0.359750382
v -0.594986908 0.065175245 -0.362177443
v -0.582766248 0.048125838 -0.364085081
v -0.570031653 0.031405427 -0.365472605
v -0.556803172 0.015036877 -0.366340706
v -0.543088758 -0.000946906 -0.366676601
v -0.528910072 -0.016522627 -0.366481863
v -0.514302113 -0.031681297 -0.365774752
v -0.499265005 -0.046378756 -0.364531222
v -0.483838448 -0.060613340 -0.362776700
v -0.468028080 -0.074342443 -0.360491697
v -0.451871061 -0.087564895 -0.357700274
v -0.435383651 -0.100251153 -0.354397161
v -0.418585579 -0.112373073 -0.350580180
v -0.401507087 -0.123922203 -0.346264880
v -0.384171887 -0.134878831 -0.341456349
v -0.366605047 -0.145225699 -0.336161917
v -0.348829905 -0.154938796 -0.330384091
v -0.330873787 -0.164004723 -0.324133792
v -0.312765485 -0.172418987 -0.317427745
v -0.294527588 -0.180146036 -0.310261617
v -0.276190740 -0.187190767 -0.302658395
v -0.257781202 -0.193533680 -0.294624808
v -0.239326779 -0.199159334 -0.286170738
v -0.220856084 -0.204056051 -0.277308534
v -0.202397968 -0.208215579 -0.268052433
v -0.183981109 -0.211632729 -0.258418065
v -0.165635475 -0.214291343 -0.248415702
v -0.147389980 -0.216191117 -0.238063347
v -0.129275362 -0.217320587 -0.227373791
v -0.111322638 -0.217672813 -0.216362119
v -0.093562630 -0.217244748 -0.205045018
v -0.076025657 -0.216036667 -0.193440234
v -0.058744206 -0.214043799 -0.181563590
v -0.041749428 -0.211267986 -0.169433129
v -0.025074824 -0.207707253 -0.157065598
v -0.008753440 -0.203363753 -0.144479015
v 0.007182323 -0.198243113 -0.131692174
v 0.022700809 -0.192353893 -0.118724294
v 0.037766047 -0.185699184 -0.105593238
v 0.052347589 -0.178293371 -0.092319108
v 0.066411379 -0.170146646 -0.078920911
v 0.079924340 -0.161272661 -0.065418187
v 0.092854459 -0.151688066 -0.051830774
v 0.105170861 -0.141412139 -0.038178671
v 0.116843876 -0.130466491 -0.024481951
v 0.127845120 -0.118874838 -0.010760713
v 0.138147581 -0.106662811 0.002964929
v 0.147722494 -0.093855358 0.016674696
v 0.156548991 -0.080484204 0.030348427
v 0.164605678 -0.066580379 0.043966013
v 0.171872861 -0.052176014 0.057507359
v 0.178333187 -0.037304540 0.070952423
v 0.183971960 -0.022000563 0.084281295
v 0.188777548 -0.006299725 0.097474323
v 0.192741865 0.009761484 0.110512319
v 0.195853228 0.026148574 0.123375095
v 0.198112960 0.042823015 0.136044991
v 0.199510906 0.059750877 0.148501485
v 0.200051257 0.076894617 0.160727293
v 0.199735693 0.094218572 0.172704478
v 0.198562378 0.111688249 0.184413702
v 0.196541852 0.129267859 0.195839347
v 0.193677159 0.146923536 0.206963262
v 0.189979453 0.164621315 0.217770037
v 0.185455937 0.182328167 0.228242706
v 0.180117743 0.200011473 0.238365717
v 0.173980417 0.217639611 0.248125547
v 0.167051573 0.235180771 0.257504921
v 0.159354647 0.252605591 0.266494298
v 0.150892894 0.269881854 0.275073723
v 0.141692810 0.286982045 0.283235561
v 0.131771398 0.303877569 0.290967371
v 0.121148891 0.320541232 0.298258772
v 0.109832852 0.336940913 0.305090742
v 0.097860278 0.353056438 0.311464121
v 0.085242326 0.368857483 0.317362286
v 0.072011923 0.384324577 0.322784709
v 0.058176896 0.399424307 0.327711093
v 0.043770499 0.414138258 0.332141609
v 0.028817808 0.428443974 0.336070303
v 0.013343775 0.442319224 0.339491281
v -0.002624615 0.455743893 0.342400896
v -0.019066551 0.468691607 0.344788630
v -0.035954180 0.481141973 0.346650913
v -0.053249666 0.493088562 0.347997922
v -0.070936538 0.504498461 0.348812755
v -0.088978144 0.515365092 0.349104996
v -0.107351701 0.525661982 0.348864737
v -0.126016825 0.535394527 0.348111478
v -0.144960321 0.544512598 0.346814822
v -0.164139488 0.553029265 0.345000603
v -0.183524715 0.560931908 0.342671370
v -0.203086816 0.568205942 0.339828121
v -0.222795712 0.574838185 0.336473197
v -0.242620890 0.580814632 0.332608529
v -0.262530495 0.586127305 0.328240846
v -0.282492556 0.590774935 0.323381679
v -0.302476044 0.594741505 0.318031751
v -0.322448942 0.598024397 0.312201671
v -0.342379849 0.600622052 0.305902562
v -0.362237997 0.602533786 0.299145929
v -0.381993458 0.603760794 0.291944287
v -0.401617371 0.604306062 0.284311009
v -0.421075733 0.604151655 0.276246660
v -0.440332566 0.603284676 0.267756154
v -0.459369484 0.601745468 0.258875261
v -0.478162230 0.599543160 0.249619929
v -0.496651229 0.596608695 0.239964523
v -0.514837728 0.593020018 0.229963798
v -0.532696546 0.588781362 0.219630610
v -0.550161170 0.583830445 0.208946858
v -0.567254938 0.578263253 0.197971450
v -0.583912109 0.572023104 0.186689960
v -0.600127378 0.565153359 0.175135216
v -0.615879246 0.557666394 0.163324425
v -0.631116445 0.549542033 0.151263389
v -0.645862656 0.540847457 0.138990470
v -0.660029593 0.531524523 0.126499061
v -0.673675594 0.521670907 0.113835572
v -0.686687814 0.511212541 0.100991734
v -0.699145870 0.500257346 0.088012878
v -0.710926737 0.488732846 0.074895866
v -0.722116808 0.476741833 0.061679728
v -0.732597403 0.464225820 0.048369548
v -0.742447893 0.451272400 0.034996330
v -0.751566796 0.437844157 0.021573356
v -0.760015188 0.424008679 0.008124614
v -0.767718278 0.409751704 -0.005330661
v -0.774711660 0.395120704 -0.018772759
v -0.780952009 0.380122438 -0.032179881
v -0.786447537 0.364787862 -0.045533293
v -0.791185477 0.349139563 -0.058811969
v -0.795150747 0.333197946 -0.071995521
v -0.798354158 0.316994625 -0.085065780
v -0.800767516 0.300546223 -0.097999906
v -0.802412313 0.283886555 -0.110782364
v -0.803263070 0.267034415 -0.123389855
v -0.803333851 0.250020543 -0.135806122
v -0.802622395 0.232869511 -0.148012879
v -0.801113172 0.215606651 -0.159986120
v -0.798850937 0.198262315 -0.171721908
v -0.795765845 0.180858150 -0.183177569
v -0.791961818 0.163425660 -0.194371558
v -0.787329003 0.145989548 -0.205243378
v -0.781968618 0.128577302 -0.215813282
v -0.775861342 0.111214378 -0.226055735
v -0.768976271 0.093933165 -0.235935781
v -0.761388073 0.076752445 -0.245469446
v -0.753075937 0.059701976 -0.254627608
v -0.744025695 0.042815818 -0.263380735
v -0.734297694 0.026109346 -0.271741674
v -0.723899687 0.009608283 -0.279695381
v -0.712825037 -0.006654500 -0.287216162
v -0.701086345 -0.022650068 -0.294288645
v -0.688723220 -0.038362262 -0.300917057
v -0.675750851 -0.053765772 -0.307089627
v -0.662186373 -0.068835616 -0.312795594
v -0.648048770 -0.083547357 -0.318025330
v -0.633358747 -0.097877304 -0.322770423
v -0.618138575 -0.111802692 -0.327023747
v -0.602411920 -0.125301836 -0.330779502
v -0.586203658 -0.138354266 -0.334033241
v -0.569539691 -0.150940834 -0.336781861
v -0.552446746 -0.163043797 -0.339023591
v -0.534938132 -0.174627555 -0.340738928
v -0.517050315 -0.185684713 -0.341937220
v -0.498817771 -0.196209472 -0.342628152
v -0.480253211 -0.206159560 -0.342787421
v -0.461397334 -0.215540764 -0.342435295
v -0.442271101 -0.224320692 -0.341557671
v -0.422912120 -0.232505681 -0.340174012
v -0.403339653 -0.240051762 -0.338261544
v -0.383591593 -0.246967457 -0.335841402
v -0.363697286 -0.253238297 -0.332915360
v -0.343686918 -0.258850267 -0.329485857
v -0.323591680 -0.263792160 -0.325557694
v -0.303443243 -0.268055502 -0.321137764
v -0.283273314 -0.271634429 -0.316234784
v -0.263113718 -0.274518065 -0.310854032
v -0.242997187 -0.276694390 -0.305000340
v -0.222954859 -0.278171372 -0.298691724
v -0.203020370 -0.278932770 -0.291930378
v -0.183226233 -0.278977669 -0.284728606
v -0.163604270 -0.278306956 -0.277099604
v -0.144187342 -0.276917825 -0.269054327
v -0.125007694 -0.274810969 -0.260605778
v -0.106099955 -0.271982142 -0.251764325
v -0.087495616 -0.268436795 -0.242545624
v -0.069227732 -0.264177363 -0.232963627
v -0.051328065 -0.259209785 -0.223033944
v -0.033830798 -0.253536760 -0.212770564
v -0.016768811 -0.247164966 -0.202189350
v -0.000173476 -0.240104403 -0.191307479
v 0.015923247 -0.232365070 -0.180141888
v 0.031486434 -0.223954598 -0.168708429
v 0.046485512 -0.214887643 -0.157025615
v 0.060889299 -0.205179019 -0.145111665
v 0.074666229 -0.194844386 -0.132984833
v 0.087786378 -0.183902265 -0.120664048
v 0.100214487 -0.172368076 -0.108167106
v 0.111928673 -0.160269622 -0.095515103
v 0.122893326 -0.147624988 -0.082726145
v 0.133085279 -0.134462855 -0.069820831
v 0.142478007 -0.120810282 -0.056819003
v 0.151046659 -0.106696447 -0.043740741
v 0.158768541 -0.092152651 -0.030606318
v 0.165623116 -0.077212011 -0.017436111
v 0.171592023 -0.061909208 -0.004250554
v 0.176659129 -0.046280265 0.008929893
v 0.180809998 -0.030362184 0.022084726
v 0.184032806 -0.014193064 0.035193405
v 0.186320723 0.002187724 0.048235600
v 0.187668122 0.018740826 0.061191031
v 0.188072008 0.035426686 0.074039540
v 0.187528995 0.052205939 0.086760643
v 0.186045156 0.069038837 0.099334996
v 0.183626179 0.085886643 0.111743235
v 0.180274237 0.102710961 0.123965009
v 0.176002177 0.119474265 0.135981875
v 0.170821583 0.136139948 0.147775104
v 0.164745231 0.152672244 0.159326090
v 0.157789700 0.169036770 0.170617172
v 0.149969532 0.185199434 0.181629932
v 0.141305029 0.201128149 0.192347676
v 0.131814041 0.216790900 0.202752810
v 0.121520910 0.232158521 0.212830206
v 0.110447103 0.247201673 0.222563691
v 0.098617664 0.261893213 0.231938734
v 0.086054139 0.276204832 0.240939081
v 0.072783971 0.290111658 0.249551407
v 0.058833225 0.303588815 0.257761871
v 0.044232215 0.316614854 0.265559396
v 0.029006788 0.329165826 0.272930249
v 0.013185536 0.341219962 0.279862427
v -0.003200308 0.352758291 0.286346113
v -0.020117100 0.363765349 0.292374193
v -0.037542528 0.374213718 0.297929240
v -0.055434217 0.384098806 0.303012942
v -0.073771030 0.393390725 0.307605676
v -0.092510985 0.402087291 0.311710673
v -0.111623583 0.410171738 0.315318951
v -0.131076640 0.417629287 0.318423138
v -0.150836525 0.424447477 0.321017693
v -0.170868475 0.430616503 0.323099130
v -0.191137007 0.436129555 0.324666238
v -0.211606440 0.440983132 0.325720264
v -0.232244499 0.445161837 0.326253202
v -0.253016086 0.448655631 0.326261322
v -0.273883011 0.451483426 0.325762795
v -0.294814068 0.453603302 0.324729686
v -0.315771392 0.455050774 0.323192491
v -0.336720899 0.455803937 0.321138494
v -0.357626770 0.455858104 0.318567995
v -0.378455862 0.455232691 0.315498981
v -0.399174203 0.453925699 0.311933562
v -0.419745282 0.451928315 0.307869041
v -0.440133218 0.449241158 0.303309687
v -0.460307512 0.445881858 0.298271888
v -0.480234914 0.441855507 0.292762977
v -0.499882702 0.437168877 0.286791493
v -0.519218872 0.431830385 0.280367125
v -0.538212325 0.425850025 0.273500651
v -0.556833041 0.419239283 0.266203854
v -0.575046786 0.412003414 0.258484317
v -0.592815445 0.404144958 0.250348033
v -0.610121295 0.395693813 0.241819211
v -0.626939023 0.386666778 0.232913115
v -0.643244995 0.377081536 0.223645489
v -0.659010289 0.366949965 0.214028320
v -0.674175076 0.356258841 0.204058196
v -0.688755968 0.345064815 0.193775621
v -0.702735478 0.333388374 0.183197794
v -0.716052357 0.321219142 0.172323590
v -0.728698267 0.308589586 0.161178169
v -0.740687237 0.295541487 0.149791228
v -0.751950095 0.282065240 0.138163089
v -0.762485639 0.268195289 0.126319623
v -0.772320454 0.253974538 0.114290014
v -0.781347022 0.239383467 0.102071337
v -0.789631814 0.224483577 0.089702354
v -0.797145399 0.209289930 0.077197514
v -0.803826079 0.193811736 0.064570402
v -0.809752752 0.178102372 0.051852355
v -0.814809139 0.162156790 0.039052224
v -0.819073388 0.146024801 0.026198757
v -0.822508815 0.129723844 0.013308976
v -0.825083001 0.113277574 0.000404075
v -0.826874850 0.096723464 -0.012496501
v -0.827742775 0.080073243 -0.025368620
v -0.827823033 0.063367635 -0.038196646
v -0.827036704 0.046627349 -0.050956540
v -0.825404250 0.029882191 -0.063628261
v -0.822971751 0.013156619 -0.076198550
v -0.819636687 -0.003515870 -0.088631267
v -0.815519389 -0.020115769 -0.100924916
v -0.810561600 -0.036611030 -0.113049260
v -0.804774260 -0.052972901 -0.124984036
v -0.798218658 -0.069185639 -0.136724166
v -0.790823809 -0.085205257 -0.148229143
v -0.782655128 -0.101016579 -0.159494772
v -0.773743084 -0.116601345 -0.170510768
v -0.764039255 -0.131913258 -0.181237383
v -0.753596715 -0.146938476 -0.191670105
v -0.742448400 -0.161660580 -0.201800312
v -0.730599789 -0.176051717 -0.211607892
v -0.718029093 -0.190065585 -0.221056051
v -0.704803664 -0.203703140 -0.230152880
v -0.690940202 -0.216940876 -0.238882767
v -0.676457213 -0.229755576 -0.247230520
v -0.661375019 -0.242124496 -0.255181511
v -0.645705951 -0.254016861 -0.262714296
v -0.629483065 -0.265417937 -0.269821624
v -0.612738148 -0.276313846 -0.276496764
v -0.595497201 -0.286685863 -0.282728759
v -0.577787571 -0.296516435 -0.288507699
v -0.559637805 -0.305789310 -0.293824780
v -0.541077481 -0.314489630 -0.298672368
v -0.522129966 -0.322591915 -0.303034302
v -0.502829399 -0.330086059 -0.306907017
v -0.483211639 -0.336967419 -0.310291200
v -0.463309249 -0.343227504 -0.313184344
v -0.443151410 -0.348849443 -0.315577390
v -0.422765314 -0.353805344 -0.317452951
v -0.402194924 -0.358120480 -0.318834797
v -0.381464877 -0.361752844 -0.319694888
v -0.360615456 -0.364726973 -0.320056064
v -0.339675941 -0.367003366 -0.319892726
v -0.318684251 -0.368607348 -0.319228056
v -0.297673219 -0.369525459 -0.318056092
v -0.276678388 -0.369738991 -0.316367350
v -0.255734475 -0.369262992 -0.314177115
v -0.234876139 -0.368094607 -0.311487495
v -0.214138102 -0.366233866 -0.308302738
v -0.193554703 -0.363683477 -0.304629017
v -0.173164139 -0.360434380 -0.300464311
v -0.152998119 -0.356501646 -0.295823558
v -0.133088997 -0.351894371 -0.290717360
v -0.113478061 -0.346601858 -0.285142795
v -0.094193395 -0.340645239 -0.279118729
v -0.075269776 -0.334029767 -0.272653091
v -0.056742653 -0.326761421 -0.265754341
v -0.038646098 -0.318849828 -0.258433359
v -0.021012463 -0.310307703 -0.250702966
v -0.003872168 -0.301150326 -0.242577500
v 0.012741459 -0.291389868 -0.234069165
v 0.028795272 -0.281039802 -0.225190884
v 0.044257661 -0.270116320 -0.215957137
v 0.059100055 -0.258638930 -0.206384215
v 0.073291392 -0.246625524 -0.196487151
v 0.086803112 -0.234096888 -0.186282448
v 0.099602583 -0.221071916 -0.175785181
v 0.111665663 -0.207576248 -0.165014031
v 0.122961485 -0.193632137 -0.153985292
v 0.133466926 -0.179267323 -0.142717963
v 0.143155346 -0.164508463 -0.131229933
v 0.152002946 -0.149384690 -0.119539967
v 0.159988587 -0.133927117 -0.107667377
v 0.167084637 -0.118165762 -0.095630341
v 0.173280721 -0.102137261 -0.083450041
v 0.178549584 -0.085874208 -0.071144930
v 0.182882125 -0.069414945 -0.058735983
v 0.186263492 -0.052796976 -0.046243218
v 0.188681899 -0.036059253 -0.033686951
v 0.190128513 -0.019241834 -0.021087681
v 0.190597383 -0.002385590 -0.008465998
v 0.190085399 0.014468059 0.004157460
v 0.188592293 0.031277398 0.016762051
v 0.186120664 0.048000674 0.029327165
v 0.182676040 0.064596361 0.041832258
v 0.178266969 0.081023454 0.054256914
v 0.172900869 0.097240680 0.066580373
v 0.166594881 0.113209220 0.078782780
v 0.159367029 0.128891448 0.090844527
v 0.151229424 0.144248022 0.102744755
v 0.142209830 0.159245910 0.114465295
v 0.132325461 0.173848651 0.125985797
v 0.121602322 0.188024176 0.137287634
v 0.110068157 0.201742426 0.148352728
v 0.097748129 0.214972627 0.159162140
v 0.084671644 0.227687227 0.169698121
v 0.070873111 0.239863581 0.179945114
v 0.056377934 0.251472938 0.189883829
v 0.041220963 0.262494704 0.199498975
v 0.025436294 0.272908987 0.208775315
v 0.009058076 0.282697073 0.217697945
v -0.007882116 0.291837912 0.226250297
v -0.025347400 0.300317084 0.234419285
v -0.043300848 0.308121849 0.242192613
v -0.061705500 0.315240855 0.249558622
v -0.080529591 0.321654579 0.256500524
v -0.099732373 0.327359122 0.263010739
v -0.119277028 0.332345404 0.269078477
v -0.139128767 0.336599218 0.274689561
v -0.159246148 0.340123707 0.279840557
v -0.179591656 0.342915540 0.284524032
v -0.200130556 0.344959223 0.288724534
v -0.220822180 0.346263394 0.292442138
v -0.241628787 0.346829180 0.295672125
v -0.262513489 0.346651861 0.298405838
v -0.283438433 0.345728421 0.300635579
v -0.304365519 0.344070522 0.302363596
v -0.325257282 0.341678109 0.303584180
v -0.346075648 0.338553101 0.304292845
v -0.366784362 0.334710026 0.304493969
v -0.387348670 0.330162592 0.304191579
v -0.407729853 0.324907585 0.303377511
v -0.427891317 0.318955884 0.302053540
v -0.447803528 0.312333475 0.300232848
v -0.467422703 0.305031412 0.297902536
v -0.486722174 0.297080199 0.295079301
v -0.505672092 0.288499391 0.291771862
v -0.524220633 0.279274124 0.287962025
v -0.542354565 0.269451642 0.283679995
v -0.560041534 0.259046225 0.278930504
v -0.577249773 0.248073785 0.273719485
v -0.593937648 0.236541371 0.268045299
v -0.610083092 0.224477872 0.261924251
v -0.625662438 0.211908579 0.255369954
v -0.640648599 0.198855084 0.248392961
v -0.655015839 0.185340150 0.241004843
v -0.668739888 0.171387598 0.233218124
v -0.681798027 0.157022173 0.225046201
v -0.694169155 0.142269399 0.216503266
v -0.705832611 0.127154888 0.207603631
v -0.716745463 0.111695184 0.198351984
v -0.726910715 0.095928042 0.188774609
v -0.736313739 0.079881540 0.178888455
v -0.744941604 0.063583882 0.168710827
v -0.752783004 0.047063289 0.158259286
v -0.759815751 0.030345359 0.147547934
v -0.765994376 0.013453671 0.136585891
v -0.771354536 -0.003572834 0.125405313
v -0.775890932 -0.020705963 0.114024689
v -0.779589474 -0.037918448 0.102460509
v -0.782387898 -0.055182587 0.090722140
v -0.784348629 -0.072464458 0.078842439
v -0.785471249 -0.089736794 0.066840007
v -0.785706901 -0.106968559 0.054728566
v -0.785066306 -0.124128409 0.042531228
v -0.783589641 -0.141191496 0.030271200
v -0.781261214 -0.158128069 0.017966439
v -0.778033549 -0.174898028 0.005637068
v -0.773983302 -0.191485975 -0.006694551
v -0.769116609 -0.207866352 -0.019009975
v -0.763362233 -0.223987510 -0.031284849
v -0.756802065 -0.239841787 -0.043501302
v -0.749452794 -0.255406503 -0.055641253
v -0.741283381 -0.270638352 -0.067679865
v -0.732314141 -0.285511256 -0.079596174
v -0.722594363 -0.300016067 -0.091376348
v -0.712137007 -0.314128620 -0.103001881
v -0.700902680 -0.327790901 -0.114439186
v -0.688961398 -0.341007483 -0.125680643
v -0.676336305 -0.353759230 -0.136709631
v -0.663045272 -0.366023469 -0.147507938
v -0.649082605 -0.377756463 -0.158046600
v -0.634486297 -0.388946929 -0.168312106
v -0.619293548 -0.399586534 -0.178293104
v -0.603527600 -0.409655480 -0.187972558
v -0.587213121 -0.419134762 -0.197333766
v -0.570376203 -0.428006304 -0.206360462
v -0.553044333 -0.436253111 -0.215036906
v -0.535242050 -0.443852936 -0.223344257
v -0.517004530 -0.450797839 -0.231271807
v -0.498365526 -0.457079569 -0.238808868
v -0.479356490 -0.462686767 -0.245943005
v -0.460009754 -0.467609601 -0.252662698
v -0.440354168 -0.471828969 -0.258950678
v -0.420426153 -0.475341746 -0.264799406
v -0.400261562 -0.478145696 -0.270202059
v -0.379895348 -0.480237791 -0.275151423
v -0.359362502 -0.481616710 -0.279641461
v -0.338696934 -0.482275785 -0.283662682
v -0.317931472 -0.482188336 -0.287192206
v -0.297106390 -0.481390612 -0.290248764
v -0.276255805 -0.479867079 -0.292816888
v -0.255416059 -0.477612109 -0.294887526
v -0.234622788 -0.474645483 -0.296468980
v -0.213912965 -0.470956533 -0.297548732
v -0.193323123 -0.466553660 -0.298127280
v -0.172886416 -0.461454743 -0.298212046
v -0.152640869 -0.455656323 -0.297795310
v -0.132624822 -0.449161405 -0.296873707
v -0.112870120 -0.441991099 -0.295457081
v -0.093412075 -0.434155049 -0.293547022
v -0.074285138 -0.425665580 -0.291147063
v -0.055524660 -0.416534099 -0.288259990
v -0.037169210 -0.406768634 -0.284885839
v -0.019244085 -0.396397177 -0.281040041
v -0.001785114 -0.385431829 -0.276725746
v 0.015172941 -0.373887566 -0.271948173
v 0.031599121 -0.361784743 -0.266716679
v 0.047465650 -0.349146422 -0.261042849
v 0.062739312 -0.335990865 -0.254934171
v 0.077389246 -0.322339480 -0.248400501
v 0.091387145 -0.308216184 -0.241453642
v 0.104707334 -0.293646852 -0.234106964
v 0.117322459 -0.278656512 -0.226372854
v 0.129200581 -0.263268569 -0.218261725
v 0.140321731 -0.247513555 -0.209790326
v 0.150661273 -0.231419701 -0.200972900
v 0.160193779 -0.215015801 -0.191823631
v 0.168897226 -0.198332810 -0.182358309
v 0.176752815 -0.181403251 -0.172593886
v 0.183739101 -0.164259606 -0.162546420
v 0.189837470 -0.146935976 -0.152233001
v 0.195030591 -0.129467663 -0.141671181
v 0.199305682 -0.111891357 -0.130879626
v 0.202648123 -0.094244312 -0.119876448
v 0.205046783 -0.076565014 -0.108680532
v 0.206493716 -0.058892799 -0.097311248
v 0.206974979 -0.041268372 -0.085786994
v 0.206494490 -0.023732244 -0.074128835
v 0.205041885 -0.006327029 -0.062355698
v 0.202623451 0.010905957 -0.050488435
v 0.199240348 0.027924130 -0.038547111
v 0.194893712 0.044683658 -0.026551959
v 0.189595960 0.061143090 -0.014523795
v 0.183357990 0.077260342 -0.002483187
v 0.176193740 0.092993992 0.009549249
v 0.168120143 0.108303577 0.021552900
v 0.159157064 0.123149886 0.033507217
v 0.149325636 0.137494266 0.045391610
v 0.138649490 0.151299347 0.057185476
v 0.127159196 0.164532757 0.068868984
v 0.114882367 0.177160714 0.080421913
v 0.101849257 0.189151618 0.091824200
v 0.088093602 0.200477490 0.103056392
v 0.073651033 0.211113155 0.114099540
v 0.058555985 0.221033114 0.124934313
v 0.042844925 0.230214717 0.135541844
v 0.026556267 0.238638685 0.145903988
v 0.009730219 0.246289702 0.156003667
v -0.007595326 0.253150392 0.165822822
v -0.025379358 0.259209455 0.175345253
v -0.043583748 0.264451546 0.184552945
v -0.062165534 0.268872164 0.193431823
v -0.081084327 0.272463663 0.201966453
v -0.100298839 0.275222504 0.210142949
v -0.119770611 0.277136968 0.217943527
v -0.139455574 0.278216302 0.225359648
v -0.159314968 0.278452263 0.232374688
v -0.179306688 0.277854490 0.238980373
v -0.199391055 0.276422814 0.245163659
v -0.219527922 0.274160422 0.250912954
v -0.239677126 0.271074144 0.256218453
v -0.259799067 0.267174717 0.261072497
v -0.279855416 0.262476986 0.265469950
v -0.299805791 0.256977746 0.269395027
v -0.319614639 0.250706567 0.272851323
v -0.339240399 0.243658793 0.275821641
v -0.358650117 0.235866266 0.278311542
v -0.377806706 0.227341089 0.280314353
v -0.396673463 0.218097951 0.281824873
v -0.415214424 0.208154141 0.282839525
v -0.433394773 0.197529531 0.283356493
v -0.451181272 0.186246475 0.283375837
v -0.468542727 0.174329652 0.282899578
v -0.485450477 0.161805823 0.281931748
v -0.501875714 0.148700075 0.280475413
v -0.517769724 0.135017763 0.278515761
v -0.533131616 0.120813921 0.276082090
v -0.547907967 0.106091042 0.273156314
v -0.562098930 0.090899535 0.269765603
v -0.575645701 0.075242859 0.265890422
v -0.588559332 0.059174943 0.261563791
v -0.600795004 0.042711495 0.256777842
v -0.612327199 0.025882219 0.251539262
v -0.623153948 0.008727560 0.245869073
v -0.633253696 -0.008722956 0.239775309
v -0.642602635 -0.026439851 0.233265153
v -0.651166151 -0.044395229 0.226341014
v -0.658950491 -0.062549120 0.219026658
v -0.665940865 -0.080868866 0.211334268
v -0.672124222 -0.099321298 0.203276943
v -0.677489300 -0.117872857 0.194868637
v -0.682026637 -0.136489737 0.186124102
v -0.685728581 -0.155138013 0.177058811
v -0.688589281 -0.173783764 0.167688892
v -0.690604644 -0.192393189 0.158031057
v -0.691772306 -0.210932709 0.148102521
v -0.692091562 -0.229369065 0.137920939
v -0.691562385 -0.247669202 0.127504103
v -0.690159337 -0.265793823 0.116863920
v -0.687911707 -0.283714593 0.106026312
v -0.684825306 -0.301399813 0.095010463
v -0.680907294 -0.318818425 0.083835707
v -0.676166101 -0.335940018 0.072521498
v -0.670611356 -0.352734830 0.061087363
v -0.664237259 -0.369165613 0.049551260
v -0.657046269 -0.385196331 0.037933494
v -0.649077978 -0.400810766 0.026257195
v -0.640347060 -0.415981921 0.014542245
v -0.630869169 -0.430683455 0.002808518
v -0.620660924 -0.444889668 -0.008924111
v -0.609702567 -0.458545796 -0.020633338
v -0.598051555 -0.471653469 -0.032299163
v -0.585729906 -0.484190929 -0.043901876
v -0.572758710 -0.496135746 -0.055421744
v -0.559160054 -0.507466220 -0.066839080
v -0.544949789 -0.518153174 -0.078132439
v -0.530142493 -0.528162615 -0.089278254
v -0.514785002 -0.537498589 -0.100261717
v -0.498903681 -0.546143559 -0.111063844
v -0.482525927 -0.554081009 -0.121665838
v -0.465680169 -0.561295534 -0.132049136
v -0.448395864 -0.567772929 -0.142195450
v -0.430703474 -0.573500283 -0.152086839
v -0.412634425 -0.578466075 -0.161705770
v -0.394221048 -0.582660266 -0.171035183
v -0.375496507 -0.586074379 -0.180058580
v -0.356494705 -0.588701584 -0.188760076
v -0.337250179 -0.590536747 -0.197124497
v -0.317797982 -0.591576496 -0.205137433
v -0.298173551 -0.591819249 -0.212785308
v -0.278412573 -0.591265229 -0.220055448
v -0.258550837 -0.589916478 -0.226936124
v -0.238624090 -0.587776831 -0.233416605
v -0.218667894 -0.584851898 -0.239487189
v -0.198717886 -0.581141430 -0.245135030
v -0.178812220 -0.576628774 -0.250337625
v -0.158984970 -0.571355407 -0.255105057
v -0.139270127 -0.565332326 -0.259431148
v -0.119712435 -0.558525005 -0.263281535
v -0.100336108 -0.550997878 -0.266682164
v -0.081186932 -0.542725132 -0.269603009
v -0.062289114 -0.533752806 -0.272060204
v -0.043691700 -0.524060577 -0.274025554
v -0.025415046 -0.513697479 -0.275518193
v -0.007497422 -0.502669700 -0.276527973
v 0.010019180 -0.490983204 -0.277043348
v 0.027111356 -0.478673990 -0.277075425
v 0.043745681 -0.465760739 -0.276622515
v 0.059889998 -0.452264809 -0.275684818
v 0.075513739 -0.438209882 -0.274264344
v 0.090588157 -0.423621606 -0.272364804
v 0.105082786 -0.408524297 -0.269988579
v 0.118961534 -0.392939012 -0.267134325
v 0.132212604 -0.376905180 -0.263819062
v 0.144795768 -0.360441928 -0.260038908
v 0.156700164 -0.343587409 -0.255810465
v 0.167882075 -0.326361826 -0.251129116
v 0.178332267 -0.308804068 -0.246012316
v 0.188026370 -0.290945044 -0.240467840
v 0.196942682 -0.272817463 -0.234505274
v 0.205062663 -0.254455481 -0.228135966
v 0.212363907 -0.235892806 -0.221369516
v 0.218829050 -0.217165149 -0.214218199
v 0.224448192 -0.198309709 -0.206697545
v 0.229203109 -0.179362650 -0.198819337
v 0.233077193 -0.160361585 -0.190596420
v 0.236064364 -0.141345166 -0.182045665
v 0.238154483 -0.122352158 -0.173182210
v 0.239334776 -0.103422493 -0.164020448
v 0.239601855 -0.084596274 -0.154577844
v 0.238953613 -0.065913780 -0.144871984
v 0.237383982 -0.047416745 -0.134919233
v 0.234891423 -0.029147267 -0.124737253
v 0.231480543 -0.011146593 -0.114345009
v 0.227154679 0.006542981 -0.103760936
v 0.221920663 0.023879437 -0.093004049
v 0.215782302 0.040818217 -0.082092794
v 0.208756359 0.057319591 -0.071047641
v 0.200855558 0.073341353 -0.059888136
v 0.192094994 0.088841451 -0.048634082
v 0.182494310 0.103779569 -0.037305717
v 0.172077842 0.118118131 -0.025923460
v 0.160866290 0.131815958 -0.014507485
v 0.148888561 0.144837519 -0.003078386
v 0.136175746 0.157149212 0.008343387
v 0.122759876 0.168718242 0.019737461
v 0.108671534 0.179509327 0.031083127
v 0.093950761 0.189498062 0.042360284
v 0.078636303 0.198659594 0.053548960
v 0.062763414 0.206963445 0.064628224
v 0.046378720 0.214397532 0.075579427
v 0.029519773 0.220935233 0.086381632
v 0.012232576 0.226566208 0.097016306
v -0.005439339 0.231277200 0.107464343
v -0.023452038 0.235057038 0.117706791
v -0.041760810 0.237898139 0.127725237
v -0.060320474 0.239796930 0.137502049
v -0.079086184 0.240752058 0.147020044
v -0.098014364 0.240756868 0.156260170
v -0.117059325 0.239822269 0.165208404
v -0.136177634 0.237951039 0.173848260
v -0.155326009 0.235146920 0.182163248
v -0.174461322 0.231418361 0.190138252
v -0.193541064 0.226776485 0.197759013
v -0.212524000 0.221237728 0.205013399
v -0.231370014 0.214818406 0.211889421
v -0.250037261 0.207525469 0.218370649
v -0.268488026 0.199384081 0.224448805
v -0.286684400 0.190414029 0.230113358
v -0.304588356 0.180633819 0.235353054
v -0.322163160 0.170065247 0.240158222
v -0.339373932 0.158733405 0.244521061
v -0.356188301 0.146666588 0.248435946
v -0.372570275 0.133886024 0.251892901
v -0.388487129 0.120419191 0.254885594
v -0.403911584 0.106299675 0.257412353
v -0.418813974 0.091556805 0.259468782
v -0.433156880 0.076212036 0.261043898
v -0.446922491 0.060307502 0.262143378
v -0.460082937 0.043873658 0.262763892
v -0.472612232 0.026942898 0.262903651
v -0.484486593 0.009549352 0.262562506
v -0.495684749 -0.008271396 0.261742005
v -0.506188235 -0.026482640 0.260445434
v -0.515981655 -0.045046959 0.258677818
v -0.525021130 -0.063938383 0.256426181
v -0.533318904 -0.083107065 0.253713402
v -0.540861291 -0.102516786 0.250544894
v -0.547603265 -0.122137708 0.246908374
v -0.553579356 -0.141920961 0.242837405
v -0.558725002 -0.161837856 0.238309616
v -0.563081151 -0.181842587 0.233360707
v -0.566610840 -0.201899781 0.227984236
v -0.569310495 -0.221969963 0.222191686
v -0.571196837 -0.242015160 0.216004110
v -0.572249702 -0.261996710 0.209424491
v -0.572452990 -0.281873692 0.202458587
v -0.571832858 -0.301611227 0.195131093
v -0.570388789 -0.321172086 0.187454253
v -0.568122124 -0.340519128 0.179441214
v -0.565036080 -0.359615433 0.171105974
v -0.561124902 -0.378420091 0.162459423
v -0.556402340 -0.396898547 0.153519999
v -0.550884678 -0.415018414 0.144306660
v -0.544582292 -0.432745297 0.134836113
v -0.537507212 -0.450045576 0.125125634
v -0.529673079 -0.466886500 0.115192992
v -0.521095062 -0.483236251 0.105056411
v -0.511789803 -0.499064015 0.094734510
v -0.501775351 -0.514340026 0.084246242
v -0.491071084 -0.529035619 0.073610864
v -0.479697655 -0.543123259 0.062847875
v -0.467676925 -0.556576572 0.051976980
v -0.455031904 -0.569370376 0.041018064
v -0.441785082 -0.581478701 0.029991003
v -0.427955775 -0.592870522 0.018915800
v -0.413578311 -0.603533566 0.007813607
v -0.398680121 -0.613447973 -0.003295310
v -0.383289516 -0.622595220 -0.014390700
v -0.367435649 -0.630958145 -0.025452345
v -0.351148485 -0.638520968 -0.036460109
v -0.334458758 -0.645269325 -0.047393946
v -0.317397936 -0.651190300 -0.058233936
v -0.299998189 -0.656272464 -0.068960329
v -0.282292337 -0.660505920 -0.079553564
v -0.264313803 -0.663882345 -0.089994316
v -0.246096569 -0.666395041 -0.100263547
v -0.227675099 -0.668038977 -0.110342540
v -0.209084276 -0.668810837 -0.120212953
v -0.190359324 -0.668709053 -0.129856884
v -0.171535714 -0.667733848 -0.139256906
v -0.152649073 -0.665887255 -0.148396141
v -0.133735084 -0.663173134 -0.157258308
v -0.114829365 -0.659597183 -0.165827777
v -0.095967373 -0.655166926 -0.174089634
v -0.077185237 -0.649884664 -0.182026893
v -0.058521579 -0.643744663 -0.189618664
v -0.040008898 -0.636781321 -0.196860533
v -0.021681070 -0.629009521 -0.203740875
v -0.003571183 -0.620445780 -0.210249022
v 0.014275791 -0.611073771 -0.216357497
v 0.031833954 -0.600937055 -0.222068244
v 0.049076254 -0.590066567 -0.227378437
v 0.065949510 -0.578439950 -0.232254612
v 0.082442692 -0.566120888 -0.236712791
v 0.098508642 -0.553104957 -0.240728512
v 0.114129690 -0.539436253 -0.244308010
v 0.129258274 -0.525116873 -0.247428862
v 0.143885150 -0.510198572 -0.250104011
v 0.157965878 -0.494690060 -0.252314817
v 0.171474570 -0.478623640 -0.254059612
v 0.184391826 -0.462035865 -0.255341340
v 0.196689436 -0.444954874 -0.256155829
v 0.208341000 -0.427411207 -0.256500616
v 0.219322189 -0.409437429 -0.256374930
v 0.229610909 -0.391067733 -0.255779643
v 0.239187428 -0.372337587 -0.254717200
v 0.248034428 -0.353283365 -0.253191524
v 0.256126894 -0.333938685 -0.251201858
v 0.263445235 -0.314340264 -0.248751111
v 0.269987144 -0.294529611 -0.245852166
v 0.275718867 -0.274540239 -0.242499919
v 0.280640122 -0.254414063 -0.238708293
v 0.284738258 -0.234189783 -0.234484069
v 0.287999045 -0.213906709 -0.229833396
v 0.290411941 -0.193605242 -0.224764487
v 0.291969933 -0.173326286 -0.219287333
v 0.292669334 -0.153110763 -0.213413418
v 0.292509535 -0.132999230 -0.207155462
v 0.291476644 -0.113035002 -0.200520441
v 0.289583713 -0.093257009 -0.193526823
v 0.286815290 -0.073711131 -0.186181205
v 0.283185029 -0.054436583 -0.178501952
v 0.278695190 -0.035475859 -0.170502638
v 0.273351856 -0.016870951 -0.162198210
v 0.267163416 0.001336398 -0.153604293
v 0.260133821 0.019100939 -0.144735007
v 0.252286219 0.036387208 -0.135610436
v 0.243623499 0.053146908 -0.126244162
v 0.234170325 0.069344434 -0.116656115
v 0.223943363 0.084938273 -0.106863562
v 0.212962997 0.099888342 -0.096884615
v 0.201252887 0.114156151 -0.086737979
v 0.188839580 0.127704909 -0.076442755
v 0.175752197 0.140499591 -0.066018298
v 0.162016662 0.152499623 -0.055483295
v 0.147671541 0.163678981 -0.044858352
v 0.132748587 0.174001777 -0.034162815
v 0.117287475 0.183442589 -0.023416901
v 0.101324821 0.191969676 -0.012640490
v 0.084905150 0.199565141 -0.001853825
v 0.068067877 0.206199631 0.008922948
v 0.050860106 0.211860484 0.019669777
v 0.033326379 0.216529037 0.030366558
v 0.015513303 0.220191692 0.040993245
v -0.002531253 0.222840289 0.051530158
v -0.020759565 0.224467002 0.061957560
v -0.039123593 0.225065899 0.072255698
v -0.057574597 0.224640216 0.082405895
v -0.076064717 0.223190587 0.092389038
v -0.094546208 0.220720994 0.102186305
v -0.112971758 0.217238990 0.111779305
v -0.131294872 0.212755930 0.121150261
v -0.149470364 0.207287196 0.130282260
v -0.167453552 0.200846783 0.139157943
v -0.185200525 0.193451115 0.147760302
v -0.202669265 0.185121486 0.156073619
v -0.219819613 0.175882237 0.164083157
v -0.236611293 0.165755406 0.171773352
v -0.253005787 0.154766443 0.179129677
v -0.268966895 0.142944256 0.186138951
v -0.284461407 0.130321172 0.192789691
v -0.299450093 0.116919339 0.199065510
v -0.313908584 0.102782246 0.204960520
v -0.327796526 0.087930620 0.210457004
v -0.341092506 0.072408748 0.215550220
v -0.353767354 0.056250059 0.220229632
v -0.365794356 0.039490429 0.224486137
v -0.377149716 0.022167973 0.228312306
v -0.387813053 0.004322707 0.231702613
v -0.397759448 -0.014008986 0.234648512
v -0.406966936 -0.032788046 0.237143251
v -0.415430395 -0.051967171 0.239190008
v -0.423116219 -0.071513881 0.240774779
v -0.430022374 -0.091380620 0.241902248
v -0.436138274 -0.111525196 0.242571791
v -0.441447568 -0.131907375 0.242779387
v -0.445933400 -0.152485928 0.242520806
v -0.449598094 -0.173215533 0.241802574
v -0.452435467 -0.194053697 0.240626264
v -0.454441664 -0.214957853 0.238994679
v -0.455600114 -0.235885211 0.236903769
v -0.455922348 -0.256792210 0.234364680
v -0.455413415 -0.277637067 0.231384849
v -0.454081272 -0.298379476 0.227973090
v -0.451894645 -0.318971207 0.224117966
v -0.448897517 -0.339377676 0.219847027
v -0.445080713 -0.359554975 0.215160230
v -0.440451806 -0.379461597 0.210066276
v -0.435027187 -0.399060268 0.204578129
v -0.428817775 -0.418311574 0.198706047
v -0.421824889 -0.437171185 0.192455657
v -0.414092096 -0.455617406 0.185852814
v -0.405596956 -0.473590631 0.178892050
v -0.396381439 -0.491069850 0.171598276
v -0.386471400 -0.508026675 0.163988551
v -0.375873755 -0.524417784 0.156071399
v -0.364599144 -0.540199714 0.147857349
v -0.352691104 -0.555359797 0.139371237
v -0.340171933 -0.569867617 0.130628429
v -0.327065415 -0.583694023 0.121644948
v -0.313395107 -0.596808953 0.112436794
v -0.299175624 -0.609167682 0.103016786
v -0.284451084 -0.620766495 0.093409067
v -0.269250255 -0.631582250 0.083631675
v -0.253602971 -0.641593398 0.073703049
v -0.237540055 -0.650780041 0.063641966
v -0.221093230 -0.659123966 0.053467500
v -0.204295027 -0.666608684 0.043198980
v -0.187178719 -0.673219459 0.032855919
v -0.169778224 -0.678943335 0.022457986
v -0.152128026 -0.683769154 0.012024955
v -0.134263095 -0.687687575 0.001576655
v -0.116216886 -0.690678774 -0.008866757
v -0.098027752 -0.692747526 -0.019285197
v -0.079731949 -0.693891308 -0.029658913
v -0.061365649 -0.694108014 -0.039968257
v -0.042965137 -0.693397416 -0.050193728
v -0.024566725 -0.691761174 -0.060316020
v -0.006206676 -0.689202837 -0.070316083
v 0.012078896 -0.685727846 -0.080175157
v 0.030254119 -0.681343528 -0.089874820
v 0.048283446 -0.676059078 -0.099397056
v 0.066131289 -0.669883652 -0.108723823
v 0.083755514 -0.662804755 -0.117831193
v 0.101127296 -0.654863067 -0.126708251
v 0.118213187 -0.646075201 -0.135338962
v 0.134980578 -0.636459502 -0.143707931
v 0.151397783 -0.626035977 -0.151800466
v 0.167414305 -0.614789189 -0.159587919
v 0.183015367 -0.602777038 -0.167068839
v 0.198173624 -0.590026593 -0.174231672
v 0.212845110 -0.576540767 -0.181053337
v 0.227002519 -0.562350344 -0.187522737
v 0.240635619 -0.547505241 -0.193640024
v 0.253682557 -0.531994228 -0.199371068
v 0.266153068 -0.515887152 -0.204728889
v 0.277992500 -0.499186224 -0.209684735
v 0.289205588 -0.481949403 -0.214247669
v 0.299734026 -0.464182178 -0.218387394
v 0.309589930 -0.445944828 -0.222117193
v 0.318736503 -0.427260740 -0.225420234
v 0.327147153 -0.408163496 -0.228286277
v 0.334819226 -0.388698936 -0.230719176
v 0.341732913 -0.368903007 -0.232712575
v 0.347870685 -0.348813569 -0.234261567
v 0.353217484 -0.328470025 -0.235362728
v 0.357760811 -0.307912931 -0.236014138
v 0.361490792 -0.287183631 -0.236215355
v 0.364400176 -0.266323907 -0.235967376
v 0.366484297 -0.245375654 -0.235272578
v 0.367735472 -0.224380558 -0.234131706
v 0.368136173 -0.203381325 -0.232540397
v 0.367708970 -0.182419963 -0.230515402
v 0.366423114 -0.161541542 -0.228045582
v 0.364303966 -0.140786445 -0.225148905
v 0.361346343 -0.120197974 -0.221827467
v 0.357543242 -0.099822047 -0.218082624
v 0.352911045 -0.079698988 -0.213927397
v 0.347455927 -0.059871509 -0.209369585
v 0.341184837 -0.040382762 -0.204417329
v 0.334103581 -0.021277546 -0.199078208
v 0.326233706 -0.002593183 -0.193367165
v 0.317584280 0.015626278 -0.187293089
v 0.308172976 0.033341072 -0.180868762
v 0.298012664 0.050507061 -0.174104636
v 0.287128284 0.067088394 -0.167016439
v 0.275539545 0.083044774 -0.159617295
v 0.263269583 0.098337807 -0.151921625
v 0.250344472 0.112931175 -0.143944850
v 0.236788552 0.126785283 -0.135701381
v 0.222632469 0.139866575 -0.127207989
v 0.207907959 0.152142097 -0.118481537
v 0.192648593 0.163580677 -0.109539260
v 0.176885427 0.174144587 -0.100397049
v 0.160658686 0.183810215 -0.091074054
v 0.144006541 0.192549384 -0.081588197
v 0.126969420 0.200336702 -0.071957882
v 0.109589472 0.207148919 -0.062201784
v 0.091909409 0.212960866 -0.052338445
v 0.073976285 0.217759770 -0.042387613
v 0.055836812 0.221531415 -0.032368573
v 0.037537631 0.224254973 -0.022300371
v 0.019128854 0.225929158 -0.012202910
v 0.000659665 0.226543051 -0.002095646
v -0.017819630 0.226094002 0.008001782
v -0.036258686 0.224584273 0.018069876
v -0.054606555 0.222011377 0.028088872
v -0.072813789 0.218389144 0.038039769
v -0.090829613 0.213720591 0.047902824
v -0.108605232 0.208020896 0.057659074
v -0.126093036 0.201307651 0.067289857
v -0.143245832 0.193598529 0.076776440
v -0.160017689 0.184914342 0.086100346
v -0.176364281 0.175279096 0.095243460
v -0.192243285 0.164720034 0.104188173
v -0.207614847 0.153267642 0.112917556
v -0.222440636 0.140953488 0.121414960
v -0.236679773 0.127805235 0.129662267
v -0.250303136 0.113865679 0.137645998
v -0.263275434 0.099167958 0.145349683
v -0.275563675 0.083748018 0.152757464
v -0.287142843 0.067649134 0.159856593
v -0.297986634 0.050911858 0.166633461
v -0.308070648 0.033577682 0.173074992
v -0.317367063 0.015685642 0.179166269
v -0.325866063 -0.002713787 0.184900154
v -0.333541516 -0.021581463 0.190261969
v -0.340387453 -0.040867388 0.195245933
v -0.346376978 -0.060532278 0.199836502
v -0.351506836 -0.080526299 0.204028780
v -0.355767846 -0.100803324 0.207815023
v -0.359152489 -0.121317144 0.211188126
v -0.361656953 -0.142021121 0.214142616
v -0.363268770 -0.162870075 0.216668729
v -0.363992353 -0.183816040 0.218764667
v -0.363840127 -0.204812505 0.220432598
v -0.362785975 -0.225813681 0.221655621
v -0.360865521 -0.246774096 0.222447258
v -0.358062221 -0.267646937 0.222795074
v -0.354391437 -0.288387412 0.222702499
v -0.349867804 -0.308952034 0.222172660
v -0.344499872 -0.329296571 0.221205565
v -0.338298888 -0.349377231 0.219802541
v -0.331278772 -0.369150974 0.217966264
v -0.323456054 -0.388575834 0.215700768
v -0.314849793 -0.407611256 0.213011432
v -0.305481405 -0.426218411 0.209904942
v -0.295374465 -0.444360509 0.206389224
v -0.284551299 -0.462000620 0.202471554
v -0.273016085 -0.479085992 0.198148699
v -0.260820093 -0.495601732 0.193444324
v -0.247985286 -0.511511854 0.188365578
v -0.234520677 -0.526763366 0.182911535
v -0.220486961 -0.541360704 0.177112401
v -0.205875566 -0.555226681 0.170956164
v -0.190758408 -0.568387118 0.164480673
v -0.175128619 -0.580757883 0.157674044
v -0.159051912 -0.592365600 0.150571156
v -0.142543233 -0.603153955 0.143173613
v -0.125642310 -0.613109564 0.135499506
v -0.108393068 -0.622233582 0.127570458
v -0.090815052 -0.630464220 0.119389754
v -0.072956443 -0.637814707 0.110982313
v -0.054856140 -0.644279796 0.102366639
v -0.036546077 -0.649824946 0.093554843
v -0.018063971 -0.654431141 0.084563436
v 0.000547142 -0.658115976 0.075415255
v 0.019250014 -0.660871294 0.066127686
v 0.038007294 -0.662677279 0.056716973
v 0.056779371 -0.663515069 0.047200556
v 0.075526854 -0.663411790 0.037600443
v 0.094211911 -0.662367420 0.027935119
v 0.112796796 -0.660383955 0.018223223
v 0.131240233 -0.657445620 0.008483303
v 0.149503032 -0.653559951 -0.001264743
v 0.167551194 -0.648753886 -0.011001581
v 0.185348355 -0.643037404 -0.020708458
v 0.202858731 -0.636422409 -0.030366718
v 0.220038643 -0.628901779 -0.039955790
v 0.236853000 -0.620495557 -0.049456535
v 0.253274567 -0.611238406 -0.058852177
v 0.269270777 -0.601149649 -0.068124905
v 0.284806531 -0.590244556 -0.077256093
v 0.299832162 -0.578518512 -0.086222040
v 0.314337806 -0.566029904 -0.095012065
v 0.328295543 -0.552804680 -0.103609987
v 0.341661102 -0.538850084 -0.111993573
v 0.354406742 -0.524196371 -0.120146313
v 0.366525482 -0.508894007 -0.128059770
v 0.377972938 -0.492954709 -0.135711247
v 0.388725626 -0.476412532 -0.143085966
v 0.398786741 -0.459321447 -0.150180104
v 0.408086318 -0.441680296 -0.156959894
v 0.416657044 -0.423561697 -0.163433987
v 0.424438339 -0.404976034 -0.169572041
v 0.431451905 -0.385982619 -0.175378727
v 0.437640536 -0.366599699 -0.180824603
v 0.443033650 -0.346886196 -0.185918143
v 0.447583269 -0.326868065 -0.190633635
v 0.451296601 -0.306593594 -0.194969888
v 0.454172132 -0.286105490 -0.198922052
v 0.456191554 -0.265442825 -0.202477523
v 0.457340175 -0.244647767 -0.205625163
v 0.457629838 -0.223765896 -0.208366338
v 0.457056422 -0.202839932 -0.210694981
v 0.455618510 -0.181913238 -0.212606281
v 0.453317396 -0.161029473 -0.214096718
v 0.450157063 -0.140232274 -0.215164075
v 0.446144113 -0.119564946 -0.215807424
v 0.441279710 -0.099072233 -0.216023085
v 0.435568803 -0.078799186 -0.215809159
v 0.429036755 -0.058784611 -0.215174185
v 0.421684133 -0.039074995 -0.214113985
v 0.413528168 -0.019711545 -0.212632899
v 0.404581909 -0.000737694 -0.210733001
v 0.394870404 0.017809702 -0.208422747
v 0.384401026 0.035883043 -0.205700969
v 0.373198675 0.053444303 -0.202575821
v 0.361288010 0.070455945 -0.199055300
v 0.348692209 0.086879145 -0.195146478
v 0.335437231 0.102676989 -0.190857842
v 0.321543546 0.117805619 -0.186194404
v 0.307046815 0.132236554 -0.181169889
v 0.291978076 0.145936893 -0.175795185
v 0.276362999 0.158864855 -0.170077484
v 0.260239732 0.170994796 -0.164031424
v 0.243643010 0.182296237 -0.157669266
v 0.226608012 0.192737694 -0.151003097
v 0.209172546 0.202290703 -0.144046279
v 0.191376545 0.210929868 -0.136813201
v 0.173261626 0.218632829 -0.129319054
v 0.154870730 0.225380213 -0.121579647
v 0.136244988 0.231140917 -0.113608076
v 0.117432506 0.235911195 -0.105423690
v 0.098477298 0.239661871 -0.097040255
v 0.079428085 0.242388208 -0.088476424
v 0.060332988 0.244078352 -0.079749206
v 0.041241245 0.244723211 -0.070876029
v 0.022202977 0.244317257 -0.061874759
v 0.003268871 0.242858409 -0.052763577
v -0.015510086 0.240347928 -0.043560887
v -0.034082835 0.236790304 -0.034285233
v -0.052398459 0.232193176 -0.024955261
v -0.070404246 0.226561205 -0.015589565
v -0.088051250 0.219913300 -0.006207189
v -0.105290326 0.212267069 0.003173088
v -0.122072210 0.203640788 0.012532474
v -0.138347439 0.194054061 0.021851986
v -0.154072553 0.183537834 0.031113130
v -0.169203135 0.172120546 0.040297377
v -0.183696493 0.159833342 0.049386315
v -0.197511901 0.146710022 0.058361685
v -0.210610869 0.132786976 0.067205439
v -0.222957442 0.118103104 0.075899814
v -0.234518528 0.102699689 0.084427422
v -0.245264262 0.086620248 0.092771387
v -0.255168409 0.069910307 0.100915480
v -0.264204575 0.052614578 0.108843226
v -0.272347296 0.034778411 0.116538034
v -0.279581288 0.016452391 0.123985782
v -0.285890755 -0.002314459 0.131172077
v -0.291252891 -0.021476254 0.138080169
v -0.295663284 -0.040979913 0.144698452
v -0.299112788 -0.060775456 0.151013819
v -0.301596075 -0.080812425 0.157014187
l 1 2
l 2 3
l 3 4
l 4 5
l 5 6
l 6 7
l 7 8
l 8 9
l 9 10
l 10 11
l 11 12
l 12 13
l 13 14
l 14 15
l 15 16
l 16 17
l 17 18
l 18 19
l 19 20
l 20 21
l 21 22
l 22 23
l 23 24
l 24 25
l 25 26
l 26 27
l 27 28
l 28 29
l 29 30
l 30 31
l 31 32
l 32 33
l 33 34
l 34 35
l 35 36
l 36 37
l 37 38
l 38 39
l 39 40
l 40 41
l 41 42
l 42 43
l 43 44
l 44 45
l 45 46
l 46 47
l 47 48
l 48 49
l 49 50
l 50 51
l 51 52
l 52 53
l 53 54
l 54 55
l 55 56
l 56 57
l 57 58
l 58 59
l 59 60
l 60 61
l 61 62
l 62 63
l 63 64
l 64 65
l 65 66
l 66 67
l 67 68
l 68 69
l 69 70
l 70 71
l 71 72
l 72 73
l 73 74
l 74 75
l 75 76
l 76 77
l 77 78
l 78 79
l 79 80
l 80 81
l 81 82
l 82 83
l 83 84
l 84 85
l 85 86
l 86 87
l 87 88
l 88 89
l 89 90
l 90 91
l 91 92
l 92 93
l 93 94
l 94 95
l 95 96
l 96 97
l 97 98
l 98 99
l 99 100
l 100 101
l 101 102
l 102 103
l 103 104
l 104 105
l 105 106
l 106 107
l 107 108
l 108 109
l 109 110
l 110 111
l 111 112
l 112 113
l 113 114
l 114 115
l 115 116
l 116 117
l 117 118
l 118 119
l 119 120
l 120 121
l 121 122
l 122 123
l 123 124
l 124 125
l 125 126
l 126 127
l 127 128
l 128 129
l 129 130
l 130 131
l 131 132
l 132 133
l 133 134
l 134 135
l 135 136
l 136 137
l 137 138
l 138 139
l 139 140
l 140 141
l 141 142
l 142 143
l 143 144
l 144 145
l 145 146
l 146 147
l 147 148
l 148 149
l 149 150
l 150 151
l 151 152
l 152 153
l 153 154
l 154 155
l 155 156
l 156 157
l 157 158
l 158 159
l 159 160
l 160 161
l 161 162
l 162 163
l 163 164
l 164 165
l 165 166
l 166 167
l 167 168
l 168 169
l 169 170
l 170 171
l 171 172
l 172 173
l 173 174
l 174 175
l 175 176
l 176 177
l 177 178
l 178 179
l 179 180
l 180 181
l 181 182
l 182 183
l 183 184
l 184 185
l 185 186
l 186 187
l 187 188
l 188 189
l 189 190
l 190 191
l 191 192
l 192 193
l 193 194
l 194 195
l 195 196
l 196 197
l 197 198
l 198 199
l 199 200
l 200 201
l 201 202
l 202 203
l 203 204
l 204 205
l 205 206
l 206 207
l 207 208
l 208 209
l 209 210
l 210 211
l 211 212
l 212 213
l 213 214
l 214 215
l 215 216
l 216 217
l 217 218
l 218 219
l 219 220
l 220 221
l 221 222
l 222 223
l 223 224
l 224 225
l 225 226
l 226 227
l 227 228
l 228 229
l 229 230
l 230 231
l 231 232
l 232 233
l 233 234
l 234 235
l 235 236
l 236 237
l 237 238
l 238 239
l 239 240
l 240 241
l 241 242
l 242 243
l 243 244
l 244 245
l 245 246
l 246 247
l 247 248
l 248 249
l 249 250
l 250 251
l 251 252
l 252 253
l 253 254
l 254 255
l 255 256
l 256 257
l 257 258
l 258 259
l 259 260
l 260 261
l 261 262
l 262 263
l 263 264
l 264 265
l 265 266
l 266 267
l 267 268
l 268 269
l 269 270
l 270 271
l 271 272
l 272 273
l 273 274
l 274 275
l 275 276
l 276 277
l 277 278
l 278 279
l 279 280
l 280 281
l 281 282
l 282 283
l 283 284
l 284 285
l 285 286
l 286 287
l 287 288
l 288 289
l 289 290
l 290 291
l 291 292
l 292 293
l 293 294
l 294 295
l 295 296
l 296 297
l 297 298
l 298 299
l 299 300
l 300 301
l 301 302
l 302 303
l 303 304
l 304 305
l 305 306
l 306 307
l 307 308
l 308 309
l 309 310
l 310 311
l 311 312
l 312 313
l 313 314
l 314 315
l 315 316
l 316 317
l 317 318
l 318 319
l 319 320
l 320 321
l 321 322
l 322 323
l 323 324
l 324 325
l 325 326
l 326 327
l 327 328
l 328 329
l 329 330
l 330 331
l 331 332
l 332 333
l 333 334
l 334 335
l 335 336
l 336 337
l 337 338
l 338 339
l 339 340
l 340 341
l 341 342
l 342 343
l 343 344
l 344 345
l 345 346
l 346 347
l 347 348
l 348 349
l 349 350
l 350 351
l 351 352
l 352 353
l 353 354
l 354 355
l 355 356
l 356 357
l 357 358
l 358 359
l 359 360
l 360 361
l 361 362
l 362 363
l 363 364
l 364 365
l 365 366
l 366 367
l 367 368
l 368 369
l 369 370
l 370 371
l 371 372
l 372 373
l 373 374
l 374 375
l 375 376
l 376 377
l 377 378
l 378 379
l 379 380
l 380 381
l 381 382
l 382 383
l 383 384
l 384 385
l 385 386
l 386 387
l 387 388
l 388 389
l 389 390
l 390 391
l 391 392
l 392 393
l 393 394
l 394 395
l 395 396
l 396 397
l 397 398
l 398 399
l 399 400
l 400 401
l 401 402
l 402 403
l 403 404
l 404 405
l 405 406
l 406 407
l 407 408
l 408 409
l 409 410
l 410 411
l 411 412
l 412 413
l 413 414
l 414 415
l 415 416
l 416 417
l 417 418
l 418 419
l 419 420
l 420 421
l 421 422
l 422 423
l 423 424
l 424 425
l 425 426
l 426 427
l 427 428
l 428 429
l 429 430
l 430 431
l 431 432
l 432 433
l 433 434
l 434 435
l 435 436
l 436 437
l 437 438
l 438 439
l 439 440
l 440 441
l 441 442
l 442 443
l 443 444
l 444 445
l 445 446
l 446 447
l 447 448
l 448 449
l 449 450
l 450 451
l 451 452
l 452 453
l 453 454
l 454 455
l 455 456
l 456 457
l 457 458
l 458 459
l 459 460
l 460 461
l 461 462
l 462 463
l 463 464
l 464 465
l 465 466
l 466 467
l 467 468
l 468 469
l 469 470
l 470 471
l 471 472
l 472 473
l 473 474
l 474 475
l 475 476
l 476 477
l 477 478
l 478 479
l 479 480
l 480 481
l 481 482
l 482 483
l 483 484
l 484 485
l 485 486
l 486 487
l 487 488
l 488 489
l 489 490
l 490 491
l 491 492
l 492 493
l 493 494
l 494 495
l 495 496
l 496 497
l 497 498
l 498 499
l 499 500
l 500 501
l 501 502
l 502 503
l 503 504
l 504 505
l 505 506
l 506 507
l 507 508
l 508 509
l 509 510
l 510 511
l 511 512
l 512 513
l 513 514
l 514 515
l 515 516
l 516 517
l 517 518
l 518 519
l 519 520
l 520 521
l 521 522
l 522 523
l 523 524
l 524 525
l 525 526
l 526 527
l 527 528
l 528 529
l 529 530
l 530 531
l 531 532
l 532 533
l 533 534
l 534 535
l 535 536
l 536 537
l 537 538
l 538 539
l 539 540
l 540 541
l 541 542
l 542 543
l 543 544
l 544 545
l 545 546
l 546 547
l 547 548
l 548 549
l 549 550
l 550 551
l 551 552
l 552 553
l 553 554
l 554 555
l 555 556
l 556 557
l 557 558
l 558 559
l 559 560
l 560 561
l 561 562
l 562 563
l 563 564
l 564 565
l 565 566
l 566 567
l 567 568
l 568 569
l 569 570
l 570 571
l 571 572
l 572 573
l 573 574
l 574 575
l 575 576
l 576 577
l 577 578
l 578 579
l 579 580
l 580 581
l 581 582
l 582 583
l 583 584
l 584 585
l 585 586
l 586 587
l 587 588
l 588 589
l 589 590
l 590 591
l 591 592
l 592 593
l 593 594
l 594 595
l 595 596
l 596 597
l 597 598
l 598 599
l 599 600
l 600 601
l 601 602
l 602 603
l 603 604
l 604 605
l 605 606
l 606 607
l 607 608
l 608 609
l 609 610
l 610 611
l 611 612
l 612 613
l 613 614
l 614 615
l 615 616
l 616 617
l 617 618
l 618 619
l 619 620
l 620 621
l 621 622
l 622 623
l 623 624
l 624 625
l 625 626
l 626 627
l 627 628
l 628 629
l 629 630
l 630 631
l 631 632
l 632 633
l 633 634
l 634 635
l 635 636
l 636 637
l 637 638
l 638 639
l 639 640
l 640 641
l 641 642
l 642 643
l 643 644
l 644 645
l 645 646
l 646 647
l 647 648
l 648 649
l 649 650
l 650 651
l 651 652
l 652 653
l 653 654
l 654 655
l 655 656
l 656 657
l 657 658
l 658 659
l 659 660
l 660 661
l 661 662
l 662 663
l 663 664
l 664 665
l 665 666
l 666 667
l 667 668
l 668 669
l 669 670
l 670 671
l 671 672
l 672 673
l 673 674
l 674 675
l 675 676
l 676 677
l 677 678
l 678 679
l 679 680
l 680 681
l 681 682
l 682 683
l 683 684
l 684 685
l 685 686
l 686 687
l 687 688
l 688 689
l 689 690
l 690 691
l 691 692
l 692 693
l 693 694
l 694 695
l 695 696
l 696 697
l 697 698
l 698 699
l 699 700
l 700 701
l 701 702
l 702 703
l 703 704
l 704 705
l 705 706
l 706 707
l 707 708
l 708 709
l 709 710
l 710 711
l 711 712
l 712 713
l 713 714
l 714 715
l 715 716
l 716 717
l 717 718
l 718 719
l 719 720
l 720 721
l 721 722
l 722 723
l 723 724
l 724 725
l 725 726
l 726 727
l 727 728
l 728 729
l 729 730
l 730 731
l 731 732
l 732 733
l 733 734
l 734 735
l 735 736
l 736 737
l 737 738
l 738 739
l 739 740
l 740 741
l 741 742
l 742 743
l 743 744
l 744 745
l 745 746
l 746 747
l 747 748
l 748 749
l 749 750
l 750 751
l 751 752
l 752 753
l 753 754
l 754 755
l 755 756
l 756 757
l 757 758
l 758 759
l 759 760
l 760 761
l 761 762
l 762 763
l 763 764
l 764 765
l 765 766
l 766 767
l 767 768
l 768 769
l 769 770
l 770 771
l 771 772
l 772 773
l 773 774
l 774 775
l 775 776
l 776 777
l 777 778
l 778 779
l 779 780
l 780 781
l 781 782
l 782 783
l 783 784
l 784 785
l 785 786
l 786 787
l 787 788
l 788 789
l 789 790
l 790 791
l 791 792
l 792 793
l 793 794
l 794 795
l 795 796
l 796 797
l 797 798
l 798 799
l 799 800
l 800 801
l 801 802
l 802 803
l 803 804
l 804 805
l 805 806
l 806 807
l 807 808
l 808 809
l 809 810
l 810 811
l 811 812
l 812 813
l 813 814
l 814 815
l 815 816
l 816 817
l 817 818
l 818 819
l 819 820
l 820 821
l 821 822
l 822 823
l 823 824
l 824 825
l 825 826
l 826 827
l 827 828
l 828 829
l 829 830
l 830 831
l 831 832
l 832 833
l 833 834
l 834 835
l 835 836
l 836 837
l 837 838
l 838 839
l 839 840
l 840 841
l 841 842
l 842 843
l 843 844
l 844 845
l 845 846
l 846 847
l 847 848
l 848 849
l 849 850
l 850 851
l 851 852
l 852 853
l 853 854
l 854 855
l 855 856
l 856 857
l 857 858
l 858 859
l 859 860
l 860 861
l 861 862
l 862 863
l 863 864
l 864 865
l 865 866
l 866 867
l 867 868
l 868 869
l 869 870
l 870 871
l 871 872
l 872 873
l 873 874
l 874 875
l 875 876
l 876 877
l 877 878
l 878 879
l 879 880
l 880 881
l 881 882
l 882 883
l 883 884
l 884 885
l 885 886
l 886 887
l 887 888
l 888 889
l 889 890
l 890 891
l 891 892
l 892 893
l 893 894
l 894 895
l 895 896
l 896 897
l 897 898
l 898 899
l 899 900
l 900 901
l 901 902
l 902 903
l 903 904
l 904 905
l 905 906
l 906 907
l 907 908
l 908 909
l 909 910
l 910 911
l 911 912
l 912 913
l 913 914
l 914 915
l 915 916
l 916 917
l 917 918
l 918 919
l 919 920
l 920 921
l 921 922
l 922 923
l 923 924
l 924 925
l 925 926
l 926 927
l 927 928
l 928 929
l 929 930
l 930 931
l 931 932
l 932 933
l 933 934
l 934 935
l 935 936
l 936 937
l 937 938
l 938 939
l 939 940
l 940 941
l 941 942
l 942 943
l 943 944
l 944 945
l 945 946
l 946 947
l 947 948
l 948 949
l 949 950
l 950 951
l 951 952
l 952 953
l 953 954
l 954 955
l 955 956
l 956 957
l 957 958
l 958 959
l 959 960
l 960 961
l 961 962
l 962 963
l 963 964
l 964 965
l 965 966
l 966 967
l 967 968
l 968 969
l 969 970
l 970 971
l 971 972
l 972 973
l 973 974
l 974 975
l 975 976
l 976 977
l 977 978
l 978 979
l 979 980
l 980 981
l 981 982
l 982 983
l 983 984
l 984 985
l 985 986
l 986 987
l 987 988
l 988 989
l 989 990
l 990 991
l 991 992
l 992 993
l 993 994
l 994 995
l 995 996
l 996 997
l 997 998
l 998 999
l 999 1000
l 1000 1001
l 1001 1002
l 1002 1003
l 1003 1004
l 1004 1005
l 1005 1006
l 1006 1007
l 1007 1008
l 1008 1009
l 1009 1010
l 1010 1011
l 1011 1012
l 1012 1013
l 1013 1014
l 1014 1015
l 1015 1016
l 1016 1017
l 1017 1018
l 1018 1019
l 1019 1020
l 1020 1021
l 1021 1022
l 1022 1023
l 1023 1024
l 1024 1025
l 1025 1026
l 1026 1027
l 1027 1028
l 1028 1029
l 1029 1030
l 1030 1031
l 1031 1032
l 1032 1033
l 1033 1034
l 1034 1035
l 1035 1036
l 1036 1037
l 1037 1038
l 1038 1039
l 1039 1040
l 1040 1041
l 1041 1042
l 1042 1043
l 1043 1044
l 1044 1045
l 1045 1046
l 1046 1047
l 1047 1048
l 1048 1049
l 1049 1050
l 1050 1051
l 1051 1052
l 1052 1053
l 1053 1054
l 1054 1055
l 1055 1056
l 1056 1057
l 1057 1058
l 1058 1059
l 1059 1060
l 1060 1061
l 1061 1062
l 1062 1063
l 1063 1064
l 1064 1065
l 1065 1066
l 1066 1067
l 1067 1068
l 1068 1069
l 1069 1070
l 1070 1071
l 1071 1072
l 1072 1073
l 1073 1074
l 1074 1075
l 1075 1076
l 1076 1077
l 1077 1078
l 1078 1079
l 1079 1080
l 1080 1081
l 1081 1082
l 1082 1083
l 1083 1084
l 1084 1085
l 1085 1086
l 1086 1087
l 1087 1088
l 1088 1089
l 1089 1090
l 1090 1091
l 1091 1092
l 1092 1093
l 1093 1094
l 1094 1095
l 1095 1096
l 1096 1097
l 1097 1098
l 1098 1099
l 1099 1100
l 1100 1101
l 1101 1102
l 1102 1103
l 1103 1104
l 1104 1105
l 1105 1106
l 1106 1107
l 1107 1108
l 1108 1109
l 1109 1110
l 1110 1111
l 1111 1112
l 1112 1113
l 1113 1114
l 1114 1115
l 1115 1116
l 1116 1117
l 1117 1118
l 1118 1119
l 1119 1120
l 1120 1121
l 1121 1122
l 1122 1123
l 1123 1124
l 1124 1125
l 1125 1126
l 1126 1127
l 1127 1128
l 1128 1129
l 1129 1130
l 1130 1131
l 1131 1132
l 1132 1133
l 1133 1134
l 1134 1135
l 1135 1136
l 1136 1137
l 1137 1138
l 1138 1139
l 1139 1140
l 1140 1141
l 1141 1142
l 1142 1143
l 1143 1144
l 1144 1145
l 1145 1146
l 1146 1147
l 1147 1148
l 1148 1149
l 1149 1150
l 1150 1151
l 1151 1152
l 1152 1153
l 1153 1154
l 1154 1155
l 1155 1156
l 1156 1157
l 1157 1158
l 1158 1159
l 1159 1160
l 1160 1161
l 1161 1162
l 1162 1163
l 1163 1164
l 1164 1165
l 1165 1166
l 1166 1167
l 1167 1168
l 1168 1169
l 1169 1170
l 1170 1171
l 1171 1172
l 1172 1173
l 1173 1174
l 1174 1175
l 1175 1176
l 1176 1177
l 1177 1178
l 1178 1179
l 1179 1180
l 1180 1181
l 1181 1182
l 1182 1183
l 1183 1184
l 1184 1185
l 1185 1186
l 1186 1187
l 1187 1188
l 1188 1189
l 1189 1190
l 1190 1191
l 1191 1192
l 1192 1193
l 1193 1194
l 1194 1195
l 1195 1196
l 1196 1197
l 1197 1198
l 1198 1199
l 1199 1200
l 1200 1201
l 1201 1202
l 1202 1203
l 1203 1204
l 1204 1205
l 1205 1206
l 1206 1207
l 1207 1208
l 1208 1209
l 1209 1210
l 1210 1211
l 1211 1212
l 1212 1213
l 1213 1214
l 1214 1215
l 1215 1216
l 1216 1217
l 1217 1218
l 1218 1219
l 1219 1220
l 1220 1221
l 1221 1222
l 1222 1223
l 1223 1224
l 1224 1225
l 1225 1226
l 1226 1227
l 1227 1228
l 1228 1229
l 1229 1230
l 1230 1231
l 1231 1232
l 1232 1233
l 1233 1234
l 1234 1235
l 1235 1236
l 1236 1237
l 1237 1238
l 1238 1239
l 1239 1240
l 1240 1241
l 1241 1242
l 1242 1243
l 1243 1244
l 1244 1245
l 1245 1246
l 1246 1247
l 1247 1248
l 1248 1249
l 1249 1250
l 1250 1251
l 1251 1252
l 1252 1253
l 1253 1254
l 1254 1255
l 1255 1256
l 1256 1257
l 1257 1258
l 1258 1259
l 1259 1260
l 1260 1261
l 1261 1262
l 1262 1263
l 1263 1264
l 1264 1265
l 1265 1266
l 1266 1267
l 1267 1268
l 1268 1269
l 1269 1270
l 1270 1271
l 1271 1272
l 1272 1273
l 1273 1274
l 1274 1275
l 1275 1276
l 1276 1277
l 1277 1278
l 1278 1279
l 1279 1280
l 1280 1281
l 1281 1282
l 1282 1283
l 1283 1284
l 1284 1285
l 1285 1286
l 1286 1287
l 1287 1288
l 1288 1289
l 1289 1290
l 1290 1291
l 1291 1292
l 1292 1293
l 1293 1294
l 1294 1295
l 1295 1296
l 1296 1297
l 1297 1298
l 1298 1299
l 1299 1300
l 1300 1301
l 1301 1302
l 1302 1303
l 1303 1304
l 1304 1305
l 1305 1306
l 1306 1307
l 1307 1308
l 1308 1309
l 1309 1310
l 1310 1311
l 1311 1312
l 1312 1313
l 1313 1314
l 1314 1315
l 1315 1316
l 1316 1317
l 1317 1318
l 1318 1319
l 1319 1320
l 1320 1321
l 1321 1322
l 1322 1323
l 1323 1324
l 1324 1325
l 1325 1326
l 1326 1327
l 1327 1328
l 1328 1329
l 1329 1330
l 1330 1331
l 1331 1332
l 1332 1333
l 1333 1334
l 1334 1335
l 1335 1336
l 1336 1337
l 1337 1338
l 1338 1339
l 1339 1340
l 1340 1341
l 1341 1342
l 1342 1343
l 1343 1344
l 1344 1345
l 1345 1346
l 1346 1347
l 1347 1348
l 1348 1349
l 1349 1350
l 1350 1351
l 1351 1352
l 1352 1353
l 1353 1354
l 1354 1355
l 1355 1356
l 1356 1357
l 1357 1358
l 1358 1359
l 1359 1360
l 1360 1361
l 1361 1362
l 1362 1363
l 1363 1364
l 1364 1365
l 1365 1366
l 1366 1367
l 1367 1368
l 1368 1369
l 1369 1370
l 1370 1371
l 1371 1372
l 1372 1373
l 1373 1374
l 1374 1375
l 1375 1376
l 1376 1377
l 1377 1378
l 1378 1379
l 1379 1380
l 1380 1381
l 1381 1382
l 1382 1383
l 1383 1384
l 1384 1385
l 1385 1386
l 1386 1387
l 1387 1388
l 1388 1389
l 1389 1390
l 1390 1391
l 1391 1392
l 1392 1393
l 1393 1394
l 1394 1395
l 1395 1396
l 1396 1397
l 1397 1398
l 1398 1399
l 1399 1400
l 1400 1401
l 1401 1402
l 1402 1403
l 1403 1404
l 1404 1405
l 1405 1406
l 1406 1407
l 1407 1408
l 1408 1409
l 1409 1410
l 1410 1411
l 1411 1412
l 1412 1413
l 1413 1414
l 1414 1415
l 1415 1416
l 1416 1417
l 1417 1418
l 1418 1419
l 1419 1420
l 1420 1421
l 1421 1422
l 1422 1423
l 1423 1424
l 1424 1425
l 1425 1426
l 1426 1427
l 1427 1428
l 1428 1429
l 1429 1430
l 1430 1431
l 1431 1432
l 1432 1433
l 1433 1434
l 1434 1435
l 1435 1436
l 1436 1437
l 1437 1438
l 1438 1439
l 1439 1440
l 1440 1441
l 1441 1442
l 1442 1443
l 1443 1444
l 1444 1445
l 1445 1446
l 1446 1447
l 1447 1448
l 1448 1449
l 1449 1450
l 1450 1451
l 1451 1452
l 1452 1453
l 1453 1454
l 1454 1455
l 1455 1456
l 1456 1457
l 1457 1458
l 1458 1459
l 1459 1460
l 1460 1461
l 1461 1462
l 1462 1463
l 1463 1464
l 1464 1465
l 1465 1466
l 1466 1467
l 1467 1468
l 1468 1469
l 1469 1470
l 1470 1471
l 1471 1472
l 1472 1473
l 1473 1474
l 1474 1475
l 1475 1476
l 1476 1477
l 1477 1478
l 1478 1479
l 1479 1480
l 1480 1481
l 1481 1482
l 1482 1483
l 1483 1484
l 1484 1485
l 1485 1486
l 1486 1487
l 1487 1488
l 1488 1489
l 1489 1490
l 1490 1491
l 1491 1492
l 1492 1493
l 1493 1494
l 1494 1495
l 1495 1496
l 1496 1497
l 1497 1498
l 1498 1499
l 1499 1500
l 1500 1501
