# Hopf drift winding s64_180, 10 circuits (canonical 1501-point polyline)
o drift
v 0.000000000 1.000000000 0.000000000
v -0.015463227 0.999474542 -0.015769425
v -0.030903557 0.998150512 -0.031513258
v -0.046301145 0.996029942 -0.047211586
v -0.061636240 0.993116026 -0.062844601
v -0.076877677 0.989324668 -0.078380755
v -0.092007971 0.984712593 -0.093802690
v -0.107012087 0.979324792 -0.109095469
v -0.121871131 0.973169273 -0.124240168
v -0.136546746 0.966174195 -0.139198075
v -0.151024557 0.958385510 -0.153954927
v -0.165297159 0.949861543 -0.168503502
v -0.179347245 0.940614758 -0.182826490
v -0.193114090 0.930539303 -0.196862657
v -0.206616892 0.919763446 -0.210631700
v -0.219842813 0.908310893 -0.224120847
v -0.232738451 0.896117773 -0.237276366
v -0.245301118 0.883238301 -0.250095779
v -0.257538305 0.869737531 -0.262586846
v -0.269385114 0.855548056 -0.274684334
v -0.280854597 0.840742721 -0.286401619
v -0.291949587 0.825368953 -0.297741747
v -0.302586441 0.809351384 -0.308620725
v -0.312831043 0.792823270 -0.319105071
v -0.322602006 0.775723428 -0.329113135
v -0.331935058 0.758133599 -0.338681057
v -0.340780515 0.740040005 -0.347759138
v -0.349156466 0.721497430 -0.356365770
v -0.357015516 0.702501168 -0.364453621
v -0.364397727 0.683119125 -0.372063122
v -0.371217487 0.663322363 -0.379108679
v -0.377537406 0.643191243 -0.385653329
v -0.383315615 0.622730132 -0.391655377
v -0.388528136 0.601961593 -0.397091124
v -0.393200961 0.580932296 -0.401986889
v -0.397320470 0.559666531 -0.406329344
v -0.400858891 0.538186125 -0.410091065
v -0.403815449 0.516524929 -0.413271651
v -0.406197855 0.494717246 -0.415879177
v -0.407999684 0.472792718 -0.417907616
v -0.409216486 0.450781878 -0.419352944
v -0.409845772 0.428715757 -0.420213114
v -0.409886956 0.406625529 -0.420488002
v -0.409341269 0.384542192 -0.420179313
v -0.408192748 0.362498474 -0.419271706
v -0.406452736 0.340525793 -0.417777006
v -0.404135664 0.318652992 -0.415710091
v -0.401225678 0.296914849 -0.413055847
v -0.397734642 0.275340574 -0.409826658
v -0.393662910 0.253962660 -0.406023551
v -0.389026703 0.232806996 -0.401663226
v -0.383808522 0.211914448 -0.396729162
v -0.378031494 0.191308345 -0.391244928
v -0.371701129 0.171019252 -0.385216724
v -0.364824295 0.151077429 -0.378652108
v -0.357410606 0.131511534 -0.371561344
v -0.349464045 0.112354947 -0.363949190
v -0.340996776 0.093635331 -0.355828413
v -0.332025362 0.075375948 -0.347216033
v -0.322554826 0.057610814 -0.338117783
v -0.312598319 0.040367275 -0.328547277
v -0.302171780 0.023669366 -0.318520753
v -0.291288685 0.007543973 -0.308051949
v -0.279961318 -0.007979475 -0.297153327
v -0.268205807 -0.022875876 -0.285840903
v -0.256039799 -0.037121985 -0.274131944
v -0.243480098 -0.050692780 -0.262042639
v -0.230543547 -0.063561890 -0.249588899
v -0.217249789 -0.075706849 -0.236788949
v -0.203619936 -0.087107470 -0.223661995
v -0.189671920 -0.097734159 -0.210223586
v -0.175430160 -0.107570771 -0.196494978
v -0.160917579 -0.116595949 -0.182495261
v -0.146158339 -0.124788973 -0.168243925
v -0.131177512 -0.132128106 -0.153760404
v -0.116003052 -0.138598931 -0.139066113
v -0.100663034 -0.144183653 -0.124181490
v -0.085187112 -0.148866442 -0.109127460
v -0.069606501 -0.152634901 -0.093925502
v -0.053953391 -0.155475371 -0.078596848
v -0.038261425 -0.157379743 -0.063163405
v -0.022565184 -0.158338376 -0.047646853
v -0.006900076 -0.158348758 -0.032069391
v 0.008697900 -0.157407671 -0.016453027
v 0.024192350 -0.155515124 -0.000819908
v 0.039546751 -0.152673730 0.014807754
v 0.054724619 -0.148888305 0.030407667
v 0.069690489 -0.144168827 0.045957656
v 0.084409690 -0.138527092 0.061435654
v 0.098848642 -0.131977153 0.076819714
v 0.112973476 -0.124531249 0.092087393
v 0.126754714 -0.116211909 0.107217497
v 0.140162498 -0.107037907 0.122188285
v 0.153168429 -0.097029698 0.136978083
v 0.165746518 -0.086210835 0.151565746
v 0.177873963 -0.074608378 0.165931154
v 0.189525634 -0.062243719 0.180052465
v 0.200682886 -0.049147000 0.193910628
v 0.211325383 -0.035343943 0.207485247
v 0.221436197 -0.020863568 0.220757344
v 0.230998018 -0.005733126 0.233707303
v 0.239998007 0.010016103 0.246317788
v 0.248418768 0.026358657 0.258568328
v 0.256252350 0.043260357 0.270444051
v 0.263482161 0.060695902 0.281924290
v 0.270104388 0.078629447 0.292996552
v 0.276106767 0.097033089 0.303642606
v 0.281484809 0.115873452 0.313849401
v 0.286228892 0.135121281 0.323600180
v 0.290332789 0.154745158 0.332880431
v 0.293794418 0.174711801 0.341678682
v 0.296614975 0.194987320 0.349986118
v 0.298775122 0.215546696 0.357777783
v 0.300291457 0.236349976 0.365056848
v 0.301159228 0.257366868 0.371809885
v 0.301370621 0.278567173 0.378020649
v 0.300932142 0.299916625 0.383684657
v 0.299844177 0.321382885 0.388792408
v 0.298105688 0.342933433 0.393333023
v 0.295728800 0.364534595 0.397307249
v 0.292726350 0.386154535 0.400717036
v 0.289074360 0.407760361 0.403530452
v 0.284816595 0.429321471 0.405778012
v 0.279921253 0.450801754 0.407419666
v 0.274430907 0.472174042 0.408485905
v 0.268346042 0.493406299 0.408967372
v 0.261652832 0.514459831 0.408839638
v 0.254385264 0.535309914 0.408126143
v 0.246552245 0.555925391 0.406825507
v 0.238164478 0.576275463 0.404938114
v 0.229234451 0.596329997 0.402466183
v 0.219776372 0.616059849 0.399413826
v 0.209806078 0.635437214 0.395787052
v 0.199340886 0.654435973 0.391593750
v 0.188389188 0.673022427 0.386831375
v 0.176957661 0.691157931 0.381494332
v 0.165085052 0.708836140 0.375616103
v 0.152793251 0.726038843 0.369211192
v 0.140077115 0.742713162 0.362258941
v 0.126963568 0.758841164 0.354778561
v 0.113496037 0.774437524 0.346814199
v 0.099649905 0.789407764 0.338314878
v 0.085486936 0.803798367 0.329351123
v 0.071005940 0.817550018 0.319903999
v 0.056236610 0.830656491 0.309998832
v 0.041198890 0.843097241 0.299647716
v 0.025916021 0.854854148 0.288866507
v 0.010406489 0.865899596 0.277663855
v -0.005295566 0.876255053 0.266077511
v -0.021186378 0.885829997 0.254083754
v -0.037217907 0.894721881 0.241755903
v -0.053391109 0.902784809 0.229049300
v -0.069664943 0.910111822 0.216029529
v -0.086018558 0.916683229 0.202709824
v -0.102434977 0.922395985 0.189074858
v -0.118882288 0.927362607 0.175187692
v -0.135339493 0.931525681 0.161050387
v -0.151780790 0.934823127 0.146668025
v -0.168184896 0.937351788 0.132089209
v -0.184527928 0.939076516 0.117325341
v -0.200775945 0.939905532 0.102380078
v -0.216917955 0.939954874 0.087298333
v -0.232933242 0.939223351 0.072098789
v -0.248773781 0.937583884 0.056787462
v -0.264436998 0.935148845 0.041400431
v -0.279905978 0.931937862 0.025959135
v -0.295142363 0.927894803 0.010481991
v -0.310116110 0.923005981 -0.005007493
v -0.324830808 0.917358069 -0.020486611
v -0.339267623 0.910958525 -0.035935816
v -0.353353646 0.903688735 -0.051323679
v -0.367116820 0.895680832 -0.066636249
v -0.380542885 0.886953259 -0.081854888
v -0.393577275 0.877447241 -0.096947084
v -0.406205639 0.867189549 -0.111891626
v -0.418443347 0.856254890 -0.126680238
v -0.430250272 0.844619388 -0.141283221
v -0.441577860 0.832254011 -0.155664682
v -0.452468081 0.819264202 -0.169831578
v -0.462880269 0.805631811 -0.183752010
v -0.472761975 0.791330748 -0.197385645
v -0.482167478 0.776466385 -0.210750776
v -0.491030494 0.760999175 -0.223798412
v -0.499345544 0.744961201 -0.236513940
v -0.507154256 0.728428066 -0.248912965
v -0.514332277 0.711319224 -0.260905502
v -0.520987210 0.693765396 -0.272551216
v -0.527029308 0.675725554 -0.283780082
v -0.532496810 0.657262089 -0.294608566
v -0.537353576 0.638382746 -0.305001265
v -0.541609709 0.619125559 -0.314956137
v -0.545239981 0.599508822 -0.324444657
v -0.548270842 0.579577080 -0.333477843
v -0.550643370 0.559334215 -0.342000626
v -0.552426033 0.538841388 -0.350057580
v -0.553539697 0.518097926 -0.357576522
v -0.554030563 0.497153508 -0.364585075
v -0.553906775 0.476038791 -0.371081675
v -0.553123340 0.454773740 -0.377019333
v -0.551702087 0.433396215 -0.382406915
v -0.549657455 0.411938909 -0.387248066
v -0.546986599 0.390431670 -0.391531481
v -0.543688951 0.368905551 -0.395247609
v -0.539766207 0.347392389 -0.398388756
v -0.535222257 0.325924417 -0.400949143
v -0.530063084 0.304533894 -0.402924920
v -0.524296632 0.283252779 -0.404314138
v -0.517932647 0.262112445 -0.405116695
v -0.510982515 0.241143428 -0.405334246
v -0.503459080 0.220375218 -0.404970109
v -0.495371067 0.199838646 -0.404023475
v -0.486708535 0.179574842 -0.402473554
v -0.477516830 0.159597383 -0.400358005
v -0.467779355 0.139953066 -0.397648392
v -0.457536401 0.120654056 -0.394378195
v -0.446775470 0.101748945 -0.390522275
v -0.435528463 0.083254328 -0.386105223
v -0.423809332 0.065199390 -0.381131649
v -0.411632361 0.047613911 -0.375606319
v -0.399014513 0.030525563 -0.369537053
v -0.385974833 0.013959666 -0.362934252
v -0.372533931 -0.002060941 -0.355810442
v -0.358700791 -0.017495235 -0.348162370
v -0.344509453 -0.032340501 -0.340020486
v -0.329967790 -0.046550838 -0.331379083
v -0.315104952 -0.060116909 -0.322262171
v -0.299940771 -0.073012543 -0.312680407
v -0.284497495 -0.085215398 -0.302647632
v -0.268798882 -0.096706487 -0.292179880
v -0.252865000 -0.107453390 -0.281285823
v -0.236724760 -0.117451073 -0.269989776
v -0.220401144 -0.126673839 -0.258304497
v -0.203919533 -0.135100862 -0.246245985
v -0.187306860 -0.142715920 -0.233832584
v -0.170590933 -0.149506823 -0.221084168
v -0.153799312 -0.155453789 -0.208017631
v -0.136961123 -0.160545294 -0.194653109
v -0.120106055 -0.164765938 -0.181009393
v -0.103264831 -0.168104930 -0.167106817
v -0.086468978 -0.170552365 -0.152965857
v -0.069751177 -0.172096931 -0.138606636
v -0.053144856 -0.172732138 -0.124050447
v -0.036684038 -0.172453905 -0.109318882
v -0.020403640 -0.171258726 -0.094433463
v -0.004340264 -0.169141469 -0.079415494
v 0.011471617 -0.166109639 -0.064287849
v 0.026993756 -0.162160559 -0.049072051
v 0.042191233 -0.157305252 -0.033790907
v 0.057027589 -0.151551649 -0.018466733
v 0.071466250 -0.144909543 -0.003122033
v 0.085472448 -0.137393995 0.012220520
v 0.099012865 -0.129023119 0.027538327
v 0.112055250 -0.119816768 0.042808859
v 0.124568567 -0.109796496 0.058009606
v 0.136522015 -0.098984067 0.073117806
v 0.147891730 -0.087409816 0.088111742
v 0.158649360 -0.075097175 0.102968562
v 0.168773662 -0.062077280 0.117666624
v 0.178244255 -0.048380641 0.132184281
v 0.187043205 -0.034038888 0.146500266
v 0.195150331 -0.019080655 0.160592142
v 0.202557299 -0.003543597 0.174441072
v 0.209245575 0.012544271 0.188024356
v 0.215208658 0.029146592 0.201323343
v 0.220434982 0.046231812 0.214317176
v 0.224918930 0.063765290 0.226987148
v 0.228655741 0.081713031 0.239314829
v 0.231641431 0.100041450 0.251281979
v 0.233871219 0.118717917 0.262869740
v 0.235344851 0.137708265 0.274061354
v 0.236067557 0.156977208 0.284843122
v 0.236027762 0.176495539 0.295191759
v 0.235240361 0.196225844 0.305098961
v 0.233704827 0.216136209 0.314547655
v 0.231424410 0.236193721 0.323522831
v 0.228406719 0.256364969 0.332012265
v 0.224664301 0.276616762 0.340007375
v 0.220187178 0.296917576 0.347483641
v 0.215007700 0.317233813 0.354446746
v 0.209116967 0.337533378 0.360872482
v 0.202532792 0.357784009 0.366756326
v 0.195269657 0.377954195 0.372091649
v 0.187339674 0.398012527 0.376870078
v 0.178758165 0.417928420 0.381086058
v 0.169534632 0.437669829 0.384728881
v 0.159679293 0.457203718 0.387787813
v 0.149228231 0.476507435 0.390277062
v 0.138176736 0.495542499 0.392171789
v 0.126564282 0.514289979 0.393490779
v 0.114383707 0.532706855 0.394204864
v 0.101680606 0.550780727 0.394341004
v 0.088469602 0.568481989 0.393893647
v 0.074749994 0.585765601 0.392837324
v 0.060564022 0.602621525 0.391197845
v 0.045932012 0.619023039 0.388975519
v 0.030875800 0.634944506 0.386172394
v 0.015418600 0.650361640 0.382792296
v -0.000415174 0.665251774 0.378840854
v -0.016600128 0.679594115 0.374325473
v -0.033110139 0.693369994 0.369255286
v -0.049927886 0.706542415 0.363622765
v -0.067024992 0.719092084 0.357438401
v -0.084366728 0.731019719 0.350728474
v -0.101925600 0.742315505 0.343508070
v -0.119685772 0.752927533 0.335760374
v -0.137615069 0.762848653 0.327505452
v -0.155678328 0.772106853 0.318784992
v -0.173860413 0.780618543 0.309564213
v -0.192124313 0.788422774 0.299892300
v -0.210444839 0.795504533 0.289779807
v -0.228794452 0.801812446 0.279219010
v -0.247145145 0.807408089 0.268264800
v -0.265466045 0.812190604 0.256884689
v -0.283735262 0.816254274 0.245147032
v -0.301915541 0.819495364 0.233022547
v -0.319989740 0.821992297 0.220567303
v -0.337921689 0.823688122 0.207777003
v -0.355686876 0.824595097 0.194676778
v -0.373268191 0.824752554 0.181301137
v -0.390611270 0.824058022 0.167634339
v -0.407727531 0.822641338 0.153739418
v -0.424555586 0.820396823 0.139604138
v -0.441088059 0.817380488 0.125264922
v -0.457321436 0.813645248 0.110753592
v -0.473163647 0.809046041 0.096059217
v -0.488658674 0.803738594 0.081234694
v -0.503769252 0.797698007 0.066294252
v -0.518425719 0.790850573 0.051249511
v -0.532669846 0.783318424 0.036136499
v -0.546452165 0.775064965 0.020972153
v -0.559721084 0.766058864 0.005777909
v -0.572518574 0.756402576 -0.009421210
v -0.584783944 0.746053692 -0.024603052
v -0.596483659 0.735011246 -0.039742984
v -0.607660265 0.723363377 -0.054824315
v -0.618237198 0.711060132 -0.069817148
v -0.628209751 0.698134062 -0.084700000
v -0.637616072 0.684656549 -0.099462130
v -0.646351599 0.670563532 -0.114060421
v -0.654465948 0.655934071 -0.128488511
v -0.661970142 0.640807198 -0.142733154
v -0.668742743 0.625120854 -0.156737488
v -0.674897608 0.608992172 -0.170522354
v -0.680351424 0.592393034 -0.184040788
v -0.685111412 0.575359323 -0.197278450
v -0.689211103 0.557940784 -0.210233093
v -0.692551266 0.540112331 -0.222844176
v -0.695252162 0.521965838 -0.235151270
v -0.697163802 0.503459971 -0.247064760
v -0.698430491 0.484687157 -0.258641940
v -0.698915168 0.465622802 -0.269793698
v -0.698749676 0.446342179 -0.280577429
v -0.697792868 0.426831044 -0.290895311
v -0.696176171 0.407155392 -0.300809533
v -0.693806910 0.387321680 -0.310247225
v -0.690739624 0.367371919 -0.319226207
v -0.686990148 0.347334996 -0.327742535
v -0.682488416 0.327235512 -0.335730369
v -0.677316876 0.307110443 -0.343231200
v -0.671473352 0.286987176 -0.350228473
v -0.664924697 0.266898165 -0.356679724
v -0.657703036 0.246874708 -0.362591954
v -0.649829708 0.226945636 -0.367965457
v -0.641311605 0.207141325 -0.372788902
v -0.632158023 0.187492517 -0.377052572
v -0.622380540 0.168029972 -0.380748474
v -0.611992873 0.148784136 -0.383870404
v -0.601010693 0.129784853 -0.386413969
v -0.589451427 0.111061106 -0.388376580
v -0.577334045 0.092640800 -0.389757411
v -0.564678844 0.074550578 -0.390557334
v -0.551504312 0.056817931 -0.390775430
v -0.537809455 0.039486962 -0.390387265
v -0.523643015 0.022562263 -0.389426975
v -0.509011813 0.006082421 -0.387879009
v -0.493941012 -0.009930076 -0.385750242
v -0.478449406 -0.025444927 -0.383038610
v -0.462568590 -0.040448688 -0.379760717
v -0.446314092 -0.054906547 -0.375909668
v -0.429710283 -0.068793635 -0.371490564
v -0.412786434 -0.082094412 -0.366517191
v -0.395567454 -0.094786627 -0.360996475
v -0.378077464 -0.106844861 -0.354933064
v -0.360342433 -0.118245992 -0.348334218
v -0.342393605 -0.128983106 -0.341219811
v -0.324254267 -0.139023453 -0.333589907
v -0.305955636 -0.148362384 -0.325465506
v -0.287523818 -0.156972590 -0.316851601
v -0.268988407 -0.164840411 -0.307763025
v -0.250378973 -0.171952880 -0.298214860
v -0.231725016 -0.178290474 -0.288218492
v -0.213057000 -0.183849650 -0.277794425
v -0.194405415 -0.188609875 -0.266953866
v -0.175801043 -0.192565869 -0.255716177
v -0.157275508 -0.195704007 -0.244096557
v -0.138860754 -0.198015717 -0.232112790
v -0.120588484 -0.199496738 -0.219784396
v -0.102492800 -0.200134167 -0.207127470
v -0.084605585 -0.199929292 -0.194163611
v -0.066961315 -0.198875286 -0.180911254
v -0.049594165 -0.196970319 -0.167390598
v -0.032537701 -0.194216676 -0.153622884
v -0.015829106 -0.190610235 -0.139627492
v 0.000498507 -0.186159572 -0.125427035
v 0.016408731 -0.180867897 -0.111042495
v 0.031865898 -0.174742699 -0.096495710
v 0.046835191 -0.167795017 -0.081808965
v 0.061280825 -0.160036216 -0.067004404
v 0.075167849 -0.151480864 -0.052104522
v 0.088462695 -0.142146981 -0.037132076
v 0.101133559 -0.132055774 -0.022109899
v 0.113146476 -0.121227004 -0.007060743
v 0.124472523 -0.109686949 0.007992349
v 0.135084426 -0.097463605 0.023026458
v 0.144956503 -0.084586390 0.038018740
v 0.154061009 -0.071083233 0.052945959
v 0.162381230 -0.056990574 0.067785739
v 0.169894917 -0.042339920 0.082515013
v 0.176588715 -0.027168280 0.097111718
v 0.182446824 -0.011510141 0.111553230
v 0.187457114 0.004598510 0.125817238
v 0.191610328 0.021121023 0.139881728
v 0.194902304 0.038019480 0.153725713
v 0.197328298 0.055257415 0.167327918
v 0.198886634 0.072798114 0.180667690
v 0.199574421 0.090606069 0.193723716
v 0.199393178 0.108645092 0.206475806
v 0.198349737 0.126878698 0.218905632
v 0.196446645 0.145272265 0.230993207
v 0.193692981 0.163790663 0.242721038
v 0.190093422 0.182400045 0.254069680
v 0.185657204 0.201066420 0.265021510
v 0.180398840 0.219756292 0.275561589
v 0.174327415 0.238436957 0.285672344
v 0.167460729 0.257076375 0.295340902
v 0.159802657 0.275641799 0.304546396
v 0.151377738 0.294102697 0.313280036
v 0.142201313 0.312428344 0.321527938
v 0.132282073 0.330586230 0.329271346
v 0.121651910 0.348549818 0.336507658
v 0.110321200 0.366287479 0.343219390
v 0.098320873 0.383774528 0.349404592
v 0.085653694 0.400975182 0.355038700
v 0.072355282 0.417867435 0.360124000
v 0.058447631 0.434424232 0.364652061
v 0.043954632 0.450619709 0.368616266
v 0.028902802 0.466430197 0.372012924
v 0.013302140 0.481818628 0.374820074
v -0.002804259 0.496773663 0.377051502
v -0.019386855 0.511276491 0.378708583
v -0.036439395 0.525282127 0.379761639
v -0.053909244 0.538796156 0.380241705
v -0.071785050 0.551776727 0.380124012
v -0.090032579 0.564209557 0.379415661
v -0.108616403 0.576085181 0.378127899
v -0.127509413 0.587382070 0.376258900
v -0.146686226 0.598072113 0.373801160
v -0.166114546 0.608139670 0.370759838
v -0.185759749 0.617577638 0.367147533
v -0.205590816 0.626371369 0.362969498
v -0.225576253 0.634508171 0.358232666
v -0.245684497 0.641976448 0.352944821
v -0.265885876 0.648742200 0.347096435
v -0.286144674 0.654815057 0.340712940
v -0.306428852 0.660190373 0.333807469
v -0.326707306 0.664865884 0.326394421
v -0.346949777 0.668837280 0.318486273
v -0.367117434 0.672039875 0.310055897
v -0.387184554 0.674535892 0.301161988
v -0.407124766 0.676331455 0.291822655
v -0.426886519 0.677335076 0.281997820
v -0.446459281 0.677637139 0.271758895
v -0.465806363 0.677206858 0.261102418
v -0.484885774 0.676017324 0.250030516
v -0.503696204 0.674142353 0.238597751
v -0.522160954 0.671475488 0.226766191
v -0.540312944 0.668155078 0.214619768
v -0.558048574 0.664037947 0.202107713
v -0.575424664 0.659286436 0.189319078
v -0.592322200 0.653752882 0.176207835
v -0.608806945 0.647592339 0.162853078
v -0.624767367 0.640688833 0.149228047
v -0.640251193 0.633153621 0.135389219
v -0.655183005 0.624932857 0.121336462
v -0.669562710 0.616067938 0.107100075
v -0.683382196 0.606588577 0.092705994
v -0.696561882 0.596448919 0.078162095
v -0.709173286 0.585756962 0.063510116
v -0.721084189 0.574424294 0.048754212
v -0.732370070 0.562553635 0.033930203
v -0.742979909 0.550134407 0.019056898
v -0.752865636 0.537162244 0.004156116
v -0.762099696 0.523721745 -0.010747995
v -0.770534341 0.509742442 -0.025630083
v -0.778277215 0.495326560 -0.040471424
v -0.785265405 0.480464362 -0.055246414
v -0.791467468 0.465168167 -0.069929694
v -0.796963276 0.449508508 -0.084511267
v -0.801585729 0.433432957 -0.098942543
v -0.805490251 0.417042489 -0.113230576
v -0.808563871 0.400316964 -0.127331343
v -0.810854290 0.383303186 -0.141235465
v -0.812351766 0.366025691 -0.154919968
v -0.813018043 0.348500260 -0.168353455
v -0.812918976 0.330773552 -0.181536102
v -0.811963094 0.312850747 -0.194416607
v -0.810256497 0.294782769 -0.207012959
v -0.807692553 0.276578294 -0.219263445
v -0.804378267 0.258281635 -0.231191360
v -0.800232343 0.239911295 -0.242741005
v -0.795322212 0.221502184 -0.253921989
v -0.789631977 0.203080476 -0.264707010
v -0.783150608 0.184677353 -0.275067667
v -0.775950627 0.166317429 -0.285023729
v -0.767949676 0.148037821 -0.294505460
v -0.759231256 0.129861153 -0.303539806
v -0.749811643 0.111812519 -0.312117012
v -0.739649144 0.093932763 -0.320185800
v -0.728795322 0.076243701 -0.327757155
v -0.717275953 0.058769491 -0.334826979
v -0.705102673 0.041538592 -0.341380728
v -0.692289677 0.024579636 -0.347405077
v -0.678839173 0.007929020 -0.352874871
v -0.664790051 -0.008394565 -0.357796858
v -0.650165259 -0.024366133 -0.362164960
v -0.634986505 -0.039959972 -0.365971952
v -0.619277223 -0.055151407 -0.369212275
v -0.603060413 -0.069915190 -0.371879754
v -0.586350347 -0.084216418 -0.373956728
v -0.569186341 -0.098043947 -0.375455742
v -0.551597235 -0.111378860 -0.376378297
v -0.533610640 -0.124201554 -0.376724780
v -0.515235541 -0.136463214 -0.376464869
v -0.496525528 -0.148181194 -0.375639148
v -0.477490728 -0.159303468 -0.374215641
v -0.458176167 -0.169841357 -0.372226153
v -0.438599223 -0.179748630 -0.369646721
v -0.418797656 -0.189023473 -0.366495959
v -0.398802480 -0.197650736 -0.362779389
v -0.378644294 -0.205612390 -0.358500270
v -0.358355011 -0.212893584 -0.353664836
v -0.337967203 -0.219482580 -0.348281908
v -0.317513563 -0.225370624 -0.342362502
v -0.297026388 -0.230531913 -0.335905211
v -0.276539364 -0.234973597 -0.328932926
v -0.256086129 -0.238673040 -0.321447163
v -0.235699574 -0.241632649 -0.313466912
v -0.215413693 -0.243840233 -0.305001234
v -0.195262710 -0.245288344 -0.296062609
v -0.175280383 -0.245973729 -0.286666158
v -0.155499516 -0.245896790 -0.276828976
v -0.135957504 -0.245044195 -0.266560525
v -0.116685100 -0.243425465 -0.255882956
v -0.097718384 -0.241035019 -0.244810095
v -0.079092476 -0.237872632 -0.233358765
v -0.060841102 -0.233942519 -0.221547875
v -0.042996459 -0.229252390 -0.209397628
v -0.025598528 -0.223797872 -0.196922953
v -0.008677409 -0.217593364 -0.184146687
v 0.007731567 -0.210645575 -0.171088116
v 0.023594779 -0.202965381 -0.157767941
v 0.038874294 -0.194560040 -0.144205507
v 0.053541473 -0.185449677 -0.130424115
v 0.067559547 -0.175646263 -0.116444146
v 0.080896327 -0.165168630 -0.102287807
v 0.093519195 -0.154036598 -0.087977255
v 0.105397463 -0.142273124 -0.073535107
v 0.116503487 -0.129904662 -0.058984333
v 0.126804850 -0.116955262 -0.044347329
v 0.136279459 -0.103457309 -0.029647524
v 0.144896890 -0.089438551 -0.014907736
v 0.152638898 -0.074934875 -0.000151400
v 0.159485549 -0.059981122 0.014598340
v 0.165415087 -0.044611806 0.029318094
v 0.170416421 -0.028866305 0.043984746
v 0.174477139 -0.012782913 0.058575189
v 0.177586035 0.003599778 0.073066165
v 0.179738071 0.020241721 0.087434891
v 0.180930491 0.037103069 0.101658790
v 0.181161055 0.054144568 0.115715158
v 0.180431257 0.071326957 0.129581673
v 0.178746948 0.088611331 0.143236759
v 0.176112756 0.105959818 0.156658395
v 0.172540303 0.123335061 0.169826173
v 0.168034466 0.140700612 0.182717607
v 0.162612372 0.158020960 0.195313689
v 0.156282918 0.175260992 0.207592643
v 0.149069374 0.192387874 0.219537811
v 0.140981193 0.209367787 0.231127317
v 0.132041958 0.226169793 0.242344886
v 0.122269546 0.242762709 0.253171993
v 0.111686389 0.259117117 0.263592312
v 0.100311031 0.275202890 0.273587536
v 0.088169401 0.290992837 0.283143337
v 0.075281693 0.306458025 0.292242196
v 0.061677593 0.321574143 0.300872557
v 0.047381487 0.336315062 0.309019809
v 0.032421387 0.350657019 0.316672029
v 0.016823985 0.364575920 0.323816539
v 0.000611679 0.378044090 0.330436527
v -0.016174230 0.391049078 0.336532327
v -0.033513064 0.403562315 0.342085779
v -0.051373741 0.415563482 0.347088049
v -0.069720625 0.427037721 0.351535873
v -0.088523155 0.437965612 0.355420931
v -0.107748752 0.448330225 0.358737426
v -0.127363182 0.458117653 0.361482439
v -0.147337825 0.467304745 0.363644033
v -0.167637815 0.475876804 0.365218772
v -0.188220162 0.483840084 0.366222470
v -0.209064189 0.491149125 0.366622850
v -0.230119845 0.497834185 0.366457232
v -0.251366858 0.503835871 0.365681779
v -0.272758792 0.509184892 0.364333299
v -0.294262553 0.513869319 0.362410207
v -0.315845192 0.517861629 0.359898065
v -0.337469295 0.521161769 0.356806153
v -0.359098644 0.523774079 0.353147079
v -0.380697931 0.525693190 0.348925249
v -0.402231720 0.526915670 0.344146706
v -0.423664723 0.527440090 0.338819112
v -0.444962076 0.527267054 0.332951709
v -0.466089641 0.526399192 0.326555234
v -0.487014290 0.524841119 0.319641813
v -0.507692903 0.522571199 0.312204498
v -0.528095032 0.519608021 0.304266261
v -0.548193599 0.515970732 0.295849698
v -0.567960378 0.511671008 0.286971551
v -0.587350518 0.506691320 0.277628726
v -0.606325520 0.501033263 0.267832281
v -0.624881842 0.494748094 0.257625335
v -0.642972309 0.487818682 0.247005733
v -0.660551495 0.480239506 0.235980454
v -0.677638674 0.472079556 0.224601459
v -0.694141640 0.463279223 0.212843043
v -0.710087350 0.453912535 0.200759380
v -0.725428774 0.443971048 0.188355473
v -0.740130645 0.433464206 0.175648083
v -0.754205216 0.422438014 0.162672037
v -0.767570868 0.410865524 0.149425892
v -0.780281222 0.398820579 0.135956908
v -0.792228580 0.386263574 0.122259855
v -0.803486471 0.373274616 0.108382092
v -0.813943695 0.359819627 0.094323848
v -0.823670961 0.345969368 0.080125494
v -0.832576085 0.331707261 0.065796857
v -0.840705427 0.317085491 0.051369187
v -0.848005841 0.302110667 0.036861496
v -0.854481436 0.286813329 0.022297947
v -0.860133369 0.271223185 0.007702768
v -0.864911350 0.255351432 -0.006901972
v -0.868879509 0.239246098 -0.021492986
v -0.871928342 0.222905343 -0.036043863
v -0.874185814 0.206387591 -0.050539019
v -0.875486596 0.189686531 -0.064941503
v -0.876005403 0.172860549 -0.079247685
v -0.875561743 0.155911393 -0.093410108
v -0.874329026 0.138886219 -0.107434079
v -0.872151531 0.121800152 -0.121267427
v -0.869180279 0.104687942 -0.134919996
v -0.865276608 0.087575538 -0.148335045
v -0.860592599 0.070487945 -0.161530734
v -0.854981264 0.053461152 -0.174439937
v -0.848606035 0.036510368 -0.187091791
v -0.841333942 0.019679487 -0.199416246
v -0.833292152 0.002980074 -0.211436209
v -0.824427332 -0.013550373 -0.223107219
v -0.814767657 -0.029885729 -0.234414972
v -0.804374696 -0.046014243 -0.245365516
v -0.793161857 -0.061876537 -0.255887938
v -0.781240202 -0.077476491 -0.266013788
v -0.768621257 -0.092789703 -0.275725973
v -0.755256713 -0.107759249 -0.284965410
v -0.741228495 -0.122387279 -0.293754824
v -0.726556429 -0.136650651 -0.302080311
v -0.711257857 -0.150523893 -0.309925436
v -0.695332619 -0.163966600 -0.317257051
v -0.678823547 -0.176966629 -0.324076211
v -0.661763181 -0.189507404 -0.330377717
v -0.644176686 -0.201566771 -0.336149923
v -0.626091109 -0.213123693 -0.341382601
v -0.607535152 -0.224158446 -0.346067042
v -0.588538934 -0.234652770 -0.350196122
v -0.569133736 -0.244589999 -0.353764337
v -0.549351744 -0.253955146 -0.356767813
v -0.529218956 -0.262721820 -0.359191783
v -0.508768802 -0.270873992 -0.361031893
v -0.488042671 -0.278414705 -0.362301438
v -0.467071874 -0.285328235 -0.362995807
v -0.445882355 -0.291577324 -0.363091455
v -0.424520392 -0.297190132 -0.362623496
v -0.403010415 -0.302113454 -0.361555050
v -0.381394905 -0.306371875 -0.359917362
v -0.359706976 -0.309951454 -0.357707855
v -0.337981410 -0.312825653 -0.354914160
v -0.316255380 -0.315004181 -0.351554062
v -0.294564500 -0.316481652 -0.347632660
v -0.272944541 -0.317254042 -0.343156209
v -0.251432155 -0.317314431 -0.338128847
v -0.230064781 -0.316656838 -0.332555677
v -0.208875063 -0.315295149 -0.326456686
v -0.187903146 -0.313214697 -0.319830590
v -0.167180369 -0.310430719 -0.312698068
v -0.146746741 -0.306934274 -0.305062366
v -0.126636713 -0.302732901 -0.296938599
v -0.106884057 -0.297834668 -0.288342034
v -0.087528052 -0.292238509 -0.279281836
v -0.068599816 -0.285958490 -0.269777183
v -0.050134070 -0.279002632 -0.259843093
v -0.032164980 -0.271380494 -0.249495468
v -0.014730582 -0.263098207 -0.238748128
v 0.002139083 -0.254172657 -0.227621259
v 0.018407237 -0.244613837 -0.216130764
v 0.034046441 -0.234442237 -0.204298297
v 0.049019147 -0.223669460 -0.192140275
v 0.063296947 -0.212316628 -0.179678023
v 0.076847194 -0.200402152 -0.166931037
v 0.089640287 -0.187947998 -0.153920254
v 0.101645347 -0.174976419 -0.140666343
v 0.112834499 -0.161512833 -0.127191014
v 0.123178564 -0.147583154 -0.113515760
v 0.132653485 -0.133217213 -0.099663254
v 0.141234231 -0.118445304 -0.085655845
v 0.148897871 -0.103299783 -0.071516228
v 0.155619784 -0.087813637 -0.057266988
v 0.161387028 -0.072024776 -0.042931877
v 0.166177447 -0.055968954 -0.028533739
v 0.169982858 -0.039686382 -0.014096258
v 0.172785393 -0.023215624 0.000357256
v 0.174582303 -0.006598519 0.014803197
v 0.175366691 0.010123884 0.029218100
v 0.175134301 0.026909956 0.043578345
v 0.173889629 0.043717869 0.057860789
v 0.171632900 0.060506224 0.072041843
v 0.168371886 0.077234081 0.086098442
v 0.164117058 0.093861444 0.100007805
v 0.158879500 0.110349113 0.113747104
v 0.152673992 0.126659175 0.127293979
v 0.145518531 0.142755322 0.140626680
v 0.137425872 0.158600567 0.153721897
v 0.128422956 0.174162708 0.166559872
v 0.118529794 0.189408663 0.179119067
v 0.107769240 0.204307021 0.191378626
v 0.096168351 0.218829054 0.203319232
v 0.083751275 0.232945597 0.214920494
v 0.070549272 0.246631988 0.226165161
v 0.056584259 0.259858975 0.237031628
v 0.041891821 0.272606242 0.247505158
v 0.026497317 0.284847542 0.257565715
v 0.010435574 0.296563927 0.267198848
v -0.006260093 0.307736670 0.276389944
v -0.023557914 0.318346344 0.285123548
v -0.041429138 0.328370468 0.293381486
v -0.059834353 0.337798117 0.301154770
v -0.078740874 0.346612088 0.308429146
v -0.098116808 0.354793441 0.315188795
v -0.117919065 0.362340006 0.321431438
v -0.138118526 0.369229523 0.327138341
v -0.158671686 0.375464167 0.332310619
v -0.179550563 0.381016926 0.336925490
v -0.200712610 0.385890065 0.340984039
v -0.222120411 0.390077087 0.344480171
v -0.243736664 0.393571854 0.347408054
v -0.265523449 0.396371527 0.349764551
v -0.287444671 0.398463137 0.351538170
v -0.309461112 0.399845461 0.352727056
v -0.331533528 0.400534775 0.353343822
v -0.353625413 0.400506537 0.353367374
v -0.375698495 0.399784193 0.352816279
v -0.397713786 0.398346551 0.351672162
v -0.419637131 0.396227059 0.349961963
v -0.441426416 0.393399617 0.347663194
v -0.463045767 0.389880490 0.344788557
v -0.484461257 0.385685857 0.341350733
v -0.505636256 0.380820219 0.337352696
v -0.526534264 0.375289982 0.332799005
v -0.547119162 0.369103461 0.327695822
v -0.567355463 0.362270873 0.322050902
v -0.587208574 0.354804284 0.315873562
v -0.606645050 0.346717536 0.309174624
v -0.625632841 0.338026140 0.301966326
v -0.644141520 0.328747130 0.294262213
v -0.662142484 0.318898892 0.286076988
v -0.679609118 0.308500958 0.277426355
v -0.696509167 0.297567072 0.268321123
v -0.712783834 0.286091484 0.258755470
v -0.728443761 0.274127160 0.248773519
v -0.743470074 0.261697106 0.238394021
v -0.757805860 0.248799559 0.227614520
v -0.771425973 0.235458762 0.216454703
v -0.784352935 0.221722886 0.204954947
v -0.796514836 0.207586691 0.193109669
v -0.807903799 0.193083081 0.180946063
v -0.818555471 0.178258412 0.168503241
v -0.828333652 0.163090537 0.155760497
v -0.837343532 0.147652112 0.142779980
v -0.845499710 0.131943288 0.129560381
v -0.852809295 0.115998841 0.116130722
v -0.859282840 0.099849528 0.102516748
v -0.864845880 0.083509958 0.088729360
v -0.869588401 0.067025317 0.074807630
v -0.873370716 0.050403642 0.060755907
v -0.876343973 0.033692182 0.046616005
v -0.878325828 0.016902870 0.032394802
v -0.879491272 0.000075767 0.018128533
v -0.879677917 -0.016766461 0.003833335
v -0.879028472 -0.033594617 -0.010464131
v -0.877418318 -0.050377287 -0.024739827
v -0.874957949 -0.067091890 -0.038973130
v -0.871562935 -0.083703053 -0.053136044
v -0.867306704 -0.100189986 -0.067210061
v -0.862152175 -0.116519368 -0.081168104
v -0.856126428 -0.132665570 -0.094988423
v -0.849250857 -0.148605735 -0.108651670
v -0.841493482 -0.164299882 -0.122125161
v -0.832948020 -0.179747372 -0.135406815
v -0.823508703 -0.194880728 -0.148442342
v -0.813316679 -0.209720170 -0.161246214
v -0.802296907 -0.224204590 -0.173768933
v -0.790512845 -0.238327353 -0.186003968
v -0.778005987 -0.252078833 -0.197942662
v -0.764709464 -0.265386258 -0.209525736
v -0.750734501 -0.278277390 -0.220774445
v -0.736087624 -0.290724023 -0.231665308
v -0.720735155 -0.302662074 -0.242145759
v -0.704765116 -0.314115868 -0.252234596
v -0.688196689 -0.325063289 -0.261913222
v -0.671037841 -0.335469033 -0.271152302
v -0.653308984 -0.345304260 -0.279927678
v -0.635062877 -0.354575128 -0.288243695
v -0.616326256 -0.363263074 -0.296084636
v -0.597127810 -0.371350702 -0.303435737
v -0.577498015 -0.378821979 -0.310283351
v -0.557468937 -0.385662406 -0.316615098
v -0.537074007 -0.391859163 -0.322419982
v -0.516347775 -0.397401207 -0.327688481
v -0.495325656 -0.402279349 -0.332412612
v -0.474043673 -0.406486292 -0.336585968
v -0.452538200 -0.410016645 -0.340203729
v -0.430845720 -0.412866903 -0.343262651
v -0.409000610 -0.415023550 -0.345751280
v -0.387038416 -0.416469113 -0.347654913
v -0.365000516 -0.417231152 -0.348995930
v -0.342921773 -0.417283633 -0.349752627
v -0.320840078 -0.416636788 -0.349933179
v -0.298793531 -0.415282977 -0.349531058
v -0.276817502 -0.413240752 -0.348561353
v -0.254953960 -0.410481939 -0.347000640
v -0.233237459 -0.407032180 -0.344869891
v -0.211705270 -0.402893915 -0.342170964
v -0.190395064 -0.398070599 -0.338906566
v -0.169343866 -0.392568988 -0.335082131
v -0.148587565 -0.386398762 -0.330705515
v -0.128162632 -0.379568436 -0.325783607
v -0.108111178 -0.372078163 -0.320316371
v -0.088456496 -0.363959592 -0.314329779
v -0.069249277 -0.355202002 -0.307814744
v -0.050512621 -0.345835776 -0.300796118
v -0.032283770 -0.335871029 -0.293281921
v -0.014597697 -0.325322086 -0.285283571
v 0.002513248 -0.314206660 -0.276815178
v 0.019019518 -0.302545134 -0.267892930
v 0.034879766 -0.290348719 -0.258525203
v 0.050074300 -0.277646863 -0.248735348
v 0.064567204 -0.264456475 -0.238536014
v 0.078327116 -0.250799211 -0.227943475
v 0.091325228 -0.236699174 -0.216975694
v 0.103537066 -0.222183323 -0.205652639
v 0.114935813 -0.207277821 -0.193993133
v 0.125494708 -0.192009723 -0.182016185
v 0.135185682 -0.176406800 -0.169740731
v 0.143987569 -0.160500463 -0.157188193
v 0.151876504 -0.144322066 -0.144379126
v 0.158837161 -0.127906188 -0.131336285
v 0.164842431 -0.111285621 -0.118079580
v 0.169880825 -0.094497704 -0.104632493
v 0.173935460 -0.077579513 -0.091017150
v 0.176993240 -0.060569753 -0.077256321
v 0.179044445 -0.043508315 -0.063373131
v 0.180077679 -0.026436071 -0.049390512
v 0.180090428 -0.009394809 -0.035332184
v 0.179080187 0.007573214 -0.021221674
v 0.177046154 0.024425216 -0.007082589
v 0.173992772 0.041118542 0.007061306
v 0.169927355 0.057610885 0.021186310
v 0.164857639 0.073859795 0.035268610
v 0.158798809 0.089824781 0.049284679
v 0.151765601 0.105465594 0.063210926
v 0.143774473 0.120742737 0.077023677
v 0.134849034 0.135620055 0.090700020
v 0.125011665 0.150061741 0.104216844
v 0.114287820 0.164034194 0.117551426
v 0.102706259 0.177506643 0.130681744
v 0.090290137 0.190445531 0.143584071
v 0.077077360 0.202827968 0.156238810
v 0.063096275 0.214625924 0.168623709
v 0.048378141 0.225814061 0.180717193
v 0.032957291 0.236370475 0.192498857
v 0.016871207 0.246277637 0.203950144
v 0.000153658 0.255515691 0.215050990
v -0.017157741 0.264069873 0.225783665
v -0.035028696 0.271922512 0.236128563
v -0.053422324 0.279059600 0.246067746
v -0.072299353 0.285471659 0.255585661
v -0.091619231 0.291153447 0.264669232
v -0.111350732 0.296083713 0.273295476
v -0.131449501 0.300265776 0.281456189
v -0.151877994 0.303691862 0.289136371
v -0.172597729 0.306356527 0.296322339
v -0.193569044 0.308258551 0.303003103
v -0.214752213 0.309399556 0.309169645
v -0.236111390 0.309763216 0.314800418
v -0.257602440 0.309375139 0.319903000
v -0.279189620 0.308215131 0.324452806
v -0.300831992 0.306298627 0.328450499
v -0.322490690 0.303631415 0.331890020
v -0.344126962 0.300217500 0.334763967
v -0.365702062 0.296064065 0.337067287
v -0.387177831 0.291181606 0.338797553
v -0.408517393 0.285584017 0.339955209
v -0.429679435 0.279267565 0.340526285
v -0.450628170 0.272253875 0.340517300
v -0.471332901 0.264570492 0.339940579
v -0.491743147 0.256198183 0.338768053
v -0.511839826 0.247189175 0.337033687
v -0.531575941 0.237536412 0.334719484
v -0.550918460 0.227261431 0.331832654
v -0.569842715 0.216395809 0.328390200
v -0.588314307 0.204955150 0.324394530
v -0.606286377 0.192943371 0.319835942
v -0.623736615 0.180393485 0.314733177
v -0.640638213 0.167331219 0.309098312
v -0.656961309 0.153778894 0.302940056
v -0.672677502 0.139760221 0.296268562
v -0.687760037 0.125300143 0.289095364
v -0.702183961 0.110424666 0.281433284
v -0.715926260 0.095160665 0.273296328
v -0.728959453 0.079532699 0.264695576
v -0.741240646 0.063560130 0.255634069
v -0.752773030 0.047282904 0.246142697
v -0.763541352 0.030730434 0.236239491
v -0.773532527 0.013932025 0.225942988
v -0.782714409 -0.003088182 0.215262742
v -0.791040856 -0.020305554 0.204204931
v -0.798550904 -0.037678050 0.192811661
v -0.805239072 -0.055177204 0.181102903
v -0.811014760 -0.072781708 0.169070444
v -0.815936369 -0.090451916 0.156759789
v -0.820017787 -0.108159172 0.144196252
v -0.823149082 -0.125873798 0.131372764
v -0.825421082 -0.143563780 0.118337775
v -0.826819282 -0.161201264 0.105108402
v -0.827266973 -0.178747452 0.091693357
v -0.826870500 -0.196184035 0.078134919
v -0.825537818 -0.213468198 0.064440730
v -0.823322451 -0.230576919 0.050642485
v -0.820242642 -0.247486288 0.036763099
v -0.816225606 -0.264145343 0.022821516
v -0.811390650 -0.280557737 0.008846932
v -0.805627883 -0.296657390 -0.005140248
v -0.799039424 -0.312447065 -0.019114762
v -0.791602709 -0.327888659 -0.033053917
v -0.783307490 -0.342943007 -0.046930930
v -0.774245269 -0.357622639 -0.060730753
v -0.764304848 -0.371835739 -0.074413930
v -0.753624044 -0.385622199 -0.087973653
v -0.742165139 -0.398927736 -0.101379106
v -0.729940871 -0.411721836 -0.114603886
v -0.717026950 -0.424022220 -0.127641107
v -0.703363062 -0.435745527 -0.140444099
v -0.689034282 -0.446917328 -0.153009393
v -0.674074492 -0.457530592 -0.165322652
v -0.658437028 -0.467497691 -0.177330371
v -0.642215034 -0.476863222 -0.189041273
v -0.625433117 -0.485611787 -0.200437220
v -0.608083758 -0.493685683 -0.211476818
v -0.590214866 -0.501088853 -0.222150285
v -0.571869691 -0.507826095 -0.232449741
v -0.553075334 -0.513881784 -0.242356251
v -0.533854312 -0.519229665 -0.251844118
v -0.514234624 -0.523846887 -0.260888768
v -0.494264358 -0.527750309 -0.269490146
v -0.473976053 -0.530930208 -0.277632361
v -0.453403559 -0.533378557 -0.285300465
v -0.432581854 -0.535089151 -0.292480596
v -0.411546832 -0.536057702 -0.299160106
v -0.390335077 -0.536281893 -0.305327662
v -0.368983624 -0.535761409 -0.310973333
v -0.347529723 -0.534497927 -0.316088644
v -0.326010604 -0.532495089 -0.320666618
v -0.304463290 -0.529755711 -0.324699732
v -0.282926473 -0.526256858 -0.328160746
v -0.261437462 -0.522037111 -0.331068920
v -0.240031688 -0.517107774 -0.333423571
v -0.218752782 -0.511439171 -0.335191193
v -0.197630946 -0.505078587 -0.336399473
v -0.176709992 -0.498009911 -0.337025077
v -0.156017759 -0.490271485 -0.337089633
v -0.135605585 -0.481838126 -0.336561114
v -0.115497859 -0.472753955 -0.335466408
v -0.095732373 -0.463027686 -0.333802423
v -0.076346330 -0.452671873 -0.331569114
v -0.057375741 -0.441702425 -0.328769271
v -0.038854960 -0.430138112 -0.325408263
v -0.020816338 -0.418000094 -0.321493763
v -0.003289997 -0.405311472 -0.317035465
v 0.013683784 -0.392085755 -0.312033265
v 0.030079715 -0.378351423 -0.306502090
v 0.045862000 -0.364127903 -0.300447365
v 0.061006794 -0.349444092 -0.293884619
v 0.075480788 -0.334322133 -0.286821832
v 0.089254052 -0.318787508 -0.279270269
v 0.102300163 -0.302868158 -0.271243825
v 0.114596170 -0.286593756 -0.262758451
v 0.126113782 -0.269991859 -0.253826973
v 0.136829902 -0.253092783 -0.244465422
v 0.146717080 -0.235926105 -0.234687893
v 0.155758415 -0.218525222 -0.224513799
v 0.163932866 -0.200922543 -0.213960404
v 0.171215980 -0.183150783 -0.203043886
v 0.177594462 -0.165245442 -0.191785014
v 0.183048444 -0.147241691 -0.180202034
v 0.187565461 -0.129176290 -0.168315801
v 0.191130542 -0.111086589 -0.156146283
v 0.193733189 -0.093010975 -0.143714756
v 0.195361618 -0.074988857 -0.131042119
v 0.196009592 -0.057060327 -0.118150559
v 0.195669649 -0.039266662 -0.105061917
v 0.194341275 -0.021649124 -0.091799252
v 0.192023151 -0.004249959 -0.078385259
v 0.188717805 0.012888437 -0.064843102
v 0.184430025 0.029723374 -0.051196095
v 0.179164688 0.046211068 -0.037467585
v 0.172938083 0.062311271 -0.023681666
v 0.165759636 0.077980433 -0.009861910
v 0.157649264 0.093179166 0.003967713
v 0.148624902 0.107866856 0.017783300
v 0.138710138 0.122005847 0.031560967
v 0.127931150 0.135560306 0.045276967
v 0.116312659 0.148493402 0.058907238
v 0.103888157 0.160775250 0.072428534
v 0.090688772 0.172374999 0.085817349
v 0.076747878 0.183264341 0.099050364
v 0.062101130 0.193418037 0.112104639
v 0.046786464 0.202814555 0.124957902
v 0.030839948 0.211431347 0.137587269
v 0.014302676 0.219253505 0.149971763
v -0.002789203 0.226260666 0.162088356
v -0.020392813 0.232443741 0.173917401
v -0.038467911 0.237791811 0.185438506
v -0.056976871 0.242289781 0.196629242
v -0.075873660 0.245941714 0.207474581
v -0.095122679 0.248730416 0.217950565
v -0.114679516 0.250661140 0.228042503
v -0.134503794 0.251731779 0.237732552
v -0.154554637 0.251943945 0.247004499
v -0.174793299 0.251290203 0.255837271
v -0.195176196 0.249790858 0.264224079
v -0.215665527 0.247435114 0.272141674
v -0.236219975 0.244238832 0.279581098
v -0.256799987 0.240210500 0.286529539
v -0.277366404 0.235360737 0.292975485
v -0.297880121 0.229697423 0.298905656
v -0.318301606 0.223229444 0.304307060
v -0.338595463 0.215987247 0.309181552
v -0.358719258 0.207962398 0.313504145
v -0.378639675 0.199189522 0.317280040
v -0.398320046 0.189684208 0.320501330
v -0.417723410 0.179462190 0.323160015
v -0.436813588 0.168542190 0.325250228
v -0.455555718 0.156945900 0.326768489
v -0.473916858 0.144697876 0.327713934
v -0.491866660 0.131825326 0.328088510
v -0.509374326 0.118353241 0.327892611
v -0.526392428 0.104288531 0.327107854
v -0.542916977 0.089687684 0.325766298
v -0.558889422 0.074547935 0.323838459
v -0.574314864 0.058928284 0.321362229
v -0.589126635 0.042825303 0.318303880
v -0.603328242 0.026292230 0.314697092
v -0.616895270 0.009358151 0.310547770
v -0.629786783 -0.007956079 0.305849031
v -0.641978581 -0.025618097 0.300608868
v -0.653462322 -0.043589032 0.294846729
v -0.664216085 -0.061837352 0.288571209
v -0.674219703 -0.080330552 0.281792329
v -0.683454882 -0.099035330 0.274521488
v -0.691905309 -0.117917782 0.266771399
v -0.699556730 -0.136943603 0.258555997
v -0.706396991 -0.156078293 0.249890347
v -0.712416057 -0.175287359 0.240790514
v -0.717605982 -0.194536516 0.231273442
v -0.721955346 -0.213791674 0.221354314
v -0.725423774 -0.233015869 0.211036335
v -0.728042596 -0.252175051 0.200354945
v -0.729811690 -0.271236304 0.189329993
v -0.730732599 -0.290167649 0.177981560
v -0.730775483 -0.308930393 0.166318914
v -0.729931402 -0.327486418 0.154360892
v -0.728245965 -0.345813464 0.142142594
v -0.725726556 -0.363882926 0.129684848
v -0.722301201 -0.381635429 0.116989486
v -0.718044539 -0.399061938 0.104097376
v -0.712978409 -0.416140324 0.091032284
v -0.707041729 -0.432807766 0.077803307
v -0.700291633 -0.449054573 0.064443415
v -0.692767792 -0.464869600 0.050978182
v -0.684404779 -0.480177868 0.037422014
v -0.675277121 -0.494986489 0.023805951
v -0.665420980 -0.509286512 0.010152574
v -0.654762581 -0.522983919 -0.003516134
v -0.643407347 -0.536118545 -0.017174309
v -0.631367978 -0.548665466 -0.030800823
v -0.618597446 -0.560538033 -0.044365477
v -0.605196161 -0.571787086 -0.057851462
v -0.591167109 -0.582375742 -0.071235017
v -0.576493148 -0.592235329 -0.084482673
v -0.561257628 -0.601413773 -0.097583956
v -0.545472799 -0.609880783 -0.110514718
v -0.529127506 -0.617564061 -0.123236474
v -0.512299004 -0.624517119 -0.135745035
v -0.495011949 -0.630724874 -0.148019603
v -0.477263986 -0.636117581 -0.160019090
v -0.459111437 -0.640725694 -0.171735287
v -0.440591301 -0.644553241 -0.183153138
v -0.421732933 -0.647589409 -0.194252236
v -0.402555891 -0.649791175 -0.204997339
v -0.383103587 -0.651173265 -0.215376860
v -0.363415075 -0.651747223 -0.225379361
v -0.343523773 -0.651508558 -0.234986384
v -0.323464117 -0.650454553 -0.244180069
v -0.303271422 -0.648584396 -0.252943315
v -0.282981712 -0.645899283 -0.261259907
v -0.262631531 -0.642402482 -0.269114655
v -0.242257737 -0.638099368 -0.276493513
v -0.221897292 -0.632997426 -0.283383673
v -0.201587044 -0.627106220 -0.289773656
v -0.181363513 -0.620437334 -0.295653374
v -0.161262689 -0.613004290 -0.301014175
v -0.141319838 -0.604822443 -0.305848873
v -0.121569322 -0.595908855 -0.310151753
v -0.102056829 -0.586248674 -0.313892558
v -0.082808785 -0.575887630 -0.317086637
v -0.063854426 -0.564853202 -0.319737017
v -0.045249809 -0.553120627 -0.321802692
v -0.027001145 -0.540762584 -0.323324763
v -0.009170699 -0.527752737 -0.324258436
v 0.008232568 -0.514150396 -0.324635486
v 0.025169015 -0.499966733 -0.324444344
v 0.041596310 -0.485215313 -0.323673671
v 0.057495648 -0.469935526 -0.322338669
v 0.072835299 -0.454151700 -0.320439450
v 0.087585650 -0.437890874 -0.317978757
v 0.101719486 -0.421182234 -0.314961748
v 0.115210242 -0.404055477 -0.311394190
v 0.128019029 -0.386534116 -0.307272404
v 0.140140206 -0.368660259 -0.302619325
v 0.151535191 -0.350458752 -0.297432183
v 0.162193848 -0.331967655 -0.291729322
v 0.172081407 -0.313215684 -0.285511989
v 0.181182492 -0.294239266 -0.278794999
v 0.189480349 -0.275073871 -0.271591863
v 0.196952790 -0.255754193 -0.263912996
v 0.203581456 -0.236316495 -0.255771393
v 0.209362195 -0.216798583 -0.247187415
v 0.214262921 -0.197236620 -0.238167238
v 0.218284284 -0.177669317 -0.228733559
v 0.221411624 -0.158134922 -0.218901387
v 0.223635244 -0.138672395 -0.208688139
v 0.224948515 -0.119320970 -0.198112448
v 0.225337112 -0.100122034 -0.187190141
v 0.224805954 -0.081114443 -0.175944136
v 0.223348707 -0.062339658 -0.164393022
v 0.220963100 -0.043839445 -0.152556851
v 0.217651474 -0.025655169 -0.140456973
v 0.213420105 -0.007827482 -0.128115530
v 0.208269001 0.009599209 -0.115552978
v 0.202212332 0.026585635 -0.102792976
v 0.195258331 0.043088891 -0.089857542
v 0.187419658 0.059067001 -0.076769518
v 0.178712790 0.074479116 -0.063552234
v 0.169157521 0.089285635 -0.050229291
v 0.158776564 0.103448300 -0.036824421
v 0.147594405 0.116929492 -0.023361363
v 0.135635089 0.129689995 -0.009863926
v 0.122933188 0.141700002 0.003643742
v 0.109517616 0.152923770 0.017137639
v 0.095424532 0.163333039 0.030593755
v 0.080691737 0.172902107 0.043988310
v 0.065354701 0.181602091 0.057297062
v 0.049455435 0.189413823 0.070496531
v 0.033035270 0.196318484 0.083563249
v 0.016136317 0.202299762 0.096473923
v -0.001198138 0.207345163 0.109205717
v -0.018925904 0.211441058 0.121735248
v -0.037001837 0.214582966 0.134040835
v -0.055382766 0.216763803 0.146100024
v -0.074024187 0.217983417 0.157891909
v -0.092882956 0.218240058 0.169394962
v -0.111915626 0.217536577 0.180588793
v -0.131078975 0.215881136 0.191454751
v -0.150331592 0.213269928 0.201969602
v -0.169630673 0.209722715 0.212118699
v -0.188935371 0.205245924 0.221882416
v -0.208204979 0.199850319 0.231242601
v -0.227399575 0.193551500 0.240183183
v -0.246480882 0.186370375 0.248690904
v -0.265408061 0.178310257 0.256743404
v -0.284146216 0.169404908 0.264334181
v -0.302657629 0.159669256 0.271447036
v -0.320905247 0.149121973 0.278067519
v -0.338853322 0.137785653 0.284183406
v -0.356468176 0.125686901 0.289785220
v -0.373719138 0.112856286 0.294866811
v -0.390569047 0.099311487 0.299412716
v -0.406991328 0.085088807 0.303421432
v -0.422947461 0.070205573 0.306876366
v -0.438416071 0.054703170 0.309781140
v -0.453366402 0.038609009 0.312127907
v -0.467769329 0.021953060 0.313910825
v -0.481597835 0.004767675 0.315126282
v -0.494827497 -0.012912685 0.315773094
v -0.507437006 -0.031051830 0.315852678
v -0.519408681 -0.049612338 0.315369172
v -0.530699444 -0.068571162 0.314305259
v -0.541310036 -0.087879503 0.312681012
v -0.551217749 -0.107503653 0.310495965
v -0.560396904 -0.127409172 0.307748118
v -0.568836884 -0.147556326 0.304446893
v -0.576538150 -0.167903584 0.300609283
v -0.583442907 -0.188422540 0.296211051
v -0.589579678 -0.209065805 0.291288877
v -0.594934030 -0.229796694 0.285848629
v -0.599493301 -0.250577686 0.279897616
v -0.603229454 -0.271370036 0.273434158
v -0.606149556 -0.292133978 0.266478659
v -0.608253781 -0.312831203 0.259046689
v -0.609537863 -0.333423476 0.251151056
v -0.609999587 -0.353872741 0.242805772
v -0.609638773 -0.374141317 0.234025960
v -0.608457241 -0.394192077 0.224827759
v -0.606458736 -0.413988611 0.215228220
v -0.603647444 -0.433494803 0.205244545
v -0.600003511 -0.452663477 0.194883591
v -0.595559056 -0.471468437 0.184175801
v -0.590325058 -0.489876630 0.173141355
v -0.584313932 -0.507856280 0.161800808
v -0.577539364 -0.525376916 0.150174972
v -0.570003262 -0.542400189 0.138280586
v -0.561693780 -0.558874280 0.126131367
v -0.552666721 -0.574797108 0.113762635
v -0.542940485 -0.590143060 0.101196158
v -0.532526424 -0.604880369 0.088451854
v -0.521401155 -0.618939314 0.075543590
v -0.509637561 -0.632343355 0.062506878
v -0.497257204 -0.645071453 0.049363591
v -0.484254124 -0.657067996 0.036132639
v -0.470653260 -0.668307917 0.022839618
v -0.456508065 -0.678808291 0.009510627
v -0.441841504 -0.688550403 -0.003832538
v -0.426633092 -0.697440005 -0.017164251
v -0.410960587 -0.705537707 -0.030461083
v -0.394849851 -0.712829267 -0.043701269
v -0.378308187 -0.719258842 -0.056857619
v -0.361370404 -0.724817609 -0.069905051
v -0.344083564 -0.729532759 -0.082825538
v -0.326476176 -0.733393898 -0.095597261
v -0.308560704 -0.736333452 -0.108185095
v -0.290386675 -0.738390378 -0.120574286
v -0.271989564 -0.739572786 -0.132746241
v -0.253400774 -0.739875323 -0.144679421
v -0.234649127 -0.739269104 -0.156344336
v -0.215770911 -0.737751802 -0.167717681
v -0.196804805 -0.735354157 -0.178788098
v -0.177784521 -0.732077369 -0.189535314
v -0.158744369 -0.727924395 -0.199939418
v -0.139719141 -0.722900083 -0.209980971
v -0.120743992 -0.717011270 -0.219641135
v -0.101854283 -0.710266852 -0.228901792
v -0.083086160 -0.702673890 -0.237743608
v -0.064473811 -0.694252445 -0.246153743
v -0.046050953 -0.685020645 -0.254118874
v -0.027854730 -0.674984990 -0.261618873
v -0.009917733 -0.664169666 -0.268643601
v 0.007727168 -0.652595828 -0.275181530
v 0.025048134 -0.640286389 -0.281222498
v 0.042014510 -0.627265883 -0.286757740
v 0.058596961 -0.613560307 -0.291779913
v 0.074750984 -0.599173076 -0.296263248
v 0.090453784 -0.584143593 -0.300209884
v 0.105688607 -0.568514476 -0.303626976
v 0.120398147 -0.552280275 -0.306477398
v 0.134585395 -0.535504539 -0.308788907
v 0.148194930 -0.518189926 -0.310528872
v 0.161228054 -0.500392185 -0.311720876
v 0.173636531 -0.482124788 -0.312341117
v 0.185404453 -0.463428435 -0.312396597
v 0.196513606 -0.444340025 -0.311891378
v 0.206939021 -0.424892426 -0.310823780
v 0.216658448 -0.405120759 -0.309194710
v 0.225652515 -0.385061774 -0.307007498
v 0.233904801 -0.364753294 -0.304267703
v 0.241401817 -0.344233708 -0.300982899
v 0.248111090 -0.323537701 -0.297147605
v 0.254037521 -0.302708173 -0.292782373
v 0.259154517 -0.281782372 -0.287886297
v 0.263462066 -0.260800980 -0.282475970
v 0.266943272 -0.239803304 -0.276557118
v 0.269584949 -0.218830083 -0.270138229
v 0.271382566 -0.197922195 -0.263233012
v 0.272329370 -0.177120783 -0.255853818
v 0.272426485 -0.156465922 -0.248017214
v 0.271665895 -0.135999659 -0.239734835
v 0.270050572 -0.115762052 -0.231023996
v 0.267571275 -0.095797494 -0.221896061
v 0.264237997 -0.076144967 -0.212371657
v 0.260052326 -0.056846546 -0.202467198
v 0.255015551 -0.037945722 -0.192199070
v 0.249143956 -0.019479238 -0.181589751
v 0.242435831 -0.001494234 -0.170654264
v 0.234909651 0.015972459 -0.159415441
v 0.226576928 0.032879271 -0.147893090
v 0.217453501 0.049186413 -0.136108348
v 0.207554616 0.064852230 -0.124081963
v 0.196902202 0.079839337 -0.111836494
v 0.185517499 0.094108509 -0.099393984
v 0.173426829 0.107624286 -0.086777523
v 0.160656368 0.120349761 -0.074009860
v 0.147235683 0.132250368 -0.061114293
v 0.133197217 0.143293869 -0.048114439
v 0.118575869 0.153450339 -0.035034087
v 0.103408666 0.162692153 -0.021897111
v 0.087731708 0.170988271 -0.008727364
v 0.071588644 0.178320908 0.004450888
v 0.055021632 0.184669850 0.017613685
v 0.038072277 0.190012055 0.030736742
v 0.020787347 0.194337992 0.043796209
v 0.003212345 0.197636211 0.056768230
v -0.014606696 0.199897959 0.069629012
v -0.032623280 0.201117872 0.082354918
v -0.050790720 0.201294328 0.094922608
v -0.069062485 0.200429869 0.107309250
v -0.087392687 0.198530228 0.119492510
v -0.105736041 0.195596163 0.131448664
v -0.124047906 0.191643838 0.143157220
v -0.142284686 0.186683790 0.154596382
v -0.160403546 0.180729172 0.165744775
v -0.178362967 0.173797658 0.176582215
v -0.196123500 0.165911914 0.187090293
v -0.213643078 0.157081569 0.197245633
v -0.230886542 0.147340262 0.207033816
v -0.247816115 0.136708326 0.216435488
v -0.264395648 0.125210149 0.225432771
v -0.280591387 0.112874399 0.234009842
v -0.296372930 0.099734137 0.242153621
v -0.311700708 0.085805655 0.249841348
v -0.326552935 0.071134817 0.257067617
v -0.340897813 0.055749032 0.263816527
v -0.354705413 0.039678994 0.270073866
v -0.367948299 0.022958638 0.275827547
v -0.380602263 0.005624954 0.281068086
v -0.392647135 -0.012282357 0.285789120
v -0.404058882 -0.030728147 0.289980722
v -0.414811345 -0.049678080 0.293631276
v -0.424888896 -0.069090283 0.296737649
v -0.434277493 -0.088923163 0.299297678
v -0.442956136 -0.109139743 0.301303572
v -0.450901634 -0.129702931 0.302746021
v -0.458109428 -0.150567308 0.303629917
v -0.464561745 -0.171693646 0.303949986
v -0.470244163 -0.193040717 0.303703581
v -0.475154197 -0.214564535 0.302896713
v -0.479289960 -0.236222742 0.301535505
v -0.482631006 -0.257975608 0.299612896
v -0.485171874 -0.279779888 0.297132709
v -0.486926333 -0.301593603 0.294111729
v -0.487864945 -0.323373846 0.290537285
v -0.488008937 -0.345079935 0.286431057
v -0.487361866 -0.366671616 0.281802538
v -0.485891139 -0.388100691 0.276637838
v -0.483637198 -0.409333479 0.270970596
v -0.480601014 -0.430329805 0.264808541
v -0.476784105 -0.451048866 0.258159893
v -0.472170369 -0.471440627 0.251022418
v -0.466794527 -0.491476043 0.243425055
v -0.460665771 -0.511116746 0.235380878
v -0.453795209 -0.530325145 0.226904150
v -0.446195805 -0.549064585 0.218010247
v -0.437882304 -0.567299510 0.208715581
v -0.428871128 -0.584995590 0.199037505
v -0.419180272 -0.602119841 0.188994220
v -0.408829179 -0.618640715 0.178604670
v -0.397838606 -0.634528162 0.167888446
v -0.386230497 -0.649753667 0.156865683
v -0.374006552 -0.664263343 0.145547125
v -0.361210292 -0.678051555 0.133963676
v -0.347867885 -0.691095094 0.122137443
v -0.334005605 -0.703371637 0.110090452
v -0.319650337 -0.714860397 0.097844882
v -0.304829490 -0.725542040 0.085423013
v -0.289546964 -0.735348383 0.072839665
v -0.273856218 -0.744304483 0.060127128
v -0.257788445 -0.752399081 0.047308847
v -0.241373318 -0.759618741 0.034407615
v -0.224636156 -0.765936462 0.021445647
v -0.207599276 -0.771304787 0.008446739
v -0.190311109 -0.775763269 -0.004562864
v -0.172802881 -0.779304035 -0.017560294
v -0.155106099 -0.781920291 -0.030522686
v -0.137246549 -0.783558389 -0.043422768
v -0.119265087 -0.784246567 -0.056237493
v -0.101196981 -0.783999601 -0.068945260
v -0.083074967 -0.782816443 -0.081523400
v -0.064932114 -0.780697341 -0.093949243
v -0.046804355 -0.777598785 -0.106190374
v -0.028726751 -0.773567798 -0.118231097
v -0.010732588 -0.768616398 -0.130050712
v 0.007144570 -0.762751600 -0.141627441
v 0.024871036 -0.755982124 -0.152939737
v 0.042413086 -0.748318503 -0.163966358
v 0.059737060 -0.739773163 -0.174686450
v 0.076804997 -0.730347182 -0.185074203
v 0.093587661 -0.720072123 -0.195115229
v 0.110054324 -0.708970465 -0.204792507
v 0.126173567 -0.697062266 -0.214088127
v 0.141914690 -0.684369478 -0.222985020
v 0.157247857 -0.670915903 -0.231467051
v 0.172144244 -0.656727118 -0.239519112
v 0.186565990 -0.641816272 -0.247117707
v 0.200491003 -0.626221301 -0.254254571
v 0.213895724 -0.609975644 -0.260919643
v 0.226756548 -0.593111550 -0.267102637
v 0.239051545 -0.575662377 -0.272794624
v 0.250738694 -0.557643770 -0.277969809
v 0.261803789 -0.539098752 -0.282626308
v 0.272243189 -0.520075382 -0.286770354
v 0.282000081 -0.500583792 -0.290365148
v 0.291092099 -0.480685001 -0.293433788
v 0.299469430 -0.460398357 -0.295945948
v 0.307147615 -0.439778363 -0.297922155
v 0.314075674 -0.418848366 -0.299332056
v 0.320261339 -0.397657896 -0.300190000
v 0.325691589 -0.376246351 -0.300494393
v 0.330350651 -0.354653055 -0.300241775
v 0.334225971 -0.332918975 -0.299431185
v 0.337308232 -0.311086077 -0.298064053
v 0.339591307 -0.289196759 -0.296144058
v 0.341072139 -0.267293341 -0.293676948
v 0.341750575 -0.245417644 -0.290670345
v 0.341604232 -0.223613979 -0.287117228
v 0.340655047 -0.201922496 -0.283039865
v 0.338882163 -0.180389393 -0.278432564
v 0.336302703 -0.159054258 -0.273314147
v 0.332914123 -0.137960696 -0.267690768
v 0.328718656 -0.117152050 -0.261571695
v 0.323722782 -0.096670693 -0.254968804
v 0.317936690 -0.076557524 -0.247896101
v 0.311371088 -0.056853173 -0.240367755
v 0.304027345 -0.037604522 -0.232392530
v 0.295927219 -0.018847147 -0.223990803
v 0.287082328 -0.000622856 -0.215176933
v 0.277506664 0.017026972 -0.205966517
v 0.267218403 0.034063331 -0.196377243
v 0.256239142 0.050449775 -0.186428309
v 0.244584929 0.066143218 -0.176135819
v 0.232284244 0.081112430 -0.165521874
v 0.219358426 0.095317362 -0.154604633
v 0.205834118 0.108722358 -0.143404538
v 0.191739995 0.121292919 -0.131942585
v 0.177108475 0.132998813 -0.120241014
v 0.161972833 0.143810099 -0.108321932
v 0.146365284 0.153692362 -0.096206583
v 0.130324218 0.162620794 -0.083918350
v 0.113888477 0.170570199 -0.071480292
v 0.097098366 0.177516569 -0.058915602
v 0.079996264 0.183439155 -0.046247853
v 0.062626225 0.188320331 -0.033500831
v 0.045033636 0.192145492 -0.020698444
v 0.027264525 0.194899476 -0.007864633
v 0.009366753 0.196575219 0.004976397
v -0.008611501 0.197168840 0.017800574
v -0.026621974 0.196677863 0.030583883
v -0.044616187 0.195101305 0.043302200
v -0.062545748 0.192443766 0.055931564
v -0.080363037 0.188714804 0.068448388
v -0.098021192 0.183925464 0.080829204
v -0.115474080 0.178088602 0.093050587
v -0.132676375 0.171219361 0.105089173
v -0.149586294 0.163342951 0.116923445
v -0.166159812 0.154474575 0.128529663
v -0.182358698 0.144644415 0.139887359
v -0.198143496 0.133876450 0.150974562
v -0.213476893 0.122198318 0.161770095
v -0.228324419 0.109641530 0.172254007
v -0.242655319 0.096241614 0.182408142
v -0.256431342 0.082021819 0.192209054
v -0.269629572 0.067026771 0.201642568
v -0.282220100 0.051289350 0.210689619
v -0.294175942 0.034845699 0.219332605
v -0.305473829 0.017735153 0.227555934
v -0.316095113 0.000000000 0.235346663
l 1 2
l 2 3
l 3 4
l 4 5
l 5 6
l 6 7
l 7 8
l 8 9
l 9 10
l 10 11
l 11 12
l 12 13
l 13 14
l 14 15
l 15 16
l 16 17
l 17 18
l 18 19
l 19 20
l 20 21
l 21 22
l 22 23
l 23 24
l 24 25
l 25 26
l 26 27
l 27 28
l 28 29
l 29 30
l 30 31
l 31 32
l 32 33
l 33 34
l 34 35
l 35 36
l 36 37
l 37 38
l 38 39
l 39 40
l 40 41
l 41 42
l 42 43
l 43 44
l 44 45
l 45 46
l 46 47
l 47 48
l 48 49
l 49 50
l 50 51
l 51 52
l 52 53
l 53 54
l 54 55
l 55 56
l 56 57
l 57 58
l 58 59
l 59 60
l 60 61
l 61 62
l 62 63
l 63 64
l 64 65
l 65 66
l 66 67
l 67 68
l 68 69
l 69 70
l 70 71
l 71 72
l 72 73
l 73 74
l 74 75
l 75 76
l 76 77
l 77 78
l 78 79
l 79 80
l 80 81
l 81 82
l 82 83
l 83 84
l 84 85
l 85 86
l 86 87
l 87 88
l 88 89
l 89 90
l 90 91
l 91 92
l 92 93
l 93 94
l 94 95
l 95 96
l 96 97
l 97 98
l 98 99
l 99 100
l 100 101
l 101 102
l 102 103
l 103 104
l 104 105
l 105 106
l 106 107
l 107 108
l 108 109
l 109 110
l 110 111
l 111 112
l 112 113
l 113 114
l 114 115
l 115 116
l 116 117
l 117 118
l 118 119
l 119 120
l 120 121
l 121 122
l 122 123
l 123 124
l 124 125
l 125 126
l 126 127
l 127 128
l 128 129
l 129 130
l 130 131
l 131 132
l 132 133
l 133 134
l 134 135
l 135 136
l 136 137
l 137 138
l 138 139
l 139 140
l 140 141
l 141 142
l 142 143
l 143 144
l 144 145
l 145 146
l 146 147
l 147 148
l 148 149
l 149 150
l 150 151
l 151 152
l 152 153
l 153 154
l 154 155
l 155 156
l 156 157
l 157 158
l 158 159
l 159 160
l 160 161
l 161 162
l 162 163
l 163 164
l 164 165
l 165 166
l 166 167
l 167 168
l 168 169
l 169 170
l 170 171
l 171 172
l 172 173
l 173 174
l 174 175
l 175 176
l 176 177
l 177 178
l 178 179
l 179 180
l 180 181
l 181 182
l 182 183
l 183 184
l 184 185
l 185 186
l 186 187
l 187 188
l 188 189
l 189 190
l 190 191
l 191 192
l 192 193
l 193 194
l 194 195
l 195 196
l 196 197
l 197 198
l 198 199
l 199 200
l 200 201
l 201 202
l 202 203
l 203 204
l 204 205
l 205 206
l 206 207
l 207 208
l 208 209
l 209 210
l 210 211
l 211 212
l 212 213
l 213 214
l 214 215
l 215 216
l 216 217
l 217 218
l 218 219
l 219 220
l 220 221
l 221 222
l 222 223
l 223 224
l 224 225
l 225 226
l 226 227
l 227 228
l 228 229
l 229 230
l 230 231
l 231 232
l 232 233
l 233 234
l 234 235
l 235 236
l 236 237
l 237 238
l 238 239
l 239 240
l 240 241
l 241 242
l 242 243
l 243 244
l 244 245
l 245 246
l 246 247
l 247 248
l 248 249
l 249 250
l 250 251
l 251 252
l 252 253
l 253 254
l 254 255
l 255 256
l 256 257
l 257 258
l 258 259
l 259 260
l 260 261
l 261 262
l 262 263
l 263 264
l 264 265
l 265 266
l 266 267
l 267 268
l 268 269
l 269 270
l 270 271
l 271 272
l 272 273
l 273 274
l 274 275
l 275 276
l 276 277
l 277 278
l 278 279
l 279 280
l 280 281
l 281 282
l 282 283
l 283 284
l 284 285
l 285 286
l 286 287
l 287 288
l 288 289
l 289 290
l 290 291
l 291 292
l 292 293
l 293 294
l 294 295
l 295 296
l 296 297
l 297 298
l 298 299
l 299 300
l 300 301
l 301 302
l 302 303
l 303 304
l 304 305
l 305 306
l 306 307
l 307 308
l 308 309
l 309 310
l 310 311
l 311 312
l 312 313
l 313 314
l 314 315
l 315 316
l 316 317
l 317 318
l 318 319
l 319 320
l 320 321
l 321 322
l 322 323
l 323 324
l 324 325
l 325 326
l 326 327
l 327 328
l 328 329
l 329 330
l 330 331
l 331 332
l 332 333
l 333 334
l 334 335
l 335 336
l 336 337
l 337 338
l 338 339
l 339 340
l 340 341
l 341 342
l 342 343
l 343 344
l 344 345
l 345 346
l 346 347
l 347 348
l 348 349
l 349 350
l 350 351
l 351 352
l 352 353
l 353 354
l 354 355
l 355 356
l 356 357
l 357 358
l 358 359
l 359 360
l 360 361
l 361 362
l 362 363
l 363 364
l 364 365
l 365 366
l 366 367
l 367 368
l 368 369
l 369 370
l 370 371
l 371 372
l 372 373
l 373 374
l 374 375
l 375 376
l 376 377
l 377 378
l 378 379
l 379 380
l 380 381
l 381 382
l 382 383
l 383 384
l 384 385
l 385 386
l 386 387
l 387 388
l 388 389
l 389 390
l 390 391
l 391 392
l 392 393
l 393 394
l 394 395
l 395 396
l 396 397
l 397 398
l 398 399
l 399 400
l 400 401
l 401 402
l 402 403
l 403 404
l 404 405
l 405 406
l 406 407
l 407 408
l 408 409
l 409 410
l 410 411
l 411 412
l 412 413
l 413 414
l 414 415
l 415 416
l 416 417
l 417 418
l 418 419
l 419 420
l 420 421
l 421 422
l 422 423
l 423 424
l 424 425
l 425 426
l 426 427
l 427 428
l 428 429
l 429 430
l 430 431
l 431 432
l 432 433
l 433 434
l 434 435
l 435 436
l 436 437
l 437 438
l 438 439
l 439 440
l 440 441
l 441 442
l 442 443
l 443 444
l 444 445
l 445 446
l 446 447
l 447 448
l 448 449
l 449 450
l 450 451
l 451 452
l 452 453
l 453 454
l 454 455
l 455 456
l 456 457
l 457 458
l 458 459
l 459 460
l 460 461
l 461 462
l 462 463
l 463 464
l 464 465
l 465 466
l 466 467
l 467 468
l 468 469
l 469 470
l 470 471
l 471 472
l 472 473
l 473 474
l 474 475
l 475 476
l 476 477
l 477 478
l 478 479
l 479 480
l 480 481
l 481 482
l 482 483
l 483 484
l 484 485
l 485 486
l 486 487
l 487 488
l 488 489
l 489 490
l 490 491
l 491 492
l 492 493
l 493 494
l 494 495
l 495 496
l 496 497
l 497 498
l 498 499
l 499 500
l 500 501
l 501 502
l 502 503
l 503 504
l 504 505
l 505 506
l 506 507
l 507 508
l 508 509
l 509 510
l 510 511
l 511 512
l 512 513
l 513 514
l 514 515
l 515 516
l 516 517
l 517 518
l 518 519
l 519 520
l 520 521
l 521 522
l 522 523
l 523 524
l 524 525
l 525 526
l 526 527
l 527 528
l 528 529
l 529 530
l 530 531
l 531 532
l 532 533
l 533 534
l 534 535
l 535 536
l 536 537
l 537 538
l 538 539
l 539 540
l 540 541
l 541 542
l 542 543
l 543 544
l 544 545
l 545 546
l 546 547
l 547 548
l 548 549
l 549 550
l 550 551
l 551 552
l 552 553
l 553 554
l 554 555
l 555 556
l 556 557
l 557 558
l 558 559
l 559 560
l 560 561
l 561 562
l 562 563
l 563 564
l 564 565
l 565 566
l 566 567
l 567 568
l 568 569
l 569 570
l 570 571
l 571 572
l 572 573
l 573 574
l 574 575
l 575 576
l 576 577
l 577 578
l 578 579
l 579 580
l 580 581
l 581 582
l 582 583
l 583 584
l 584 585
l 585 586
l 586 587
l 587 588
l 588 589
l 589 590
l 590 591
l 591 592
l 592 593
l 593 594
l 594 595
l 595 596
l 596 597
l 597 598
l 598 599
l 599 600
l 600 601
l 601 602
l 602 603
l 603 604
l 604 605
l 605 606
l 606 607
l 607 608
l 608 609
l 609 610
l 610 611
l 611 612
l 612 613
l 613 614
l 614 615
l 615 616
l 616 617
l 617 618
l 618 619
l 619 620
l 620 621
l 621 622
l 622 623
l 623 624
l 624 625
l 625 626
l 626 627
l 627 628
l 628 629
l 629 630
l 630 631
l 631 632
l 632 633
l 633 634
l 634 635
l 635 636
l 636 637
l 637 638
l 638 639
l 639 640
l 640 641
l 641 642
l 642 643
l 643 644
l 644 645
l 645 646
l 646 647
l 647 648
l 648 649
l 649 650
l 650 651
l 651 652
l 652 653
l 653 654
l 654 655
l 655 656
l 656 657
l 657 658
l 658 659
l 659 660
l 660 661
l 661 662
l 662 663
l 663 664
l 664 665
l 665 666
l 666 667
l 667 668
l 668 669
l 669 670
l 670 671
l 671 672
l 672 673
l 673 674
l 674 675
l 675 676
l 676 677
l 677 678
l 678 679
l 679 680
l 680 681
l 681 682
l 682 683
l 683 684
l 684 685
l 685 686
l 686 687
l 687 688
l 688 689
l 689 690
l 690 691
l 691 692
l 692 693
l 693 694
l 694 695
l 695 696
l 696 697
l 697 698
l 698 699
l 699 700
l 700 701
l 701 702
l 702 703
l 703 704
l 704 705
l 705 706
l 706 707
l 707 708
l 708 709
l 709 710
l 710 711
l 711 712
l 712 713
l 713 714
l 714 715
l 715 716
l 716 717
l 717 718
l 718 719
l 719 720
l 720 721
l 721 722
l 722 723
l 723 724
l 724 725
l 725 726
l 726 727
l 727 728
l 728 729
l 729 730
l 730 731
l 731 732
l 732 733
l 733 734
l 734 735
l 735 736
l 736 737
l 737 738
l 738 739
l 739 740
l 740 741
l 741 742
l 742 743
l 743 744
l 744 745
l 745 746
l 746 747
l 747 748
l 748 749
l 749 750
l 750 751
l 751 752
l 752 753
l 753 754
l 754 755
l 755 756
l 756 757
l 757 758
l 758 759
l 759 760
l 760 761
l 761 762
l 762 763
l 763 764
l 764 765
l 765 766
l 766 767
l 767 768
l 768 769
l 769 770
l 770 771
l 771 772
l 772 773
l 773 774
l 774 775
l 775 776
l 776 777
l 777 778
l 778 779
l 779 780
l 780 781
l 781 782
l 782 783
l 783 784
l 784 785
l 785 786
l 786 787
l 787 788
l 788 789
l 789 790
l 790 791
l 791 792
l 792 793
l 793 794
l 794 795
l 795 796
l 796 797
l 797 798
l 798 799
l 799 800
l 800 801
l 801 802
l 802 803
l 803 804
l 804 805
l 805 806
l 806 807
l 807 808
l 808 809
l 809 810
l 810 811
l 811 812
l 812 813
l 813 814
l 814 815
l 815 816
l 816 817
l 817 818
l 818 819
l 819 820
l 820 821
l 821 822
l 822 823
l 823 824
l 824 825
l 825 826
l 826 827
l 827 828
l 828 829
l 829 830
l 830 831
l 831 832
l 832 833
l 833 834
l 834 835
l 835 836
l 836 837
l 837 838
l 838 839
l 839 840
l 840 841
l 841 842
l 842 843
l 843 844
l 844 845
l 845 846
l 846 847
l 847 848
l 848 849
l 849 850
l 850 851
l 851 852
l 852 853
l 853 854
l 854 855
l 855 856
l 856 857
l 857 858
l 858 859
l 859 860
l 860 861
l 861 862
l 862 863
l 863 864
l 864 865
l 865 866
l 866 867
l 867 868
l 868 869
l 869 870
l 870 871
l 871 872
l 872 873
l 873 874
l 874 875
l 875 876
l 876 877
l 877 878
l 878 879
l 879 880
l 880 881
l 881 882
l 882 883
l 883 884
l 884 885
l 885 886
l 886 887
l 887 888
l 888 889
l 889 890
l 890 891
l 891 892
l 892 893
l 893 894
l 894 895
l 895 896
l 896 897
l 897 898
l 898 899
l 899 900
l 900 901
l 901 902
l 902 903
l 903 904
l 904 905
l 905 906
l 906 907
l 907 908
l 908 909
l 909 910
l 910 911
l 911 912
l 912 913
l 913 914
l 914 915
l 915 916
l 916 917
l 917 918
l 918 919
l 919 920
l 920 921
l 921 922
l 922 923
l 923 924
l 924 925
l 925 926
l 926 927
l 927 928
l 928 929
l 929 930
l 930 931
l 931 932
l 932 933
l 933 934
l 934 935
l 935 936
l 936 937
l 937 938
l 938 939
l 939 940
l 940 941
l 941 942
l 942 943
l 943 944
l 944 945
l 945 946
l 946 947
l 947 948
l 948 949
l 949 950
l 950 951
l 951 952
l 952 953
l 953 954
l 954 955
l 955 956
l 956 957
l 957 958
l 958 959
l 959 960
l 960 961
l 961 962
l 962 963
l 963 964
l 964 965
l 965 966
l 966 967
l 967 968
l 968 969
l 969 970
l 970 971
l 971 972
l 972 973
l 973 974
l 974 975
l 975 976
l 976 977
l 977 978
l 978 979
l 979 980
l 980 981
l 981 982
l 982 983
l 983 984
l 984 985
l 985 986
l 986 987
l 987 988
l 988 989
l 989 990
l 990 991
l 991 992
l 992 993
l 993 994
l 994 995
l 995 996
l 996 997
l 997 998
l 998 999
l 999 1000
l 1000 1001
l 1001 1002
l 1002 1003
l 1003 1004
l 1004 1005
l 1005 1006
l 1006 1007
l 1007 1008
l 1008 1009
l 1009 1010
l 1010 1011
l 1011 1012
l 1012 1013
l 1013 1014
l 1014 1015
l 1015 1016
l 1016 1017
l 1017 1018
l 1018 1019
l 1019 1020
l 1020 1021
l 1021 1022
l 1022 1023
l 1023 1024
l 1024 1025
l 1025 1026
l 1026 1027
l 1027 1028
l 1028 1029
l 1029 1030
l 1030 1031
l 1031 1032
l 1032 1033
l 1033 1034
l 1034 1035
l 1035 1036
l 1036 1037
l 1037 1038
l 1038 1039
l 1039 1040
l 1040 1041
l 1041 1042
l 1042 1043
l 1043 1044
l 1044 1045
l 1045 1046
l 1046 1047
l 1047 1048
l 1048 1049
l 1049 1050
l 1050 1051
l 1051 1052
l 1052 1053
l 1053 1054
l 1054 1055
l 1055 1056
l 1056 1057
l 1057 1058
l 1058 1059
l 1059 1060
l 1060 1061
l 1061 1062
l 1062 1063
l 1063 1064
l 1064 1065
l 1065 1066
l 1066 1067
l 1067 1068
l 1068 1069
l 1069 1070
l 1070 1071
l 1071 1072
l 1072 1073
l 1073 1074
l 1074 1075
l 1075 1076
l 1076 1077
l 1077 1078
l 1078 1079
l 1079 1080
l 1080 1081
l 1081 1082
l 1082 1083
l 1083 1084
l 1084 1085
l 1085 1086
l 1086 1087
l 1087 1088
l 1088 1089
l 1089 1090
l 1090 1091
l 1091 1092
l 1092 1093
l 1093 1094
l 1094 1095
l 1095 1096
l 1096 1097
l 1097 1098
l 1098 1099
l 1099 1100
l 1100 1101
l 1101 1102
l 1102 1103
l 1103 1104
l 1104 1105
l 1105 1106
l 1106 1107
l 1107 1108
l 1108 1109
l 1109 1110
l 1110 1111
l 1111 1112
l 1112 1113
l 1113 1114
l 1114 1115
l 1115 1116
l 1116 1117
l 1117 1118
l 1118 1119
l 1119 1120
l 1120 1121
l 1121 1122
l 1122 1123
l 1123 1124
l 1124 1125
l 1125 1126
l 1126 1127
l 1127 1128
l 1128 1129
l 1129 1130
l 1130 1131
l 1131 1132
l 1132 1133
l 1133 1134
l 1134 1135
l 1135 1136
l 1136 1137
l 1137 1138
l 1138 1139
l 1139 1140
l 1140 1141
l 1141 1142
l 1142 1143
l 1143 1144
l 1144 1145
l 1145 1146
l 1146 1147
l 1147 1148
l 1148 1149
l 1149 1150
l 1150 1151
l 1151 1152
l 1152 1153
l 1153 1154
l 1154 1155
l 1155 1156
l 1156 1157
l 1157 1158
l 1158 1159
l 1159 1160
l 1160 1161
l 1161 1162
l 1162 1163
l 1163 1164
l 1164 1165
l 1165 1166
l 1166 1167
l 1167 1168
l 1168 1169
l 1169 1170
l 1170 1171
l 1171 1172
l 1172 1173
l 1173 1174
l 1174 1175
l 1175 1176
l 1176 1177
l 1177 1178
l 1178 1179
l 1179 1180
l 1180 1181
l 1181 1182
l 1182 1183
l 1183 1184
l 1184 1185
l 1185 1186
l 1186 1187
l 1187 1188
l 1188 1189
l 1189 1190
l 1190 1191
l 1191 1192
l 1192 1193
l 1193 1194
l 1194 1195
l 1195 1196
l 1196 1197
l 1197 1198
l 1198 1199
l 1199 1200
l 1200 1201
l 1201 1202
l 1202 1203
l 1203 1204
l 1204 1205
l 1205 1206
l 1206 1207
l 1207 1208
l 1208 1209
l 1209 1210
l 1210 1211
l 1211 1212
l 1212 1213
l 1213 1214
l 1214 1215
l 1215 1216
l 1216 1217
l 1217 1218
l 1218 1219
l 1219 1220
l 1220 1221
l 1221 1222
l 1222 1223
l 1223 1224
l 1224 1225
l 1225 1226
l 1226 1227
l 1227 1228
l 1228 1229
l 1229 1230
l 1230 1231
l 1231 1232
l 1232 1233
l 1233 1234
l 1234 1235
l 1235 1236
l 1236 1237
l 1237 1238
l 1238 1239
l 1239 1240
l 1240 1241
l 1241 1242
l 1242 1243
l 1243 1244
l 1244 1245
l 1245 1246
l 1246 1247
l 1247 1248
l 1248 1249
l 1249 1250
l 1250 1251
l 1251 1252
l 1252 1253
l 1253 1254
l 1254 1255
l 1255 1256
l 1256 1257
l 1257 1258
l 1258 1259
l 1259 1260
l 1260 1261
l 1261 1262
l 1262 1263
l 1263 1264
l 1264 1265
l 1265 1266
l 1266 1267
l 1267 1268
l 1268 1269
l 1269 1270
l 1270 1271
l 1271 1272
l 1272 1273
l 1273 1274
l 1274 1275
l 1275 1276
l 1276 1277
l 1277 1278
l 1278 1279
l 1279 1280
l 1280 1281
l 1281 1282
l 1282 1283
l 1283 1284
l 1284 1285
l 1285 1286
l 1286 1287
l 1287 1288
l 1288 1289
l 1289 1290
l 1290 1291
l 1291 1292
l 1292 1293
l 1293 1294
l 1294 1295
l 1295 1296
l 1296 1297
l 1297 1298
l 1298 1299
l 1299 1300
l 1300 1301
l 1301 1302
l 1302 1303
l 1303 1304
l 1304 1305
l 1305 1306
l 1306 1307
l 1307 1308
l 1308 1309
l 1309 1310
l 1310 1311
l 1311 1312
l 1312 1313
l 1313 1314
l 1314 1315
l 1315 1316
l 1316 1317
l 1317 1318
l 1318 1319
l 1319 1320
l 1320 1321
l 1321 1322
l 1322 1323
l 1323 1324
l 1324 1325
l 1325 1326
l 1326 1327
l 1327 1328
l 1328 1329
l 1329 1330
l 1330 1331
l 1331 1332
l 1332 1333
l 1333 1334
l 1334 1335
l 1335 1336
l 1336 1337
l 1337 1338
l 1338 1339
l 1339 1340
l 1340 1341
l 1341 1342
l 1342 1343
l 1343 1344
l 1344 1345
l 1345 1346
l 1346 1347
l 1347 1348
l 1348 1349
l 1349 1350
l 1350 1351
l 1351 1352
l 1352 1353
l 1353 1354
l 1354 1355
l 1355 1356
l 1356 1357
l 1357 1358
l 1358 1359
l 1359 1360
l 1360 1361
l 1361 1362
l 1362 1363
l 1363 1364
l 1364 1365
l 1365 1366
l 1366 1367
l 1367 1368
l 1368 1369
l 1369 1370
l 1370 1371
l 1371 1372
l 1372 1373
l 1373 1374
l 1374 1375
l 1375 1376
l 1376 1377
l 1377 1378
l 1378 1379
l 1379 1380
l 1380 1381
l 1381 1382
l 1382 1383
l 1383 1384
l 1384 1385
l 1385 1386
l 1386 1387
l 1387 1388
l 1388 1389
l 1389 1390
l 1390 1391
l 1391 1392
l 1392 1393
l 1393 1394
l 1394 1395
l 1395 1396
l 1396 1397
l 1397 1398
l 1398 1399
l 1399 1400
l 1400 1401
l 1401 1402
l 1402 1403
l 1403 1404
l 1404 1405
l 1405 1406
l 1406 1407
l 1407 1408
l 1408 1409
l 1409 1410
l 1410 1411
l 1411 1412
l 1412 1413
l 1413 1414
l 1414 1415
l 1415 1416
l 1416 1417
l 1417 1418
l 1418 1419
l 1419 1420
l 1420 1421
l 1421 1422
l 1422 1423
l 1423 1424
l 1424 1425
l 1425 1426
l 1426 1427
l 1427 1428
l 1428 1429
l 1429 1430
l 1430 1431
l 1431 1432
l 1432 1433
l 1433 1434
l 1434 1435
l 1435 1436
l 1436 1437
l 1437 1438
l 1438 1439
l 1439 1440
l 1440 1441
l 1441 1442
l 1442 1443
l 1443 1444
l 1444 1445
l 1445 1446
l 1446 1447
l 1447 1448
l 1448 1449
l 1449 1450
l 1450 1451
l 1451 1452
l 1452 1453
l 1453 1454
l 1454 1455
l 1455 1456
l 1456 1457
l 1457 1458
l 1458 1459
l 1459 1460
l 1460 1461
l 1461 1462
l 1462 1463
l 1463 1464
l 1464 1465
l 1465 1466
l 1466 1467
l 1467 1468
l 1468 1469
l 1469 1470
l 1470 1471
l 1471 1472
l 1472 1473
l 1473 1474
l 1474 1475
l 1475 1476
l 1476 1477
l 1477 1478
l 1478 1479
l 1479 1480
l 1480 1481
l 1481 1482
l 1482 1483
l 1483 1484
l 1484 1485
l 1485 1486
l 1486 1487
l 1487 1488
l 1488 1489
l 1489 1490
l 1490 1491
l 1491 1492
l 1492 1493
l 1493 1494
l 1494 1495
l 1495 1496
l 1496 1497
l 1497 1498
l 1498 1499
l 1499 1500
l 1500 1501
