# Hopf drift winding s64_210 (Shallow 210°), 10 circuits, unit ball; ccsim.geometry.hopf_drift('s64_210', 10)
o drift
v 0.000000000 1.000000000 0.000000000
v -0.015552172 0.999474410 -0.015729640
v -0.031081379 0.998150880 -0.031433874
v -0.046567732 0.996031434 -0.047092970
v -0.061991438 0.993119246 -0.062687294
v -0.077320581 0.989324952 -0.078184881
v -0.092538802 0.984715128 -0.093569715
v -0.107630526 0.979330105 -0.108826478
v -0.122576817 0.973177843 -0.123936410
v -0.137337045 0.966177504 -0.138858941
v -0.151900847 0.958392431 -0.153584009
v -0.166258914 0.949872403 -0.168102554
v -0.180392897 0.940626921 -0.182396424
v -0.194240732 0.930547358 -0.196403716
v -0.207826633 0.919775704 -0.210148942
v -0.221134900 0.908327376 -0.223616610
v -0.234106117 0.896126082 -0.236747580
v -0.246748939 0.883250475 -0.249550739
v -0.259065339 0.869753309 -0.262028254
v -0.270982797 0.855554663 -0.274108029
v -0.282528884 0.840752064 -0.285817772
v -0.293690876 0.825368589 -0.297145008
v -0.304401427 0.809352501 -0.308022915
v -0.314718400 0.792825062 -0.318509294
v -0.324550707 0.775714053 -0.328513779
v -0.333952711 0.758122971 -0.338090641
v -0.342855439 0.740017177 -0.347171593
v -0.351296541 0.721470962 -0.355794259
v -0.359208554 0.702461080 -0.363891943
v -0.366648543 0.683070235 -0.371521504
v -0.373519792 0.663260288 -0.378587332
v -0.379885844 0.643113139 -0.385152697
v -0.385717485 0.622640439 -0.391188930
v -0.390970920 0.601853204 -0.396653019
v -0.395682167 0.580804221 -0.401580931
v -0.399837484 0.559517591 -0.405959402
v -0.403417240 0.538017502 -0.409769391
v -0.406403277 0.516331835 -0.412993376
v -0.408812074 0.494498121 -0.415648032
v -0.410637023 0.472545880 -0.417727263
v -0.411873484 0.450505544 -0.419226942
v -0.412518766 0.428408073 -0.420144895
v -0.412572081 0.406284602 -0.420480846
v -0.412034460 0.384166120 -0.420236332
v -0.410885549 0.362085755 -0.419391944
v -0.409145127 0.340074232 -0.417967696
v -0.406822942 0.318160810 -0.415973740
v -0.403900561 0.296380915 -0.413392695
v -0.400394499 0.274762717 -0.410241398
v -0.396301202 0.253339875 -0.406517110
v -0.391638844 0.232137797 -0.402238294
v -0.386389073 0.211197607 -0.397387876
v -0.380574867 0.190542945 -0.391989046
v -0.374201754 0.170204497 -0.386048009
v -0.367276305 0.150212858 -0.379572007
v -0.359807896 0.130597079 -0.372570999
v -0.351802572 0.111389048 -0.365051736
v -0.343267873 0.092620449 -0.357022406
v -0.334225292 0.074310618 -0.348504598
v -0.324673906 0.056499613 -0.339498291
v -0.314632888 0.039209145 -0.330022718
v -0.304115109 0.022466866 -0.320090952
v -0.293133956 0.006300468 -0.309716444
v -0.281705331 -0.009265060 -0.298914888
v -0.269838126 -0.024193484 -0.287695097
v -0.257557440 -0.038471739 -0.276081084
v -0.244876526 -0.052068352 -0.264085262
v -0.231812546 -0.064955946 -0.251723388
v -0.218385465 -0.077110804 -0.239013439
v -0.204617469 -0.088512945 -0.225975003
v -0.190528570 -0.099135777 -0.212624941
v -0.176142142 -0.108958377 -0.198982642
v -0.161481490 -0.117956871 -0.185066576
v -0.146572397 -0.126111462 -0.170896707
v -0.131441574 -0.133401927 -0.156492872
v -0.116117167 -0.139808938 -0.141875188
v -0.100628738 -0.145313244 -0.127063903
v -0.085008065 -0.149901388 -0.112080388
v -0.069287608 -0.153555477 -0.096945147
v -0.053501991 -0.156266058 -0.081679970
v -0.037686761 -0.158022265 -0.066306240
v -0.021878650 -0.158817031 -0.050845637
v -0.006115634 -0.158641370 -0.035319717
v 0.009563915 -0.157496318 -0.019750641
v 0.025121127 -0.155382010 -0.004160341
v 0.040517061 -0.152301948 0.011429169
v 0.055713088 -0.148262919 0.026995855
v 0.070671293 -0.143274963 0.042517722
v 0.085354132 -0.137349113 0.057972672
v 0.099725782 -0.130501129 0.073338761
v 0.113753399 -0.122752549 0.088594678
v 0.127401622 -0.114116886 0.103717824
v 0.140642063 -0.104621865 0.118687534
v 0.153445290 -0.094289898 0.133482306
v 0.165784488 -0.083146379 0.148081084
v 0.177636212 -0.071220016 0.162463707
v 0.188973683 -0.058532742 0.176607851
v 0.199780171 -0.045119341 0.190495295
v 0.210035093 -0.031006955 0.204105526
v 0.219721330 -0.016225754 0.217419226
v 0.228825049 -0.000807954 0.230418415
v 0.237327061 0.015220861 0.243081691
v 0.245219184 0.031825058 0.255393426
v 0.252489725 0.048973893 0.267335795
v 0.259129778 0.066635171 0.278892387
v 0.265126806 0.084780118 0.290044253
v 0.270478189 0.103373275 0.300778519
v 0.275171853 0.122386366 0.311076048
v 0.279207872 0.141783814 0.320925618
v 0.282581072 0.161534062 0.330312496
v 0.285290370 0.181603916 0.339224781
v 0.287326020 0.201964184 0.347644150
v 0.288694289 0.222578999 0.355563938
v 0.289390917 0.243417299 0.362969748
v 0.289423987 0.264444339 0.369856693
v 0.288790399 0.285629081 0.376211248
v 0.287488480 0.306939516 0.382020754
v 0.285524513 0.328342159 0.387279004
v 0.282900672 0.349804271 0.391976401
v 0.279627694 0.371292775 0.396110758
v 0.275718928 0.392775934 0.399682649
v 0.271164263 0.414220980 0.402671595
v 0.265985403 0.435596494 0.405085642
v 0.260181165 0.456869448 0.406912094
v 0.253781608 0.478012733 0.408167892
v 0.246761281 0.498985684 0.408816265
v 0.239158306 0.519764228 0.408882356
v 0.230983620 0.540318074 0.408365156
v 0.222247125 0.560616199 0.407262504
v 0.212960523 0.580627893 0.405573947
v 0.203137300 0.600323040 0.403300831
v 0.192792674 0.619672437 0.400446366
v 0.181943501 0.638648120 0.397015659
v 0.170608146 0.657223707 0.393015715
v 0.158806289 0.675374738 0.388455391
v 0.146558702 0.693079015 0.383345309
v 0.133869915 0.710295999 0.377675358
v 0.120757834 0.726995808 0.371450978
v 0.107263312 0.743181774 0.364709483
v 0.093400669 0.758826525 0.357454043
v 0.079163841 0.773861552 0.349655501
v 0.064614220 0.788333581 0.341384466
v 0.049742344 0.802165740 0.332605894
v 0.034586807 0.815368383 0.323357599
v 0.019167100 0.827920045 0.313649433
v 0.003500400 0.839783736 0.303483831
v -0.012381919 0.850969642 0.292892169
v -0.028462588 0.861438104 0.281876061
v -0.044716308 0.871181630 0.270455388
v -0.061113538 0.880212136 0.258660525
v -0.077642697 0.888446414 0.246472987
v -0.094263516 0.895982395 0.233962448
v -0.110966136 0.902677874 0.221088504
v -0.127716837 0.908623008 0.207912329
v -0.144493072 0.913812265 0.194452077
v -0.161270774 0.918126228 0.180687878
v -0.178025969 0.921688941 0.166683968
v -0.194734891 0.924459589 0.152447397
v -0.211365205 0.926349601 0.137976337
v -0.227903580 0.927471966 0.123321735
v -0.244326931 0.927811787 0.108499004
v -0.260588946 0.927244285 0.093506257
v -0.276689789 0.925904519 0.078390057
v -0.292608789 0.923793209 0.063169072
v -0.308294527 0.920806063 0.047853057
v -0.323741997 0.917018225 0.032472464
v -0.338940907 0.912469850 0.017050353
v -0.353855443 0.907124447 0.001606022
v -0.368442256 0.900937552 -0.013837273
v -0.382717374 0.894012766 -0.029257985
v -0.396662665 0.886359246 -0.044636790
v -0.410202584 0.877874945 -0.059941658
v -0.423363358 0.868667812 -0.075158634
v -0.436137858 0.858769139 -0.090270547
v -0.448470133 0.848128589 -0.105244955
v -0.460342340 0.836765235 -0.120059375
v -0.471778276 0.824757727 -0.134707825
v -0.482733975 0.812082325 -0.149159359
v -0.493163037 0.798719279 -0.163379488
v -0.503113363 0.784768634 -0.177376317
v -0.512534376 0.770205803 -0.191113321
v -0.521388766 0.755027603 -0.204558404
v -0.529730417 0.739326178 -0.217727736
v -0.537474194 0.723052322 -0.230562559
v -0.544648638 0.706267967 -0.243066929
v -0.551263040 0.689013255 -0.255235298
v -0.557230918 0.671252109 -0.267003214
v -0.562648939 0.653090175 -0.278420278
v -0.567393264 0.634473059 -0.289395163
v -0.571567240 0.615499935 -0.299985641
v -0.575068455 0.596141095 -0.310110976
v -0.577983143 0.576474313 -0.319821099
v -0.580208375 0.556479974 -0.329031389
v -0.581841813 0.536232858 -0.337802966
v -0.582785611 0.515723635 -0.346052238
v -0.583105207 0.495008386 -0.353818150
v -0.582794174 0.474112264 -0.361086465
v -0.581795488 0.453053092 -0.367800602
v -0.580171656 0.431876244 -0.374000597
v -0.577916136 0.410608654 -0.379671557
v -0.575006644 0.389278481 -0.384784249
v -0.571446850 0.367919082 -0.389330699
v -0.567260175 0.346562619 -0.393320862
v -0.562448528 0.325239870 -0.396746118
v -0.557016044 0.303982153 -0.399599664
v -0.550968999 0.282820955 -0.401876562
v -0.544315678 0.261787595 -0.403573737
v -0.537066227 0.240912916 -0.404689945
v -0.529232484 0.220227029 -0.405225713
v -0.520823928 0.199760808 -0.405179252
v -0.511833540 0.179553791 -0.404531314
v -0.502300427 0.159624134 -0.403310634
v -0.492233763 0.140002615 -0.401515270
v -0.481628792 0.120730833 -0.399127392
v -0.470523555 0.101822437 -0.396176350
v -0.458918167 0.083317107 -0.392649320
v -0.446831122 0.065242432 -0.388553784
v -0.434285157 0.047620662 -0.383902752
v -0.421294703 0.030481969 -0.378699286
v -0.407877090 0.013854458 -0.372949710
v -0.394051906 -0.002236127 -0.366663126
v -0.379840433 -0.017766550 -0.359850957
v -0.365261727 -0.032710089 -0.352521494
v -0.350333344 -0.047035916 -0.344680331
v -0.335082679 -0.060730653 -0.336347441
v -0.319530297 -0.073768983 -0.327532777
v -0.303695829 -0.086120419 -0.318243687
v -0.287606065 -0.097771117 -0.308499187
v -0.271282750 -0.108692598 -0.298308881
v -0.254752996 -0.118871787 -0.287691984
v -0.238042076 -0.128289371 -0.276663811
v -0.221175474 -0.136924237 -0.265238978
v -0.204179755 -0.144755534 -0.253432777
v -0.187083326 -0.151770935 -0.241264552
v -0.169914160 -0.157948174 -0.228749424
v -0.152702201 -0.163281418 -0.215909236
v -0.135477347 -0.167747914 -0.202759357
v -0.118270852 -0.171340365 -0.189320878
v -0.101114736 -0.174046392 -0.175612968
v -0.084042138 -0.175854947 -0.161655268
v -0.067087346 -0.176756320 -0.147467821
v -0.050285203 -0.176745568 -0.133071765
v -0.033671558 -0.175818099 -0.118488081
v -0.017283233 -0.173970861 -0.103737928
v -0.001157285 -0.171204745 -0.088842981
v 0.014666996 -0.167518004 -0.073824451
v 0.030153245 -0.162921028 -0.058704941
v 0.045260882 -0.157415915 -0.043505994
v 0.059953581 -0.151017599 -0.028250213
v 0.074193550 -0.143738883 -0.012959806
v 0.087944065 -0.135596058 0.002342880
v 0.101168444 -0.126606620 0.017635373
v 0.113833738 -0.116794379 0.032895225
v 0.125908414 -0.106184676 0.048100107
v 0.137363306 -0.094805276 0.063227860
v 0.148166986 -0.082680939 0.078255684
v 0.158299292 -0.069848055 0.093162339
v 0.167732811 -0.056334062 0.107925025
v 0.176449779 -0.042174834 0.122522500
v 0.184432721 -0.027404738 0.136933376
v 0.191665653 -0.012058045 0.151136271
v 0.198133826 0.003831099 0.165109670
v 0.203829806 0.020224905 0.178833987
v 0.208743700 0.037088668 0.192288598
v 0.212867565 0.054387467 0.205453143
v 0.216198228 0.072084908 0.218308757
v 0.218733583 0.090145359 0.230836882
v 0.220470637 0.108534444 0.243018350
v 0.221408260 0.127217685 0.254834533
v 0.221552051 0.146159140 0.266269872
v 0.220898671 0.165326307 0.277304323
v 0.219458357 0.184683440 0.287924581
v 0.217234023 0.204197496 0.298113650
v 0.214235383 0.223834577 0.307858254
v 0.210466443 0.243562139 0.317141833
v 0.205935204 0.263347211 0.325950016
v 0.200654179 0.283156997 0.334271364
v 0.194640875 0.302959706 0.342098235
v 0.187888500 0.322722537 0.349405970
v 0.180432058 0.342415537 0.356199534
v 0.172271903 0.362006318 0.362459116
v 0.163422334 0.381463546 0.368174820
v 0.153905341 0.400758078 0.373343202
v 0.143737330 0.419860250 0.377956722
v 0.132935928 0.438741019 0.382009017
v 0.121505322 0.457365146 0.385480858
v 0.109482588 0.475711365 0.388383695
v 0.096889733 0.493754282 0.390716333
v 0.083724030 0.511452266 0.392450913
v 0.070035113 0.528796464 0.393615026
v 0.055825333 0.545746937 0.394185269
v 0.041121725 0.562280581 0.394165252
v 0.025956599 0.578380730 0.393566143
v 0.010350332 0.594020857 0.392384987
v -0.005676538 0.609173249 0.390618212
v -0.022103315 0.623808296 0.388261182
v -0.038896050 0.637914403 0.385329377
v -0.056028932 0.651470720 0.381827076
v -0.073475231 0.664458191 0.377760305
v -0.091215871 0.676840126 0.373118990
v -0.109216274 0.688610645 0.367922656
v -0.127447225 0.699756192 0.362182466
v -0.145879704 0.710265517 0.355910901
v -0.164485146 0.720130024 0.349121800
v -0.183244804 0.729289718 0.341790433
v -0.202120966 0.737764865 0.333954771
v -0.221083337 0.745568424 0.325643270
v -0.240109283 0.752628320 0.316826332
v -0.259164972 0.758974015 0.307545079
v -0.278223672 0.764615509 0.297823752
v -0.297253056 0.769468399 0.287631653
v -0.316231653 0.773639550 0.277049746
v -0.335116509 0.776981805 0.266015487
v -0.353898786 0.779643175 0.254626923
v -0.372524389 0.781467755 0.242823612
v -0.390996820 0.782607972 0.230698026
v -0.409249217 0.782903044 0.218195329
v -0.427293479 0.782497204 0.205397233
v -0.445069816 0.781286847 0.192279711
v -0.462570966 0.779331243 0.178884574
v -0.479773459 0.776639075 0.165233115
v -0.496619395 0.773141397 0.151321620
v -0.513133999 0.768953778 0.137204963
v -0.529239674 0.763977181 0.122874040
v -0.544941767 0.758276773 0.108365813
v -0.560243050 0.751902780 0.093709686
v -0.575032167 0.744725191 0.078900149
v -0.589374258 0.736891197 0.063984736
v -0.603233437 0.728387611 0.048979558
v -0.616524073 0.719143040 0.033898189
v -0.629308728 0.709277793 0.018773165
v -0.641537417 0.698767311 0.003623073
v -0.653147734 0.687580209 -0.011529335
v -0.664200124 0.675817000 -0.026662420
v -0.674630025 0.663445814 -0.041752271
v -0.684402279 0.650468821 -0.056773709
v -0.693573510 0.636969196 -0.071713308
v -0.702056415 0.622905024 -0.086538007
v -0.709860759 0.608317123 -0.101229010
v -0.717030775 0.593267745 -0.115777533
v -0.723440406 0.577699787 -0.130133725
v -0.729177615 0.561702857 -0.144301408
v -0.734222086 0.545291942 -0.158257501
v -0.738492818 0.528450712 -0.171957317
v -0.742096498 0.511265384 -0.185419480
v -0.744910207 0.493703928 -0.198580701
v -0.747019584 0.475834631 -0.211456514
v -0.748380352 0.457667061 -0.224011021
v -0.748988487 0.439227922 -0.236224929
v -0.748872983 0.420555863 -0.248093876
v -0.747984192 0.401663604 -0.259576399
v -0.746379075 0.382595621 -0.270683461
v -0.744008953 0.363368171 -0.281372081
v -0.740912333 0.344018673 -0.291645139
v -0.737087485 0.324573648 -0.301485067
v -0.732509878 0.305061265 -0.310857880
v -0.727251035 0.285514227 -0.319791722
v -0.721232065 0.265959991 -0.328216346
v -0.714523213 0.246429936 -0.336159877
v -0.707139531 0.226950690 -0.343616093
v -0.699045673 0.207556721 -0.350539899
v -0.690274199 0.188277043 -0.356935468
v -0.680852559 0.169137748 -0.362805337
v -0.670788877 0.150168276 -0.368136943
v -0.660093799 0.131398438 -0.372919215
v -0.648780368 0.112858065 -0.377142718
v -0.636863873 0.094576676 -0.380799750
v -0.624361657 0.076583177 -0.383884397
v -0.611292902 0.058905606 -0.386392548
v -0.597678402 0.041570904 -0.388321877
v -0.583540331 0.024604733 -0.389671802
v -0.568902011 0.008031327 -0.390443410
v -0.553787678 -0.008126617 -0.390639375
v -0.538206917 -0.023831583 -0.390243445
v -0.522188258 -0.039063222 -0.389262688
v -0.505765173 -0.053809122 -0.387712372
v -0.488944406 -0.068023068 -0.385569123
v -0.471766223 -0.081702288 -0.382858723
v -0.454253864 -0.094823192 -0.379582779
v -0.436423607 -0.107344980 -0.375727759
v -0.418311884 -0.119264297 -0.371316542
v -0.399944502 -0.130558874 -0.366353329
v -0.381348996 -0.141209336 -0.360845261
v -0.362553999 -0.151199228 -0.354801987
v -0.343584824 -0.160496288 -0.348221336
v -0.324475145 -0.169102064 -0.341127242
v -0.305252839 -0.176992623 -0.333524251
v -0.285948578 -0.184160365 -0.325428636
v -0.266591679 -0.190576695 -0.316842980
v -0.247213918 -0.196240147 -0.307787835
v -0.227846151 -0.201138450 -0.298276475
v -0.208520461 -0.205251697 -0.288318212
v -0.189268192 -0.208579826 -0.277933671
v -0.170122079 -0.211109113 -0.267135889
v -0.151114307 -0.212834601 -0.255942550
v -0.132278639 -0.213746053 -0.244368820
v -0.113648665 -0.213838311 -0.232432396
v -0.095257333 -0.213110512 -0.220152675
v -0.077140541 -0.211554910 -0.207546199
v -0.059331512 -0.209174548 -0.194633693
v -0.041866612 -0.205966436 -0.181433469
v -0.024781434 -0.201932635 -0.167965579
v -0.008110580 -0.197079359 -0.154251104
v 0.008107496 -0.191408011 -0.140309541
v 0.023838576 -0.184930104 -0.126162966
v 0.039045017 -0.177653520 -0.111832194
v 0.053690374 -0.169590533 -0.097338886
v 0.067739463 -0.160757083 -0.082705147
v 0.081156871 -0.151170549 -0.067953040
v 0.093906267 -0.140849194 -0.053104635
v 0.105956063 -0.129817950 -0.038182678
v 0.117274783 -0.118102627 -0.023209710
v 0.127828856 -0.105728426 -0.008208286
v 0.137592501 -0.092728010 0.006798719
v 0.146540201 -0.079134205 0.021788597
v 0.154649009 -0.064981694 0.036738688
v 0.161894039 -0.050304152 0.051625962
v 0.168262624 -0.035142174 0.066428190
v 0.173736845 -0.019532593 0.081122577
v 0.178307878 -0.003516047 0.095687212
v 0.181962576 0.012869607 0.110099292
v 0.184697271 0.029583560 0.124337278
v 0.186507736 0.046586453 0.138379356
v 0.187391359 0.063839330 0.152203696
v 0.187355130 0.081302113 0.165790685
v 0.186395588 0.098938088 0.179117720
v 0.184522303 0.116708939 0.192165546
v 0.181744158 0.134577895 0.204914792
v 0.178062909 0.152509456 0.217343301
v 0.173501337 0.170467928 0.229436527
v 0.168059455 0.188419149 0.241171165
v 0.161759047 0.206329598 0.252532536
v 0.154614973 0.224166777 0.263503384
v 0.146637952 0.241898066 0.274064252
v 0.137850330 0.259492860 0.284201399
v 0.128268031 0.276920310 0.293898004
v 0.117913961 0.294151577 0.303141221
v 0.106805430 0.311156923 0.311915062
v 0.094963643 0.327907898 0.320205840
v 0.082413891 0.344378131 0.328002889
v 0.069180886 0.360541918 0.335295688
v 0.055277887 0.376367611 0.342064509
v 0.040742601 0.391836609 0.348309196
v 0.025599310 0.406924291 0.354019614
v 0.009865929 0.421601140 0.359179251
v -0.006425318 0.435847379 0.363784728
v -0.023244051 0.449643199 0.367831897
v -0.040569770 0.462959586 0.371305517
v -0.058367863 0.475780456 0.374205962
v -0.076603569 0.488092444 0.376535811
v -0.095251581 0.499871822 0.378285811
v -0.114285358 0.511093470 0.379446071
v -0.133665086 0.521753951 0.380028974
v -0.153364227 0.531828784 0.380025145
v -0.173353583 0.541295901 0.379428140
v -0.193592941 0.550158552 0.378255834
v -0.214052301 0.558399663 0.376506078
v -0.234702502 0.565994853 0.374170616
v -0.255509372 0.572932633 0.371253350
v -0.276437177 0.579212492 0.367767511
v -0.297452948 0.584824607 0.363717894
v -0.318523491 0.589761126 0.359110960
v -0.339615667 0.594016269 0.353954807
v -0.360695861 0.597573790 0.348249419
v -0.381728956 0.600422964 0.341999754
v -0.402682397 0.602575675 0.335227752
v -0.423524636 0.604034235 0.327947379
v -0.444225652 0.604803076 0.320173704
v -0.464743552 0.604843404 0.311892060
v -0.485048350 0.604173285 0.303128358
v -0.505120102 0.602826428 0.293917067
v -0.524912241 0.600761934 0.284243685
v -0.544394449 0.597991683 0.274129369
v -0.563562971 0.594572126 0.263620430
v -0.582331916 0.590402734 0.252670221
v -0.600732927 0.585602599 0.241361153
v -0.618691072 0.580100371 0.229665541
v -0.636210816 0.573957265 0.217630332
v -0.653240690 0.567147070 0.205254653
v -0.669773583 0.559708286 0.192571888
v -0.685762483 0.551625684 0.179588181
v -0.701211812 0.542946814 0.166339650
v -0.716053152 0.533637667 0.152825822
v -0.730331227 0.523781117 0.139095272
v -0.743925689 0.513301034 0.125134198
v -0.756931344 0.502316843 0.111000803
v -0.769209967 0.490748272 0.096684949
v -0.780838225 0.478689094 0.082231476
v -0.791752757 0.466124411 0.067653177
v -0.801925942 0.453067279 0.052971200
v -0.811417369 0.439585450 0.038216316
v -0.820067750 0.425614642 0.023399322
v -0.828013793 0.411262525 0.008552766
v -0.835153443 0.396503530 -0.006303996
v -0.841496916 0.381371887 -0.021147675
v -0.847089055 0.365914752 -0.035958169
v -0.851788997 0.350102690 -0.050704102
v -0.855740193 0.334018739 -0.065375172
v -0.858823832 0.317648507 -0.079936610
v -0.861093477 0.301036516 -0.094373813
v -0.862552639 0.284210190 -0.108666319
v -0.863128818 0.267178919 -0.122778456
v -0.862945232 0.249995589 -0.136716072
v -0.861828131 0.232656159 -0.150414810
v -0.859958333 0.215215619 -0.163901255
v -0.857193627 0.197683824 -0.177112280
v -0.853654661 0.180098205 -0.190065046
v -0.849249279 0.162481658 -0.202705534
v -0.844071419 0.144862882 -0.215047476
v -0.838042044 0.127271784 -0.227036405
v -0.831267339 0.109730131 -0.238696332
v -0.823642600 0.092276411 -0.249956022
v -0.815300490 0.074923431 -0.260856910
v -0.806145405 0.057715131 -0.271326998
v -0.796264918 0.040666260 -0.281388673
v -0.785667984 0.023801986 -0.291025497
v -0.774310144 0.007168268 -0.300183814
v -0.762279360 -0.009230388 -0.308894306
v -0.749583904 -0.025367705 -0.317139435
v -0.736186488 -0.041192218 -0.324864032
v -0.722159297 -0.056700574 -0.332093599
v -0.707520847 -0.071868232 -0.338816007
v -0.692288768 -0.086669235 -0.345017685
v -0.676483117 -0.101078054 -0.350686364
v -0.660126212 -0.115069876 -0.355811243
v -0.643238207 -0.128616955 -0.360378393
v -0.625854632 -0.141705001 -0.364390509
v -0.608000316 -0.154311010 -0.367839263
v -0.589698723 -0.166409136 -0.370713587
v -0.570983100 -0.177984562 -0.373014943
v -0.551884208 -0.189020856 -0.374742567
v -0.532433309 -0.199503338 -0.375897295
v -0.512659224 -0.209413640 -0.376476135
v -0.492581583 -0.218711605 -0.376455423
v -0.472248771 -0.227417717 -0.375870380
v -0.451679759 -0.235485330 -0.374692055
v -0.430917270 -0.242932271 -0.372951393
v -0.409983352 -0.249706362 -0.370616390
v -0.388919091 -0.255825966 -0.367717800
v -0.367755765 -0.261273551 -0.364254425
v -0.346526472 -0.266035045 -0.360228512
v -0.325265316 -0.270099772 -0.355645374
v -0.304006741 -0.273460305 -0.350513003
v -0.282784986 -0.276112262 -0.344841682
v -0.261633653 -0.278054068 -0.338643620
v -0.240590033 -0.279261971 -0.331915149
v -0.219684694 -0.279755936 -0.324684030
v -0.198957281 -0.279509939 -0.316945657
v -0.178439454 -0.278535917 -0.308721819
v -0.158166364 -0.276830764 -0.300023845
v -0.138172669 -0.274394612 -0.290865261
v -0.118493978 -0.271226724 -0.281259124
v -0.099166642 -0.267326710 -0.271218838
v -0.080222303 -0.262704531 -0.260763801
v -0.061696685 -0.257362695 -0.249908884
v -0.043626166 -0.251304718 -0.238669619
v -0.026045177 -0.244538730 -0.227063956
v -0.008986025 -0.237076615 -0.215111480
v 0.007514869 -0.228926073 -0.202829482
v 0.023425178 -0.220101238 -0.190238093
v 0.038708699 -0.210613316 -0.177355834
v 0.053331744 -0.200477971 -0.164202946
v 0.067263061 -0.189714431 -0.150800704
v 0.080468332 -0.178340606 -0.137169448
v 0.092917181 -0.166379201 -0.123330889
v 0.104576269 -0.153852197 -0.109306070
v 0.115415025 -0.140785320 -0.095116908
v 0.125405464 -0.127207333 -0.080785796
v 0.134522007 -0.113149494 -0.066335336
v 0.142737127 -0.098643239 -0.051787837
v 0.150028598 -0.083723776 -0.037166159
v 0.156373465 -0.068426980 -0.022493094
v 0.161756622 -0.052792421 -0.007791738
v 0.166159981 -0.036859052 0.006914961
v 0.169570506 -0.020667945 0.021603867
v 0.171982026 -0.004261775 0.036252055
v 0.173385479 0.012317583 0.050836415
v 0.173779006 0.029027180 0.065334088
v 0.173162517 0.045824456 0.079722268
v 0.171541135 0.062667188 0.093978605
v 0.168919050 0.079514007 0.108080444
v 0.165304028 0.096324195 0.122005351
v 0.160707869 0.113058106 0.135731384
v 0.155146961 0.129677739 0.149237512
v 0.148635497 0.146145997 0.162502118
v 0.141192882 0.162427662 0.175504782
v 0.132835840 0.178487960 0.188224191
v 0.123585268 0.194293908 0.200640101
v 0.113466748 0.209815106 0.212734016
v 0.102502445 0.225021146 0.224486316
v 0.090719489 0.239884410 0.235879471
v 0.078140266 0.254376059 0.246893890
v 0.064791063 0.268469455 0.257511629
v 0.050702322 0.282141032 0.267717153
v 0.035907946 0.295370822 0.277497765
v 0.020424752 0.308127904 0.286829926
v 0.004293003 0.320397810 0.295705359
v -0.012458438 0.332159085 0.304108795
v -0.029798473 0.343392358 0.312026663
v -0.047693073 0.354081692 0.319448296
v -0.066114198 0.364205297 0.326357531
v -0.085025471 0.373750311 0.332746170
v -0.104393418 0.382701734 0.338603905
v -0.124180288 0.391051236 0.343926259
v -0.144357097 0.398777809 0.348697412
v -0.164887578 0.405871009 0.352910882
v -0.185733691 0.412325366 0.356564465
v -0.206861416 0.418128204 0.359649580
v -0.228236656 0.423264601 0.362155731
v -0.249819062 0.427738388 0.364088657
v -0.271571304 0.431551805 0.365452556
v -0.293463668 0.434666756 0.366217034
v -0.315452248 0.437120620 0.366416415
v -0.337505437 0.438868591 0.366014751
v -0.359583752 0.439947638 0.365045759
v -0.381651794 0.440335980 0.363493214
v -0.403671779 0.440025921 0.361352968
v -0.425608730 0.439037321 0.358644014
v -0.447426823 0.437369331 0.355367894
v -0.469090053 0.435022965 0.351527751
v -0.490562485 0.432001155 0.347128357
v -0.511808518 0.428308776 0.342176124
v -0.532793165 0.423952651 0.336679082
v -0.553482335 0.418941510 0.330646832
v -0.573843119 0.413285919 0.324090467
v -0.593844063 0.406998178 0.317022462
v -0.613455425 0.400092161 0.309456529
v -0.632645852 0.392578494 0.301403743
v -0.651356832 0.384435968 0.292850027
v -0.669588141 0.375718738 0.283841289
v -0.687317202 0.366445799 0.274395147
v -0.704492703 0.356607539 0.264506902
v -0.721079977 0.346217123 0.254190059
v -0.737094340 0.335328310 0.243489187
v -0.752462625 0.323918424 0.232390013
v -0.767178944 0.312023890 0.220923852
v -0.781253956 0.299685559 0.209124658
v -0.794576821 0.286867505 0.196969500
v -0.807237371 0.273659031 0.184528078
v -0.819105645 0.260019147 0.171774477
v -0.830260044 0.246022496 0.158766743
v -0.840603508 0.231652612 0.145497551
v -0.850184911 0.216963089 0.132009093
v -0.858930130 0.201953285 0.118305927
v -0.866882739 0.186669689 0.104424578
v -0.873967484 0.171115972 0.090373355
v -0.880246068 0.155339602 0.076188370
v -0.885619953 0.139342891 0.061878387
v -0.890189240 0.123176812 0.047479855
v -0.893814182 0.106841919 0.033002885
v -0.896648266 0.090390494 0.018481361
v -0.898498808 0.073825103 0.003930757
v -0.899552588 0.057192264 -0.010622244
v -0.899644246 0.040507413 -0.025153108
v -0.898909853 0.023803064 -0.039643567
v -0.897242656 0.007105633 -0.054063793
v -0.894726654 -0.009559851 -0.068398300
v -0.891308144 -0.026162716 -0.082617302
v -0.887030020 -0.042679690 -0.096703980
v -0.881877163 -0.059080572 -0.110631621
v -0.875869180 -0.075341169 -0.124381020
v -0.869009021 -0.091432737 -0.137927961
v -0.861315935 -0.107331953 -0.151253965
v -0.852786312 -0.123007571 -0.164332251
v -0.843464920 -0.138444362 -0.177152990
v -0.833315108 -0.153598978 -0.189676854
v -0.822433592 -0.168477357 -0.201915595
v -0.810724714 -0.183008632 -0.213802461
v -0.798321804 -0.197218638 -0.225368640
v -0.785166860 -0.211048351 -0.236560065
v -0.771310657 -0.224488170 -0.247372154
v -0.756803170 -0.237535182 -0.257805945
v -0.741595861 -0.250121451 -0.267800523
v -0.725769253 -0.262261873 -0.277374171
v -0.709350731 -0.273941071 -0.286515828
v -0.692341279 -0.285119912 -0.295192484
v -0.674763937 -0.295772889 -0.303384232
v -0.656669762 -0.305903633 -0.311097808
v -0.638083379 -0.315492351 -0.318318279
v -0.619031568 -0.324520282 -0.325031759
v -0.599543070 -0.332969927 -0.331225589
v -0.579648369 -0.340825238 -0.336888478
v -0.559379436 -0.348071772 -0.342010624
v -0.538769464 -0.354696813 -0.346583788
v -0.517852596 -0.360689451 -0.350601351
v -0.496663646 -0.366040633 -0.354058329
v -0.475237836 -0.370743181 -0.356951370
v -0.453610537 -0.374791778 -0.359278729
v -0.431817033 -0.378182940 -0.361040214
v -0.409887632 -0.380883424 -0.362210249
v -0.387862946 -0.382911316 -0.362807248
v -0.365778528 -0.384265640 -0.362833230
v -0.343669359 -0.384919736 -0.362268595
v -0.321572637 -0.384894987 -0.361134336
v -0.299523994 -0.384183141 -0.359426426
v -0.277562232 -0.382769799 -0.357135956
v -0.255721776 -0.380673027 -0.354280961
v -0.234039370 -0.377890678 -0.350862691
v -0.212551736 -0.374424162 -0.346885396
v -0.191294973 -0.370278109 -0.342355982
v -0.170304085 -0.365460014 -0.337283673
v -0.149617481 -0.359970352 -0.331672057
v -0.129271107 -0.353816700 -0.325530467
v -0.109296223 -0.347014906 -0.318874763
v -0.089730563 -0.339569213 -0.311711533
v -0.070611532 -0.331486890 -0.304049803
v -0.051969300 -0.322785484 -0.295906551
v -0.033838046 -0.313476993 -0.287294298
v -0.016253375 -0.303572890 -0.278225079
v 0.000750086 -0.293086933 -0.268712570
v 0.017145687 -0.282040912 -0.258776345
v 0.032897480 -0.270448381 -0.248429494
v 0.047972308 -0.258326886 -0.237687893
v 0.062342300 -0.245698695 -0.226570598
v 0.075972755 -0.232582160 -0.215093381
v 0.088841460 -0.219004498 -0.203278086
v 0.100912033 -0.204985351 -0.191140487
v 0.112161465 -0.190553055 -0.178702126
v 0.122561288 -0.175733950 -0.165982424
v 0.132086783 -0.160557261 -0.153002171
v 0.140708950 -0.145051925 -0.139781136
v 0.148410970 -0.129252322 -0.126342216
v 0.155164132 -0.113190308 -0.112705505
v 0.160953083 -0.096902874 -0.098893971
v 0.165760004 -0.080427235 -0.084929805
v 0.169565305 -0.063801757 -0.070835029
v 0.172360075 -0.047067458 -0.056632937
v 0.174133948 -0.030265846 -0.042346372
v 0.174876141 -0.013439515 -0.027998194
v 0.174585295 0.003367964 -0.013611776
v 0.173260263 0.020112761 0.000789689
v 0.170899618 0.036750356 0.015182854
v 0.167514151 0.053237503 0.029544527
v 0.163107728 0.069530032 0.043851260
v 0.157696356 0.085586249 0.058080125
v 0.151291015 0.101363745 0.072207691
v 0.143913421 0.116823721 0.086211480
v 0.135582301 0.131927376 0.100068602
v 0.126319485 0.146637727 0.113756365
v 0.116150156 0.160920138 0.127252510
v 0.105103120 0.174743001 0.140535573
v 0.093205336 0.188074963 0.153583612
v 0.080489049 0.200888989 0.166376164
v 0.066981564 0.213155976 0.178891131
v 0.052717037 0.224852547 0.191108722
v 0.037727416 0.235954913 0.203008405
v 0.022051774 0.246446875 0.214573322
v 0.005717642 0.256302834 0.225780967
v -0.011234486 0.265510558 0.236615910
v -0.028770252 0.274053124 0.247059775
v -0.046852621 0.281917690 0.257096283
v -0.065447128 0.289089020 0.266707425
v -0.084515486 0.295557776 0.275878549
v -0.104021589 0.301312517 0.284593521
v -0.123925881 0.306348583 0.292840414
v -0.144191835 0.310657145 0.300604507
v -0.164781289 0.314233282 0.307873541
v -0.185654968 0.317076646 0.314638387
v -0.206778632 0.319172760 0.320879952
v -0.228109470 0.320534384 0.326598224
v -0.249612891 0.321146843 0.331773664
v -0.271247699 0.321024467 0.336407693
v -0.292976883 0.320164764 0.340489552
v -0.314762567 0.318568082 0.344010447
v -0.336566443 0.316237872 0.346963859
v -0.358350295 0.313180905 0.349345854
v -0.380076660 0.309407452 0.351155388
v -0.401709594 0.304931378 0.352394574
v -0.423208966 0.299743620 0.353046632
v -0.444540070 0.293867630 0.353121440
v -0.465667210 0.287314246 0.352618801
v -0.486553639 0.280093445 0.351537602
v -0.507160677 0.272211102 0.349873066
v -0.527462843 0.263701503 0.347645770
v -0.547419149 0.254565337 0.344846354
v -0.566989081 0.244809408 0.341470355
v -0.586150074 0.234467966 0.337539057
v -0.604868955 0.223556877 0.333056857
v -0.623113417 0.212093721 0.328029714
v -0.640852259 0.200097709 0.322465135
v -0.658055615 0.187589574 0.316372148
v -0.674695170 0.174591425 0.309761245
v -0.690744366 0.161126586 0.302644295
v -0.706178571 0.147219397 0.295034436
v -0.720975224 0.132894997 0.286945939
v -0.735097800 0.118170487 0.278383462
v -0.748510161 0.103066216 0.269354308
v -0.761217844 0.087622844 0.259891629
v -0.773206377 0.071867669 0.250013359
v -0.784442518 0.055820544 0.239727132
v -0.794870742 0.039497923 0.229032621
v -0.804534965 0.022947610 0.217977759
v -0.813411853 0.006192367 0.206574841
v -0.821415717 -0.010753967 0.194814340
v -0.828627116 -0.027843318 0.182753137
v -0.834982882 -0.045057480 0.170390501
v -0.840464258 -0.062366123 0.157745782
v -0.845137816 -0.079735753 0.144861107
v -0.848854715 -0.097143510 0.131719046
v -0.851758634 -0.114555469 0.118380403
v -0.853738200 -0.131942972 0.104841218
v -0.854855279 -0.149277887 0.091138304
v -0.855079874 -0.166530742 0.077287688
v -0.854406319 -0.183670219 0.063312637
v -0.852870222 -0.200674000 0.049239159
v -0.850413866 -0.217501446 0.035085473
v -0.847124656 -0.234142873 0.020879973
v -0.842904481 -0.250544102 0.006641919
v -0.837882966 -0.266712230 -0.007603450
v -0.831928728 -0.282575966 -0.021831335
v -0.825207350 -0.298162784 -0.036023965
v -0.817560697 -0.313381678 -0.050147413
v -0.809165528 -0.328274475 -0.064192533
v -0.799897522 -0.342754339 -0.078120645
v -0.789883254 -0.356850247 -0.091924439
v -0.779058858 -0.370497168 -0.105568008
v -0.767490894 -0.383698022 -0.119037842
v -0.755186225 -0.396425223 -0.132310656
v -0.742140696 -0.408638448 -0.145355783
v -0.728442136 -0.420367207 -0.158175558
v -0.714005761 -0.431506824 -0.170707949
v -0.698958398 -0.442121237 -0.182973075
v -0.683278613 -0.452154987 -0.194932519
v -0.666983289 -0.461578841 -0.206559378
v -0.650140076 -0.470419779 -0.217858820
v -0.632737753 -0.478620855 -0.228788878
v -0.614812587 -0.486172660 -0.239333641
v -0.596416043 -0.493091307 -0.249493614
v -0.577572440 -0.499360256 -0.259250137
v -0.558280430 -0.504914679 -0.268552804
v -0.538605768 -0.509796474 -0.277418983
v -0.518577536 -0.513993287 -0.285832217
v -0.498226430 -0.517493993 -0.293776645
v -0.477584733 -0.520289105 -0.301237332
v -0.456686107 -0.522370923 -0.308200439
v -0.435565349 -0.523733600 -0.314653329
v -0.414257820 -0.524371628 -0.320583518
v -0.392800972 -0.524288626 -0.325985189
v -0.371230373 -0.523479313 -0.330846030
v -0.349583231 -0.521947782 -0.335160696
v -0.327896231 -0.519698218 -0.338924053
v -0.306205693 -0.516736676 -0.342132536
v -0.284547352 -0.513070982 -0.344784115
v -0.262959128 -0.508690684 -0.346862026
v -0.241478667 -0.503602253 -0.348362798
v -0.220136919 -0.497840393 -0.349306537
v -0.198981121 -0.491369639 -0.349654922
v -0.178033970 -0.484246902 -0.349447301
v -0.157345974 -0.476440999 -0.348648009
v -0.136942746 -0.467991614 -0.347282330
v -0.116860300 -0.458907924 -0.345349408
v -0.097135768 -0.449199540 -0.342848491
v -0.077805334 -0.438879665 -0.339781861
v -0.058903710 -0.427964592 -0.336154548
v -0.040463744 -0.416473209 -0.331974025
v -0.022516152 -0.404426535 -0.327249902
v -0.005089345 -0.391847292 -0.321993615
v 0.011772079 -0.378743690 -0.316201626
v 0.028053617 -0.365151551 -0.309898641
v 0.043706294 -0.351078300 -0.303079433
v 0.058713144 -0.336557138 -0.295765977
v 0.073043202 -0.321610409 -0.287968542
v 0.086668507 -0.306263111 -0.279700016
v 0.099561376 -0.290540956 -0.270973745
v 0.111689287 -0.274468339 -0.261800753
v 0.123037813 -0.258078073 -0.252202496
v 0.133576602 -0.241396509 -0.242191491
v 0.143280441 -0.224453280 -0.231783626
v 0.152129812 -0.207280375 -0.220997546
v 0.160100372 -0.189909251 -0.209849880
v 0.167180054 -0.172374565 -0.198362136
v 0.173340404 -0.154709004 -0.186549744
v 0.178571142 -0.136949009 -0.174434751
v 0.182854893 -0.119130872 -0.162036611
v 0.186178850 -0.101292275 -0.149376161
v 0.188526942 -0.083472164 -0.136473429
v 0.189894875 -0.065710245 -0.123351181
v 0.190268614 -0.048048029 -0.110029918
v 0.189647463 -0.030526984 -0.096532736
v 0.188027983 -0.013189793 -0.082881903
v 0.185410730 0.003920456 -0.069100151
v 0.181793913 0.020758705 -0.055209933
v 0.177189421 0.037282731 -0.041234991
v 0.171604073 0.053448135 -0.027198365
v 0.165050282 0.069211633 -0.013123449
v 0.157543625 0.084530650 0.000966266
v 0.149104292 0.099364559 0.015047313
v 0.139751289 0.113671750 0.029096092
v 0.129513155 0.127416294 0.043089343
v 0.118413892 0.140559653 0.057003429
v 0.106485270 0.153069032 0.070815240
v 0.093760060 0.164913430 0.084501825
v 0.080271226 0.176062882 0.098040142
v 0.066054028 0.186490401 0.111407403
v 0.051146039 0.196172576 0.124581326
v 0.035587099 0.205090317 0.137540500
v 0.019412219 0.213219956 0.150261745
v 0.002664978 0.220550459 0.162725332
v -0.014616372 0.227065608 0.174909623
v -0.032391759 0.232753212 0.186793902
v -0.050619475 0.237605930 0.198358954
v -0.069258999 0.241616600 0.209585443
v -0.088270010 0.244779393 0.220454281
v -0.107612719 0.247088767 0.230946202
v -0.127245118 0.248547423 0.241045464
v -0.147127389 0.249154807 0.250734823
v -0.167220843 0.248906486 0.259994752
v -0.187482683 0.247820297 0.268817152
v -0.207876503 0.245883330 0.277177648
v -0.228361013 0.243114325 0.285068788
v -0.248897689 0.239519340 0.292476369
v -0.269448082 0.235107958 0.299388195
v -0.289974439 0.229894319 0.305795036
v -0.310437390 0.223872973 0.311674696
v -0.330802036 0.217082040 0.317033802
v -0.351028263 0.209513880 0.321848235
v -0.371083023 0.201201812 0.326122394
v -0.390929833 0.192157492 0.329845635
v -0.410532418 0.182395506 0.333009167
v -0.429855168 0.171933449 0.335606331
v -0.448863681 0.160791936 0.337632880
v -0.467525378 0.148994526 0.339087246
v -0.485810197 0.136567545 0.339970776
v -0.503691351 0.123539779 0.340287926
v -0.521118115 0.109909249 0.340012538
v -0.538084509 0.095732106 0.339176051
v -0.554540519 0.081010223 0.337755017
v -0.570483753 0.065796002 0.335780352
v -0.585849056 0.050083248 0.333216233
v -0.600641024 0.033927045 0.330098671
v -0.614832917 0.017353449 0.326430499
v -0.628393483 0.000386663 0.322211209
v -0.641283913 -0.016950933 0.317435476
v -0.653500869 -0.034617760 0.312127179
v -0.665022315 -0.052583608 0.306294050
v -0.675827949 -0.070817314 0.299945277
v -0.685899343 -0.089286944 0.293091444
v -0.695220054 -0.107960004 0.285744470
v -0.703775701 -0.126803657 0.277917505
v -0.711554024 -0.145784943 0.269624824
v -0.718530145 -0.164872287 0.260873680
v -0.724683066 -0.184031648 0.251674752
v -0.730024593 -0.203227345 0.242055819
v -0.734550566 -0.222426771 0.232034950
v -0.738258779 -0.241598169 0.221630655
v -0.741109785 -0.260706212 0.210845406
v -0.743101136 -0.279715398 0.199699923
v -0.744268954 -0.298598395 0.188228789
v -0.744610681 -0.317325164 0.176449311
v -0.744045935 -0.335843924 0.164354092
v -0.742666989 -0.354143478 0.151995286
v -0.740468788 -0.372193727 0.139389026
v -0.737372214 -0.389933876 0.126534129
v -0.733483389 -0.407368767 0.113479631
v -0.728761826 -0.424451802 0.100234511
v -0.723198201 -0.441142929 0.086818987
v -0.716873977 -0.457450083 0.073268097
v -0.709692733 -0.473287670 0.059587533
v -0.701761089 -0.488679684 0.045814738
v -0.693057455 -0.503580853 0.031967149
v -0.683575944 -0.517948832 0.018068093
v -0.673404267 -0.531811980 0.004143036
v -0.662442882 -0.545055590 -0.009785835
v -0.650825265 -0.557747507 -0.023695054
v -0.638507670 -0.569813551 -0.037560159
v -0.625526452 -0.581243682 -0.051357107
v -0.611936185 -0.592053492 -0.065068791
v -0.597683132 -0.602139970 -0.078657814
v -0.582876140 -0.611579290 -0.092117953
v -0.567488690 -0.620295293 -0.105415097
v -0.551559691 -0.628284788 -0.118528208
v -0.535145349 -0.635577868 -0.131448372
v -0.518214643 -0.642071351 -0.144126985
v -0.500846293 -0.647829097 -0.156564998
v -0.483070418 -0.652848734 -0.168746215
v -0.464873641 -0.657033726 -0.180617533
v -0.446328680 -0.660456852 -0.192188377
v -0.427463626 -0.663110602 -0.203440391
v -0.408293644 -0.664945839 -0.214335837
v -0.388858281 -0.665969811 -0.224859904
v -0.369198785 -0.666206408 -0.235007236
v -0.349346225 -0.665650089 -0.244759287
v -0.329332966 -0.664296986 -0.254097920
v -0.309189009 -0.662113293 -0.262987700
v -0.288955740 -0.659137053 -0.271431994
v -0.268667604 -0.655372508 -0.279416707
v -0.248359297 -0.650823512 -0.286927399
v -0.228065920 -0.645495989 -0.293950731
v -0.207822757 -0.639397945 -0.300474575
v -0.187665048 -0.632539446 -0.306488115
v -0.167627756 -0.624932557 -0.311981923
v -0.147745358 -0.616591262 -0.316948010
v -0.128051812 -0.607530797 -0.321379429
v -0.108590905 -0.597739389 -0.325247862
v -0.089387775 -0.587263104 -0.328569677
v -0.070473328 -0.576123029 -0.331343076
v -0.051888971 -0.564320173 -0.333548843
v -0.033667058 -0.551876829 -0.335185277
v -0.015831301 -0.538827853 -0.336262598
v 0.001572444 -0.525174256 -0.336759536
v 0.018523590 -0.510954549 -0.336690111
v 0.034995005 -0.496194688 -0.336057468
v 0.050938909 -0.480901454 -0.334843051
v 0.066339384 -0.465114936 -0.333064139
v 0.081167599 -0.448860927 -0.330723013
v 0.095395098 -0.432166114 -0.327822693
v 0.108995879 -0.415059315 -0.324368693
v 0.121945574 -0.397570420 -0.320367965
v 0.134204948 -0.379722479 -0.315816132
v 0.145770242 -0.361556555 -0.310736847
v 0.156606146 -0.343098670 -0.305129386
v 0.166702016 -0.324385072 -0.299011056
v 0.176021845 -0.305444091 -0.292382112
v 0.184555776 -0.286312641 -0.285260495
v 0.192285904 -0.267024989 -0.277658564
v 0.199192300 -0.247615651 -0.269587724
v 0.205254925 -0.228120141 -0.261059758
v 0.210472278 -0.208575578 -0.252096124
v 0.214812896 -0.189018258 -0.242703131
v 0.218277659 -0.169485982 -0.232903251
v 0.220852951 -0.150016718 -0.222711740
v 0.222530104 -0.130649005 -0.212146176
v 0.223299467 -0.111422397 -0.201223791
v 0.223155076 -0.092376845 -0.189963302
v 0.222093753 -0.073552622 -0.178384363
v 0.220114294 -0.054990282 -0.166507100
v 0.217215515 -0.036731417 -0.154351507
v 0.213400811 -0.018817166 -0.141938778
v 0.208670525 -0.001291217 -0.129289159
v 0.203036778 0.015806700 -0.116425647
v 0.196502381 0.032431050 -0.103368849
v 0.189083897 0.048542068 -0.090142156
v 0.180795374 0.064097687 -0.076768052
v 0.171654712 0.079056997 -0.063269459
v 0.161678875 0.093376799 -0.049669112
v 0.150895515 0.107021024 -0.035990840
v 0.139330800 0.119951907 -0.022258001
v 0.127010915 0.132130350 -0.008494033
v 0.113972206 0.143526953 0.005277328
v 0.100244406 0.154104613 0.019032378
v 0.085869235 0.163840407 0.032747687
v 0.070880835 0.172701713 0.046399292
v 0.055323056 0.180669934 0.059964052
v 0.039237316 0.187724281 0.073418658
v 0.022665951 0.193846399 0.086739822
v 0.005652494 0.199021374 0.099904439
v -0.011758524 0.203238220 0.112889772
v -0.029521843 0.206490474 0.125673743
v -0.047592333 0.208775139 0.138234907
v -0.065927278 0.210083639 0.150550095
v -0.084481332 0.210420413 0.162599106
v -0.103210940 0.209788106 0.174361203
v -0.122073070 0.208192326 0.185816366
v -0.141025662 0.205636983 0.196943752
v -0.160026739 0.202134054 0.207725100
v -0.179035428 0.197692014 0.218140799
v -0.198011623 0.192327012 0.228174157
v -0.216916069 0.186052477 0.237807424
v -0.235710703 0.178886718 0.247025039
v -0.254356916 0.170841204 0.255808044
v -0.272819398 0.161942818 0.264145176
v -0.291060201 0.152203587 0.272017455
v -0.309046306 0.141652806 0.279415424
v -0.326743068 0.130311336 0.286325116
v -0.344117547 0.118203896 0.292734943
v -0.361139328 0.105359108 0.298636270
v -0.377770339 0.091791136 0.304009876
v -0.393988903 0.077543153 0.308858060
v -0.409757617 0.062631007 0.313162464
v -0.425056578 0.047096184 0.316925731
v -0.439855676 0.030964592 0.320137914
v -0.454123001 0.014261689 0.322787671
v -0.467838352 -0.002974718 0.324875919
v -0.480975865 -0.020713305 0.326397404
v -0.493508577 -0.038922920 0.327346068
v -0.505420736 -0.057564304 0.327726219
v -0.516697690 -0.076599598 0.327542359
v -0.527307901 -0.096000743 0.326784239
v -0.537234797 -0.115729769 0.325455136
v -0.546471702 -0.135746282 0.323565725
v -0.554989779 -0.156018266 0.321109014
v -0.562777846 -0.176507049 0.318092091
v -0.569840523 -0.197171174 0.314533465
v -0.576135344 -0.217979424 0.310416918
v -0.581664060 -0.238890706 0.305758960
v -0.586427252 -0.259866157 0.300574507
v -0.590414260 -0.280868643 0.294870462
v -0.593616332 -0.301860531 0.288655181
v -0.596026706 -0.322803892 0.281938441
v -0.597640664 -0.343660715 0.274731410
v -0.598455568 -0.364393120 0.267046577
v -0.598470858 -0.384963580 0.258897677
v -0.597688032 -0.405335128 0.250299595
v -0.596110586 -0.425471558 0.241268252
v -0.593743929 -0.445337608 0.231820481
v -0.590595267 -0.464899115 0.221973886
v -0.586673458 -0.484123144 0.211746705
v -0.581979356 -0.502972985 0.201153351
v -0.576492079 -0.521397441 0.190199428
v -0.570261823 -0.539384529 0.178922448
v -0.563303293 -0.556906168 0.167342691
v -0.555631447 -0.573935287 0.155480218
v -0.547197569 -0.590393452 0.143332663
v -0.538082745 -0.606299723 0.130946135
v -0.528305429 -0.621631331 0.118341384
v -0.517841690 -0.636323690 0.105527117
v -0.506725541 -0.650361696 0.092531425
v -0.495006510 -0.663753208 0.079383914
v -0.482668556 -0.676434698 0.066098087
v -0.469737572 -0.688384039 0.052699363
v -0.456270660 -0.699625546 0.039216103
v -0.442250872 -0.710084285 0.025665536
v -0.427717704 -0.719758275 0.012074404
v -0.412721572 -0.728672918 -0.001533743
v -0.397244881 -0.736736278 -0.015135664
v -0.381344260 -0.743982264 -0.028706940
v -0.365059122 -0.750426785 -0.042227670
v -0.348377390 -0.755965767 -0.055666392
v -0.331363396 -0.760665843 -0.069006022
v -0.314048839 -0.764532037 -0.082227620
v -0.296434556 -0.767464448 -0.095292823
v -0.278578554 -0.769537438 -0.108191649
v -0.260511512 -0.770755014 -0.120905456
v -0.242250822 -0.771047411 -0.133396425
v -0.223838946 -0.770452147 -0.145650866
v -0.205310685 -0.768992638 -0.157654794
v -0.186695746 -0.766660774 -0.169385651
v -0.168024898 -0.763399864 -0.180801815
v -0.149336119 -0.759280470 -0.191905078
v -0.130661008 -0.754305092 -0.202675681
v -0.112031862 -0.748477931 -0.213094061
v -0.093482702 -0.741796680 -0.223137080
v -0.075050823 -0.734253861 -0.232777516
v -0.056765743 -0.725892166 -0.242012220
v -0.038660143 -0.716723521 -0.250824357
v -0.020766660 -0.706761903 -0.259197909
v -0.003117702 -0.696023355 -0.267117806
v 0.014254749 -0.684525946 -0.274570043
v 0.031319334 -0.672289718 -0.281541779
v 0.048045497 -0.659336592 -0.288021436
v 0.064403666 -0.645690245 -0.293998755
v 0.080365412 -0.631375978 -0.299464859
v 0.095893629 -0.616406951 -0.304400644
v 0.110959728 -0.600811287 -0.308798243
v 0.125547373 -0.584630838 -0.312662984
v 0.139633949 -0.567896382 -0.315991931
v 0.153163233 -0.550607196 -0.318748389
v 0.166144082 -0.532826674 -0.320962285
v 0.178530727 -0.514567260 -0.322608762
v 0.190316770 -0.495873603 -0.323700760
v 0.201456931 -0.476763842 -0.324215960
v 0.211953485 -0.457286531 -0.324174443
v 0.221779963 -0.437471480 -0.323570554
v 0.230903615 -0.417348307 -0.322394520
v 0.239317081 -0.396958227 -0.320657432
v 0.247004979 -0.376338042 -0.318363511
v 0.253952066 -0.355524611 -0.315517096
v 0.260130985 -0.334553176 -0.312114077
v 0.265541146 -0.313464669 -0.308169801
v 0.270177270 -0.292297611 -0.303695644
v 0.274005495 -0.271089476 -0.298684090
v 0.277040205 -0.249880398 -0.293159752
v 0.279259893 -0.228709693 -0.287123692
v 0.280657487 -0.207617724 -0.280586611
v 0.281233265 -0.186643923 -0.273563502
v 0.280982173 -0.165828455 -0.266066067
v 0.279893453 -0.145213874 -0.258103059
v 0.277978804 -0.124837397 -0.249695545
v 0.275228777 -0.104742630 -0.240853088
v 0.271652152 -0.084967856 -0.231594775
v 0.267248505 -0.065555322 -0.221934891
v 0.262022538 -0.046546233 -0.211890265
v 0.255983298 -0.027980304 -0.201479559
v 0.249141117 -0.009897068 -0.190721724
v 0.241501050 0.007659354 -0.179633353
v 0.233079923 0.024651289 -0.168235742
v 0.223892356 0.041038819 -0.156548882
v 0.213955202 0.056782471 -0.144593304
v 0.203286975 0.071842688 -0.132389831
v 0.191907729 0.086179530 -0.119959525
v 0.179844084 0.099758292 -0.107325136
v 0.167121940 0.112542230 -0.094508719
v 0.153769264 0.124495038 -0.081532606
v 0.139817540 0.135583019 -0.068419713
v 0.125301208 0.145775055 -0.055193294
v 0.110257214 0.155042564 -0.041876774
v 0.094724639 0.163359467 -0.028493650
v 0.078741704 0.170695566 -0.015067308
v 0.062353901 0.177035384 -0.001621710
v 0.045604428 0.182357737 0.011819478
v 0.028538700 0.186646187 0.025232438
v 0.011204411 0.189892544 0.038593638
v -0.006352189 0.192083384 0.051879160
v -0.024082775 0.193215688 0.065065599
v -0.041939445 0.193288567 0.078129723
v -0.059874748 0.192302993 0.091048360
v -0.077841664 0.190263939 0.103798685
v -0.095794050 0.187180789 0.116358478
v -0.113686111 0.183057101 0.128704005
v -0.131474462 0.177916483 0.140815642
v -0.149115151 0.171765984 0.152669866
v -0.166567089 0.164627981 0.164246712
v -0.183790426 0.156523678 0.175526056
v -0.200745035 0.147470409 0.186486295
v -0.217394879 0.137496708 0.197109532
v -0.233703520 0.126626180 0.207376241
v -0.249637537 0.114888056 0.217269157
v -0.265162881 0.102308191 0.226769600
v -0.280247966 0.088916407 0.235860640
v -0.294864544 0.074746607 0.244527761
v -0.308982545 0.059828277 0.252754244
v -0.322575986 0.044196263 0.260526568
v -0.335615519 0.027880299 0.267827945
v -0.348080904 0.010920516 0.274648988
v -0.359948299 -0.006648448 0.280976913
v -0.371197201 -0.024789184 0.286801439
v -0.381805127 -0.043466466 0.292110484
v -0.391748909 -0.062644942 0.296891360
v -0.401024712 -0.082276713 0.301146430
v -0.409598464 -0.102334014 0.304854205
v -0.417466942 -0.122769990 0.308017214
v -0.424617355 -0.143544711 0.310630351
v -0.431034708 -0.164619281 0.312686777
v -0.436706742 -0.185953361 0.314181727
v -0.441624273 -0.207505568 0.315112722
v -0.445781501 -0.229233978 0.315479747
v -0.449176296 -0.251096722 0.315285403
v -0.451803058 -0.273053186 0.314529668
v -0.453636758 -0.295062633 0.313198553
v -0.454712452 -0.317082311 0.311321469
v -0.454991074 -0.339070601 0.308874420
v -0.454514868 -0.360989254 0.305891547
v -0.453234707 -0.382790976 0.302342190
v -0.451200253 -0.404442365 0.298265355
v -0.448405965 -0.425902711 0.293661086
v -0.444826284 -0.447122207 0.288515943
v -0.440501176 -0.468071167 0.282861618
v -0.435436221 -0.488710633 0.276706006
v -0.429638960 -0.509001959 0.270058393
v -0.423118894 -0.528907016 0.262929429
v -0.415887446 -0.548388392 0.255331088
v -0.407957912 -0.567409585 0.247276612
v -0.399345390 -0.585935193 0.238780435
v -0.390066675 -0.603931075 0.229858101
v -0.380140151 -0.621364508 0.220526159
v -0.369585654 -0.638204299 0.210802059
v -0.358424324 -0.654420889 0.200704037
v -0.346678453 -0.669986411 0.190250989
v -0.334371317 -0.684874722 0.179462356
v -0.321527016 -0.699061398 0.168358006
v -0.308158798 -0.712505874 0.156951629
v -0.294285943 -0.725171557 0.145260872
v -0.279952813 -0.737063875 0.133317183
v -0.265186437 -0.748164937 0.121141891
v -0.250014039 -0.758458322 0.108756326
v -0.234437363 -0.767866243 0.096169717
v -0.218509790 -0.776422211 0.083417157
v -0.202263514 -0.784122613 0.070522256
v -0.185724936 -0.790949945 0.057505872
v -0.168904936 -0.796821156 0.044384374
v -0.151857821 -0.801803053 0.031190120
v -0.134612547 -0.805888589 0.017944742
v -0.117190958 -0.809022536 0.004669671
v -0.099628760 -0.811205245 -0.008609348
v -0.081963198 -0.812475182 -0.021869372
v -0.064223669 -0.812826823 -0.035088616
v -0.046439958 -0.812174822 -0.048236830
v -0.028649269 -0.810607166 -0.061296186
v -0.010881619 -0.808124735 -0.074245120
v 0.006829777 -0.804699910 -0.087056836
v 0.024448227 -0.800318710 -0.099703435
v 0.041946365 -0.795037884 -0.112171011
v 0.059293560 -0.788863545 -0.124438108
v 0.076455299 -0.781788576 -0.136479123
v 0.093390726 -0.773795420 -0.148262824
v 0.110079380 -0.764943833 -0.159780614
v 0.126490793 -0.755246363 -0.171011851
v 0.142594517 -0.744717276 -0.181936094
v 0.158360251 -0.733372665 -0.192533205
v 0.173751599 -0.721218141 -0.202777594
v 0.188739861 -0.708278857 -0.212651236
v 0.203303609 -0.694590955 -0.222142479
v 0.217415346 -0.680177773 -0.231233999
v 0.231048426 -0.665064471 -0.239909292
v 0.244177222 -0.649277977 -0.248152777
v 0.256777270 -0.632846899 -0.255949906
v 0.268825415 -0.615801411 -0.263287245
v 0.280299941 -0.598173115 -0.270152559
v 0.291173219 -0.579988606 -0.276528875
v 0.301417830 -0.561276658 -0.282399615
v 0.311028359 -0.542083379 -0.287765800
v 0.319989872 -0.522445106 -0.292620630
v 0.328284206 -0.502395871 -0.296954766
v 0.335865527 -0.481956553 -0.300737716
v 0.342759901 -0.461186183 -0.303994459
v 0.348926412 -0.440109988 -0.306698529
v 0.354367813 -0.418772593 -0.308856748
v 0.359058419 -0.397209001 -0.310454622
v 0.363011259 -0.375464547 -0.311506423
v 0.366186590 -0.353572874 -0.311987520
v 0.368595965 -0.331578916 -0.311911122
v 0.370234292 -0.309523153 -0.311278096
v 0.371093819 -0.287446317 -0.310087445
v 0.371170172 -0.265389859 -0.308340675
v 0.370462231 -0.243395357 -0.306041623
v 0.368971936 -0.221504007 -0.303196265
v 0.366698896 -0.199757429 -0.299808952
v 0.363634069 -0.178200309 -0.295878186
v 0.359804574 -0.156867750 -0.291427159
v 0.355188334 -0.135809950 -0.286445616
v 0.349811833 -0.115061321 -0.280956118
v 0.343678078 -0.094664366 -0.274965312
v 0.336794108 -0.074661001 -0.268482550
v 0.329171101 -0.055091654 -0.261519852
v 0.320823760 -0.035994827 -0.254091399
v 0.311765078 -0.017410520 -0.246210127
v 0.302006554 0.000619008 -0.237887929
v 0.291569066 0.018058109 -0.229142422
v 0.280471123 0.034868994 -0.219989469
v 0.268731356 0.051012819 -0.210444762
v 0.256372267 0.066453620 -0.200526059
v 0.243419085 0.081157886 -0.190252374
v 0.229890850 0.095082131 -0.179638669
v 0.215821059 0.108201019 -0.168707995
v 0.201236367 0.120478513 -0.157478833
v 0.186167013 0.131881698 -0.145971210
v 0.170646344 0.142381139 -0.134206331
v 0.154710148 0.151950685 -0.122206124
v 0.138391716 0.160554660 -0.109990432
v 0.121733063 0.168176439 -0.097583307
v 0.104773536 0.174790083 -0.085006578
v 0.087555174 0.180373608 -0.072282873
v 0.070122109 0.184908752 -0.059435312
v 0.052520098 0.188380775 -0.046487294
v 0.034796147 0.190778286 -0.033462367
v 0.016998189 0.192093111 -0.020384146
v -0.000825100 0.192316119 -0.007276249
v -0.018624265 0.191446679 0.005837430
v -0.036350057 0.189488739 0.018933147
v -0.053952887 0.186443672 0.031987041
v -0.071383819 0.182320314 0.044975334
v -0.088595220 0.177132665 0.057874567
v -0.105540098 0.170895171 0.070661257
v -0.122172792 0.163625719 0.083312097
v -0.138449412 0.155345796 0.095804093
v -0.154328381 0.146080676 0.108114781
v -0.169768367 0.135854271 0.120221248
v -0.184732173 0.124697500 0.132101920
v -0.199182441 0.112638843 0.143734553
v -0.213086765 0.099713499 0.155098710
v -0.226412802 0.085954625 0.166173432
v -0.239131731 0.071398761 0.176938980
v -0.251214392 0.056080649 0.187374911
v -0.262636438 0.040039587 0.197462781
v -0.273372918 0.023312919 0.207183389
v -0.283404808 0.005942681 0.216520318
v -0.292711826 -0.012031548 0.225456141
v -0.301277975 -0.030567649 0.233975496
v -0.309083370 -0.049626929 0.242060521
v -0.316117699 -0.069164712 0.249698557
v -0.322365585 -0.089140330 0.256873826
v -0.327821291 -0.109508436 0.263576062
v -0.332473291 -0.130227355 0.269791430
v -0.336313841 -0.151253842 0.275508209
v -0.339339527 -0.172543607 0.280717258
v -0.341551798 -0.194052006 0.285412520
v -0.342930297 -0.215739190 0.289573872
v -0.343499962 -0.237556674 0.293210274
v -0.343234329 -0.259464452 0.296297267
v -0.342157248 -0.281416689 0.298843357
v -0.340268126 -0.303370870 0.300841032
v -0.337569324 -0.325283936 0.302284639
v -0.334066318 -0.347112714 0.303170576
v -0.329767824 -0.368814410 0.303497467
v -0.324685862 -0.390347185 0.303266312
v -0.318835732 -0.411670793 0.302480583
v -0.312235909 -0.432747280 0.301146277
v -0.304867299 -0.453522967 0.299241328
v -0.296785430 -0.473974350 0.296799220
v -0.287983032 -0.494051925 0.293806585
v -0.278493369 -0.513725676 0.290280761
v -0.268316287 -0.532946138 0.286213201
v -0.257500093 -0.551696725 0.281633708
v -0.246036123 -0.569918689 0.276526412
v -0.233960989 -0.587588091 0.270911981
v -0.221305775 -0.604679312 0.264807065
v -0.208092169 -0.621158501 0.258220573
v -0.194340485 -0.636988823 0.251159984
v -0.180069530 -0.652128596 0.243630950
v -0.165319271 -0.666565115 0.235658359
v -0.150117295 -0.680270600 0.227256175
v -0.134492372 -0.693218952 0.218439459
v -0.118474322 -0.705385856 0.209224295
v -0.102093872 -0.716748856 0.199627696
v -0.085382497 -0.727287396 0.189667521
v -0.068372281 -0.736982849 0.179362370
v -0.051095770 -0.745818516 0.168731486
v -0.033582199 -0.753763245 0.157789440
v -0.015866556 -0.760802941 0.146557586
v 0.002014231 -0.766937891 0.135061027
v 0.020026251 -0.772158999 0.123321244
v 0.038135695 -0.776458922 0.111359943
v 0.056308927 -0.779831958 0.099198999
v 0.074512479 -0.782266015 0.086859095
v 0.092710241 -0.783716117 0.074357167
v 0.110867290 -0.784228014 0.061724644
v 0.128950642 -0.783802579 0.048984079
v 0.146927643 -0.782441929 0.036158005
v 0.164761874 -0.780127867 0.023268088
v 0.182413515 -0.776842989 0.010338437
v 0.199857271 -0.772637327 -0.002605327
v 0.217061747 -0.767518661 -0.015540575
v 0.233995823 -0.761495863 -0.028444674
v 0.250610614 -0.754532052 -0.041290653
v 0.266884942 -0.746675726 -0.054055960
v 0.282793657 -0.737953834 -0.066718979
v 0.298307291 -0.728380883 -0.079257268
v 0.313396701 -0.717972680 -0.091648391
v 0.328009941 -0.706708452 -0.103860607
v 0.342137612 -0.694645046 -0.115877976
v 0.355756106 -0.681809012 -0.127680031
v 0.368839038 -0.668222301 -0.139245198
v 0.381360719 -0.653908408 -0.150552125
v 0.393296272 -0.638892427 -0.161579757
v 0.404621763 -0.623201073 -0.172307408
v 0.415304767 -0.606853703 -0.182709890
v 0.425332662 -0.589890248 -0.192771993
v 0.434689655 -0.572345745 -0.202477187
v 0.443357338 -0.554252554 -0.211807636
v 0.451318810 -0.535644359 -0.220746316
v 0.458558790 -0.516556069 -0.229277109
v 0.465063711 -0.497023686 -0.237384890
v 0.470808304 -0.477077574 -0.245047580
v 0.475786946 -0.456759481 -0.252254500
v 0.479996017 -0.436110796 -0.258996408
v 0.483429645 -0.415171003 -0.265262865
v 0.486083946 -0.393979805 -0.271044762
v 0.487934972 -0.372572086 -0.276320264
v 0.488978552 -0.350989633 -0.281079763
v 0.489239464 -0.329278090 -0.285332568
v 0.488680590 -0.307473768 -0.289047793
v 0.487329204 -0.285620812 -0.292236711
v 0.485168740 -0.263760402 -0.294881542
v 0.482224204 -0.241933203 -0.296992632
v 0.478464273 -0.220184286 -0.298541673
v 0.473927257 -0.198552361 -0.299548321
v 0.468613444 -0.177079117 -0.300006150
v 0.462526994 -0.155806951 -0.299911240
v 0.455674989 -0.134778560 -0.299261607
v 0.448070846 -0.114034958 -0.298059813
v 0.439726642 -0.093617777 -0.296307417
v 0.430660140 -0.073566081 -0.294010218
v 0.420890771 -0.053917448 -0.291175362
v 0.410436104 -0.034710277 -0.287808597
v 0.399301068 -0.015993211 -0.283905489
v 0.387522208 0.002207813 -0.279486484
v 0.375113442 0.019850041 -0.274554049
v 0.362093710 0.036892589 -0.269114260
v 0.348493102 0.053305536 -0.263182362
v 0.334336159 0.069053499 -0.256768882
v 0.319647605 0.084100052 -0.249884156
v 0.304453662 0.098409062 -0.242539402
v 0.288790667 0.111959830 -0.234754964
v 0.272679667 0.124705026 -0.226536286
v 0.256159301 0.136626693 -0.217905196
v 0.239261113 0.147693397 -0.208876203
v 0.222019478 0.157877563 -0.199465975
v 0.204470923 0.167155577 -0.189692877
v 0.186650052 0.175493687 -0.179571696
v 0.168598821 0.182881395 -0.169125707
v 0.150355166 0.189289433 -0.158371536
v 0.131960941 0.194700508 -0.147329906
v 0.113458910 0.199098580 -0.136021682
v 0.094892805 0.202464600 -0.124466985
v 0.076308012 0.204792219 -0.112688758
v 0.057750750 0.206066063 -0.100707823
v 0.039268053 0.206282917 -0.088547230
v 0.020908146 0.205435652 -0.076229138
v 0.002720188 0.203521177 -0.063776327
v -0.015246878 0.200543343 -0.051212275
v -0.032943156 0.196505486 -0.038560245
v -0.050319644 0.191417575 -0.025843943
v -0.067327691 0.185292202 -0.013087057
v -0.083919381 0.178145191 -0.000313303
v -0.100046737 0.169993484 0.012453535
v -0.115663467 0.160858686 0.025189559
v -0.130726811 0.150768818 0.037871109
v -0.145194463 0.139751924 0.050474551
v -0.159026210 0.127838882 0.062976341
v -0.172184302 0.115063379 0.075353099
v -0.184633905 0.101461881 0.087581733
v -0.196343628 0.087073579 0.099639626
v -0.207283607 0.071938028 0.111504213
v -0.217425155 0.056095167 0.123152782
v -0.226746736 0.039589926 0.134564226
v -0.235227342 0.022466117 0.145717318
v -0.242847025 0.004767330 0.156590758
v -0.249590099 -0.013460950 0.167164244
v -0.255445890 -0.032171628 0.177418963
v -0.260399690 -0.051320688 0.187334316
v -0.264449630 -0.070859065 0.196894338
l 1 2
l 2 3
l 3 4
l 4 5
l 5 6
l 6 7
l 7 8
l 8 9
l 9 10
l 10 11
l 11 12
l 12 13
l 13 14
l 14 15
l 15 16
l 16 17
l 17 18
l 18 19
l 19 20
l 20 21
l 21 22
l 22 23
l 23 24
l 24 25
l 25 26
l 26 27
l 27 28
l 28 29
l 29 30
l 30 31
l 31 32
l 32 33
l 33 34
l 34 35
l 35 36
l 36 37
l 37 38
l 38 39
l 39 40
l 40 41
l 41 42
l 42 43
l 43 44
l 44 45
l 45 46
l 46 47
l 47 48
l 48 49
l 49 50
l 50 51
l 51 52
l 52 53
l 53 54
l 54 55
l 55 56
l 56 57
l 57 58
l 58 59
l 59 60
l 60 61
l 61 62
l 62 63
l 63 64
l 64 65
l 65 66
l 66 67
l 67 68
l 68 69
l 69 70
l 70 71
l 71 72
l 72 73
l 73 74
l 74 75
l 75 76
l 76 77
l 77 78
l 78 79
l 79 80
l 80 81
l 81 82
l 82 83
l 83 84
l 84 85
l 85 86
l 86 87
l 87 88
l 88 89
l 89 90
l 90 91
l 91 92
l 92 93
l 93 94
l 94 95
l 95 96
l 96 97
l 97 98
l 98 99
l 99 100
l 100 101
l 101 102
l 102 103
l 103 104
l 104 105
l 105 106
l 106 107
l 107 108
l 108 109
l 109 110
l 110 111
l 111 112
l 112 113
l 113 114
l 114 115
l 115 116
l 116 117
l 117 118
l 118 119
l 119 120
l 120 121
l 121 122
l 122 123
l 123 124
l 124 125
l 125 126
l 126 127
l 127 128
l 128 129
l 129 130
l 130 131
l 131 132
l 132 133
l 133 134
l 134 135
l 135 136
l 136 137
l 137 138
l 138 139
l 139 140
l 140 141
l 141 142
l 142 143
l 143 144
l 144 145
l 145 146
l 146 147
l 147 148
l 148 149
l 149 150
l 150 151
l 151 152
l 152 153
l 153 154
l 154 155
l 155 156
l 156 157
l 157 158
l 158 159
l 159 160
l 160 161
l 161 162
l 162 163
l 163 164
l 164 165
l 165 166
l 166 167
l 167 168
l 168 169
l 169 170
l 170 171
l 171 172
l 172 173
l 173 174
l 174 175
l 175 176
l 176 177
l 177 178
l 178 179
l 179 180
l 180 181
l 181 182
l 182 183
l 183 184
l 184 185
l 185 186
l 186 187
l 187 188
l 188 189
l 189 190
l 190 191
l 191 192
l 192 193
l 193 194
l 194 195
l 195 196
l 196 197
l 197 198
l 198 199
l 199 200
l 200 201
l 201 202
l 202 203
l 203 204
l 204 205
l 205 206
l 206 207
l 207 208
l 208 209
l 209 210
l 210 211
l 211 212
l 212 213
l 213 214
l 214 215
l 215 216
l 216 217
l 217 218
l 218 219
l 219 220
l 220 221
l 221 222
l 222 223
l 223 224
l 224 225
l 225 226
l 226 227
l 227 228
l 228 229
l 229 230
l 230 231
l 231 232
l 232 233
l 233 234
l 234 235
l 235 236
l 236 237
l 237 238
l 238 239
l 239 240
l 240 241
l 241 242
l 242 243
l 243 244
l 244 245
l 245 246
l 246 247
l 247 248
l 248 249
l 249 250
l 250 251
l 251 252
l 252 253
l 253 254
l 254 255
l 255 256
l 256 257
l 257 258
l 258 259
l 259 260
l 260 261
l 261 262
l 262 263
l 263 264
l 264 265
l 265 266
l 266 267
l 267 268
l 268 269
l 269 270
l 270 271
l 271 272
l 272 273
l 273 274
l 274 275
l 275 276
l 276 277
l 277 278
l 278 279
l 279 280
l 280 281
l 281 282
l 282 283
l 283 284
l 284 285
l 285 286
l 286 287
l 287 288
l 288 289
l 289 290
l 290 291
l 291 292
l 292 293
l 293 294
l 294 295
l 295 296
l 296 297
l 297 298
l 298 299
l 299 300
l 300 301
l 301 302
l 302 303
l 303 304
l 304 305
l 305 306
l 306 307
l 307 308
l 308 309
l 309 310
l 310 311
l 311 312
l 312 313
l 313 314
l 314 315
l 315 316
l 316 317
l 317 318
l 318 319
l 319 320
l 320 321
l 321 322
l 322 323
l 323 324
l 324 325
l 325 326
l 326 327
l 327 328
l 328 329
l 329 330
l 330 331
l 331 332
l 332 333
l 333 334
l 334 335
l 335 336
l 336 337
l 337 338
l 338 339
l 339 340
l 340 341
l 341 342
l 342 343
l 343 344
l 344 345
l 345 346
l 346 347
l 347 348
l 348 349
l 349 350
l 350 351
l 351 352
l 352 353
l 353 354
l 354 355
l 355 356
l 356 357
l 357 358
l 358 359
l 359 360
l 360 361
l 361 362
l 362 363
l 363 364
l 364 365
l 365 366
l 366 367
l 367 368
l 368 369
l 369 370
l 370 371
l 371 372
l 372 373
l 373 374
l 374 375
l 375 376
l 376 377
l 377 378
l 378 379
l 379 380
l 380 381
l 381 382
l 382 383
l 383 384
l 384 385
l 385 386
l 386 387
l 387 388
l 388 389
l 389 390
l 390 391
l 391 392
l 392 393
l 393 394
l 394 395
l 395 396
l 396 397
l 397 398
l 398 399
l 399 400
l 400 401
l 401 402
l 402 403
l 403 404
l 404 405
l 405 406
l 406 407
l 407 408
l 408 409
l 409 410
l 410 411
l 411 412
l 412 413
l 413 414
l 414 415
l 415 416
l 416 417
l 417 418
l 418 419
l 419 420
l 420 421
l 421 422
l 422 423
l 423 424
l 424 425
l 425 426
l 426 427
l 427 428
l 428 429
l 429 430
l 430 431
l 431 432
l 432 433
l 433 434
l 434 435
l 435 436
l 436 437
l 437 438
l 438 439
l 439 440
l 440 441
l 441 442
l 442 443
l 443 444
l 444 445
l 445 446
l 446 447
l 447 448
l 448 449
l 449 450
l 450 451
l 451 452
l 452 453
l 453 454
l 454 455
l 455 456
l 456 457
l 457 458
l 458 459
l 459 460
l 460 461
l 461 462
l 462 463
l 463 464
l 464 465
l 465 466
l 466 467
l 467 468
l 468 469
l 469 470
l 470 471
l 471 472
l 472 473
l 473 474
l 474 475
l 475 476
l 476 477
l 477 478
l 478 479
l 479 480
l 480 481
l 481 482
l 482 483
l 483 484
l 484 485
l 485 486
l 486 487
l 487 488
l 488 489
l 489 490
l 490 491
l 491 492
l 492 493
l 493 494
l 494 495
l 495 496
l 496 497
l 497 498
l 498 499
l 499 500
l 500 501
l 501 502
l 502 503
l 503 504
l 504 505
l 505 506
l 506 507
l 507 508
l 508 509
l 509 510
l 510 511
l 511 512
l 512 513
l 513 514
l 514 515
l 515 516
l 516 517
l 517 518
l 518 519
l 519 520
l 520 521
l 521 522
l 522 523
l 523 524
l 524 525
l 525 526
l 526 527
l 527 528
l 528 529
l 529 530
l 530 531
l 531 532
l 532 533
l 533 534
l 534 535
l 535 536
l 536 537
l 537 538
l 538 539
l 539 540
l 540 541
l 541 542
l 542 543
l 543 544
l 544 545
l 545 546
l 546 547
l 547 548
l 548 549
l 549 550
l 550 551
l 551 552
l 552 553
l 553 554
l 554 555
l 555 556
l 556 557
l 557 558
l 558 559
l 559 560
l 560 561
l 561 562
l 562 563
l 563 564
l 564 565
l 565 566
l 566 567
l 567 568
l 568 569
l 569 570
l 570 571
l 571 572
l 572 573
l 573 574
l 574 575
l 575 576
l 576 577
l 577 578
l 578 579
l 579 580
l 580 581
l 581 582
l 582 583
l 583 584
l 584 585
l 585 586
l 586 587
l 587 588
l 588 589
l 589 590
l 590 591
l 591 592
l 592 593
l 593 594
l 594 595
l 595 596
l 596 597
l 597 598
l 598 599
l 599 600
l 600 601
l 601 602
l 602 603
l 603 604
l 604 605
l 605 606
l 606 607
l 607 608
l 608 609
l 609 610
l 610 611
l 611 612
l 612 613
l 613 614
l 614 615
l 615 616
l 616 617
l 617 618
l 618 619
l 619 620
l 620 621
l 621 622
l 622 623
l 623 624
l 624 625
l 625 626
l 626 627
l 627 628
l 628 629
l 629 630
l 630 631
l 631 632
l 632 633
l 633 634
l 634 635
l 635 636
l 636 637
l 637 638
l 638 639
l 639 640
l 640 641
l 641 642
l 642 643
l 643 644
l 644 645
l 645 646
l 646 647
l 647 648
l 648 649
l 649 650
l 650 651
l 651 652
l 652 653
l 653 654
l 654 655
l 655 656
l 656 657
l 657 658
l 658 659
l 659 660
l 660 661
l 661 662
l 662 663
l 663 664
l 664 665
l 665 666
l 666 667
l 667 668
l 668 669
l 669 670
l 670 671
l 671 672
l 672 673
l 673 674
l 674 675
l 675 676
l 676 677
l 677 678
l 678 679
l 679 680
l 680 681
l 681 682
l 682 683
l 683 684
l 684 685
l 685 686
l 686 687
l 687 688
l 688 689
l 689 690
l 690 691
l 691 692
l 692 693
l 693 694
l 694 695
l 695 696
l 696 697
l 697 698
l 698 699
l 699 700
l 700 701
l 701 702
l 702 703
l 703 704
l 704 705
l 705 706
l 706 707
l 707 708
l 708 709
l 709 710
l 710 711
l 711 712
l 712 713
l 713 714
l 714 715
l 715 716
l 716 717
l 717 718
l 718 719
l 719 720
l 720 721
l 721 722
l 722 723
l 723 724
l 724 725
l 725 726
l 726 727
l 727 728
l 728 729
l 729 730
l 730 731
l 731 732
l 732 733
l 733 734
l 734 735
l 735 736
l 736 737
l 737 738
l 738 739
l 739 740
l 740 741
l 741 742
l 742 743
l 743 744
l 744 745
l 745 746
l 746 747
l 747 748
l 748 749
l 749 750
l 750 751
l 751 752
l 752 753
l 753 754
l 754 755
l 755 756
l 756 757
l 757 758
l 758 759
l 759 760
l 760 761
l 761 762
l 762 763
l 763 764
l 764 765
l 765 766
l 766 767
l 767 768
l 768 769
l 769 770
l 770 771
l 771 772
l 772 773
l 773 774
l 774 775
l 775 776
l 776 777
l 777 778
l 778 779
l 779 780
l 780 781
l 781 782
l 782 783
l 783 784
l 784 785
l 785 786
l 786 787
l 787 788
l 788 789
l 789 790
l 790 791
l 791 792
l 792 793
l 793 794
l 794 795
l 795 796
l 796 797
l 797 798
l 798 799
l 799 800
l 800 801
l 801 802
l 802 803
l 803 804
l 804 805
l 805 806
l 806 807
l 807 808
l 808 809
l 809 810
l 810 811
l 811 812
l 812 813
l 813 814
l 814 815
l 815 816
l 816 817
l 817 818
l 818 819
l 819 820
l 820 821
l 821 822
l 822 823
l 823 824
l 824 825
l 825 826
l 826 827
l 827 828
l 828 829
l 829 830
l 830 831
l 831 832
l 832 833
l 833 834
l 834 835
l 835 836
l 836 837
l 837 838
l 838 839
l 839 840
l 840 841
l 841 842
l 842 843
l 843 844
l 844 845
l 845 846
l 846 847
l 847 848
l 848 849
l 849 850
l 850 851
l 851 852
l 852 853
l 853 854
l 854 855
l 855 856
l 856 857
l 857 858
l 858 859
l 859 860
l 860 861
l 861 862
l 862 863
l 863 864
l 864 865
l 865 866
l 866 867
l 867 868
l 868 869
l 869 870
l 870 871
l 871 872
l 872 873
l 873 874
l 874 875
l 875 876
l 876 877
l 877 878
l 878 879
l 879 880
l 880 881
l 881 882
l 882 883
l 883 884
l 884 885
l 885 886
l 886 887
l 887 888
l 888 889
l 889 890
l 890 891
l 891 892
l 892 893
l 893 894
l 894 895
l 895 896
l 896 897
l 897 898
l 898 899
l 899 900
l 900 901
l 901 902
l 902 903
l 903 904
l 904 905
l 905 906
l 906 907
l 907 908
l 908 909
l 909 910
l 910 911
l 911 912
l 912 913
l 913 914
l 914 915
l 915 916
l 916 917
l 917 918
l 918 919
l 919 920
l 920 921
l 921 922
l 922 923
l 923 924
l 924 925
l 925 926
l 926 927
l 927 928
l 928 929
l 929 930
l 930 931
l 931 932
l 932 933
l 933 934
l 934 935
l 935 936
l 936 937
l 937 938
l 938 939
l 939 940
l 940 941
l 941 942
l 942 943
l 943 944
l 944 945
l 945 946
l 946 947
l 947 948
l 948 949
l 949 950
l 950 951
l 951 952
l 952 953
l 953 954
l 954 955
l 955 956
l 956 957
l 957 958
l 958 959
l 959 960
l 960 961
l 961 962
l 962 963
l 963 964
l 964 965
l 965 966
l 966 967
l 967 968
l 968 969
l 969 970
l 970 971
l 971 972
l 972 973
l 973 974
l 974 975
l 975 976
l 976 977
l 977 978
l 978 979
l 979 980
l 980 981
l 981 982
l 982 983
l 983 984
l 984 985
l 985 986
l 986 987
l 987 988
l 988 989
l 989 990
l 990 991
l 991 992
l 992 993
l 993 994
l 994 995
l 995 996
l 996 997
l 997 998
l 998 999
l 999 1000
l 1000 1001
l 1001 1002
l 1002 1003
l 1003 1004
l 1004 1005
l 1005 1006
l 1006 1007
l 1007 1008
l 1008 1009
l 1009 1010
l 1010 1011
l 1011 1012
l 1012 1013
l 1013 1014
l 1014 1015
l 1015 1016
l 1016 1017
l 1017 1018
l 1018 1019
l 1019 1020
l 1020 1021
l 1021 1022
l 1022 1023
l 1023 1024
l 1024 1025
l 1025 1026
l 1026 1027
l 1027 1028
l 1028 1029
l 1029 1030
l 1030 1031
l 1031 1032
l 1032 1033
l 1033 1034
l 1034 1035
l 1035 1036
l 1036 1037
l 1037 1038
l 1038 1039
l 1039 1040
l 1040 1041
l 1041 1042
l 1042 1043
l 1043 1044
l 1044 1045
l 1045 1046
l 1046 1047
l 1047 1048
l 1048 1049
l 1049 1050
l 1050 1051
l 1051 1052
l 1052 1053
l 1053 1054
l 1054 1055
l 1055 1056
l 1056 1057
l 1057 1058
l 1058 1059
l 1059 1060
l 1060 1061
l 1061 1062
l 1062 1063
l 1063 1064
l 1064 1065
l 1065 1066
l 1066 1067
l 1067 1068
l 1068 1069
l 1069 1070
l 1070 1071
l 1071 1072
l 1072 1073
l 1073 1074
l 1074 1075
l 1075 1076
l 1076 1077
l 1077 1078
l 1078 1079
l 1079 1080
l 1080 1081
l 1081 1082
l 1082 1083
l 1083 1084
l 1084 1085
l 1085 1086
l 1086 1087
l 1087 1088
l 1088 1089
l 1089 1090
l 1090 1091
l 1091 1092
l 1092 1093
l 1093 1094
l 1094 1095
l 1095 1096
l 1096 1097
l 1097 1098
l 1098 1099
l 1099 1100
l 1100 1101
l 1101 1102
l 1102 1103
l 1103 1104
l 1104 1105
l 1105 1106
l 1106 1107
l 1107 1108
l 1108 1109
l 1109 1110
l 1110 1111
l 1111 1112
l 1112 1113
l 1113 1114
l 1114 1115
l 1115 1116
l 1116 1117
l 1117 1118
l 1118 1119
l 1119 1120
l 1120 1121
l 1121 1122
l 1122 1123
l 1123 1124
l 1124 1125
l 1125 1126
l 1126 1127
l 1127 1128
l 1128 1129
l 1129 1130
l 1130 1131
l 1131 1132
l 1132 1133
l 1133 1134
l 1134 1135
l 1135 1136
l 1136 1137
l 1137 1138
l 1138 1139
l 1139 1140
l 1140 1141
l 1141 1142
l 1142 1143
l 1143 1144
l 1144 1145
l 1145 1146
l 1146 1147
l 1147 1148
l 1148 1149
l 1149 1150
l 1150 1151
l 1151 1152
l 1152 1153
l 1153 1154
l 1154 1155
l 1155 1156
l 1156 1157
l 1157 1158
l 1158 1159
l 1159 1160
l 1160 1161
l 1161 1162
l 1162 1163
l 1163 1164
l 1164 1165
l 1165 1166
l 1166 1167
l 1167 1168
l 1168 1169
l 1169 1170
l 1170 1171
l 1171 1172
l 1172 1173
l 1173 1174
l 1174 1175
l 1175 1176
l 1176 1177
l 1177 1178
l 1178 1179
l 1179 1180
l 1180 1181
l 1181 1182
l 1182 1183
l 1183 1184
l 1184 1185
l 1185 1186
l 1186 1187
l 1187 1188
l 1188 1189
l 1189 1190
l 1190 1191
l 1191 1192
l 1192 1193
l 1193 1194
l 1194 1195
l 1195 1196
l 1196 1197
l 1197 1198
l 1198 1199
l 1199 1200
l 1200 1201
l 1201 1202
l 1202 1203
l 1203 1204
l 1204 1205
l 1205 1206
l 1206 1207
l 1207 1208
l 1208 1209
l 1209 1210
l 1210 1211
l 1211 1212
l 1212 1213
l 1213 1214
l 1214 1215
l 1215 1216
l 1216 1217
l 1217 1218
l 1218 1219
l 1219 1220
l 1220 1221
l 1221 1222
l 1222 1223
l 1223 1224
l 1224 1225
l 1225 1226
l 1226 1227
l 1227 1228
l 1228 1229
l 1229 1230
l 1230 1231
l 1231 1232
l 1232 1233
l 1233 1234
l 1234 1235
l 1235 1236
l 1236 1237
l 1237 1238
l 1238 1239
l 1239 1240
l 1240 1241
l 1241 1242
l 1242 1243
l 1243 1244
l 1244 1245
l 1245 1246
l 1246 1247
l 1247 1248
l 1248 1249
l 1249 1250
l 1250 1251
l 1251 1252
l 1252 1253
l 1253 1254
l 1254 1255
l 1255 1256
l 1256 1257
l 1257 1258
l 1258 1259
l 1259 1260
l 1260 1261
l 1261 1262
l 1262 1263
l 1263 1264
l 1264 1265
l 1265 1266
l 1266 1267
l 1267 1268
l 1268 1269
l 1269 1270
l 1270 1271
l 1271 1272
l 1272 1273
l 1273 1274
l 1274 1275
l 1275 1276
l 1276 1277
l 1277 1278
l 1278 1279
l 1279 1280
l 1280 1281
l 1281 1282
l 1282 1283
l 1283 1284
l 1284 1285
l 1285 1286
l 1286 1287
l 1287 1288
l 1288 1289
l 1289 1290
l 1290 1291
l 1291 1292
l 1292 1293
l 1293 1294
l 1294 1295
l 1295 1296
l 1296 1297
l 1297 1298
l 1298 1299
l 1299 1300
l 1300 1301
l 1301 1302
l 1302 1303
l 1303 1304
l 1304 1305
l 1305 1306
l 1306 1307
l 1307 1308
l 1308 1309
l 1309 1310
l 1310 1311
l 1311 1312
l 1312 1313
l 1313 1314
l 1314 1315
l 1315 1316
l 1316 1317
l 1317 1318
l 1318 1319
l 1319 1320
l 1320 1321
l 1321 1322
l 1322 1323
l 1323 1324
l 1324 1325
l 1325 1326
l 1326 1327
l 1327 1328
l 1328 1329
l 1329 1330
l 1330 1331
l 1331 1332
l 1332 1333
l 1333 1334
l 1334 1335
l 1335 1336
l 1336 1337
l 1337 1338
l 1338 1339
l 1339 1340
l 1340 1341
l 1341 1342
l 1342 1343
l 1343 1344
l 1344 1345
l 1345 1346
l 1346 1347
l 1347 1348
l 1348 1349
l 1349 1350
l 1350 1351
l 1351 1352
l 1352 1353
l 1353 1354
l 1354 1355
l 1355 1356
l 1356 1357
l 1357 1358
l 1358 1359
l 1359 1360
l 1360 1361
l 1361 1362
l 1362 1363
l 1363 1364
l 1364 1365
l 1365 1366
l 1366 1367
l 1367 1368
l 1368 1369
l 1369 1370
l 1370 1371
l 1371 1372
l 1372 1373
l 1373 1374
l 1374 1375
l 1375 1376
l 1376 1377
l 1377 1378
l 1378 1379
l 1379 1380
l 1380 1381
l 1381 1382
l 1382 1383
l 1383 1384
l 1384 1385
l 1385 1386
l 1386 1387
l 1387 1388
l 1388 1389
l 1389 1390
l 1390 1391
l 1391 1392
l 1392 1393
l 1393 1394
l 1394 1395
l 1395 1396
l 1396 1397
l 1397 1398
l 1398 1399
l 1399 1400
l 1400 1401
l 1401 1402
l 1402 1403
l 1403 1404
l 1404 1405
l 1405 1406
l 1406 1407
l 1407 1408
l 1408 1409
l 1409 1410
l 1410 1411
l 1411 1412
l 1412 1413
l 1413 1414
l 1414 1415
l 1415 1416
l 1416 1417
l 1417 1418
l 1418 1419
l 1419 1420
l 1420 1421
l 1421 1422
l 1422 1423
l 1423 1424
l 1424 1425
l 1425 1426
l 1426 1427
l 1427 1428
l 1428 1429
l 1429 1430
l 1430 1431
l 1431 1432
l 1432 1433
l 1433 1434
l 1434 1435
l 1435 1436
l 1436 1437
l 1437 1438
l 1438 1439
l 1439 1440
l 1440 1441
l 1441 1442
l 1442 1443
l 1443 1444
l 1444 1445
l 1445 1446
l 1446 1447
l 1447 1448
l 1448 1449
l 1449 1450
l 1450 1451
l 1451 1452
l 1452 1453
l 1453 1454
l 1454 1455
l 1455 1456
l 1456 1457
l 1457 1458
l 1458 1459
l 1459 1460
l 1460 1461
l 1461 1462
l 1462 1463
l 1463 1464
l 1464 1465
l 1465 1466
l 1466 1467
l 1467 1468
l 1468 1469
l 1469 1470
l 1470 1471
l 1471 1472
l 1472 1473
l 1473 1474
l 1474 1475
l 1475 1476
l 1476 1477
l 1477 1478
l 1478 1479
l 1479 1480
l 1480 1481
l 1481 1482
l 1482 1483
l 1483 1484
l 1484 1485
l 1485 1486
l 1486 1487
l 1487 1488
l 1488 1489
l 1489 1490
l 1490 1491
l 1491 1492
l 1492 1493
l 1493 1494
l 1494 1495
l 1495 1496
l 1496 1497
l 1497 1498
l 1498 1499
l 1499 1500
l 1500 1501
