# Hopf drift winding d48_150 (Deep 150°), 10 circuits, unit ball; ccsim.geometry.hopf_drift('d48_150', 10)
o drift
v 0.000000000 1.000000000 0.000000000
v -0.014622398 0.999477638 -0.015059786
v -0.029224568 0.998220419 -0.030094639
v -0.043788781 0.996230144 -0.045086537
v -0.058297383 0.993509617 -0.060017547
v -0.072732839 0.990062637 -0.074869858
v -0.087074618 0.985873421 -0.089622505
v -0.101294724 0.980893991 -0.104246737
v -0.115385911 0.975205903 -0.118735680
v -0.129331446 0.968817013 -0.133072373
v -0.143114887 0.961736100 -0.147240159
v -0.156718655 0.953967838 -0.161221208
v -0.170098565 0.945434213 -0.174970154
v -0.183264634 0.936241555 -0.188497827
v -0.196201944 0.926402351 -0.201789156
v -0.208896034 0.915929866 -0.214829545
v -0.221302617 0.904770631 -0.227573695
v -0.233419512 0.892975136 -0.240019718
v -0.245248252 0.880593163 -0.252169501
v -0.256776567 0.867640994 -0.264010706
v -0.267934037 0.854038090 -0.275471364
v -0.278762109 0.839899926 -0.286594306
v -0.289252190 0.825247608 -0.297370975
v -0.299334810 0.810019841 -0.307730523
v -0.309043628 0.794301855 -0.317707692
v -0.318376379 0.778123218 -0.327300418
v -0.327254497 0.761428069 -0.336428709
v -0.335745640 0.744325445 -0.345161948
v -0.343779902 0.726776617 -0.353429069
v -0.351383248 0.708838240 -0.361256841
v -0.358526112 0.690516587 -0.368615422
v -0.365210127 0.671842867 -0.375506764
v -0.371413388 0.652832712 -0.381908883
v -0.377154518 0.633526523 -0.387841017
v -0.382377973 0.613921459 -0.393247035
v -0.387133331 0.594073580 -0.398177633
v -0.391373226 0.573986693 -0.402585042
v -0.395098834 0.553691780 -0.406470835
v -0.398325223 0.533221650 -0.409850644
v -0.401041686 0.512598707 -0.412713975
v -0.403219550 0.491843566 -0.415032203
v -0.404872395 0.470988088 -0.416819505
v -0.406002294 0.450059487 -0.418078398
v -0.406605270 0.429083936 -0.418805313
v -0.406679132 0.408088128 -0.418998502
v -0.406223406 0.387098942 -0.418657981
v -0.405239259 0.366143147 -0.417785439
v -0.403729396 0.345247148 -0.416384134
v -0.401674881 0.324441676 -0.414435623
v -0.399098834 0.303750372 -0.411963739
v -0.396010197 0.283197361 -0.408978057
v -0.392386954 0.262817094 -0.405457197
v -0.388258591 0.242627213 -0.401431353
v -0.383607505 0.222663110 -0.396883680
v -0.378458595 0.202941917 -0.391839786
v -0.372808647 0.183493356 -0.386297252
v -0.366657209 0.164347670 -0.380256493
v -0.360020803 0.145524562 -0.373734798
v -0.352906218 0.127049237 -0.366739799
v -0.345318338 0.108948933 -0.359277274
v -0.337264270 0.091249884 -0.351355230
v -0.328761778 0.073968423 -0.342992162
v -0.319812055 0.057136596 -0.334190268
v -0.310433434 0.040769411 -0.324968554
v -0.300630082 0.024897399 -0.315332137
v -0.290416397 0.009540168 -0.305296104
v -0.279805841 -0.005281904 -0.294874559
v -0.268807491 -0.019541617 -0.284077280
v -0.257440038 -0.033225577 -0.272923249
v -0.245714338 -0.046308015 -0.261423735
v -0.233647068 -0.058772129 -0.249595460
v -0.221252048 -0.070595267 -0.237452187
v -0.208545495 -0.081758151 -0.225009733
v -0.195545335 -0.092244521 -0.212285253
v -0.182268289 -0.102034186 -0.199294390
v -0.168733636 -0.111112107 -0.186054833
v -0.154959459 -0.119458040 -0.172582635
v -0.140966045 -0.127055804 -0.158895427
v -0.126774860 -0.133891201 -0.145011390
v -0.112408598 -0.139953102 -0.130949289
v -0.097888820 -0.145221038 -0.116725953
v -0.083240530 -0.149687765 -0.102360992
v -0.068488383 -0.153340581 -0.087872837
v -0.053658248 -0.156169434 -0.073280382
v -0.038776920 -0.158166542 -0.058602749
v -0.023871924 -0.159323804 -0.043859031
v -0.008971609 -0.159635644 -0.029068566
v 0.005895365 -0.159102766 -0.014250878
v 0.020699373 -0.157717534 0.000574673
v 0.035411586 -0.155487581 0.015388586
v 0.050001858 -0.152410016 0.030171220
v 0.064441541 -0.148493915 0.044903251
v 0.078701685 -0.143745402 0.059565241
v 0.092753196 -0.138170554 0.074137482
v 0.106569172 -0.131783179 0.088600998
v 0.120122752 -0.124595412 0.102936599
v 0.133388321 -0.116621883 0.117125383
v 0.146340333 -0.107876377 0.131148096
v 0.158955654 -0.098377400 0.144986355
v 0.171211642 -0.088142975 0.158621659
v 0.183087509 -0.077193565 0.172036143
v 0.194562541 -0.065548572 0.185211580
v 0.205618380 -0.053230371 0.198130749
v 0.216237350 -0.040261213 0.210776495
v 0.226401729 -0.026662592 0.223131248
v 0.236096046 -0.012458385 0.235178536
v 0.245307153 0.002325549 0.246903149
v 0.254022202 0.017664014 0.258289867
v 0.262224630 0.033536045 0.269320613
v 0.269908061 0.049910723 0.279984198
v 0.277057067 0.066766516 0.290262867
v 0.283666247 0.084073142 0.300145909
v 0.289725214 0.101805211 0.309618888
v 0.295226511 0.119935244 0.318669414
v 0.300166297 0.138433897 0.327287825
v 0.304528214 0.157279507 0.335454580
v 0.308321261 0.176435800 0.343169978
v 0.311525618 0.195882448 0.350411395
v 0.314150125 0.215584809 0.357179163
v 0.316188692 0.235515924 0.363461595
v 0.317637515 0.255647588 0.369248764
v 0.318495414 0.275950651 0.374532885
v 0.318764166 0.296395431 0.379308726
v 0.318448835 0.316952261 0.383574049
v 0.317536460 0.337594096 0.387310639
v 0.316039818 0.358289783 0.390522954
v 0.313963243 0.379010606 0.393208246
v 0.311305402 0.399727391 0.395358440
v 0.308066842 0.420410623 0.396967104
v 0.304268238 0.441032856 0.398046779
v 0.299908032 0.461565171 0.398589229
v 0.294975567 0.481974796 0.398576947
v 0.289497023 0.502236968 0.398028160
v 0.283478800 0.522323456 0.396942107
v 0.276928921 0.542206349 0.395319594
v 0.269857023 0.561858334 0.393163053
v 0.262274314 0.581252997 0.390476577
v 0.254193499 0.600365131 0.387265920
v 0.245612625 0.619159660 0.383521053
v 0.236547516 0.637611148 0.379250553
v 0.227024054 0.655703802 0.374474513
v 0.217059960 0.673418413 0.369204724
v 0.206649049 0.690712831 0.363425627
v 0.195807443 0.707561677 0.357146110
v 0.184577969 0.723973602 0.350407590
v 0.172938667 0.739882190 0.343174336
v 0.160931181 0.755295283 0.335486498
v 0.148570718 0.770193111 0.327353453
v 0.135857082 0.784525730 0.318763359
v 0.122835027 0.798320864 0.309763886
v 0.109492226 0.811502092 0.300325856
v 0.095875152 0.824108263 0.290501122
v 0.081983426 0.836078994 0.280275258
v 0.067844079 0.847416924 0.269673779
v 0.053484906 0.858130263 0.258724203
v 0.038901219 0.868128740 0.247401177
v 0.024143838 0.877501661 0.235772342
v 0.009209353 0.886146216 0.223810602
v -0.005872007 0.894088722 0.211549953
v -0.021071931 0.901365520 0.199024957
v -0.036386690 0.907854815 0.186210688
v -0.051782964 0.913629994 0.173154958
v -0.067239122 0.918708362 0.159881744
v -0.082740001 0.922988261 0.146381355
v -0.098260579 0.926514728 0.132687356
v -0.113780134 0.929323156 0.118827101
v -0.129277732 0.931367583 0.104809194
v -0.144728163 0.932594966 0.090644537
v -0.160115755 0.933093420 0.076368103
v -0.175421771 0.932861498 0.061996839
v -0.190612631 0.931807953 0.047540470
v -0.205673848 0.929987640 0.033025132
v -0.220592326 0.927439907 0.018472065
v -0.235349822 0.924167671 0.003898775
v -0.249894870 0.920053294 -0.010674662
v -0.264237184 0.915222010 -0.025228048
v -0.278360087 0.909682895 -0.039743894
v -0.292235334 0.903412803 -0.054201543
v -0.305820470 0.896359981 -0.068573896
v -0.319131123 0.888626048 -0.082851715
v -0.332151553 0.880221254 -0.097018105
v -0.344828172 0.871079463 -0.111039062
v -0.357160204 0.861251460 -0.124902062
v -0.369153015 0.850791736 -0.138599380
v -0.380773151 0.839681458 -0.152104574
v -0.391974357 0.827887912 -0.165382640
v -0.402793092 0.815510370 -0.178444102
v -0.413202898 0.802544808 -0.191265534
v -0.423138371 0.788940510 -0.203798493
v -0.432654795 0.774807470 -0.216068362
v -0.441709795 0.760126716 -0.228040542
v -0.450265077 0.744890145 -0.239681685
v -0.458372157 0.729186245 -0.251018701
v -0.465942653 0.712959044 -0.261983258
v -0.473026494 0.696288514 -0.272602793
v -0.479591415 0.679177032 -0.282847104
v -0.485617661 0.661639195 -0.292694677
v -0.491128052 0.643723242 -0.302155377
v -0.496070699 0.625421912 -0.311183219
v -0.500484511 0.606791280 -0.319801059
v -0.504326240 0.587833347 -0.327968744
v -0.507609860 0.568586479 -0.335690324
v -0.510342113 0.549080364 -0.342965205
v -0.512471456 0.529322501 -0.349744400
v -0.514054060 0.509363477 -0.356067921
v -0.515055348 0.489217574 -0.361900821
v -0.515459731 0.468910494 -0.367222993
v -0.515299184 0.448478373 -0.372055583
v -0.514567323 0.427946234 -0.376387105
v -0.513256468 0.407340435 -0.380204598
v -0.511349811 0.386688950 -0.383486394
v -0.508873033 0.366022409 -0.386249182
v -0.505826873 0.345368630 -0.388487444
v -0.502213918 0.324755774 -0.390197303
v -0.498038525 0.304212033 -0.391376514
v -0.493306716 0.283765360 -0.392024432
v -0.488022256 0.263444293 -0.392138238
v -0.482178754 0.243281288 -0.391704973
v -0.475802308 0.223299101 -0.390743605
v -0.468904918 0.203522886 -0.389259677
v -0.461475951 0.183988599 -0.387235652
v -0.453539080 0.164716965 -0.384688794
v -0.445099246 0.145737864 -0.381617223
v -0.436174491 0.127072851 -0.378032905
v -0.426759976 0.108760084 -0.373923255
v -0.416883561 0.090814252 -0.369310777
v -0.406554185 0.073263360 -0.364197766
v -0.395783631 0.056133950 -0.358589463
v -0.384585986 0.039450777 -0.352493626
v -0.372977161 0.023236608 -0.345920128
v -0.360974463 0.007512117 -0.338880575
v -0.348585626 -0.007688596 -0.331374931
v -0.335836957 -0.022356940 -0.323425634
v -0.322737181 -0.036458208 -0.315033413
v -0.309309743 -0.049980673 -0.306217366
v -0.295570632 -0.062900241 -0.296987076
v -0.281538128 -0.075196008 -0.287354847
v -0.267232118 -0.086850135 -0.277335030
v -0.252672271 -0.097843971 -0.266941499
v -0.237877095 -0.108154155 -0.256185916
v -0.222869336 -0.117768596 -0.245086079
v -0.207670023 -0.126669695 -0.233656826
v -0.192300829 -0.134840141 -0.221913396
v -0.176784668 -0.142266153 -0.209872641
v -0.161144536 -0.148931987 -0.197550714
v -0.145404386 -0.154824307 -0.184964770
v -0.129588740 -0.159929032 -0.172131857
v -0.113723109 -0.164237054 -0.159070542
v -0.097833392 -0.167737817 -0.145798863
v -0.081946339 -0.170418043 -0.132334346
v -0.066089329 -0.172274102 -0.118696724
v -0.050290686 -0.173295546 -0.104904230
v -0.034578972 -0.173479872 -0.090976557
v -0.018983653 -0.172822135 -0.076932873
v -0.003534637 -0.171320222 -0.062792744
v 0.011737908 -0.168974470 -0.048575942
v 0.026803692 -0.165787372 -0.034302333
v 0.041631245 -0.161759747 -0.019991739
v 0.056190617 -0.156899756 -0.005664315
v 0.070452201 -0.151217000 0.008659928
v 0.084384395 -0.144717047 0.022960802
v 0.097959384 -0.137415520 0.037218308
v 0.111149010 -0.129326731 0.051412489
v 0.123925582 -0.120465911 0.065523349
v 0.136261951 -0.110849363 0.079530776
v 0.148134342 -0.100498578 0.093415297
v 0.159517707 -0.089432431 0.107156880
v 0.170391274 -0.077675335 0.120736499
v 0.180735835 -0.065252456 0.134135505
v 0.190528398 -0.052183839 0.147333564
v 0.199753993 -0.038498269 0.160312935
v 0.208396396 -0.024221946 0.173055220
v 0.216441427 -0.009382312 0.185542593
v 0.223873673 0.005994887 0.197756373
v 0.230683453 0.021879541 0.209680183
v 0.236858002 0.038244757 0.221295992
v 0.242390660 0.055059621 0.232588521
v 0.247272945 0.072295273 0.243541463
v 0.251500201 0.089921035 0.254140402
v 0.255059133 0.107911255 0.264365896
v 0.257957813 0.126229480 0.274210488
v 0.260179317 0.144851957 0.283652152
v 0.261730426 0.163744185 0.292682718
v 0.262609535 0.182876109 0.301289099
v 0.262818215 0.202216931 0.309460204
v 0.262346321 0.221738877 0.317176942
v 0.261209493 0.241407735 0.324437480
v 0.259403190 0.261194622 0.331226395
v 0.256940762 0.281067724 0.337540869
v 0.253811197 0.300998077 0.343360244
v 0.250030364 0.320954054 0.348683601
v 0.245605823 0.340905445 0.353504095
v 0.240545581 0.360822305 0.357815295
v 0.234858014 0.380674885 0.361611108
v 0.228539271 0.400430874 0.364874807
v 0.221617740 0.420063452 0.367617056
v 0.214105689 0.439544804 0.369835540
v 0.205992843 0.458838829 0.371506862
v 0.197320214 0.477926501 0.372654784
v 0.188080227 0.496771364 0.373257837
v 0.178293235 0.515347630 0.373320817
v 0.167983985 0.533633330 0.372853566
v 0.157164365 0.551600301 0.371853281
v 0.145837379 0.569212496 0.370306877
v 0.134029472 0.586449638 0.368226240
v 0.121761507 0.603288927 0.365617836
v 0.109051443 0.619705564 0.362485023
v 0.095918490 0.635675984 0.358832662
v 0.082382963 0.651178086 0.354667102
v 0.068461483 0.666184880 0.349989735
v 0.054168539 0.680663695 0.344797870
v 0.039536375 0.694608146 0.339113863
v 0.024588684 0.708002639 0.332949486
v 0.009349253 0.720833945 0.326317600
v -0.006174734 0.733050874 0.319201942
v -0.021951674 0.744649906 0.311625609
v -0.037948136 0.755644597 0.303620417
v -0.054156263 0.765974419 0.295166651
v -0.070545134 0.775640539 0.286288893
v -0.087082908 0.784669791 0.277023399
v -0.103764043 0.792952192 0.267327560
v -0.120543581 0.800592283 0.257281014
v -0.137411984 0.807471567 0.246840640
v -0.154334034 0.813677284 0.236071110
v -0.171291236 0.819110982 0.224944847
v -0.188255653 0.823856441 0.213519371
v -0.205201973 0.827803714 0.201767523
v -0.222110626 0.831073724 0.189756152
v -0.238944795 0.833503890 0.177444621
v -0.255695414 0.835246749 0.164905075
v -0.272322868 0.836185698 0.152118678
v -0.288813203 0.836383576 0.139123126
v -0.305143541 0.835842063 0.125936989
v -0.321272600 0.834490181 0.112562200
v -0.337206144 0.832441008 0.099042503
v -0.352888060 0.829586939 0.085375783
v -0.368316250 0.825998436 0.071593738
v -0.383480423 0.821709363 0.057718847
v -0.398308191 0.816602255 0.043757488
v -0.412833851 0.810818295 0.029743129
v -0.427012729 0.804311343 0.015690949
v -0.440805775 0.797056296 0.001620709
v -0.454239305 0.789150292 -0.012446687
v -0.467242701 0.780515445 -0.026489364
v -0.479821692 0.771206847 -0.040488294
v -0.491989225 0.761282940 -0.054428653
v -0.503640736 0.750635001 -0.068275242
v -0.514844294 0.739396704 -0.082024160
v -0.525557465 0.727548149 -0.095650798
v -0.535729749 0.715065860 -0.109125787
v -0.545417626 0.702048765 -0.122451008
v -0.554521331 0.688424622 -0.135579472
v -0.563093820 0.674281156 -0.148515093
v -0.571104402 0.659620692 -0.161232968
v -0.578512781 0.644439540 -0.173703275
v -0.585375627 0.628815843 -0.185936915
v -0.591579594 0.612692017 -0.197870105
v -0.597235755 0.596179948 -0.209541777
v -0.602213166 0.579219997 -0.220875334
v -0.606624525 0.561913277 -0.231915559
v -0.610348159 0.544217410 -0.242585760
v -0.613496216 0.526221626 -0.252935350
v -0.615936703 0.507889200 -0.262877225
v -0.617781915 0.489300779 -0.272464570
v -0.618949717 0.470449157 -0.281636573
v -0.619475770 0.451377670 -0.290402639
v -0.619377690 0.432117202 -0.298763419
v -0.618578980 0.412676332 -0.306655848
v -0.617155386 0.393102790 -0.314118665
v -0.615100487 0.373420453 -0.321136829
v -0.612369959 0.353651976 -0.327666384
v -0.608999654 0.333831725 -0.333720742
v -0.605000625 0.313988184 -0.339296542
v -0.600373740 0.294149368 -0.344382720
v -0.595121897 0.274344081 -0.348969475
v -0.589250007 0.254601608 -0.353048388
v -0.582764944 0.234951418 -0.356612503
v -0.575675450 0.215422891 -0.359656373
v -0.567992029 0.196045061 -0.362176084
v -0.559726805 0.176846390 -0.364169241
v -0.550893380 0.157854562 -0.365634938
v -0.541506671 0.139096318 -0.366573710
v -0.531582756 0.120597308 -0.366987463
v -0.521124520 0.102390649 -0.366864781
v -0.510145753 0.084504829 -0.366204668
v -0.498682772 0.066952126 -0.365030365
v -0.486718231 0.049783600 -0.363307393
v -0.474302209 0.032998765 -0.361075009
v -0.461429810 0.016642072 -0.358311198
v -0.448128168 0.000730754 -0.355030109
v -0.434418039 -0.014713621 -0.351239160
v -0.420316396 -0.029664864 -0.346940945
v -0.405842561 -0.044098787 -0.342140730
v -0.391017651 -0.057993403 -0.336846100
v -0.375864099 -0.071329030 -0.331066618
v -0.360405233 -0.084088312 -0.324813502
v -0.344655971 -0.096235298 -0.318083816
v -0.328648826 -0.107772088 -0.310903884
v -0.312398725 -0.118658979 -0.303269225
v -0.295934903 -0.128892366 -0.295201225
v -0.279280131 -0.138451430 -0.286709162
v -0.262458826 -0.147318903 -0.277804987
v -0.245496393 -0.155480856 -0.268502705
v -0.228417979 -0.162920558 -0.258814877
v -0.211249460 -0.169622607 -0.248755042
v -0.194017642 -0.175576864 -0.238339459
v -0.176749269 -0.180771831 -0.227583594
v -0.159471527 -0.185194525 -0.216502412
v -0.142212149 -0.188835807 -0.205112609
v -0.124998975 -0.191689864 -0.193432033
v -0.107861476 -0.193739267 -0.181474581
v -0.090827758 -0.194987001 -0.169261185
v -0.073927605 -0.195424202 -0.156808663
v -0.057191086 -0.195045993 -0.144135188
v -0.040648244 -0.193850844 -0.131259770
v -0.024329421 -0.191838387 -0.118201554
v -0.008266892 -0.189004780 -0.104978974
v 0.007509356 -0.185356092 -0.091612389
v 0.022967852 -0.180895559 -0.078121396
v 0.038076841 -0.175628003 -0.064525821
v 0.052804943 -0.169561026 -0.050845815
v 0.067121241 -0.162704662 -0.037101702
v 0.080995366 -0.155071115 -0.023313891
v 0.094397570 -0.146674559 -0.009502827
v 0.107297769 -0.137529574 0.004310987
v 0.119667206 -0.127653566 0.018106929
v 0.131480155 -0.117068274 0.031864509
v 0.142710650 -0.105795048 0.045563252
v 0.153334058 -0.093856892 0.059182703
v 0.163327348 -0.081278493 0.072702473
v 0.172669425 -0.068086246 0.086102326
v 0.181341547 -0.054308287 0.099362318
v 0.189327859 -0.039974501 0.112463030
v 0.196607643 -0.025110708 0.125383550
v 0.203173174 -0.009751762 0.138106112
v 0.209009980 0.006073174 0.150611021
v 0.214106216 0.022333459 0.162878983
v 0.218453262 0.038997009 0.174891451
v 0.222046427 0.056030425 0.186631102
v 0.224882636 0.073400520 0.198081200
v 0.226953372 0.091076797 0.209222632
v 0.228258191 0.109025812 0.220039274
v 0.228798305 0.127214318 0.230515712
v 0.228575454 0.145609621 0.240636784
v 0.227582456 0.164181168 0.250382723
v 0.225837161 0.182893516 0.259746104
v 0.223329676 0.201716795 0.268705340
v 0.220075900 0.220617337 0.277252278
v 0.216080233 0.239563585 0.285372701
v 0.211350597 0.258523820 0.293054280
v 0.205898809 0.277466714 0.300287117
v 0.199729578 0.296360759 0.307056763
v 0.192856671 0.315174883 0.313354402
v 0.185294822 0.333878902 0.319172205
v 0.177062334 0.352443912 0.324505139
v 0.168157896 0.370836133 0.329333468
v 0.158608743 0.389028888 0.333658703
v 0.148431076 0.406993401 0.337474430
v 0.137642490 0.424701615 0.340775448
v 0.126259570 0.442125095 0.343555695
v 0.114291775 0.459230609 0.345802055
v 0.101773957 0.475999539 0.347525024
v 0.088727834 0.492407879 0.348724091
v 0.075154121 0.508414043 0.349376054
v 0.061102445 0.524015390 0.349509369
v 0.046570854 0.539165611 0.349096522
v 0.031597588 0.553854972 0.348155045
v 0.016209931 0.568065709 0.346691294
v 0.000419691 0.581760210 0.344690988
v -0.015744973 0.594919463 0.342160298
v -0.032252361 0.607531715 0.339111655
v -0.049077603 0.619576019 0.335548144
v -0.066194764 0.631032756 0.331474248
v -0.083577002 0.641883798 0.326895849
v -0.101196749 0.652112665 0.321820207
v -0.119025910 0.661704655 0.316255913
v -0.137036085 0.670646953 0.310212822
v -0.155198802 0.678928715 0.303701954
v -0.173487126 0.686531202 0.296728917
v -0.191874173 0.693420470 0.289290645
v -0.210326365 0.699617710 0.281419471
v -0.228815888 0.705119615 0.273130321
v -0.247315680 0.709914966 0.264433170
v -0.265794233 0.713942801 0.255312398
v -0.284224686 0.717264538 0.245819167
v -0.302581568 0.719875177 0.235966041
v -0.320824273 0.721691472 0.225730236
v -0.338938726 0.722805315 0.215172525
v -0.356889236 0.723166540 0.204285972
v -0.374644785 0.722770580 0.193086749
v -0.392194854 0.721672431 0.181612503
v -0.409479168 0.719773565 0.169843672
v -0.426514446 0.717200458 0.157842078
v -0.443224635 0.713829532 0.145583470
v -0.459634934 0.709787884 0.133124887
v -0.475670675 0.704974471 0.120454063
v -0.491355830 0.699495096 0.107616670
v -0.506615290 0.693264165 0.094609495
v -0.521480462 0.686386176 0.081472971
v -0.535866399 0.678773077 0.068208442
v -0.549822225 0.670543067 0.054853406
v -0.563242922 0.661593168 0.041412872
v -0.576205445 0.652064466 0.027920504
v -0.588575608 0.641832769 0.014386900
v -0.600451496 0.631049586 0.000838858
v -0.611707727 0.619615598 -0.012704207
v -0.622422408 0.607646047 -0.026224037
v -0.632495746 0.595079934 -0.039694913
v -0.641982824 0.582000254 -0.053102985
v -0.650810093 0.568377934 -0.066420275
v -0.659011936 0.554271812 -0.079634140
v -0.666536062 0.539675014 -0.092716854
v -0.673404346 0.524632826 -0.105655918
v -0.679574886 0.509149187 -0.118423752
v -0.685071067 0.493267152 -0.131010049
v -0.689844937 0.476990230 -0.143383822
v -0.693940629 0.460369465 -0.155542782
v -0.697282953 0.443398575 -0.167445050
v -0.699960196 0.426144051 -0.179106268
v -0.701845191 0.408583857 -0.190462093
v -0.703054831 0.390790237 -0.201542207
v -0.703508362 0.372763062 -0.212297905
v -0.703234867 0.354541042 -0.222724839
v -0.702267811 0.336157858 -0.232824162
v -0.700513615 0.317623477 -0.242533737
v -0.698061444 0.298983645 -0.251881544
v -0.694909312 0.280263166 -0.260852374
v -0.691001561 0.261486426 -0.269398873
v -0.686388998 0.242687162 -0.277532677
v -0.681084267 0.223893226 -0.285245725
v -0.675089796 0.205132590 -0.292523732
v -0.668399140 0.186435533 -0.299345769
v -0.661016215 0.167833464 -0.305696546
v -0.652971579 0.149352842 -0.311579648
v -0.644274969 0.131022361 -0.316984854
v -0.634938020 0.112870661 -0.321903133
v -0.624974186 0.094926101 -0.326326728
v -0.614398636 0.077216549 -0.330249213
v -0.603228129 0.059769180 -0.333665525
v -0.591480866 0.042610305 -0.336571977
v -0.579162502 0.025773922 -0.338953025
v -0.566297230 0.009284385 -0.340809740
v -0.552915435 -0.006839908 -0.342150281
v -0.539038291 -0.022575769 -0.342974585
v -0.524660760 -0.037875504 -0.343253094
v -0.509838015 -0.052745067 -0.343022601
v -0.494565713 -0.067133683 -0.342252309
v -0.478889664 -0.081043786 -0.340971414
v -0.462814282 -0.094429076 -0.339156968
v -0.446374618 -0.107280793 -0.336825470
v -0.429595869 -0.119579084 -0.333981302
v -0.412501811 -0.131301013 -0.330626295
v -0.395118163 -0.142426004 -0.326764786
v -0.377472028 -0.152935955 -0.322403339
v -0.359591412 -0.162815264 -0.317550459
v -0.341504801 -0.172050801 -0.312216316
v -0.323235865 -0.180610005 -0.306397413
v -0.304818546 -0.188499788 -0.300118312
v -0.286277759 -0.195686469 -0.293375635
v -0.267645149 -0.202171062 -0.286189243
v -0.248949367 -0.207936867 -0.278567354
v -0.230220171 -0.212971052 -0.270520941
v -0.211487764 -0.217264358 -0.262063151
v -0.192782294 -0.220810767 -0.253208799
v -0.174134778 -0.223595669 -0.243968366
v -0.155575219 -0.225619900 -0.234360120
v -0.137136027 -0.226868037 -0.224394611
v -0.118847328 -0.227342735 -0.214090816
v -0.100740566 -0.227039414 -0.203464267
v -0.082847583 -0.225954546 -0.192531030
v -0.065201214 -0.224083984 -0.181307083
v -0.047831212 -0.221434405 -0.169812236
v -0.030770646 -0.218004043 -0.158063157
v -0.014052479 -0.213794214 -0.146077684
v 0.002292191 -0.208811943 -0.133875263
v 0.018229948 -0.203061030 -0.121474329
v 0.033730931 -0.196553239 -0.108895193
v 0.048761909 -0.189295736 -0.096156907
v 0.063293113 -0.181302500 -0.083279826
v 0.077290011 -0.172582178 -0.070283296
v 0.090724748 -0.163153832 -0.057188308
v 0.103567272 -0.153034325 -0.044015277
v 0.115788642 -0.142242821 -0.030784824
v 0.127361130 -0.130800598 -0.017517696
v 0.138258277 -0.118730844 -0.004234706
v 0.148453485 -0.106057309 0.009043240
v 0.157924344 -0.092807750 0.022295230
v 0.166649422 -0.079010725 0.035500428
v 0.174608776 -0.064695933 0.048638051
v 0.181784519 -0.049894421 0.061687411
v 0.188161130 -0.034638503 0.074627996
v 0.193723381 -0.018960513 0.087439162
v 0.198459257 -0.002894289 0.100100539
v 0.202364146 0.013523703 0.112593153
v 0.205422215 0.030261887 0.124895421
v 0.207634764 0.047282561 0.136989370
v 0.208996745 0.064551094 0.148855503
v 0.209506255 0.082032292 0.160474908
v 0.209165276 0.099690618 0.171829685
v 0.207972988 0.117491537 0.182900860
v 0.205936795 0.135399651 0.193672068
v 0.203057606 0.153380831 0.204124486
v 0.199347119 0.171400453 0.214243253
v 0.194813396 0.189424833 0.224012150
v 0.189468664 0.207420832 0.233416755
v 0.183313841 0.225354598 0.242437081
v 0.176378317 0.243195351 0.251066927
v 0.168659072 0.260908750 0.259283828
v 0.160183073 0.278465190 0.267080826
v 0.150964566 0.295833547 0.274444416
v 0.141021226 0.312983666 0.281362998
v 0.130374299 0.329887015 0.287827371
v 0.119033553 0.346510488 0.293820448
v 0.107031127 0.362830296 0.299340417
v 0.094382550 0.378815948 0.304374088
v 0.081119393 0.394445638 0.308920519
v 0.067252112 0.409684999 0.312961744
v 0.052812299 0.424512697 0.316497008
v 0.037826997 0.438905466 0.319522355
v 0.022322139 0.452839607 0.322033052
v 0.006325648 0.466293588 0.324026566
v -0.010142555 0.479236816 0.325491105
v -0.027049209 0.491652382 0.326429312
v -0.044358104 0.503530354 0.326849600
v -0.062051085 0.514835778 0.326736531
v -0.080090476 0.525561216 0.326100730
v -0.098450179 0.535681934 0.324936705
v -0.117091529 0.545198046 0.323260422
v -0.135997258 0.554060269 0.321046649
v -0.155122470 0.562287058 0.318325932
v -0.174437637 0.569861816 0.315099511
v -0.193913630 0.576761483 0.311364221
v -0.213518692 0.582966261 0.307120115
v -0.233216936 0.588482114 0.302385845
v -0.252976108 0.593298982 0.297168058
v -0.272763630 0.597408524 0.291474666
v -0.292546791 0.600804190 0.285314811
v -0.312292949 0.603481249 0.278698804
v -0.331969732 0.605436807 0.271638050
v -0.351545239 0.606669780 0.264144955
v -0.370986127 0.607171721 0.256227687
v -0.390255541 0.606926534 0.247890846
v -0.409326586 0.605958330 0.239161313
v -0.428169833 0.604272776 0.230054914
v -0.446757101 0.601876973 0.220587908
v -0.465050283 0.598754486 0.210765196
v -0.483011411 0.594897966 0.200597591
v -0.500629719 0.590353885 0.190120019
v -0.517881709 0.585134176 0.179349987
v -0.534696776 0.579176797 0.168275867
v -0.551087987 0.572561487 0.156944605
v -0.567038128 0.565307185 0.145375720
v -0.582458577 0.557342275 0.133558734
v -0.597388100 0.548765833 0.121542691
v -0.611786453 0.539568202 0.109337842
v -0.625595270 0.529728599 0.096954601
v -0.638854521 0.519328180 0.084429760
v -0.651473566 0.508315531 0.071766933
v -0.663480981 0.496756907 0.058997826
v -0.674852503 0.484664147 0.046140210
v -0.685528341 0.472026242 0.033211502
v -0.695569297 0.458921631 0.020238123
v -0.704852034 0.445296783 0.007235764
v -0.713460752 0.431241756 -0.005771170
v -0.721326097 0.416743036 -0.018762975
v -0.728444813 0.401832193 -0.031717599
v -0.734844177 0.386551912 -0.044618276
v -0.740424787 0.370885378 -0.057435100
v -0.745283653 0.354906515 -0.070159540
v -0.749324871 0.338603946 -0.082759571
v -0.752590780 0.322024985 -0.095221612
v -0.755090908 0.305199016 -0.107530325
v -0.756740885 0.288131295 -0.119647548
v -0.757633265 0.270875791 -0.131576021
v -0.757713270 0.253446405 -0.143284101
v -0.756972509 0.235872410 -0.154749181
v -0.755464191 0.218189884 -0.165969541
v -0.753141638 0.200420626 -0.176911725
v -0.750008146 0.182596059 -0.187556550
v -0.746108657 0.164746873 -0.197902439
v -0.741442476 0.146899786 -0.207931659
v -0.735952866 0.129087570 -0.217599483
v -0.729712289 0.111337530 -0.226917893
v -0.722725735 0.093677599 -0.235870729
v -0.714999948 0.076136267 -0.244442194
v -0.706542356 0.058742715 -0.252616337
v -0.697341163 0.041532818 -0.260364949
v -0.687440401 0.024528323 -0.267692005
v -0.676853834 0.007757319 -0.274584912
v -0.665597049 -0.008752385 -0.281032020
v -0.653687402 -0.024973434 -0.287022721
v -0.641143936 -0.040879119 -0.292547532
v -0.627987265 -0.056443532 -0.297598163
v -0.614239457 -0.071641728 -0.302167557
v -0.599917885 -0.086445292 -0.306244492
v -0.585038014 -0.100822723 -0.309814981
v -0.569639136 -0.114761648 -0.312887277
v -0.553748243 -0.128242104 -0.315459660
v -0.537381015 -0.141232136 -0.317517998
v -0.520560968 -0.153705612 -0.319055189
v -0.503333177 -0.165663839 -0.320090797
v -0.485699090 -0.177050719 -0.320589275
v -0.467712328 -0.187883041 -0.320583764
v -0.449386699 -0.198118307 -0.320052664
v -0.430756791 -0.207745734 -0.319003475
v -0.411855297 -0.216754507 -0.317442908
v -0.392710952 -0.225124914 -0.315370313
v -0.373354342 -0.232839835 -0.312787501
v -0.353817311 -0.239884827 -0.309698547
v -0.334132447 -0.246248118 -0.306109564
v -0.314332634 -0.251920543 -0.302028476
v -0.294450677 -0.256895435 -0.297464783
v -0.274518396 -0.261146940 -0.292415243
v -0.254569947 -0.264685933 -0.286901184
v -0.234638771 -0.267486878 -0.280920225
v -0.214758041 -0.269557119 -0.274490971
v -0.194961471 -0.270886790 -0.267621159
v -0.175283120 -0.271470016 -0.260321185
v -0.155756793 -0.271304523 -0.252603579
v -0.136415597 -0.270391235 -0.244482555
v -0.117294305 -0.268725916 -0.235969594
v -0.098426333 -0.266310526 -0.227079462
v -0.079846289 -0.263144960 -0.217825928
v -0.061586476 -0.259235674 -0.208225840
v -0.043681063 -0.254585468 -0.198294240
v -0.026163053 -0.249200784 -0.188047776
v -0.009065773 -0.243088424 -0.177503159
v 0.007575723 -0.236253811 -0.166676561
v 0.023731398 -0.228711242 -0.155587475
v 0.039368364 -0.220471318 -0.144253744
v 0.054453561 -0.211545838 -0.132693580
v 0.068955532 -0.201949817 -0.120926138
v 0.082844419 -0.191700928 -0.108971158
v 0.096090257 -0.180817545 -0.096848338
v 0.108660586 -0.169316929 -0.084577013
v 0.120530016 -0.157223756 -0.072178124
v 0.131671102 -0.144561408 -0.059672017
v 0.142055775 -0.131353851 -0.047079092
v 0.151659217 -0.117628361 -0.034420232
v 0.160459412 -0.103414581 -0.021716469
v 0.168434710 -0.088742816 -0.008988786
v 0.175565418 -0.073644939 0.003741760
v 0.181833876 -0.058154208 0.016454087
v 0.187224566 -0.042305107 0.029127116
v 0.191724264 -0.026133187 0.041739822
v 0.195322250 -0.009674909 0.054271279
v 0.198010554 0.007032532 0.066700753
v 0.199784277 0.023951433 0.079007824
v 0.200634710 0.041044908 0.091171277
v 0.200566495 0.058273956 0.103171880
v 0.199574976 0.075601396 0.114988651
v 0.197667802 0.092989072 0.126602862
v 0.194848295 0.110399792 0.137994808
v 0.191123096 0.127796562 0.149145345
v 0.186502594 0.145142988 0.160036231
v 0.181000083 0.162403635 0.170650121
v 0.174620272 0.179542215 0.180966572
v 0.167386168 0.196525540 0.190971296
v 0.159311593 0.213319737 0.200646897
v 0.150412484 0.229891549 0.209976556
v 0.140708497 0.246209068 0.218944920
v 0.130223244 0.262242434 0.227538630
v 0.118973207 0.277959430 0.235740798
v 0.106987908 0.293333725 0.243541295
v 0.094282040 0.308332197 0.250921753
v 0.080888735 0.322931503 0.257874468
v 0.066832836 0.337104595 0.264387142
v 0.052142140 0.350826586 0.270449466
v 0.036844897 0.364073381 0.276051640
v 0.020962390 0.376814386 0.281177753
v 0.004539477 0.389040967 0.285832047
v -0.012409195 0.400715690 0.289992268
v -0.029838433 0.411833050 0.293664705
v -0.047719903 0.422370486 0.296840174
v -0.066027487 0.432300244 0.299505392
v -0.084721584 0.441613804 0.301663173
v -0.103768093 0.450296248 0.303310704
v -0.123133810 0.458331083 0.304443854
v -0.142786925 0.465696562 0.305054553
v -0.162687370 0.472391200 0.305150426
v -0.182798449 0.478410416 0.304736222
v -0.203089629 0.483725891 0.303799014
v -0.223521337 0.488340934 0.302349571
v -0.244058125 0.492247336 0.300389838
v -0.264663673 0.495438324 0.297922929
v -0.285302029 0.497899463 0.294946598
v -0.305936761 0.499651321 0.291482794
v -0.326531114 0.500665182 0.287519603
v -0.347048241 0.500943998 0.283066933
v -0.367453968 0.500501602 0.278141604
v -0.387712892 0.499336425 0.272750103
v -0.407789535 0.497448661 0.266900140
v -0.427648524 0.494840285 0.260600636
v -0.447254773 0.491515071 0.253861685
v -0.466573657 0.487478571 0.246694513
v -0.485571188 0.482738094 0.239111417
v -0.504214181 0.477302645 0.231125693
v -0.522470405 0.471182853 0.222751556
v -0.540308721 0.464390884 0.214004043
v -0.557699195 0.456940318 0.204898914
v -0.574613187 0.448846038 0.195452546
v -0.591023413 0.440124082 0.185681827
v -0.606903980 0.430791501 0.175604045
v -0.622221373 0.420857329 0.165232597
v -0.636928491 0.410320587 0.154576906
v -0.651028342 0.399228258 0.143668683
v -0.664500319 0.387601021 0.132526587
v -0.677325111 0.375459944 0.121169271
v -0.689427578 0.362787921 0.109601054
v -0.700835084 0.349643746 0.097856570
v -0.711536832 0.336053663 0.085956211
v -0.721496683 0.322028930 0.073915475
v -0.730664056 0.307577781 0.061750880
v -0.739078521 0.292754538 0.049491356
v -0.746728635 0.277583006 0.037155752
v -0.753521957 0.262056983 0.024759606
v -0.759520697 0.246234779 0.012329742
v -0.764721920 0.230143342 -0.000114656
v -0.769055292 0.213791293 -0.012552583
v -0.772546309 0.197218614 -0.024961981
v -0.775217373 0.180459234 -0.037324290
v -0.777026573 0.163533164 -0.049616767
v -0.777955047 0.146469297 -0.061815494
v -0.778052193 0.129304164 -0.073905913
v -0.777315548 0.112064414 -0.085869172
v -0.775667178 0.094776198 -0.097670609
v -0.773185788 0.077474238 -0.109303200
v -0.769874548 0.060186204 -0.120748612
v -0.765726854 0.042940899 -0.131985643
v -0.760703184 0.025773515 -0.142981665
v -0.754866940 0.008709356 -0.153732881
v -0.748224529 -0.008223115 -0.164221130
v -0.740783812 -0.024995147 -0.174428375
v -0.732547034 -0.041575753 -0.184333848
v -0.723507801 -0.057929117 -0.193911631
v -0.713711088 -0.074034780 -0.203157353
v -0.703171293 -0.089864719 -0.212054910
v -0.691904528 -0.105391180 -0.220588767
v -0.679928637 -0.120586826 -0.228744056
v -0.667263174 -0.135424885 -0.236506674
v -0.653929360 -0.149879299 -0.243863380
v -0.639950019 -0.163924871 -0.250801877
v -0.625349477 -0.177537394 -0.257310889
v -0.610153459 -0.190693787 -0.263380214
v -0.594388952 -0.203372198 -0.269000789
v -0.578084068 -0.215552110 -0.274164712
v -0.561252495 -0.227197326 -0.278850295
v -0.543933154 -0.238296495 -0.283058262
v -0.526163402 -0.248839920 -0.286790138
v -0.507969924 -0.258805773 -0.290036895
v -0.489369525 -0.268154103 -0.292775045
v -0.470416561 -0.276904276 -0.295029640
v -0.451122714 -0.285003079 -0.296767103
v -0.431540098 -0.292475024 -0.298015528
v -0.411683767 -0.299262640 -0.298739230
v -0.391601764 -0.305387801 -0.298963657
v -0.371325261 -0.310832954 -0.298683805
v -0.350886524 -0.315576960 -0.297892493
v -0.330322013 -0.319611991 -0.296592521
v -0.309668465 -0.322936479 -0.294791007
v -0.288961375 -0.325543114 -0.292490915
v -0.268236623 -0.327422542 -0.289693920
v -0.247530985 -0.328565435 -0.286401925
v -0.226880299 -0.328979782 -0.282628360
v -0.206320485 -0.328662151 -0.278378936
v -0.185889854 -0.327600007 -0.273653715
v -0.165622819 -0.325805222 -0.268468416
v -0.145555276 -0.323278437 -0.262831456
v -0.125724852 -0.320017190 -0.256749494
v -0.106167539 -0.316026196 -0.250233643
v -0.086919828 -0.311309605 -0.243294675
v -0.068016314 -0.305876335 -0.235946096
v -0.049489831 -0.299738225 -0.228202901
v -0.031378975 -0.292897605 -0.220074791
v -0.013713833 -0.285371695 -0.211579542
v 0.003465899 -0.277163975 -0.202727538
v 0.020130095 -0.268292616 -0.193536830
v 0.036246321 -0.258772565 -0.184023559
v 0.051777591 -0.248614842 -0.174201886
v 0.066696912 -0.237842023 -0.164091382
v 0.080971405 -0.226471029 -0.153708689
v 0.094572288 -0.214523357 -0.143072322
v 0.107465580 -0.202017247 -0.132199211
v 0.119625879 -0.188978656 -0.121109339
v 0.131024273 -0.175431529 -0.109821549
v 0.141633404 -0.161401889 -0.098355277
v 0.151431586 -0.146919744 -0.086731096
v 0.160391563 -0.132012767 -0.074968498
v 0.168494177 -0.116713501 -0.063088315
v 0.175713935 -0.101052493 -0.051110598
v 0.182036800 -0.085065653 -0.039056645
v 0.187445216 -0.068787847 -0.026947232
v 0.191924211 -0.052255404 -0.014803336
v 0.195460277 -0.035505635 -0.002646051
v 0.198043342 -0.018577107 0.009503423
v 0.199667211 -0.001509274 0.021623954
v 0.200327060 0.015658165 0.033694478
v 0.200020921 0.032885191 0.045694050
v 0.198749860 0.050131732 0.057601932
v 0.196510601 0.067357479 0.069396665
v 0.193315640 0.084522754 0.081058579
v 0.189168132 0.101587799 0.092566732
v 0.184082713 0.118514373 0.103901909
v 0.178065187 0.135263161 0.115043066
v 0.171134048 0.151797485 0.125971567
v 0.163306251 0.168081150 0.136668530
v 0.154599362 0.184078591 0.147115115
v 0.145030249 0.199754099 0.157291955
v 0.134629250 0.215078014 0.167184125
v 0.123409430 0.230013668 0.176770600
v 0.111403814 0.244534118 0.186037619
v 0.098636604 0.258608887 0.194968193
v 0.085135122 0.272209539 0.203546538
v 0.070929861 0.285310335 0.211758509
v 0.056049779 0.297885019 0.219589261
v 0.040523810 0.309907212 0.227023621
v 0.024387800 0.321357246 0.234050952
v 0.007675416 0.332214516 0.240659681
v -0.009581830 0.342456407 0.246836625
v -0.027350039 0.352062751 0.252570167
v -0.045593144 0.361016352 0.257850611
v -0.064273240 0.369303563 0.262670558
v -0.083351083 0.376914891 0.267025315
v -0.102797806 0.383821301 0.270896684
v -0.122565156 0.390032571 0.274292963
v -0.142626211 0.395511760 0.277190454
v -0.162934361 0.400269691 0.279597953
v -0.183452631 0.404294993 0.281509057
v -0.204142888 0.407578666 0.282918939
v -0.224966145 0.410114314 0.283824497
v -0.245882931 0.411898360 0.284224495
v -0.266853737 0.412930213 0.284119667
v -0.287839517 0.413212413 0.283512802
v -0.308802062 0.412748306 0.282407188
v -0.329699669 0.411512449 0.280786926
v -0.350497039 0.409543591 0.278678882
v -0.371153367 0.406825785 0.276073460
v -0.391631777 0.403372928 0.272980920
v -0.411892721 0.399184736 0.269402096
v -0.431906353 0.394290435 0.265357308
v -0.451619519 0.388658080 0.260826549
v -0.471012258 0.382337935 0.255843952
v -0.490048932 0.375338058 0.250415812
v -0.508682077 0.367649581 0.244537412
v -0.526881890 0.359296209 0.238225360
v -0.544621009 0.350302248 0.231496612
v -0.561866398 0.340682716 0.224362051
v -0.578585923 0.330454222 0.216833604
v -0.594748495 0.319634900 0.208924193
v -0.610324199 0.308244336 0.200647679
v -0.625284402 0.296303466 0.192018798
v -0.639601854 0.283834486 0.183053090
v -0.653250763 0.270860734 0.173766826
v -0.666206858 0.257406580 0.164176930
v -0.678447427 0.243497309 0.154300894
v -0.689951333 0.229159002 0.144156711
v -0.700699024 0.214418429 0.133762786
v -0.710672502 0.199302938 0.123137877
v -0.719855302 0.183840362 0.112301028
v -0.728230042 0.168058091 0.101271003
v -0.735749288 0.151974564 0.090061359
v -0.742432946 0.135631779 0.078699678
v -0.748270703 0.119059334 0.067206022
v -0.753253589 0.102286961 0.055600513
v -0.757373920 0.085344510 0.043903309
v -0.760611806 0.068260279 0.032133847
v -0.762937039 0.051063842 0.020312679
v -0.764383079 0.033791497 0.008463218
v -0.764947841 0.016473592 -0.003394189
v -0.764630390 -0.000859492 -0.015239210
v -0.763429632 -0.018177256 -0.027051434
v -0.761299550 -0.035444621 -0.038806238
v -0.758293883 -0.052632042 -0.050485260
v -0.754417241 -0.069709239 -0.062068390
v -0.749675470 -0.086645956 -0.073535570
v -0.744075714 -0.103411970 -0.084866808
v -0.737618084 -0.119974786 -0.096040416
v -0.730295682 -0.136297845 -0.107031819
v -0.722150140 -0.152358863 -0.117827230
v -0.713194696 -0.168128785 -0.128407611
v -0.703444090 -0.183578872 -0.138754188
v -0.692914609 -0.198680788 -0.148848506
v -0.681624128 -0.213406697 -0.158672483
v -0.669592122 -0.227729361 -0.168208499
v -0.656839669 -0.241622255 -0.177439455
v -0.643389432 -0.255059686 -0.186348855
v -0.629265625 -0.268016900 -0.194920889
v -0.614493949 -0.280470205 -0.203140498
v -0.599101522 -0.292397077 -0.210993453
v -0.583116785 -0.303776263 -0.218466419
v -0.566569389 -0.314587876 -0.225547014
v -0.549490076 -0.324813474 -0.232223862
v -0.531910546 -0.334436136 -0.238486633
v -0.513852467 -0.343424742 -0.244315318
v -0.495350906 -0.351764077 -0.249700848
v -0.476449824 -0.359455175 -0.254645201
v -0.457181752 -0.366483711 -0.259139857
v -0.437564942 -0.372802557 -0.263154171
v -0.417655623 -0.378443887 -0.266711160
v -0.397475852 -0.383363299 -0.269782133
v -0.377071078 -0.387577507 -0.272379581
v -0.356470525 -0.391050265 -0.274480474
v -0.335718585 -0.393804517 -0.276101427
v -0.314848025 -0.395810973 -0.277224161
v -0.293898517 -0.397069572 -0.277849965
v -0.272908812 -0.397585433 -0.277983540
v -0.251916700 -0.397353293 -0.277622708
v -0.230960611 -0.396370839 -0.276767280
v -0.210079124 -0.394638622 -0.275418973
v -0.189310536 -0.392159902 -0.273581301
v -0.168692498 -0.388940480 -0.271259441
v -0.148264407 -0.384979756 -0.268454402
v -0.128065670 -0.380280617 -0.265169503
v -0.108128774 -0.374865158 -0.261420500
v -0.088498895 -0.368722354 -0.257201701
v -0.069207381 -0.361876163 -0.252530021
v -0.050291436 -0.354335640 -0.247412704
v -0.031788849 -0.346110394 -0.241857339
v -0.013736005 -0.337213558 -0.235873739
v 0.003832478 -0.327661270 -0.229473570
v 0.020883983 -0.317472191 -0.222670017
v 0.037383451 -0.306662345 -0.215474496
v 0.053295376 -0.295248333 -0.207898690
v 0.068589390 -0.283252695 -0.199957889
v 0.083234952 -0.270697706 -0.191667043
v 0.097199459 -0.257604572 -0.183040250
v 0.110452944 -0.243997432 -0.174093228
v 0.122968094 -0.229902746 -0.164842894
v 0.134717700 -0.215347436 -0.155306176
v 0.145670065 -0.200356828 -0.145498697
v 0.155805285 -0.184963346 -0.135440153
v 0.165098403 -0.169197078 -0.125148419
v 0.173525117 -0.153089371 -0.114641747
v 0.181064088 -0.136673614 -0.103939239
v 0.187696759 -0.119984789 -0.093060556
v 0.193407165 -0.103059126 -0.082025714
v 0.198177410 -0.085933092 -0.070854393
v 0.201993474 -0.068644823 -0.059566894
v 0.204845453 -0.051233702 -0.048183929
v 0.206724848 -0.033739643 -0.036726180
v 0.207619954 -0.016203191 -0.025214228
v 0.207531759 0.001334138 -0.013669299
v 0.206458013 0.018830842 -0.002112274
v 0.204396250 0.036244757 0.009435805
v 0.201351032 0.053533849 0.020953849
v 0.197331091 0.070656770 0.032421019
v 0.192344746 0.087572209 0.043816498
v 0.186398637 0.104237999 0.055119026
v 0.179514686 0.120616340 0.066308897
v 0.171700813 0.136665242 0.077364589
v 0.162983549 0.152349480 0.088267132
v 0.153380309 0.167630857 0.098996112
v 0.142912608 0.182472890 0.109531545
v 0.131608598 0.196843030 0.119854908
v 0.119495459 0.210709027 0.129947550
v 0.106597541 0.224036877 0.139789673
v 0.092949611 0.236800264 0.149364748
v 0.078583324 0.248971765 0.158655482
v 0.063530497 0.260524464 0.167644514
v 0.047823367 0.271431972 0.176314426
v 0.031500407 0.281674833 0.184650975
v 0.014597651 0.291232165 0.192638998
v -0.002847788 0.300085017 0.200264089
v -0.020802082 0.308209655 0.207509078
v -0.039218566 0.315602557 0.214367239
v -0.058066332 0.322235625 0.220818650
v -0.077299129 0.328107814 0.226857683
v -0.096878518 0.333205291 0.232471743
v -0.116764498 0.337517190 0.237649676
v -0.136915838 0.341036007 0.242382063
v -0.157290535 0.343758007 0.246661527
v -0.177846402 0.345683609 0.250483064
v -0.198544248 0.346797153 0.253832240
v -0.219340027 0.347112246 0.256711589
v -0.240193431 0.346616640 0.259108427
v -0.261062308 0.345327480 0.261027529
v -0.281905708 0.343238971 0.262459900
v -0.302681573 0.340350978 0.263399768
v -0.323349739 0.336679777 0.263851496
v -0.343869883 0.332232783 0.263814026
v -0.364202327 0.327020166 0.263288028
v -0.384308487 0.321054845 0.262275949
v -0.404142617 0.314331785 0.260768378
v -0.423672267 0.306882805 0.258779988
v -0.442863307 0.298728455 0.256318401
v -0.461671667 0.289870622 0.253378562
v -0.480061854 0.280330332 0.249968163
v -0.498007621 0.270139076 0.246102496
v -0.515458473 0.259295673 0.241773726
v -0.532397221 0.247842027 0.237004686
v -0.548785209 0.235792839 0.231798780
v -0.564581631 0.223162817 0.226159098
v -0.579777648 0.209996478 0.220111222
v -0.594332937 0.196308530 0.213658309
v -0.608203952 0.182114742 0.206803694
v -0.621387225 0.167459680 0.199573746
v -0.633856335 0.152369711 0.191980607
v -0.645586257 0.136872453 0.184037376
v -0.656553474 0.120996687 0.175758065
v -0.666718878 0.104765455 0.167151014
v -0.676080021 0.088218125 0.158239603
v -0.684620617 0.071386859 0.149040897
v -0.692324139 0.054303645 0.139571831
v -0.699175825 0.037001061 0.129849942
v -0.705162697 0.019512177 0.119893314
v -0.710273556 0.001870447 0.109720516
v -0.714498991 -0.015890383 0.099350547
v -0.717831361 -0.033736361 0.088802772
v -0.720264772 -0.051633418 0.078096885
v -0.721795056 -0.069547435 0.067252843
v -0.722419745 -0.087444312 0.056290833
v -0.722138039 -0.105290030 0.045231234
v -0.720950785 -0.123050697 0.034094569
v -0.718848311 -0.140690527 0.022901015
v -0.715842348 -0.158176207 0.011672293
v -0.711943154 -0.175475105 0.000429489
v -0.707158436 -0.192554429 -0.010806567
v -0.701497452 -0.209381798 -0.022015081
v -0.694971006 -0.225925287 -0.033175322
v -0.687591437 -0.242153473 -0.044266644
v -0.679372615 -0.258035481 -0.055268521
v -0.670329946 -0.273541038 -0.066160581
v -0.660480367 -0.288640532 -0.076922632
v -0.649842347 -0.303305080 -0.087534715
v -0.638435881 -0.317506593 -0.097977140
v -0.626282479 -0.331217858 -0.108230533
v -0.613405146 -0.344412619 -0.118275896
v -0.599828359 -0.357065658 -0.128094656
v -0.585578023 -0.369152886 -0.137668720
v -0.570681424 -0.380651426 -0.146980544
v -0.555167167 -0.391539700 -0.156013185
v -0.539065102 -0.401797513 -0.164750364
v -0.522406234 -0.411406124 -0.173176527
v -0.505222630 -0.420348322 -0.181276895
v -0.487541016 -0.428598909 -0.189032668
v -0.469390972 -0.436134124 -0.196425523
v -0.450818590 -0.442957200 -0.203451003
v -0.431859447 -0.449057647 -0.210097921
v -0.412547091 -0.454420967 -0.216352985
v -0.392905813 -0.459006312 -0.222188448
v -0.372989441 -0.462844846 -0.227615544
v -0.352829754 -0.465914806 -0.232616930
v -0.332461139 -0.468194663 -0.237175069
v -0.311929581 -0.469710749 -0.241299428
v -0.291266766 -0.470420677 -0.244960421
v -0.270517445 -0.470356864 -0.248171352
v -0.249718623 -0.469502583 -0.250917261
v -0.228910776 -0.467852147 -0.253189331
v -0.208133370 -0.465425082 -0.254993937
v -0.187425591 -0.462219749 -0.256324884
v -0.166827519 -0.458237055 -0.257177388
v -0.146380373 -0.453477998 -0.257546589
v -0.126121752 -0.447960352 -0.257438128
v -0.106091535 -0.441690352 -0.256850473
v -0.086330374 -0.434674767 -0.255782317
v -0.066874448 -0.426932410 -0.254240138
v -0.047759620 -0.418480419 -0.252229460
v -0.029027066 -0.409326320 -0.249749367
v -0.010713652 -0.399487159 -0.246805190
v 0.007145880 -0.388983466 -0.243404605
v 0.024519108 -0.377837753 -0.239556754
v 0.041361116 -0.366058346 -0.235260642
v 0.057645349 -0.353676318 -0.230531228
v 0.073338152 -0.340713746 -0.225377119
v 0.088407467 -0.327194742 -0.219808283
v 0.102817904 -0.313141435 -0.213832985
v 0.116540115 -0.298581602 -0.207463561
v 0.129552119 -0.283547728 -0.200716038
v 0.141812452 -0.268060402 -0.193596587
v 0.153304267 -0.252155944 -0.186123920
v 0.163999591 -0.235864077 -0.178311134
v 0.173872435 -0.219216419 -0.170172510
v 0.182900011 -0.202246594 -0.161723725
v 0.191062612 -0.184989707 -0.152981505
v 0.198337089 -0.167480379 -0.143961503
v 0.204706019 -0.149755574 -0.134681249
v 0.210151949 -0.131852849 -0.125158268
v 0.214662415 -0.113811125 -0.115411261
v 0.218222265 -0.095669516 -0.105458238
v 0.220819773 -0.077468368 -0.095318021
v 0.222446384 -0.059248872 -0.085009998
v 0.223096486 -0.041052772 -0.074553924
v 0.222767198 -0.022922146 -0.063969788
v 0.221449153 -0.004900603 -0.053276889
v 0.219151516 0.012969840 -0.042496433
v 0.215870768 0.030644824 -0.031648350
v 0.211618953 0.048082605 -0.020753581
v 0.206396067 0.065237835 -0.009832539
v 0.200221284 0.082070356 0.001093859
v 0.193103419 0.098536500 0.012004906
v 0.185059948 0.114595319 0.022879838
v 0.176112511 0.130207970 0.033698210
v 0.166276788 0.145332206 0.044438983
v 0.155583530 0.159934234 0.055082437
v 0.144053220 0.173974189 0.065607644
v 0.131717269 0.187419419 0.075994998
v 0.118606836 0.200237825 0.086224974
v 0.104753055 0.212397596 0.096277941
v 0.090189330 0.223869073 0.106134603
v 0.074951319 0.234625149 0.115776164
v 0.059076869 0.244641734 0.125184545
v 0.042605877 0.253898303 0.134342655
v 0.025574396 0.262369721 0.143231616
v 0.008026707 0.270043293 0.151836616
v -0.010000834 0.276894547 0.160138405
v -0.028462413 0.282915727 0.168123649
v -0.047316281 0.288093450 0.175776815
v -0.066519371 0.292417956 0.183083600
v -0.086027806 0.295883196 0.190031111
v -0.105801095 0.298471977 0.196601418
v -0.125790666 0.300197204 0.202789557
v -0.145956322 0.301040189 0.208576478
v -0.166251582 0.301013377 0.213957091
v -0.186633339 0.300114871 0.218919732
v -0.207057926 0.298346064 0.223454105
v -0.227481542 0.295711899 0.227551527
v -0.247860778 0.292221070 0.231205183
v -0.268153247 0.287886168 0.234410373
v -0.288316127 0.282713309 0.237158923
v -0.308306210 0.276711093 0.239443714
v -0.328084561 0.269903276 0.241266322
v -0.347608937 0.262299413 0.242620219
v -0.366836869 0.253911061 0.243499761
v -0.385733076 0.244767121 0.243909908
v -0.404258163 0.234884572 0.243848473
v -0.422373637 0.224282955 0.243314757
v -0.440042246 0.212984297 0.242309612
v -0.457228344 0.201013002 0.240835487
v -0.473898247 0.188395667 0.238896441
v -0.490020597 0.175160848 0.236498130
v -0.505566692 0.161338760 0.233647747
v -0.520487425 0.146941705 0.230337905
v -0.534769158 0.132014948 0.226587432
v -0.548393719 0.116595038 0.222409548
v -0.561296962 0.100688485 0.217789784
v -0.573501898 0.084358889 0.212766202
v -0.584934103 0.067610694 0.207320450
v -0.595622635 0.050504486 0.201490743
v -0.605496410 0.033052286 0.195263415
v -0.614572695 0.015304824 0.188668503
v -0.622834873 -0.002703232 0.181718671
v -0.630224234 -0.020947012 0.174410065
v -0.636769762 -0.039377962 0.166774864
v -0.642456598 -0.057960985 0.158826428
v -0.647256472 -0.076661657 0.150574067
v -0.651150279 -0.095442235 0.142031273
v -0.654154059 -0.114262891 0.133222300
v -0.656260709 -0.133086713 0.124163548
v -0.657465088 -0.151876578 0.114872058
v -0.657764017 -0.170595271 0.105365461
v -0.657148935 -0.189204411 0.095660478
v -0.655613550 -0.207664650 0.085774934
v -0.653177127 -0.225941389 0.075731360
v -0.649844249 -0.243998320 0.065549079
v -0.645621388 -0.261799542 0.055247721
v -0.640516869 -0.279309646 0.044847190
v -0.634540845 -0.296493804 0.034367603
v -0.627705263 -0.313317843 0.023829237
v -0.620023824 -0.329748324 0.013252492
v -0.611511945 -0.345752621 0.002657837
v -0.602186726 -0.361298981 -0.007934241
v -0.592066901 -0.376356604 -0.018503276
v -0.581172793 -0.390895709 -0.029028868
v -0.569526279 -0.404887597 -0.039490742
v -0.557145445 -0.418300207 -0.049868003
v -0.544053475 -0.431104633 -0.060139915
v -0.530283412 -0.443281027 -0.070287528
v -0.515862866 -0.454805517 -0.080291401
v -0.500820758 -0.465655652 -0.090132442
v -0.485187243 -0.475810471 -0.099791964
v -0.468993639 -0.485250561 -0.109251742
v -0.452272335 -0.493958125 -0.118494058
v -0.435056703 -0.501917029 -0.127501759
v -0.417365580 -0.509084792 -0.136248667
v -0.399249342 -0.515471164 -0.144725781
v -0.380745485 -0.521067798 -0.152918702
v -0.361890565 -0.525865710 -0.160812990
v -0.342713614 -0.529834504 -0.168385685
v -0.323254643 -0.532968113 -0.175622865
v -0.303559515 -0.535284444 -0.182520868
v -0.283661261 -0.536758113 -0.189058161
v -0.263598903 -0.537380102 -0.195219679
v -0.243417413 -0.537183979 -0.201009778
v -0.223150248 -0.536110046 -0.206389915
v -0.202842793 -0.534227241 -0.211381822
v -0.182533729 -0.531474448 -0.215944881
v -0.162262977 -0.527910724 -0.220097451
v -0.142072227 -0.523509663 -0.223815266
v -0.122002083 -0.518286779 -0.227095049
v -0.102090275 -0.512262660 -0.229936821
v -0.082376950 -0.505443239 -0.232332736
v -0.062905880 -0.497828366 -0.234270984
v -0.043713927 -0.489442090 -0.235753577
v -0.024838773 -0.480302544 -0.236779392
v -0.006318557 -0.470426511 -0.237346538
v 0.011809676 -0.459833260 -0.237454647
v 0.029503207 -0.448534034 -0.237097885
v 0.046729713 -0.436557598 -0.236281853
v 0.063458124 -0.423932208 -0.235012239
v 0.079648838 -0.410675568 -0.233287236
v 0.095267343 -0.396812766 -0.231110042
v 0.110283823 -0.382373963 -0.228487596
v 0.124670621 -0.367390073 -0.225427772
v 0.138383023 -0.351879427 -0.221927642
v 0.151403238 -0.335881997 -0.218002125
v 0.163701479 -0.319427987 -0.213658063
v 0.175250636 -0.302549895 -0.208904089
v 0.186026423 -0.285282005 -0.203750404
v 0.195994208 -0.267654744 -0.198202435
v 0.205143723 -0.249709434 -0.192277430
v 0.213447795 -0.231480492 -0.185984560
v 0.220891588 -0.213006859 -0.179338417
v 0.227445869 -0.194324443 -0.172348026
v 0.233103025 -0.175474819 -0.165030880
v 0.237846867 -0.156497659 -0.157400999
v 0.241664715 -0.137433693 -0.149473645
v 0.244540128 -0.118324231 -0.141263049
v 0.246467819 -0.099211722 -0.132786794
v 0.247442349 -0.080138674 -0.124062152
v 0.247454382 -0.061148469 -0.115105381
v 0.246501013 -0.042284926 -0.105934386
v 0.244583975 -0.023591583 -0.096567896
v 0.241703509 -0.005112746 -0.087024194
v 0.237863261 0.013107275 -0.077322148
v 0.233070012 0.031024403 -0.067481031
v 0.227333439 0.048594985 -0.057520390
v 0.220660794 0.065773523 -0.047459498
v 0.213069372 0.082518048 -0.037318648
v 0.204578705 0.098787735 -0.027118014
v 0.195199789 0.114536121 -0.016877363
v 0.184963408 0.129727979 -0.006617279
v 0.173887409 0.144319524 0.003642058
v 0.162003240 0.158276141 0.013880408
v 0.149337435 0.171559287 0.024077454
v 0.135922299 0.184134955 0.034213058
v 0.121794010 0.195973231 0.044267531
v 0.106982388 0.207036989 0.054220168
v 0.091530123 0.217303657 0.064052056
v 0.075475539 0.226746384 0.073743721
v 0.058858710 0.235340727 0.083275910
v 0.041721380 0.243064946 0.092629696
v 0.024106827 0.249900346 0.101786606
v 0.006059668 0.255831654 0.110728799
v -0.012374406 0.260847440 0.119439279
v -0.031152432 0.264929638 0.127899062
v -0.050225329 0.268078445 0.136093955
v -0.069549523 0.270277910 0.144005010
v -0.089076382 0.271532039 0.151619023
v -0.108759905 0.271837193 0.158920415
v -0.128553621 0.271193354 0.165894570
v -0.148411007 0.269604433 0.172528098
v -0.168286015 0.267078571 0.178809137
v -0.188132666 0.263615511 0.184722407
v -0.207905888 0.259233008 0.190259601
v -0.227560183 0.253935992 0.195407172
v -0.247052615 0.247746004 0.200158602
v -0.266339285 0.240674869 0.204503174
v -0.285376786 0.232737708 0.208431444
v -0.304122655 0.223953017 0.211935441
v -0.322535884 0.214342688 0.215008865
v -0.340577500 0.203931938 0.217647290
v -0.358211206 0.192749150 0.219848337
v -0.375393072 0.180809324 0.221601755
v -0.392091526 0.168148449 0.222909562
v -0.408266575 0.154788712 0.223765472
v -0.423892952 0.140770899 0.224175457
v -0.438923913 0.126110722 0.224128228
v -0.453335385 0.110849404 0.223630249
v -0.467098996 0.095021913 0.222684036
v -0.480184859 0.078661600 0.221290908
v -0.492565187 0.061803619 0.219453595
v -0.504214548 0.044484702 0.217176245
v -0.515110081 0.026742875 0.214464408
v -0.525231691 0.008617141 0.211324996
v -0.534557111 -0.009854771 0.207763624
v -0.543050928 -0.028638701 0.203779715
v -0.550719323 -0.047685851 0.199393454
v -0.557553653 -0.066955703 0.194616481
v -0.563496528 -0.086416707 0.189439077
v -0.568586085 -0.106017503 0.183894173
v -0.572780103 -0.125722132 0.177979264
v -0.576090372 -0.145486706 0.171714764
v -0.578492789 -0.165270679 0.165106551
v -0.580008678 -0.185032698 0.158177630
v -0.580594601 -0.204729014 0.150927868
v -0.580298826 -0.224322820 0.143388598
v -0.579081965 -0.243767863 0.135562085
v -0.576962828 -0.263025537 0.127469386
v -0.573964239 -0.282060694 0.119131781
v -0.570061856 -0.300825175 0.110557801
v -0.565271814 -0.319281138 0.101767216
v -0.559623472 -0.337397510 0.092782232
v -0.553127083 -0.355137387 0.083620096
v -0.545762647 -0.372447006 0.074292973
v -0.537571767 -0.389302456 0.064824983
v -0.528577688 -0.405672889 0.055235971
v -0.518798221 -0.421524821 0.045544721
v -0.508245822 -0.436820255 0.035769668
v -0.496926279 -0.451513540 0.025929560
v -0.484887311 -0.465592719 0.016046417
v -0.472153398 -0.479029140 0.006139713
v -0.458750525 -0.491795537 -0.003771029
v -0.444703907 -0.503863512 -0.013666162
v -0.430022880 -0.515183497 -0.023524225
v -0.414761169 -0.525758653 -0.033326509
v -0.398950076 -0.535567951 -0.043053814
v -0.382622018 -0.544592072 -0.052687154
v -0.365805555 -0.552804552 -0.062206379
v -0.348525697 -0.560168425 -0.071588858
v -0.330834348 -0.566697591 -0.080820486
v -0.312767576 -0.572380078 -0.089883629
v -0.294358954 -0.577196874 -0.098759025
v -0.275637498 -0.581109540 -0.107422072
v -0.256655365 -0.584148975 -0.115864773
v -0.237450601 -0.586311141 -0.124071675
v -0.218052862 -0.587543204 -0.132012760
v -0.198511828 -0.587888507 -0.139685483
v -0.178866088 -0.587343312 -0.147074339
v -0.159153475 -0.585870346 -0.154151975
v -0.139417491 -0.583526708 -0.160923131
v -0.119698897 -0.580260722 -0.167354205
v -0.100036397 -0.576131943 -0.173452599
v -0.080475345 -0.571098714 -0.179186688
v -0.061049512 -0.565220435 -0.184565656
v -0.041808373 -0.558459370 -0.189557821
v -0.022784844 -0.550864477 -0.194168927
v -0.004017049 -0.542449865 -0.198390227
v 0.014445195 -0.533203448 -0.202199249
v 0.032571063 -0.523166902 -0.205599907
v 0.050322918 -0.512359614 -0.208585588
v 0.067662467 -0.500800632 -0.211149329
v 0.084552276 -0.488511723 -0.213285475
v 0.100956084 -0.475517190 -0.214989734
v 0.116839082 -0.461843671 -0.216259197
v 0.132168151 -0.447519902 -0.217092333
v 0.146912047 -0.432576464 -0.217488973
v 0.161041563 -0.417045527 -0.217450259
v 0.174510807 -0.400945842 -0.216966439
v 0.187307775 -0.384325116 -0.216050518
v 0.199397554 -0.367211884 -0.214700252
v 0.210754765 -0.349642137 -0.212919542
v 0.221348934 -0.331649667 -0.210709631
v 0.231165077 -0.313276384 -0.208080282
v 0.240176865 -0.294558283 -0.205034981
v 0.248361022 -0.275533709 -0.201579125
v 0.255697417 -0.256242760 -0.197719837
v 0.262169110 -0.236726776 -0.193465775
v 0.267762293 -0.217027872 -0.188826944
v 0.272466208 -0.197188549 -0.183814501
v 0.276259743 -0.177250520 -0.178435453
v 0.279139958 -0.157257827 -0.172704127
v 0.281089616 -0.137254178 -0.166629380
v 0.282109814 -0.117283873 -0.160226805
v 0.282192526 -0.097391494 -0.153508588
v 0.281333646 -0.077622163 -0.146488324
v 0.279532700 -0.058021071 -0.139180740
v 0.276792582 -0.038633120 -0.131601452
v 0.273117778 -0.019503133 -0.123766371
v 0.268505679 -0.000679143 -0.115689587
v 0.262975654 0.017797690 -0.107390657
v 0.256529137 0.035879098 -0.098884588
v 0.249182109 0.053521818 -0.090189738
v 0.240950656 0.070682487 -0.081324207
v 0.231851336 0.087317327 -0.072306050
v 0.221903884 0.103383649 -0.063153794
v 0.211130949 0.118840013 -0.053886302
v 0.199557854 0.133646358 -0.044522672
v 0.187212398 0.147764086 -0.035082155
v 0.174121307 0.161152549 -0.025583923
v 0.160318881 0.173777724 -0.016047704
v 0.145840985 0.185607372 -0.006493085
v 0.130722840 0.196608052 0.003060410
v 0.115000872 0.206746596 0.012593060
v 0.098718835 0.216000211 0.022085453
v 0.081918418 0.224343504 0.031518220
v 0.064641246 0.231749874 0.040871712
v 0.046933528 0.238201221 0.050126864
v 0.028842100 0.243681736 0.059264886
v 0.010413980 0.248176630 0.068267057
v -0.008302870 0.251674198 0.077114954
v -0.027259761 0.254166066 0.085790567
v -0.046407555 0.255647453 0.094276419
v -0.065697616 0.256110686 0.102554248
v -0.085079985 0.255558831 0.110607802
v -0.104505508 0.253997504 0.118421488
v -0.123925312 0.251425216 0.125977762
v -0.143290765 0.247853431 0.133262170
v -0.162554110 0.243293913 0.140260388
v -0.181667872 0.237757493 0.146957704
v -0.200585288 0.231258614 0.153340325
v -0.219260773 0.223815459 0.159395597
v -0.237650480 0.215450031 0.165112248
v -0.255709785 0.206180723 0.170477593
v -0.273395422 0.196030145 0.175480309
v -0.290668016 0.185028027 0.180112153
v -0.307489202 0.173203958 0.184365067
v -0.323813154 0.160575432 0.188224924
v -0.339608619 0.147183332 0.191688922
v -0.354839352 0.133058928 0.194749800
v -0.369471434 0.118236174 0.197401755
v -0.383473731 0.102751477 0.199640583
l 1 2
l 2 3
l 3 4
l 4 5
l 5 6
l 6 7
l 7 8
l 8 9
l 9 10
l 10 11
l 11 12
l 12 13
l 13 14
l 14 15
l 15 16
l 16 17
l 17 18
l 18 19
l 19 20
l 20 21
l 21 22
l 22 23
l 23 24
l 24 25
l 25 26
l 26 27
l 27 28
l 28 29
l 29 30
l 30 31
l 31 32
l 32 33
l 33 34
l 34 35
l 35 36
l 36 37
l 37 38
l 38 39
l 39 40
l 40 41
l 41 42
l 42 43
l 43 44
l 44 45
l 45 46
l 46 47
l 47 48
l 48 49
l 49 50
l 50 51
l 51 52
l 52 53
l 53 54
l 54 55
l 55 56
l 56 57
l 57 58
l 58 59
l 59 60
l 60 61
l 61 62
l 62 63
l 63 64
l 64 65
l 65 66
l 66 67
l 67 68
l 68 69
l 69 70
l 70 71
l 71 72
l 72 73
l 73 74
l 74 75
l 75 76
l 76 77
l 77 78
l 78 79
l 79 80
l 80 81
l 81 82
l 82 83
l 83 84
l 84 85
l 85 86
l 86 87
l 87 88
l 88 89
l 89 90
l 90 91
l 91 92
l 92 93
l 93 94
l 94 95
l 95 96
l 96 97
l 97 98
l 98 99
l 99 100
l 100 101
l 101 102
l 102 103
l 103 104
l 104 105
l 105 106
l 106 107
l 107 108
l 108 109
l 109 110
l 110 111
l 111 112
l 112 113
l 113 114
l 114 115
l 115 116
l 116 117
l 117 118
l 118 119
l 119 120
l 120 121
l 121 122
l 122 123
l 123 124
l 124 125
l 125 126
l 126 127
l 127 128
l 128 129
l 129 130
l 130 131
l 131 132
l 132 133
l 133 134
l 134 135
l 135 136
l 136 137
l 137 138
l 138 139
l 139 140
l 140 141
l 141 142
l 142 143
l 143 144
l 144 145
l 145 146
l 146 147
l 147 148
l 148 149
l 149 150
l 150 151
l 151 152
l 152 153
l 153 154
l 154 155
l 155 156
l 156 157
l 157 158
l 158 159
l 159 160
l 160 161
l 161 162
l 162 163
l 163 164
l 164 165
l 165 166
l 166 167
l 167 168
l 168 169
l 169 170
l 170 171
l 171 172
l 172 173
l 173 174
l 174 175
l 175 176
l 176 177
l 177 178
l 178 179
l 179 180
l 180 181
l 181 182
l 182 183
l 183 184
l 184 185
l 185 186
l 186 187
l 187 188
l 188 189
l 189 190
l 190 191
l 191 192
l 192 193
l 193 194
l 194 195
l 195 196
l 196 197
l 197 198
l 198 199
l 199 200
l 200 201
l 201 202
l 202 203
l 203 204
l 204 205
l 205 206
l 206 207
l 207 208
l 208 209
l 209 210
l 210 211
l 211 212
l 212 213
l 213 214
l 214 215
l 215 216
l 216 217
l 217 218
l 218 219
l 219 220
l 220 221
l 221 222
l 222 223
l 223 224
l 224 225
l 225 226
l 226 227
l 227 228
l 228 229
l 229 230
l 230 231
l 231 232
l 232 233
l 233 234
l 234 235
l 235 236
l 236 237
l 237 238
l 238 239
l 239 240
l 240 241
l 241 242
l 242 243
l 243 244
l 244 245
l 245 246
l 246 247
l 247 248
l 248 249
l 249 250
l 250 251
l 251 252
l 252 253
l 253 254
l 254 255
l 255 256
l 256 257
l 257 258
l 258 259
l 259 260
l 260 261
l 261 262
l 262 263
l 263 264
l 264 265
l 265 266
l 266 267
l 267 268
l 268 269
l 269 270
l 270 271
l 271 272
l 272 273
l 273 274
l 274 275
l 275 276
l 276 277
l 277 278
l 278 279
l 279 280
l 280 281
l 281 282
l 282 283
l 283 284
l 284 285
l 285 286
l 286 287
l 287 288
l 288 289
l 289 290
l 290 291
l 291 292
l 292 293
l 293 294
l 294 295
l 295 296
l 296 297
l 297 298
l 298 299
l 299 300
l 300 301
l 301 302
l 302 303
l 303 304
l 304 305
l 305 306
l 306 307
l 307 308
l 308 309
l 309 310
l 310 311
l 311 312
l 312 313
l 313 314
l 314 315
l 315 316
l 316 317
l 317 318
l 318 319
l 319 320
l 320 321
l 321 322
l 322 323
l 323 324
l 324 325
l 325 326
l 326 327
l 327 328
l 328 329
l 329 330
l 330 331
l 331 332
l 332 333
l 333 334
l 334 335
l 335 336
l 336 337
l 337 338
l 338 339
l 339 340
l 340 341
l 341 342
l 342 343
l 343 344
l 344 345
l 345 346
l 346 347
l 347 348
l 348 349
l 349 350
l 350 351
l 351 352
l 352 353
l 353 354
l 354 355
l 355 356
l 356 357
l 357 358
l 358 359
l 359 360
l 360 361
l 361 362
l 362 363
l 363 364
l 364 365
l 365 366
l 366 367
l 367 368
l 368 369
l 369 370
l 370 371
l 371 372
l 372 373
l 373 374
l 374 375
l 375 376
l 376 377
l 377 378
l 378 379
l 379 380
l 380 381
l 381 382
l 382 383
l 383 384
l 384 385
l 385 386
l 386 387
l 387 388
l 388 389
l 389 390
l 390 391
l 391 392
l 392 393
l 393 394
l 394 395
l 395 396
l 396 397
l 397 398
l 398 399
l 399 400
l 400 401
l 401 402
l 402 403
l 403 404
l 404 405
l 405 406
l 406 407
l 407 408
l 408 409
l 409 410
l 410 411
l 411 412
l 412 413
l 413 414
l 414 415
l 415 416
l 416 417
l 417 418
l 418 419
l 419 420
l 420 421
l 421 422
l 422 423
l 423 424
l 424 425
l 425 426
l 426 427
l 427 428
l 428 429
l 429 430
l 430 431
l 431 432
l 432 433
l 433 434
l 434 435
l 435 436
l 436 437
l 437 438
l 438 439
l 439 440
l 440 441
l 441 442
l 442 443
l 443 444
l 444 445
l 445 446
l 446 447
l 447 448
l 448 449
l 449 450
l 450 451
l 451 452
l 452 453
l 453 454
l 454 455
l 455 456
l 456 457
l 457 458
l 458 459
l 459 460
l 460 461
l 461 462
l 462 463
l 463 464
l 464 465
l 465 466
l 466 467
l 467 468
l 468 469
l 469 470
l 470 471
l 471 472
l 472 473
l 473 474
l 474 475
l 475 476
l 476 477
l 477 478
l 478 479
l 479 480
l 480 481
l 481 482
l 482 483
l 483 484
l 484 485
l 485 486
l 486 487
l 487 488
l 488 489
l 489 490
l 490 491
l 491 492
l 492 493
l 493 494
l 494 495
l 495 496
l 496 497
l 497 498
l 498 499
l 499 500
l 500 501
l 501 502
l 502 503
l 503 504
l 504 505
l 505 506
l 506 507
l 507 508
l 508 509
l 509 510
l 510 511
l 511 512
l 512 513
l 513 514
l 514 515
l 515 516
l 516 517
l 517 518
l 518 519
l 519 520
l 520 521
l 521 522
l 522 523
l 523 524
l 524 525
l 525 526
l 526 527
l 527 528
l 528 529
l 529 530
l 530 531
l 531 532
l 532 533
l 533 534
l 534 535
l 535 536
l 536 537
l 537 538
l 538 539
l 539 540
l 540 541
l 541 542
l 542 543
l 543 544
l 544 545
l 545 546
l 546 547
l 547 548
l 548 549
l 549 550
l 550 551
l 551 552
l 552 553
l 553 554
l 554 555
l 555 556
l 556 557
l 557 558
l 558 559
l 559 560
l 560 561
l 561 562
l 562 563
l 563 564
l 564 565
l 565 566
l 566 567
l 567 568
l 568 569
l 569 570
l 570 571
l 571 572
l 572 573
l 573 574
l 574 575
l 575 576
l 576 577
l 577 578
l 578 579
l 579 580
l 580 581
l 581 582
l 582 583
l 583 584
l 584 585
l 585 586
l 586 587
l 587 588
l 588 589
l 589 590
l 590 591
l 591 592
l 592 593
l 593 594
l 594 595
l 595 596
l 596 597
l 597 598
l 598 599
l 599 600
l 600 601
l 601 602
l 602 603
l 603 604
l 604 605
l 605 606
l 606 607
l 607 608
l 608 609
l 609 610
l 610 611
l 611 612
l 612 613
l 613 614
l 614 615
l 615 616
l 616 617
l 617 618
l 618 619
l 619 620
l 620 621
l 621 622
l 622 623
l 623 624
l 624 625
l 625 626
l 626 627
l 627 628
l 628 629
l 629 630
l 630 631
l 631 632
l 632 633
l 633 634
l 634 635
l 635 636
l 636 637
l 637 638
l 638 639
l 639 640
l 640 641
l 641 642
l 642 643
l 643 644
l 644 645
l 645 646
l 646 647
l 647 648
l 648 649
l 649 650
l 650 651
l 651 652
l 652 653
l 653 654
l 654 655
l 655 656
l 656 657
l 657 658
l 658 659
l 659 660
l 660 661
l 661 662
l 662 663
l 663 664
l 664 665
l 665 666
l 666 667
l 667 668
l 668 669
l 669 670
l 670 671
l 671 672
l 672 673
l 673 674
l 674 675
l 675 676
l 676 677
l 677 678
l 678 679
l 679 680
l 680 681
l 681 682
l 682 683
l 683 684
l 684 685
l 685 686
l 686 687
l 687 688
l 688 689
l 689 690
l 690 691
l 691 692
l 692 693
l 693 694
l 694 695
l 695 696
l 696 697
l 697 698
l 698 699
l 699 700
l 700 701
l 701 702
l 702 703
l 703 704
l 704 705
l 705 706
l 706 707
l 707 708
l 708 709
l 709 710
l 710 711
l 711 712
l 712 713
l 713 714
l 714 715
l 715 716
l 716 717
l 717 718
l 718 719
l 719 720
l 720 721
l 721 722
l 722 723
l 723 724
l 724 725
l 725 726
l 726 727
l 727 728
l 728 729
l 729 730
l 730 731
l 731 732
l 732 733
l 733 734
l 734 735
l 735 736
l 736 737
l 737 738
l 738 739
l 739 740
l 740 741
l 741 742
l 742 743
l 743 744
l 744 745
l 745 746
l 746 747
l 747 748
l 748 749
l 749 750
l 750 751
l 751 752
l 752 753
l 753 754
l 754 755
l 755 756
l 756 757
l 757 758
l 758 759
l 759 760
l 760 761
l 761 762
l 762 763
l 763 764
l 764 765
l 765 766
l 766 767
l 767 768
l 768 769
l 769 770
l 770 771
l 771 772
l 772 773
l 773 774
l 774 775
l 775 776
l 776 777
l 777 778
l 778 779
l 779 780
l 780 781
l 781 782
l 782 783
l 783 784
l 784 785
l 785 786
l 786 787
l 787 788
l 788 789
l 789 790
l 790 791
l 791 792
l 792 793
l 793 794
l 794 795
l 795 796
l 796 797
l 797 798
l 798 799
l 799 800
l 800 801
l 801 802
l 802 803
l 803 804
l 804 805
l 805 806
l 806 807
l 807 808
l 808 809
l 809 810
l 810 811
l 811 812
l 812 813
l 813 814
l 814 815
l 815 816
l 816 817
l 817 818
l 818 819
l 819 820
l 820 821
l 821 822
l 822 823
l 823 824
l 824 825
l 825 826
l 826 827
l 827 828
l 828 829
l 829 830
l 830 831
l 831 832
l 832 833
l 833 834
l 834 835
l 835 836
l 836 837
l 837 838
l 838 839
l 839 840
l 840 841
l 841 842
l 842 843
l 843 844
l 844 845
l 845 846
l 846 847
l 847 848
l 848 849
l 849 850
l 850 851
l 851 852
l 852 853
l 853 854
l 854 855
l 855 856
l 856 857
l 857 858
l 858 859
l 859 860
l 860 861
l 861 862
l 862 863
l 863 864
l 864 865
l 865 866
l 866 867
l 867 868
l 868 869
l 869 870
l 870 871
l 871 872
l 872 873
l 873 874
l 874 875
l 875 876
l 876 877
l 877 878
l 878 879
l 879 880
l 880 881
l 881 882
l 882 883
l 883 884
l 884 885
l 885 886
l 886 887
l 887 888
l 888 889
l 889 890
l 890 891
l 891 892
l 892 893
l 893 894
l 894 895
l 895 896
l 896 897
l 897 898
l 898 899
l 899 900
l 900 901
l 901 902
l 902 903
l 903 904
l 904 905
l 905 906
l 906 907
l 907 908
l 908 909
l 909 910
l 910 911
l 911 912
l 912 913
l 913 914
l 914 915
l 915 916
l 916 917
l 917 918
l 918 919
l 919 920
l 920 921
l 921 922
l 922 923
l 923 924
l 924 925
l 925 926
l 926 927
l 927 928
l 928 929
l 929 930
l 930 931
l 931 932
l 932 933
l 933 934
l 934 935
l 935 936
l 936 937
l 937 938
l 938 939
l 939 940
l 940 941
l 941 942
l 942 943
l 943 944
l 944 945
l 945 946
l 946 947
l 947 948
l 948 949
l 949 950
l 950 951
l 951 952
l 952 953
l 953 954
l 954 955
l 955 956
l 956 957
l 957 958
l 958 959
l 959 960
l 960 961
l 961 962
l 962 963
l 963 964
l 964 965
l 965 966
l 966 967
l 967 968
l 968 969
l 969 970
l 970 971
l 971 972
l 972 973
l 973 974
l 974 975
l 975 976
l 976 977
l 977 978
l 978 979
l 979 980
l 980 981
l 981 982
l 982 983
l 983 984
l 984 985
l 985 986
l 986 987
l 987 988
l 988 989
l 989 990
l 990 991
l 991 992
l 992 993
l 993 994
l 994 995
l 995 996
l 996 997
l 997 998
l 998 999
l 999 1000
l 1000 1001
l 1001 1002
l 1002 1003
l 1003 1004
l 1004 1005
l 1005 1006
l 1006 1007
l 1007 1008
l 1008 1009
l 1009 1010
l 1010 1011
l 1011 1012
l 1012 1013
l 1013 1014
l 1014 1015
l 1015 1016
l 1016 1017
l 1017 1018
l 1018 1019
l 1019 1020
l 1020 1021
l 1021 1022
l 1022 1023
l 1023 1024
l 1024 1025
l 1025 1026
l 1026 1027
l 1027 1028
l 1028 1029
l 1029 1030
l 1030 1031
l 1031 1032
l 1032 1033
l 1033 1034
l 1034 1035
l 1035 1036
l 1036 1037
l 1037 1038
l 1038 1039
l 1039 1040
l 1040 1041
l 1041 1042
l 1042 1043
l 1043 1044
l 1044 1045
l 1045 1046
l 1046 1047
l 1047 1048
l 1048 1049
l 1049 1050
l 1050 1051
l 1051 1052
l 1052 1053
l 1053 1054
l 1054 1055
l 1055 1056
l 1056 1057
l 1057 1058
l 1058 1059
l 1059 1060
l 1060 1061
l 1061 1062
l 1062 1063
l 1063 1064
l 1064 1065
l 1065 1066
l 1066 1067
l 1067 1068
l 1068 1069
l 1069 1070
l 1070 1071
l 1071 1072
l 1072 1073
l 1073 1074
l 1074 1075
l 1075 1076
l 1076 1077
l 1077 1078
l 1078 1079
l 1079 1080
l 1080 1081
l 1081 1082
l 1082 1083
l 1083 1084
l 1084 1085
l 1085 1086
l 1086 1087
l 1087 1088
l 1088 1089
l 1089 1090
l 1090 1091
l 1091 1092
l 1092 1093
l 1093 1094
l 1094 1095
l 1095 1096
l 1096 1097
l 1097 1098
l 1098 1099
l 1099 1100
l 1100 1101
l 1101 1102
l 1102 1103
l 1103 1104
l 1104 1105
l 1105 1106
l 1106 1107
l 1107 1108
l 1108 1109
l 1109 1110
l 1110 1111
l 1111 1112
l 1112 1113
l 1113 1114
l 1114 1115
l 1115 1116
l 1116 1117
l 1117 1118
l 1118 1119
l 1119 1120
l 1120 1121
l 1121 1122
l 1122 1123
l 1123 1124
l 1124 1125
l 1125 1126
l 1126 1127
l 1127 1128
l 1128 1129
l 1129 1130
l 1130 1131
l 1131 1132
l 1132 1133
l 1133 1134
l 1134 1135
l 1135 1136
l 1136 1137
l 1137 1138
l 1138 1139
l 1139 1140
l 1140 1141
l 1141 1142
l 1142 1143
l 1143 1144
l 1144 1145
l 1145 1146
l 1146 1147
l 1147 1148
l 1148 1149
l 1149 1150
l 1150 1151
l 1151 1152
l 1152 1153
l 1153 1154
l 1154 1155
l 1155 1156
l 1156 1157
l 1157 1158
l 1158 1159
l 1159 1160
l 1160 1161
l 1161 1162
l 1162 1163
l 1163 1164
l 1164 1165
l 1165 1166
l 1166 1167
l 1167 1168
l 1168 1169
l 1169 1170
l 1170 1171
l 1171 1172
l 1172 1173
l 1173 1174
l 1174 1175
l 1175 1176
l 1176 1177
l 1177 1178
l 1178 1179
l 1179 1180
l 1180 1181
l 1181 1182
l 1182 1183
l 1183 1184
l 1184 1185
l 1185 1186
l 1186 1187
l 1187 1188
l 1188 1189
l 1189 1190
l 1190 1191
l 1191 1192
l 1192 1193
l 1193 1194
l 1194 1195
l 1195 1196
l 1196 1197
l 1197 1198
l 1198 1199
l 1199 1200
l 1200 1201
l 1201 1202
l 1202 1203
l 1203 1204
l 1204 1205
l 1205 1206
l 1206 1207
l 1207 1208
l 1208 1209
l 1209 1210
l 1210 1211
l 1211 1212
l 1212 1213
l 1213 1214
l 1214 1215
l 1215 1216
l 1216 1217
l 1217 1218
l 1218 1219
l 1219 1220
l 1220 1221
l 1221 1222
l 1222 1223
l 1223 1224
l 1224 1225
l 1225 1226
l 1226 1227
l 1227 1228
l 1228 1229
l 1229 1230
l 1230 1231
l 1231 1232
l 1232 1233
l 1233 1234
l 1234 1235
l 1235 1236
l 1236 1237
l 1237 1238
l 1238 1239
l 1239 1240
l 1240 1241
l 1241 1242
l 1242 1243
l 1243 1244
l 1244 1245
l 1245 1246
l 1246 1247
l 1247 1248
l 1248 1249
l 1249 1250
l 1250 1251
l 1251 1252
l 1252 1253
l 1253 1254
l 1254 1255
l 1255 1256
l 1256 1257
l 1257 1258
l 1258 1259
l 1259 1260
l 1260 1261
l 1261 1262
l 1262 1263
l 1263 1264
l 1264 1265
l 1265 1266
l 1266 1267
l 1267 1268
l 1268 1269
l 1269 1270
l 1270 1271
l 1271 1272
l 1272 1273
l 1273 1274
l 1274 1275
l 1275 1276
l 1276 1277
l 1277 1278
l 1278 1279
l 1279 1280
l 1280 1281
l 1281 1282
l 1282 1283
l 1283 1284
l 1284 1285
l 1285 1286
l 1286 1287
l 1287 1288
l 1288 1289
l 1289 1290
l 1290 1291
l 1291 1292
l 1292 1293
l 1293 1294
l 1294 1295
l 1295 1296
l 1296 1297
l 1297 1298
l 1298 1299
l 1299 1300
l 1300 1301
l 1301 1302
l 1302 1303
l 1303 1304
l 1304 1305
l 1305 1306
l 1306 1307
l 1307 1308
l 1308 1309
l 1309 1310
l 1310 1311
l 1311 1312
l 1312 1313
l 1313 1314
l 1314 1315
l 1315 1316
l 1316 1317
l 1317 1318
l 1318 1319
l 1319 1320
l 1320 1321
l 1321 1322
l 1322 1323
l 1323 1324
l 1324 1325
l 1325 1326
l 1326 1327
l 1327 1328
l 1328 1329
l 1329 1330
l 1330 1331
l 1331 1332
l 1332 1333
l 1333 1334
l 1334 1335
l 1335 1336
l 1336 1337
l 1337 1338
l 1338 1339
l 1339 1340
l 1340 1341
l 1341 1342
l 1342 1343
l 1343 1344
l 1344 1345
l 1345 1346
l 1346 1347
l 1347 1348
l 1348 1349
l 1349 1350
l 1350 1351
l 1351 1352
l 1352 1353
l 1353 1354
l 1354 1355
l 1355 1356
l 1356 1357
l 1357 1358
l 1358 1359
l 1359 1360
l 1360 1361
l 1361 1362
l 1362 1363
l 1363 1364
l 1364 1365
l 1365 1366
l 1366 1367
l 1367 1368
l 1368 1369
l 1369 1370
l 1370 1371
l 1371 1372
l 1372 1373
l 1373 1374
l 1374 1375
l 1375 1376
l 1376 1377
l 1377 1378
l 1378 1379
l 1379 1380
l 1380 1381
l 1381 1382
l 1382 1383
l 1383 1384
l 1384 1385
l 1385 1386
l 1386 1387
l 1387 1388
l 1388 1389
l 1389 1390
l 1390 1391
l 1391 1392
l 1392 1393
l 1393 1394
l 1394 1395
l 1395 1396
l 1396 1397
l 1397 1398
l 1398 1399
l 1399 1400
l 1400 1401
l 1401 1402
l 1402 1403
l 1403 1404
l 1404 1405
l 1405 1406
l 1406 1407
l 1407 1408
l 1408 1409
l 1409 1410
l 1410 1411
l 1411 1412
l 1412 1413
l 1413 1414
l 1414 1415
l 1415 1416
l 1416 1417
l 1417 1418
l 1418 1419
l 1419 1420
l 1420 1421
l 1421 1422
l 1422 1423
l 1423 1424
l 1424 1425
l 1425 1426
l 1426 1427
l 1427 1428
l 1428 1429
l 1429 1430
l 1430 1431
l 1431 1432
l 1432 1433
l 1433 1434
l 1434 1435
l 1435 1436
l 1436 1437
l 1437 1438
l 1438 1439
l 1439 1440
l 1440 1441
l 1441 1442
l 1442 1443
l 1443 1444
l 1444 1445
l 1445 1446
l 1446 1447
l 1447 1448
l 1448 1449
l 1449 1450
l 1450 1451
l 1451 1452
l 1452 1453
l 1453 1454
l 1454 1455
l 1455 1456
l 1456 1457
l 1457 1458
l 1458 1459
l 1459 1460
l 1460 1461
l 1461 1462
l 1462 1463
l 1463 1464
l 1464 1465
l 1465 1466
l 1466 1467
l 1467 1468
l 1468 1469
l 1469 1470
l 1470 1471
l 1471 1472
l 1472 1473
l 1473 1474
l 1474 1475
l 1475 1476
l 1476 1477
l 1477 1478
l 1478 1479
l 1479 1480
l 1480 1481
l 1481 1482
l 1482 1483
l 1483 1484
l 1484 1485
l 1485 1486
l 1486 1487
l 1487 1488
l 1488 1489
l 1489 1490
l 1490 1491
l 1491 1492
l 1492 1493
l 1493 1494
l 1494 1495
l 1495 1496
l 1496 1497
l 1497 1498
l 1498 1499
l 1499 1500
l 1500 1501
