# Hopf drift winding d48_180, 10 circuits (canonical 1501-point polyline)
o drift
v 0.000000000 1.000000000 0.000000000
v -0.014701940 0.999477536 -0.015022922
v -0.029383586 0.998220794 -0.030021069
v -0.044027170 0.996231569 -0.044976569
v -0.058615001 0.993512651 -0.059871640
v -0.073129506 0.990067820 -0.074688621
v -0.087549245 0.985875598 -0.089405812
v -0.101847670 0.980898764 -0.103996287
v -0.116016853 0.975213747 -0.118452531
v -0.130040023 0.968828361 -0.132757723
v -0.143900699 0.961751341 -0.146895344
v -0.157578538 0.953978012 -0.160844915
v -0.171034373 0.945448569 -0.174566700
v -0.184275825 0.936260341 -0.188068962
v -0.197287934 0.926425749 -0.201336748
v -0.210056196 0.915957986 -0.214355574
v -0.222531255 0.904792448 -0.227075457
v -0.234720484 0.893001550 -0.239504274
v -0.246620777 0.880624066 -0.251639166
v -0.258215120 0.867667973 -0.263463116
v -0.269440279 0.854066083 -0.274912220
v -0.280336797 0.839931559 -0.286027946
v -0.290894313 0.825282416 -0.296800039
v -0.301035334 0.810046708 -0.307150288
v -0.310808948 0.794330742 -0.317128703
v -0.320196869 0.778143805 -0.326717042
v -0.329136878 0.761449145 -0.335852702
v -0.337688544 0.744346063 -0.344596160
v -0.345772834 0.726787400 -0.352867920
v -0.353433323 0.708846433 -0.360712242
v -0.360622605 0.690513840 -0.368081639
v -0.367360023 0.671835005 -0.374995900
v -0.373605841 0.652812368 -0.381415348
v -0.379396244 0.633498170 -0.387376699
v -0.384658063 0.613878616 -0.392806734
v -0.389449875 0.594015593 -0.397764672
v -0.393731800 0.573915697 -0.402210799
v -0.397489041 0.553602915 -0.406130670
v -0.400744820 0.533113820 -0.409547958
v -0.403488292 0.512470652 -0.412452174
v -0.405696644 0.491694968 -0.414820907
v -0.407370587 0.470815822 -0.416655336
v -0.408518731 0.449862014 -0.417964529
v -0.409136923 0.428859634 -0.418744817
v -0.409222787 0.407835315 -0.418994330
v -0.408775666 0.386815909 -0.418712944
v -0.407796544 0.365828187 -0.417902192
v -0.406287253 0.344898695 -0.416564473
v -0.404228576 0.324058224 -0.414681336
v -0.401645966 0.303330054 -0.412278703
v -0.398546462 0.282738723 -0.409364195
v -0.394907188 0.262318913 -0.405915901
v -0.390758900 0.242088060 -0.401964966
v -0.386083313 0.222081727 -0.397494132
v -0.380905655 0.202317068 -0.392529081
v -0.375220800 0.182824907 -0.387065606
v -0.369030605 0.163634281 -0.381106448
v -0.362350387 0.144765759 -0.374667558
v -0.355186705 0.126244885 -0.367756302
v -0.347547070 0.108096852 -0.360381000
v -0.339432878 0.090352827 -0.352544048
v -0.330864476 0.073027533 -0.344266267
v -0.321846319 0.056149854 -0.335553015
v -0.312392363 0.039739548 -0.326418835
v -0.302506367 0.023828375 -0.316868408
v -0.292206529 0.008431838 -0.306920269
v -0.281504360 -0.006426878 -0.296586427
v -0.270411220 -0.020723481 -0.285878649
v -0.258939812 -0.034434593 -0.274809865
v -0.247108174 -0.047545056 -0.263397917
v -0.234928602 -0.060029783 -0.251654961
v -0.222416323 -0.071867198 -0.239595693
v -0.209588998 -0.083039679 -0.227236808
v -0.196462469 -0.093524451 -0.214592903
v -0.183057569 -0.103309357 -0.201682899
v -0.169390182 -0.112367876 -0.188520480
v -0.155482244 -0.120687711 -0.175124559
v -0.141354222 -0.128250631 -0.161511994
v -0.127028304 -0.135041481 -0.147700607
v -0.112526307 -0.141039083 -0.133706968
v -0.097874021 -0.146236725 -0.119550886
v -0.083095850 -0.150616669 -0.105249757
v -0.068218346 -0.154167300 -0.090822256
v -0.053269142 -0.156879575 -0.076287321
v -0.038276608 -0.158741785 -0.061663564
v -0.023270310 -0.159749649 -0.046970323
v -0.008280285 -0.159899247 -0.032226743
v 0.006662424 -0.159182302 -0.017451852
v 0.021526968 -0.157603383 -0.002665113
v 0.036281463 -0.155159397 0.012114155
v 0.050894967 -0.151857248 0.026866647
v 0.065335952 -0.147700606 0.041572941
v 0.079573708 -0.142697731 0.056213702
v 0.093578725 -0.136860594 0.070769866
v 0.107321581 -0.130200230 0.085222186
v 0.120773827 -0.122729898 0.099551472
v 0.133908344 -0.114465329 0.113738725
v 0.146699807 -0.105425011 0.127765363
v 0.159125278 -0.095630521 0.141613566
v 0.171158352 -0.085095465 0.155263302
v 0.182780329 -0.073846666 0.168697968
v 0.193970136 -0.061904798 0.181899340
v 0.204709144 -0.049293318 0.194850061
v 0.214980044 -0.036036317 0.207533112
v 0.224764361 -0.022155586 0.219930356
v 0.234049018 -0.007678806 0.232026474
v 0.242820245 0.007368406 0.243805464
v 0.251065122 0.022960291 0.255251555
v 0.258774247 0.039068464 0.266351010
v 0.265929118 0.055673173 0.277083812
v 0.272530639 0.072738190 0.287442658
v 0.278564777 0.090240843 0.297410124
v 0.284022877 0.108154022 0.306972184
v 0.288900444 0.126448180 0.316117648
v 0.293187446 0.145097536 0.324831199
v 0.296886270 0.164069481 0.333106602
v 0.299989938 0.183337362 0.340930725
v 0.302495875 0.202872192 0.348293619
v 0.304395441 0.222647506 0.355180513
v 0.305695305 0.242631065 0.361588646
v 0.306392529 0.262794733 0.367507733
v 0.306486750 0.283109503 0.372929493
v 0.305980492 0.303545898 0.377848051
v 0.304879464 0.324074490 0.382260360
v 0.303167900 0.344667868 0.386144699
v 0.300868486 0.365294637 0.389512603
v 0.297981771 0.385926603 0.392356686
v 0.294506874 0.406534343 0.394667927
v 0.290450688 0.427088841 0.396444362
v 0.285833102 0.447563447 0.397696310
v 0.280640745 0.467926220 0.398402856
v 0.274886669 0.488148988 0.398567773
v 0.268587696 0.508205795 0.398198831
v 0.261751076 0.528068529 0.397294634
v 0.254385666 0.547709365 0.395855308
v 0.246501926 0.567101027 0.393882574
v 0.238111879 0.586217074 0.391379787
v 0.229229036 0.605032200 0.388351960
v 0.219868287 0.623522543 0.384805746
v 0.210039869 0.641661097 0.380742765
v 0.199739351 0.659406117 0.376147402
v 0.189006982 0.676754228 0.371054748
v 0.177862026 0.693688365 0.365477296
v 0.166299703 0.710164589 0.359398527
v 0.154337985 0.726159045 0.352827899
v 0.142020812 0.741686790 0.345808969
v 0.129322602 0.756667364 0.338296443
v 0.116297891 0.771132921 0.330348136
v 0.102946905 0.785037722 0.321951548
v 0.089292109 0.798366921 0.313122700
v 0.075354787 0.811109386 0.303877593
v 0.061151309 0.823239268 0.294223743
v 0.046700503 0.834739232 0.284173234
v 0.032031756 0.845618804 0.273755083
v 0.017145792 0.855803693 0.262949342
v 0.002090846 0.865375685 0.251821991
v -0.013143180 0.874199693 0.240326523
v -0.028512104 0.882363284 0.228526885
v -0.043998763 0.889844458 0.216432400
v -0.059593775 0.896548792 0.204025337
v -0.075261453 0.902575848 0.191365347
v -0.090985769 0.907877969 0.178453631
v -0.106747589 0.912385825 0.165288183
v -0.122521396 0.916190595 0.151917196
v -0.138288115 0.919274484 0.138352892
v -0.154021413 0.921521059 0.124586690
v -0.169704572 0.923048739 0.110666427
v -0.185318700 0.923854466 0.096608243
v -0.200832488 0.923852744 0.082416607
v -0.216227922 0.923079764 0.068117745
v -0.231492211 0.921582639 0.053736208
v -0.246606588 0.919361958 0.039289039
v -0.261520219 0.916295536 0.024788099
v -0.276242079 0.912513184 0.010261279
v -0.290754246 0.908019424 -0.004274054
v -0.305026743 0.902784768 -0.018799114
v -0.319020521 0.896764708 -0.033291123
v -0.332747664 0.890054868 -0.047734460
v -0.346191731 0.882663901 -0.062111951
v -0.359302013 0.874528715 -0.076395488
v -0.372072012 0.865689182 -0.090568192
v -0.384507576 0.856202835 -0.104619398
v -0.396586993 0.846069603 -0.118529618
v -0.408240921 0.835214662 -0.132257259
v -0.419514450 0.823756143 -0.145810156
v -0.430395172 0.811709031 -0.159173022
v -0.440802800 0.798997366 -0.172294766
v -0.450777836 0.785715791 -0.185185606
v -0.460322648 0.771899090 -0.197838067
v -0.469349630 0.757478159 -0.210192610
v -0.477909776 0.742546389 -0.222269235
v -0.485998839 0.727128939 -0.234057200
v -0.493527567 0.711170720 -0.245491652
v -0.500579253 0.694782055 -0.256616908
v -0.507079667 0.677928029 -0.267376045
v -0.513047753 0.660654798 -0.277773365
v -0.518481378 0.642990429 -0.287799265
v -0.523338665 0.624934659 -0.297416322
v -0.527662313 0.606545069 -0.306647006
v -0.531390255 0.587812444 -0.315438295
v -0.534568578 0.568791956 -0.323816373
v -0.537157468 0.549490357 -0.331743790
v -0.539164284 0.529940943 -0.339218079
v -0.540613176 0.510178898 -0.346251280
v -0.541432315 0.490208202 -0.352778117
v -0.541689758 0.470078882 -0.358845883
v -0.541374345 0.449812446 -0.364438808
v -0.540432495 0.429427045 -0.369504142
v -0.538916963 0.408961082 -0.374078694
v -0.536823500 0.388440218 -0.378151800
v -0.534149859 0.367891433 -0.381714244
v -0.530895806 0.347342656 -0.384758377
v -0.527062318 0.326822483 -0.387277475
v -0.522651828 0.306359998 -0.389266004
v -0.517678186 0.285982543 -0.390729116
v -0.512138673 0.265720069 -0.391656496
v -0.506045607 0.245599890 -0.392051980
v -0.499409163 0.225649095 -0.391917577
v -0.492240783 0.205893842 -0.391256695
v -0.484553022 0.186359220 -0.390074041
v -0.476330727 0.167084651 -0.388345847
v -0.467611022 0.148083865 -0.386101796
v -0.458392999 0.129390156 -0.383332505
v -0.448694808 0.111025389 -0.380048627
v -0.438517812 0.093024237 -0.376242512
v -0.427888380 0.075401904 -0.371933935
v -0.416815573 0.058186877 -0.367123775
v -0.405311483 0.041406204 -0.361816021
v -0.393390663 0.025085143 -0.356017341
v -0.381069611 0.009246937 -0.349736674
v -0.368366314 -0.006087306 -0.342984842
v -0.355299855 -0.020898656 -0.335774201
v -0.341881126 -0.035155028 -0.328106405
v -0.328134793 -0.048846071 -0.320000969
v -0.314072089 -0.061937401 -0.311459207
v -0.299717490 -0.074418783 -0.302500404
v -0.285089196 -0.086267970 -0.293135086
v -0.270207309 -0.097465930 -0.283376209
v -0.255092588 -0.107994661 -0.273237456
v -0.239764047 -0.117828706 -0.262728877
v -0.224246734 -0.126961744 -0.251870650
v -0.208561614 -0.135372743 -0.240675284
v -0.192731211 -0.143042987 -0.229156986
v -0.176779471 -0.149957620 -0.217331892
v -0.160731202 -0.156105169 -0.205217419
v -0.144611560 -0.161475148 -0.192831129
v -0.128445775 -0.166048135 -0.180187722
v -0.112260689 -0.169816567 -0.167305941
v -0.096083517 -0.172770654 -0.154203641
v -0.079942299 -0.174900320 -0.140898614
v -0.063866146 -0.176195187 -0.127408714
v -0.047884126 -0.176654194 -0.113753681
v -0.032026914 -0.176268765 -0.099951626
v -0.016325571 -0.175035685 -0.086021701
v -0.000811229 -0.172955471 -0.071983458
v 0.014484294 -0.170028810 -0.057856310
v 0.029527957 -0.166255647 -0.043659644
v 0.044288236 -0.161643570 -0.029413426
v 0.058733488 -0.156200880 -0.015137452
v 0.072830805 -0.149934331 -0.000851524
v 0.086549189 -0.142856549 0.013424393
v 0.099859270 -0.134983688 0.027670483
v 0.112729543 -0.126328258 0.041866655
v 0.125132670 -0.116910425 0.055993135
v 0.137042042 -0.106750849 0.070030228
v 0.148431837 -0.095870866 0.083958214
v 0.159278079 -0.084293808 0.097757531
v 0.169559096 -0.072045106 0.111408942
v 0.179254388 -0.059150649 0.124893272
v 0.188343498 -0.045635779 0.138190983
v 0.196811679 -0.031530664 0.151284025
v 0.204643532 -0.016863669 0.164153910
v 0.211824657 -0.001663290 0.176782165
v 0.218344035 0.014040071 0.189151283
v 0.224192886 0.030215405 0.201244465
v 0.229357620 0.046835471 0.213042545
v 0.233834985 0.063866989 0.224530575
v 0.237618850 0.081279433 0.235692245
v 0.240704635 0.099042017 0.246511797
v 0.243091671 0.117122808 0.256975346
v 0.244767346 0.135495072 0.267062472
v 0.245744652 0.154122374 0.276766339
v 0.246017803 0.172976219 0.286070014
v 0.245585199 0.192026399 0.294958537
v 0.244454203 0.211240715 0.303422243
v 0.242621189 0.230589665 0.311444648
v 0.240098727 0.250040986 0.319019458
v 0.236894902 0.269564340 0.326137932
v 0.233003771 0.289130129 0.332781463
v 0.228442124 0.308707433 0.338947094
v 0.223219426 0.328266471 0.344627060
v 0.217341641 0.347777392 0.349810971
v 0.210817390 0.367210268 0.354490256
v 0.203658105 0.386535520 0.358658496
v 0.195878125 0.405724461 0.362311774
v 0.187494738 0.424749930 0.365449023
v 0.178513415 0.443581393 0.368058963
v 0.168946648 0.462189317 0.370135850
v 0.158824713 0.480552986 0.371691128
v 0.148143045 0.498635333 0.372702989
v 0.136932584 0.516416930 0.373183983
v 0.125216435 0.533876245 0.373139966
v 0.112989976 0.550971903 0.372546919
v 0.100286156 0.567688208 0.371420700
v 0.087126747 0.584003076 0.369765929
v 0.073529861 0.599891471 0.367583118
v 0.059514992 0.615329279 0.364874243
v 0.045102911 0.630293526 0.361642767
v 0.030315525 0.644762600 0.357893665
v 0.015175717 0.658716470 0.353633399
v -0.000292864 0.672136881 0.348869885
v -0.016066023 0.685007545 0.343612417
v -0.032123420 0.697304838 0.337863854
v -0.048449767 0.708988165 0.331614949
v -0.065006459 0.720072925 0.324901217
v -0.081768386 0.730550760 0.317736597
v -0.098720573 0.740376934 0.310109566
v -0.115835965 0.749536173 0.302032025
v -0.133080431 0.758061327 0.293544994
v -0.150440391 0.765877098 0.284620716
v -0.167882496 0.773013651 0.275298318
v -0.185382721 0.779467237 0.265593282
v -0.202916939 0.785177752 0.255493065
v -0.220458387 0.790220110 0.245054367
v -0.237979410 0.794478752 0.234239543
v -0.255460095 0.798070182 0.223121099
v -0.272864445 0.800862493 0.211659271
v -0.290180658 0.802973256 0.199921238
v -0.307368035 0.804295457 0.187883063
v -0.324415566 0.804906143 0.175591144
v -0.341289831 0.804764016 0.163049063
v -0.357965106 0.803865681 0.150273743
v -0.374434816 0.802273158 0.137300883
v -0.390635921 0.799867244 0.124116643
v -0.406590596 0.796785747 0.110773727
v -0.422241955 0.792942990 0.097270569
v -0.437578177 0.788372969 0.083632690
v -0.452604372 0.783139243 0.069888105
v -0.467228215 0.777107903 0.056036841
v -0.481499285 0.770426571 0.042116662
v -0.495374179 0.763060579 0.028141693
v -0.508802452 0.754972110 0.014129587
v -0.521822203 0.746263393 0.000103766
v -0.534360274 0.736866798 -0.013916549
v -0.546418894 0.726826071 -0.027911152
v -0.558018881 0.716203299 -0.041864139
v -0.569050955 0.704902186 -0.055744452
v -0.579585271 0.693041226 -0.069543766
v -0.589586855 0.680613541 -0.083240207
v -0.598992286 0.667588106 -0.096803361
v -0.607870512 0.654064390 -0.110233524
v -0.616124522 0.639984948 -0.123489164
v -0.623796538 0.625418057 -0.136566798
v -0.630876948 0.610385051 -0.149448856
v -0.637299250 0.594865585 -0.162097398
v -0.643150085 0.578950406 -0.174529878
v -0.648294361 0.562578855 -0.186678866
v -0.652849961 0.545853615 -0.198578464
v -0.656711939 0.528741835 -0.210169204
v -0.659951416 0.511309341 -0.221469748
v -0.662498293 0.493549866 -0.232432602
v -0.664410407 0.475516261 -0.243073293
v -0.665617653 0.457208255 -0.253341368
v -0.666200929 0.438681811 -0.263267470
v -0.666053468 0.419930222 -0.272777904
v -0.665279751 0.401011651 -0.281919256
v -0.663809157 0.381934312 -0.290636543
v -0.661670026 0.362733624 -0.298932710
v -0.658891477 0.343439681 -0.306813907
v -0.655415604 0.324073407 -0.314228080
v -0.651286838 0.304668530 -0.321190654
v -0.646519912 0.285252204 -0.327698896
v -0.641114830 0.265851211 -0.333739653
v -0.635045074 0.246496861 -0.339278453
v -0.628347922 0.227216512 -0.344328761
v -0.621034510 0.208037576 -0.348885193
v -0.613112386 0.188988179 -0.352939445
v -0.604591039 0.170096486 -0.356484615
v -0.595481795 0.151390437 -0.359515253
v -0.585797682 0.132897510 -0.362027389
v -0.575553289 0.114644501 -0.364018528
v -0.564764601 0.096657343 -0.365487628
v -0.553445046 0.078963295 -0.366431178
v -0.541595207 0.061598941 -0.366831898
v -0.529254257 0.044576077 -0.366712419
v -0.516441237 0.027917138 -0.366075695
v -0.503147054 0.011670170 -0.364891986
v -0.489425248 -0.004171591 -0.363203352
v -0.475262556 -0.019551641 -0.360973013
v -0.460703810 -0.034472636 -0.358234785
v -0.445763441 -0.048906348 -0.354985611
v -0.430453167 -0.062816699 -0.351216722
v -0.414803614 -0.076193897 -0.346945708
v -0.398836589 -0.089016686 -0.342178270
v -0.382574875 -0.101265111 -0.336921454
v -0.366039313 -0.112913896 -0.331178350
v -0.349254749 -0.123945267 -0.324958557
v -0.332249274 -0.134351826 -0.318278987
v -0.315042325 -0.144099599 -0.311137522
v -0.297663772 -0.153187886 -0.303555528
v -0.280136964 -0.161592680 -0.295538425
v -0.262487931 -0.169296914 -0.287096843
v -0.244744161 -0.176292308 -0.278246598
v -0.226931864 -0.182557781 -0.268996333
v -0.209079124 -0.188089024 -0.259363963
v -0.191213411 -0.192874391 -0.249363277
v -0.173362765 -0.196899889 -0.239007139
v -0.155555977 -0.200154905 -0.228310333
v -0.137821743 -0.202634709 -0.217290136
v -0.120189308 -0.204331595 -0.205962449
v -0.102689596 -0.205232917 -0.194341562
v -0.085350754 -0.205344431 -0.182448328
v -0.068205888 -0.204650992 -0.170296387
v -0.051284351 -0.203157297 -0.157905894
v -0.034617752 -0.200861090 -0.145294579
v -0.018237640 -0.197763118 -0.132480953
v -0.002178047 -0.193860634 -0.119482742
v 0.013532098 -0.189165364 -0.106320737
v 0.028856948 -0.183675416 -0.093012770
v 0.043766181 -0.177402840 -0.079579251
v 0.058227317 -0.170356722 -0.066039805
v 0.072208285 -0.162548592 -0.052414316
v 0.085677776 -0.153992583 -0.038722865
v 0.098605318 -0.144705146 -0.024985636
v 0.110959186 -0.134702322 -0.011222839
v 0.122712071 -0.124006466 0.002545083
v 0.133837241 -0.112640745 0.016297813
v 0.144308744 -0.100629388 0.030015052
v 0.154101062 -0.087997392 0.043676383
v 0.163191876 -0.074772787 0.057261499
v 0.171561935 -0.060985819 0.070750366
v 0.179193058 -0.046667053 0.084123009
v 0.186067721 -0.031847189 0.097359327
v 0.192171443 -0.016558570 0.110439496
v 0.197496635 -0.000836671 0.123345055
v 0.202026087 0.015288778 0.136055040
v 0.205757832 0.031780878 0.148551952
v 0.208684257 0.048606435 0.160816737
v 0.210801201 0.065731367 0.172831054
v 0.212108613 0.083120944 0.184577721
v 0.212599905 0.100742916 0.196037049
v 0.212284716 0.118561243 0.207194999
v 0.211159695 0.136543863 0.218032642
v 0.209230786 0.154657067 0.228534427
v 0.206501621 0.172868032 0.238683722
v 0.202980831 0.191143785 0.248465991
v 0.198683922 0.209452004 0.257870264
v 0.193605352 0.227761013 0.266874891
v 0.187767540 0.246039271 0.275472350
v 0.181179976 0.264255819 0.283648628
v 0.173854802 0.282380013 0.291391056
v 0.165807881 0.300382087 0.298689234
v 0.157053780 0.318232506 0.305532096
v 0.147600592 0.335899729 0.311903885
v 0.137480203 0.353359492 0.317805421
v 0.126698685 0.370579882 0.323219475
v 0.115276737 0.387533606 0.328139091
v 0.103238844 0.404195749 0.332560678
v 0.090603762 0.420539233 0.336476307
v 0.077392704 0.436538249 0.339880060
v 0.063629248 0.452168766 0.342768313
v 0.049339146 0.467409087 0.345140011
v 0.034529289 0.482221337 0.346974151
v 0.019243082 0.496598111 0.348287730
v 0.003501951 0.510515343 0.349075931
v -0.012676912 0.523941778 0.349327149
v -0.029258291 0.536867388 0.349052544
v -0.046214788 0.549274347 0.348254303
v -0.063532875 0.561122452 0.346913178
v -0.081169866 0.572416783 0.345053839
v -0.099100314 0.583137359 0.342676098
v -0.117297555 0.593265295 0.339781085
v -0.135734707 0.602780363 0.336369174
v -0.154383378 0.611663812 0.332442458
v -0.173210743 0.619912010 0.328015035
v -0.192187473 0.627512801 0.323093745
v -0.211284586 0.634451271 0.317683466
v -0.230472744 0.640707797 0.311786220
v -0.249720026 0.646282701 0.305418234
v -0.268996223 0.651170745 0.298591283
v -0.288271704 0.655368685 0.291318146
v -0.307517664 0.658875223 0.283612454
v -0.326703035 0.661665415 0.275473679
v -0.345794487 0.663723672 0.266908486
v -0.364768103 0.665086782 0.257952711
v -0.383598357 0.665758323 0.248621507
v -0.402235512 0.665657862 0.238887847
v -0.420672376 0.664872677 0.228811838
v -0.438878097 0.663386481 0.218398472
v -0.456803657 0.661149106 0.207639961
v -0.474455286 0.658249345 0.196590645
v -0.491768046 0.654604310 0.185229582
v -0.508745664 0.650287663 0.173602586
v -0.525347145 0.645273981 0.161713858
v -0.541545778 0.639572679 0.149582958
v -0.557331100 0.633214025 0.137234766
v -0.572651862 0.626169328 0.124676539
v -0.587520543 0.618499532 0.111941457
v -0.601871096 0.610160793 0.099034431
v -0.615728118 0.601223511 0.085988651
v -0.629022860 0.591647251 0.072812606
v -0.641779620 0.581495519 0.059535173
v -0.653939670 0.570744605 0.046170612
v -0.665514808 0.559440303 0.032742638
v -0.676467878 0.547583295 0.019270430
v -0.686788004 0.535196540 0.005774341
v -0.696468256 0.522307257 -0.007724506
v -0.705468591 0.508915746 -0.021205726
v -0.713816589 0.495073025 -0.034650193
v -0.721441528 0.480761338 -0.048033747
v -0.728404356 0.466048962 -0.061342918
v -0.734607975 0.450907808 -0.074546945
v -0.740139571 0.435414522 -0.087640169
v -0.744886067 0.419539926 -0.100584494
v -0.748947767 0.403359445 -0.113381669
v -0.752211815 0.386851855 -0.125988570
v -0.754773079 0.370082769 -0.138410565
v -0.756540094 0.353046079 -0.150605545
v -0.757579330 0.335791573 -0.162574815
v -0.757845595 0.318332055 -0.174287359
v -0.757350983 0.300699383 -0.185728700
v -0.756123618 0.282924543 -0.196893004
v -0.754093834 0.265024231 -0.207734451
v -0.751355120 0.247038522 -0.218274246
v -0.747835332 0.228986406 -0.228463865
v -0.743573655 0.210900243 -0.238302185
v -0.738602814 0.192806538 -0.247788616
v -0.732866732 0.174734167 -0.256876383
v -0.726411504 0.156711590 -0.265570383
v -0.719260883 0.138764041 -0.273866364
v -0.711418920 0.120918325 -0.281749164
v -0.702850886 0.103211863 -0.289177312
v -0.693614860 0.085664415 -0.296167377
v -0.683721707 0.068302955 -0.302707562
v -0.673182977 0.051154878 -0.308786160
v -0.662012205 0.034247505 -0.314392524
v -0.650224832 0.017607855 -0.319517182
v -0.637838103 0.001262425 -0.324151922
v -0.624870933 -0.014763008 -0.328289853
v -0.611343753 -0.030443567 -0.331925441
v -0.597278346 -0.045755429 -0.335054530
v -0.582697667 -0.060675958 -0.337674331
v -0.567625664 -0.075183811 -0.339783401
v -0.552073407 -0.089245027 -0.341365788
v -0.536069164 -0.102840446 -0.342423668
v -0.519650024 -0.115963089 -0.342971438
v -0.502822412 -0.128569513 -0.342984852
v -0.485626947 -0.140659155 -0.342484206
v -0.468078615 -0.152195362 -0.341453954
v -0.450215872 -0.163179274 -0.339914416
v -0.432054177 -0.173570816 -0.337848166
v -0.413627514 -0.183363365 -0.335268382
v -0.394964926 -0.192542899 -0.332181065
v -0.376094162 -0.201091632 -0.328589195
v -0.357044276 -0.208994405 -0.324498089
v -0.337845099 -0.216238675 -0.319915123
v -0.318526803 -0.222814450 -0.314849455
v -0.299117644 -0.228693057 -0.309297477
v -0.279650695 -0.233885002 -0.303282749
v -0.260155683 -0.238365338 -0.296804731
v -0.240663816 -0.242136582 -0.289880932
v -0.221206149 -0.245184537 -0.282518193
v -0.201814688 -0.247498367 -0.274725891
v -0.182521014 -0.249075154 -0.266518099
v -0.163357245 -0.249908727 -0.257907000
v -0.144354168 -0.250000486 -0.248908752
v -0.125544827 -0.249342952 -0.239534883
v -0.106959948 -0.247938947 -0.229802069
v -0.088634842 -0.245778971 -0.219721255
v -0.070599392 -0.242871129 -0.209311519
v -0.052886978 -0.239214805 -0.198587859
v -0.035531020 -0.234811568 -0.187566285
v -0.018560350 -0.229673016 -0.176266511
v -0.002013149 -0.223794909 -0.164702285
v 0.014082269 -0.217192172 -0.152894197
v 0.029692701 -0.209872329 -0.140859951
v 0.044786208 -0.201846391 -0.128618243
v 0.059330279 -0.193126067 -0.116187821
v 0.073292403 -0.183724684 -0.103587761
v 0.086644035 -0.173661290 -0.090838299
v 0.099354545 -0.162953526 -0.077959044
v 0.111391479 -0.151618890 -0.064969569
v 0.122729139 -0.139682243 -0.051890576
v 0.133339983 -0.127167464 -0.038742357
v 0.143198135 -0.114100633 -0.025545380
v 0.152279407 -0.100509768 -0.012320207
v 0.160559396 -0.086423500 0.000912509
v 0.168019223 -0.071874307 0.014132049
v 0.174640668 -0.056895107 0.027317765
v 0.180407475 -0.041519932 0.040449042
v 0.185305700 -0.025783883 0.053505324
v 0.189323960 -0.009722980 0.066466173
v 0.192453739 0.006626009 0.079311362
v 0.194687004 0.023226449 0.092020541
v 0.196018750 0.040041097 0.104573557
v 0.196451676 0.057031735 0.116951596
v 0.195980618 0.074162150 0.129134082
v 0.194610606 0.091394929 0.141102354
v 0.192347098 0.108693485 0.152837821
v 0.189196962 0.126021864 0.164322162
v 0.185166669 0.143344629 0.175536732
v 0.180266017 0.160626780 0.186463655
v 0.174509460 0.177834368 0.197086625
v 0.167910558 0.194934144 0.207389052
v 0.160481698 0.211893111 0.217353737
v 0.152239002 0.228679223 0.226964815
v 0.143202674 0.245262024 0.236208309
v 0.133393076 0.261612004 0.245070591
v 0.122823206 0.277697330 0.253534043
v 0.111519478 0.293491195 0.261588062
v 0.099504545 0.308966219 0.269220344
v 0.086799940 0.324094816 0.276417919
v 0.073430357 0.338851241 0.283169808
v 0.059423631 0.353212283 0.289467521
v 0.044798790 0.367149083 0.295296027
v 0.029588468 0.380642169 0.300650539
v 0.013817095 0.393666726 0.305520143
v -0.002480678 0.406207157 0.309903159
v -0.019283424 0.418235831 0.313785701
v -0.036560736 0.429733205 0.317161997
v -0.054278499 0.440685007 0.320030982
v -0.072405944 0.451074087 0.322388592
v -0.090915059 0.460878819 0.324226800
v -0.109774602 0.470081054 0.325540888
v -0.128946524 0.478676578 0.326337897
v -0.148397575 0.486655998 0.326619870
v -0.168105674 0.493978236 0.326363191
v -0.188022283 0.500674823 0.325603231
v -0.208128769 0.506685394 0.324301622
v -0.228379581 0.512045217 0.322495617
v -0.248745504 0.516727889 0.320173962
v -0.269193507 0.520713128 0.317330794
v -0.289686980 0.524017100 0.313987317
v -0.310192864 0.526631699 0.310146403
v -0.330677562 0.528550420 0.305812214
v -0.351107113 0.529768441 0.300990219
v -0.371446456 0.530277422 0.295683655
v -0.391662530 0.530084211 0.289906124
v -0.411722735 0.529192646 0.283668956
v -0.431592561 0.527598983 0.276978548
v -0.451237736 0.525303405 0.269844061
v -0.470627306 0.522315659 0.262280633
v -0.489730284 0.518643266 0.254301830
v -0.508516862 0.514295296 0.245922016
v -0.526958545 0.509282224 0.237156221
v -0.545028261 0.503615768 0.228019997
v -0.562672712 0.497268347 0.218507633
v -0.579879796 0.490280177 0.208651180
v -0.596631974 0.482675804 0.198472880
v -0.612903918 0.474466906 0.187987808
v -0.628622029 0.465613843 0.177186988
v -0.643812496 0.456191924 0.166117530
v -0.658457631 0.446219002 0.154796931
v -0.672461804 0.435644524 0.143214216
v -0.685875082 0.424554590 0.131417932
v -0.698665281 0.412954481 0.119420394
v -0.710757043 0.400823048 0.107226369
v -0.722208419 0.388237482 0.094875902
v -0.732938637 0.375174393 0.082373593
v -0.742955806 0.361674026 0.069746183
v -0.752273223 0.347773178 0.057016572
v -0.760790258 0.333449761 0.044195551
v -0.768598707 0.318781084 0.031314308
v -0.775594670 0.303747459 0.018386227
v -0.781825185 0.288400614 0.005435981
v -0.787272614 0.272760313 -0.007517575
v -0.791883875 0.256838465 -0.020451839
v -0.795740705 0.240688021 -0.033350453
v -0.798710213 0.224300214 -0.046184535
v -0.800904642 0.207732778 -0.058942369
v -0.802261838 0.190997779 -0.071598859
v -0.802778229 0.174124434 -0.084132107
v -0.802515758 0.157147314 -0.096533716
v -0.801352927 0.140081500 -0.108760741
v -0.799406532 0.122966089 -0.120816056
v -0.796643342 0.105824300 -0.132674245
v -0.793025332 0.088685732 -0.144304056
v -0.788630480 0.071576786 -0.155707211
v -0.783421716 0.054526094 -0.166853422
v -0.777391332 0.037565319 -0.177718002
v -0.770599108 0.020715616 -0.188301640
v -0.763043909 0.004004027 -0.198584713
v -0.754678901 -0.012528037 -0.208525242
v -0.745580361 -0.028866866 -0.218133637
v -0.735757408 -0.044986102 -0.227393502
v -0.725220922 -0.060859069 -0.236288693
v -0.713960124 -0.076448524 -0.244789809
v -0.702009889 -0.091733877 -0.252891426
v -0.689398507 -0.106694296 -0.260586226
v -0.676143743 -0.121304450 -0.267860900
v -0.662265150 -0.135539516 -0.274702994
v -0.647784004 -0.149375356 -0.281101015
v -0.632723205 -0.162788687 -0.287044526
v -0.617107148 -0.175757235 -0.292524224
v -0.600961589 -0.188259873 -0.297531996
v -0.584313477 -0.200276731 -0.302060968
v -0.567190789 -0.211789311 -0.306105521
v -0.549619290 -0.222776585 -0.309657683
v -0.531615567 -0.233203526 -0.312697118
v -0.513226105 -0.243074962 -0.315239762
v -0.494481803 -0.252378604 -0.317285260
v -0.475395376 -0.261067268 -0.318803712
v -0.456015339 -0.269158550 -0.319820687
v -0.436363034 -0.276616796 -0.320316808
v -0.416478055 -0.283449185 -0.320307915
v -0.396383437 -0.289614459 -0.319771177
v -0.376120209 -0.295127809 -0.318728522
v -0.355719072 -0.299973047 -0.317176938
v -0.335212608 -0.304136882 -0.315115990
v -0.314634572 -0.307607978 -0.312546958
v -0.294019568 -0.310381768 -0.309476140
v -0.273402041 -0.312450602 -0.305907627
v -0.252816379 -0.313813330 -0.301850079
v -0.232296319 -0.314470255 -0.297312998
v -0.211876870 -0.314412409 -0.292299693
v -0.191592811 -0.313637370 -0.286818005
v -0.171478609 -0.312146056 -0.280878015
v -0.151567471 -0.309942876 -0.274491879
v -0.131894945 -0.307025224 -0.267667397
v -0.112496104 -0.303394470 -0.260414963
v -0.093405042 -0.299055464 -0.252747065
v -0.074654533 -0.294016057 -0.244677838
v -0.056276505 -0.288285486 -0.236222025
v -0.038311067 -0.281860180 -0.227387371
v -0.020785453 -0.274759299 -0.218193980
v -0.003734353 -0.266990011 -0.208655271
v 0.012808494 -0.258562417 -0.198786191
v 0.028811220 -0.249490014 -0.188603263
v 0.044243918 -0.239789082 -0.178124112
v 0.059070202 -0.229470165 -0.167363559
v 0.073265105 -0.218556231 -0.156341829
v 0.086794340 -0.207062132 -0.145075273
v 0.099628782 -0.195008699 -0.133582609
v 0.111739721 -0.182417983 -0.121882729
v 0.123098623 -0.169313203 -0.109994688
v 0.133681915 -0.155721658 -0.097938650
v 0.143460169 -0.141668001 -0.085733578
v 0.152413379 -0.127183157 -0.073400146
v 0.160512560 -0.112294445 -0.060957727
v 0.167741057 -0.097036018 -0.048427339
v 0.174079266 -0.081441129 -0.035829456
v 0.179509729 -0.065544580 -0.023184719
v 0.184017429 -0.049382584 -0.010513897
v 0.187589799 -0.032992522 0.002162181
v 0.190216754 -0.016412716 0.014822663
v 0.191890769 0.000317781 0.027446713
v 0.192606988 0.017159399 0.040013551
v 0.192363383 0.034072286 0.052502500
v 0.191160940 0.051016564 0.064893072
v 0.188999545 0.067952419 0.077164448
v 0.185886860 0.084840341 0.089296594
v 0.181833291 0.101641770 0.101269963
v 0.176844137 0.118317911 0.113063870
v 0.170934747 0.134831688 0.124659334
v 0.164120271 0.151146830 0.136037345
v 0.156416542 0.167227809 0.147178932
v 0.147842888 0.183040666 0.158065961
v 0.138418831 0.198552182 0.168680292
v 0.128163540 0.213729327 0.179003405
v 0.117103886 0.228542962 0.189019531
v 0.105264284 0.242963795 0.198712146
v 0.092668636 0.256962705 0.208064402
v 0.079344071 0.270512774 0.217060794
v 0.065321003 0.283589990 0.225687669
v 0.050627575 0.296169603 0.233930396
v 0.035291879 0.308226906 0.241774093
v 0.019345693 0.319740669 0.249206238
v 0.002822896 0.330692450 0.256216129
v -0.014245667 0.341061492 0.262791087
v -0.031826801 0.350829754 0.268920272
v -0.049885222 0.359982509 0.274595107
v -0.068387388 0.368503552 0.279805762
v -0.087302509 0.376371511 0.284538529
v -0.106587298 0.383586863 0.288795529
v -0.126212265 0.390126393 0.292561506
v -0.146139847 0.395981440 0.295831731
v -0.166331395 0.401147933 0.298604700
v -0.186751234 0.405615514 0.300874292
v -0.207362672 0.409376354 0.302636170
v -0.228128367 0.412425408 0.303887955
v -0.249010782 0.414760658 0.304629389
v -0.269972711 0.416383296 0.304862455
v -0.290977960 0.417270273 0.304571876
v -0.311987711 0.417441455 0.303772905
v -0.332966254 0.416901718 0.302470047
v -0.353874028 0.415626928 0.300647305
v -0.374678224 0.413651866 0.298330321
v -0.395338414 0.410956898 0.295506302
v -0.415819490 0.407554655 0.292185219
v -0.436090467 0.403466482 0.288383100
v -0.456110143 0.398681330 0.284093270
v -0.475841020 0.393204414 0.279320492
v -0.495255498 0.387061872 0.274084107
v -0.514319396 0.380262585 0.268391389
v -0.532999047 0.372817113 0.262250796
v -0.551261469 0.364737676 0.255671942
v -0.569074529 0.356038090 0.248665560
v -0.586407110 0.346733710 0.241243441
v -0.603229246 0.336841329 0.233418375
v -0.619512261 0.326379082 0.225204069
v -0.635228873 0.315366327 0.216615059
v -0.650353282 0.303823504 0.207666617
v -0.664861229 0.291772011 0.198374647
v -0.678730026 0.279234046 0.188755582
v -0.691938560 0.266232467 0.178826282
v -0.704431645 0.252769736 0.168590101
v -0.716213507 0.238887333 0.158076406
v -0.727272886 0.224613684 0.147305727
v -0.737594632 0.209973932 0.136296383
v -0.747148510 0.194986608 0.125062436
v -0.755886043 0.179666315 0.113615685
v -0.763841179 0.164059561 0.101988206
v -0.771004192 0.148192314 0.090198746
v -0.777324574 0.132079966 0.078259731
v -0.782792646 0.115753110 0.066193201
v -0.787440422 0.099249115 0.054024782
v -0.791253073 0.082592621 0.041772432
v -0.794153339 0.065803063 0.029452235
v -0.796217081 0.048921329 0.017091031
v -0.797441889 0.031973491 0.004707427
v -0.797749100 0.014985236 -0.007678014
v -0.797198789 -0.002010265 -0.020043480
v -0.795807574 -0.018986137 -0.032370358
v -0.793528162 -0.035911517 -0.044635339
v -0.790372367 -0.052755453 -0.056816782
v -0.786385087 -0.069493971 -0.068898974
v -0.781561181 -0.086098781 -0.080861684
v -0.775847312 -0.102528014 -0.092673621
v -0.769323265 -0.118766824 -0.104326598
v -0.761996633 -0.134788730 -0.115802054
v -0.753855550 -0.150559843 -0.127075600
v -0.744893980 -0.166044080 -0.138121479
v -0.735167660 -0.181228881 -0.148932446
v -0.724689510 -0.196088179 -0.159490413
v -0.713473897 -0.210595965 -0.169777394
v -0.701515397 -0.224714068 -0.179766204
v -0.688845187 -0.238421925 -0.189443233
v -0.675497506 -0.251703261 -0.198798012
v -0.661492837 -0.264534289 -0.207814346
v -0.646853260 -0.276891870 -0.216476568
v -0.631602429 -0.288753669 -0.224769631
v -0.615765534 -0.300098286 -0.232679216
v -0.599369225 -0.310905392 -0.240191820
v -0.582441517 -0.321155861 -0.247294841
v -0.565011676 -0.330831870 -0.253976663
v -0.547110085 -0.339917013 -0.260226707
v -0.528768092 -0.348396367 -0.266035502
v -0.510017855 -0.356256570 -0.271394709
v -0.490892179 -0.363485855 -0.276297160
v -0.471413593 -0.370051510 -0.280720612
v -0.451623295 -0.375954777 -0.284667375
v -0.431560076 -0.381197624 -0.288140201
v -0.411252065 -0.385755288 -0.291122697
v -0.390733313 -0.389614626 -0.293606866
v -0.370045195 -0.392791493 -0.295605376
v -0.349215887 -0.395245552 -0.297090954
v -0.328287231 -0.397002398 -0.298083170
v -0.307292840 -0.398045795 -0.298571918
v -0.286269390 -0.398362749 -0.298549516
v -0.265253901 -0.397968026 -0.298027796
v -0.244282503 -0.396856636 -0.297004706
v -0.223392004 -0.395026686 -0.295480411
v -0.202619353 -0.392479252 -0.293457172
v -0.182001168 -0.389218177 -0.290939197
v -0.161573356 -0.385249868 -0.287932465
v -0.141370797 -0.380583058 -0.284444543
v -0.121434128 -0.375212192 -0.280473204
v -0.101794751 -0.369156596 -0.276033290
v -0.082490990 -0.362419215 -0.271128406
v -0.063553785 -0.355017726 -0.265772165
v -0.045023208 -0.346954300 -0.259967621
v -0.026931989 -0.338244807 -0.253727084
v -0.009312040 -0.328905623 -0.247063114
v 0.007800594 -0.318948288 -0.239984940
v 0.024372704 -0.308388923 -0.232504775
v 0.040378247 -0.297251116 -0.224639668
v 0.055776170 -0.285544240 -0.216397069
v 0.070543722 -0.273295623 -0.207796163
v 0.084647505 -0.260523302 -0.198849767
v 0.098056818 -0.247248747 -0.189572725
v 0.110743701 -0.233496140 -0.179981387
v 0.122682876 -0.219291793 -0.170093175
v 0.133845583 -0.204660637 -0.159924243
v 0.144207430 -0.189630828 -0.149492459
v 0.153740921 -0.174229990 -0.138814891
v 0.162426513 -0.158490035 -0.127910961
v 0.170241726 -0.142442254 -0.116799164
v 0.177166988 -0.126119809 -0.105498701
v 0.183180238 -0.109556175 -0.094028375
v 0.188267554 -0.092787835 -0.082408485
v 0.192414561 -0.075851713 -0.070659062
v 0.195607890 -0.058785665 -0.058800207
v 0.197834625 -0.041628614 -0.046852170
v 0.199090258 -0.024420828 -0.034835852
v 0.199368385 -0.007202835 -0.022771852
v 0.198665643 0.009984190 -0.010680930
v 0.196980881 0.027098619 0.001416058
v 0.194315603 0.044098540 0.013498166
v 0.190676693 0.060942517 0.025544537
v 0.186072261 0.077589362 0.037534396
v 0.180513455 0.093998568 0.049447109
v 0.174013713 0.110130378 0.061262176
v 0.166583925 0.125944026 0.072958500
v 0.158250153 0.141404533 0.084516957
v 0.149025229 0.156472154 0.095916295
v 0.138938176 0.171114622 0.107137969
v 0.128011438 0.185297410 0.118162208
v 0.116270115 0.198987674 0.128969568
v 0.103742088 0.212154702 0.139541163
v 0.090458106 0.224770460 0.149858949
v 0.076451812 0.236810259 0.159906114
v 0.061750774 0.248245035 0.169663412
v 0.046393645 0.259056233 0.179116305
v 0.030410642 0.269218255 0.188246516
v 0.013837977 0.278711976 0.197038636
v -0.003288276 0.287519046 0.205477382
v -0.020932129 0.295621560 0.213547422
v -0.039052293 0.303010490 0.221237921
v -0.057615297 0.309665803 0.228531974
v -0.076578309 0.315583878 0.235421373
v -0.095907027 0.320746200 0.241889572
v -0.115560597 0.325147427 0.247927140
v -0.135498654 0.328783485 0.253525337
v -0.155683099 0.331644807 0.258672143
v -0.176074184 0.333725980 0.263357767
v -0.196629890 0.335034852 0.267580330
v -0.217312651 0.335559623 0.271326114
v -0.238081226 0.335311704 0.274595432
v -0.258897086 0.334276487 0.277372445
v -0.279719721 0.332473134 0.279662364
v -0.300510197 0.329902797 0.281459168
v -0.321229295 0.326569270 0.282758412
v -0.341837881 0.322479100 0.283557376
v -0.362297323 0.317641661 0.283855185
v -0.382569972 0.312069182 0.283652921
v -0.402619681 0.305776690 0.282953685
v -0.422409872 0.298776057 0.281758479
v -0.441895390 0.291062453 0.280056147
v -0.461054420 0.282681707 0.277871859
v -0.479839499 0.273625236 0.275191637
v -0.498227102 0.263929626 0.272034460
v -0.516171046 0.253594090 0.268391510
v -0.533659138 0.242665632 0.264290402
v -0.550630267 0.231129211 0.259710582
v -0.567075331 0.219032434 0.254680600
v -0.582967268 0.206399061 0.249210639
v -0.598269896 0.193244924 0.243304215
v -0.612940551 0.179583437 0.236962143
v -0.626971616 0.165455572 0.230209028
v -0.640336617 0.150885998 0.223055744
v -0.653010447 0.135900601 0.215514179
v -0.664969459 0.120526368 0.207597191
v -0.676191569 0.104791281 0.199318546
v -0.686656322 0.088724191 0.190692859
v -0.696344953 0.072354692 0.181735528
v -0.705240428 0.055713005 0.172462652
v -0.713327450 0.038829840 0.162890967
v -0.720592475 0.021736288 0.153037757
v -0.727023679 0.004463699 0.142920789
v -0.732610928 -0.012956418 0.132558237
v -0.737345731 -0.030492484 0.121968608
v -0.741221177 -0.048112935 0.111170696
v -0.744204742 -0.065786833 0.100178278
v -0.746306357 -0.083479846 0.089014930
v -0.747533550 -0.101159792 0.077702440
v -0.747885737 -0.118795317 0.066260597
v -0.747363644 -0.136355343 0.054709256
v -0.745969242 -0.153809078 0.043068319
v -0.743669744 -0.171118844 0.031355786
v -0.740491835 -0.188255321 0.019595067
v -0.736455176 -0.205190716 0.007807337
v -0.731567203 -0.221895455 -0.003987309
v -0.725836455 -0.238340288 -0.015768778
v -0.719252670 -0.254488486 -0.027515626
v -0.711821625 -0.270306469 -0.039205525
v -0.703583704 -0.285776002 -0.050819647
v -0.694552693 -0.300869628 -0.062338118
v -0.684743558 -0.315560302 -0.073741113
v -0.674172488 -0.329821414 -0.085008862
v -0.662837173 -0.343613601 -0.096116860
v -0.650768704 -0.356916705 -0.107046763
v -0.637999808 -0.369714027 -0.117782137
v -0.624552105 -0.381981957 -0.128304173
v -0.610448541 -0.393697662 -0.138594321
v -0.595713414 -0.404839172 -0.148634348
v -0.580372362 -0.415385483 -0.158406404
v -0.564452358 -0.425316668 -0.167893081
v -0.547981670 -0.434613967 -0.177077504
v -0.530989805 -0.443259903 -0.185943385
v -0.513507446 -0.451238373 -0.194475117
v -0.495566354 -0.458534739 -0.202657836
v -0.477199264 -0.465135912 -0.210477491
v -0.458439770 -0.471030411 -0.217920919
v -0.439322190 -0.476208429 -0.224975887
v -0.419881425 -0.480661860 -0.231631158
v -0.400152815 -0.484384334 -0.237876520
v -0.380167795 -0.487356907 -0.243694544
v -0.359961751 -0.489567472 -0.249071437
v -0.339577545 -0.491034867 -0.254011595
v -0.319051030 -0.491759003 -0.258508745
v -0.298413024 -0.491693122 -0.262528132
v -0.277707620 -0.490888983 -0.266094717
v -0.256969604 -0.489314276 -0.269182188
v -0.236236869 -0.486992085 -0.271798575
v -0.215548313 -0.483903532 -0.273925349
v -0.194939048 -0.480080821 -0.275576788
v -0.174450192 -0.475502405 -0.276732345
v -0.154118261 -0.470187432 -0.277397883
v -0.133979168 -0.464149187 -0.277575686
v -0.114070631 -0.457394186 -0.277263496
v -0.094430090 -0.449931965 -0.276461011
v -0.075094277 -0.441774834 -0.275169807
v -0.056098847 -0.432937616 -0.273393229
v -0.037478089 -0.423437375 -0.271136265
v -0.019266840 -0.413290087 -0.268403127
v -0.001508054 -0.402501668 -0.265190319
v 0.015779219 -0.391110564 -0.261518829
v 0.032544885 -0.379116084 -0.257379765
v 0.048770178 -0.366554930 -0.252793009
v 0.064419459 -0.353444302 -0.247763284
v 0.079459155 -0.339805062 -0.242297910
v 0.093858092 -0.325661073 -0.236406423
v 0.107587684 -0.311038590 -0.230100209
v 0.120622024 -0.295965731 -0.223392175
v 0.132937878 -0.280472017 -0.216296439
v 0.144496727 -0.264579431 -0.208819592
v 0.155286052 -0.248324107 -0.200981413
v 0.165276995 -0.231734125 -0.192793586
v 0.174443186 -0.214840055 -0.184269523
v 0.182765992 -0.197675928 -0.175425885
v 0.190223669 -0.180275233 -0.166278120
v 0.196801839 -0.162673859 -0.156844157
v 0.202480861 -0.144907017 -0.147140151
v 0.207246160 -0.127011624 -0.137183829
v 0.211079629 -0.109025144 -0.126992095
v 0.213973852 -0.090986772 -0.116584486
v 0.215917989 -0.072935948 -0.105979524
v 0.216904533 -0.054912950 -0.095196366
v 0.216924241 -0.036959128 -0.084253891
v 0.215975920 -0.019116098 -0.073172251
v 0.214061388 -0.001425455 -0.061971735
v 0.211175634 0.016069125 -0.050671833
v 0.207328334 0.033326157 -0.039293497
v 0.202525636 0.050303150 -0.027857100
v 0.196771940 0.066955986 -0.016383096
v 0.190084734 0.083244549 -0.004892412
v 0.182478655 0.099127723 0.006594317
v 0.173969364 0.114564309 0.018056343
v 0.164576018 0.129514282 0.029472830
v 0.154325135 0.143941879 0.040823393
v 0.143240541 0.157810015 0.052087493
v 0.131347374 0.171082101 0.063244413
v 0.118679811 0.183728801 0.074274682
v 0.105265304 0.195715708 0.085157633
v 0.091139046 0.207015406 0.095873890
v 0.076336901 0.217602112 0.106404334
v 0.060894429 0.227450417 0.116729717
v 0.044849177 0.236537791 0.126831309
v 0.028240575 0.244845073 0.136691145
v 0.011108994 0.252355794 0.146291918
v -0.006509158 0.259047381 0.155613921
v -0.024567719 0.264915264 0.164643406
v -0.043026906 0.269945429 0.173363226
v -0.061846712 0.274123966 0.181755857
v -0.080982601 0.277449262 0.189808335
v -0.100394048 0.279910369 0.197503796
v -0.120037104 0.281508127 0.204830034
v -0.139868222 0.282247880 0.211776958
v -0.159848094 0.282112790 0.218324229
v -0.179931764 0.281121238 0.224467461
v -0.200078040 0.279273067 0.230193780
v -0.220245237 0.276571364 0.235491621
v -0.240391586 0.273022731 0.240351011
v -0.260475761 0.268637493 0.244763862
v -0.280457513 0.263429876 0.248724288
v -0.300297802 0.257415370 0.252227326
v -0.319952750 0.250589755 0.255256277
v -0.339389492 0.242992432 0.257820194
v -0.358563848 0.234620624 0.259902837
v -0.377440469 0.225500262 0.261505431
v -0.395984097 0.215654024 0.262627527
v -0.414157690 0.205099951 0.263265668
v -0.431925224 0.193858598 0.263417970
v -0.449252072 0.181952964 0.263084224
v -0.466105392 0.169408346 0.262265957
v -0.482454543 0.156252137 0.260966482
v -0.498271479 0.142513545 0.259190890
v -0.513516334 0.128210141 0.256934336
v -0.528162054 0.113373770 0.254203545
v -0.542198924 0.098047605 0.251016894
v -0.555566708 0.082236745 0.247356215
v -0.568279091 0.065999276 0.243255415
v -0.580273090 0.049342745 0.238696599
v -0.591568262 0.032322857 0.233714487
v -0.602100574 0.014951719 0.228293103
v -0.611878514 -0.002723809 0.222458902
v -0.620890667 -0.020668334 0.216225730
v -0.629090905 -0.038856496 0.209590423
v -0.636475859 -0.057248675 0.202571715
v -0.643043832 -0.075806906 0.195188090
v -0.648780760 -0.094496698 0.187452014
v -0.653674353 -0.113282965 0.179376875
v -0.657710855 -0.132130245 0.170975738
v -0.660869134 -0.151002097 0.162259619
v -0.663161775 -0.169861501 0.153251451
v -0.664584111 -0.188672658 0.143967600
v -0.665133324 -0.207399798 0.134425058
v -0.664808428 -0.226007288 0.124641386
v -0.663610257 -0.244459725 0.114634646
v -0.661541415 -0.262722034 0.104423354
v -0.658606246 -0.280759545 0.094026420
v -0.654810786 -0.298538070 0.083463089
v -0.650162712 -0.316023965 0.072752906
v -0.644671299 -0.333184187 0.061915657
v -0.638347368 -0.349986343 0.050971334
v -0.631203241 -0.366398733 0.039940101
v -0.623250293 -0.382389015 0.028842111
v -0.614494876 -0.397921089 0.017697668
v -0.604965194 -0.412971562 0.006528234
v -0.594679627 -0.427512112 -0.004645658
v -0.583657859 -0.441515347 -0.015803488
v -0.571920854 -0.454954838 -0.026924778
v -0.559490836 -0.467805151 -0.037989131
v -0.546391261 -0.480041892 -0.048976248
v -0.532646800 -0.491641755 -0.059865957
v -0.518283320 -0.502582566 -0.070638261
v -0.503327857 -0.512843350 -0.081273358
v -0.487808589 -0.522404384 -0.091751690
v -0.471754804 -0.531247263 -0.102053992
v -0.455196857 -0.539354972 -0.112161330
v -0.438166117 -0.546711951 -0.122055161
v -0.420694909 -0.553304159 -0.131717388
v -0.402816443 -0.559119144 -0.141130408
v -0.384564730 -0.564146099 -0.150277184
v -0.365974494 -0.568375912 -0.159141294
v -0.347081064 -0.571801220 -0.167706987
v -0.327920273 -0.574416436 -0.175959251
v -0.308528034 -0.576216528 -0.183883330
v -0.288935368 -0.577170852 -0.191453356
v -0.269186678 -0.577305872 -0.198667447
v -0.249318943 -0.576623477 -0.205513976
v -0.229368987 -0.575127369 -0.211982302
v -0.209372902 -0.572789429 -0.218046161
v -0.189370327 -0.569634711 -0.223704639
v -0.169397769 -0.565685938 -0.228956741
v -0.149496598 -0.560904313 -0.233769138
v -0.129700192 -0.555343285 -0.238157260
v -0.110050896 -0.548982483 -0.242096685
v -0.090580674 -0.541858135 -0.245594753
v -0.071335314 -0.533952566 -0.248627272
v -0.052341883 -0.525311781 -0.251208142
v -0.033642838 -0.515932751 -0.253321637
v -0.015277111 -0.505828688 -0.254961337
v 0.002725577 -0.495030397 -0.256132715
v 0.020329037 -0.483554272 -0.256831888
v 0.037497966 -0.471419558 -0.257056715
v 0.054198313 -0.458648080 -0.256806764
v 0.070397573 -0.445263936 -0.256083273
v 0.086065022 -0.431293195 -0.254889056
v 0.101171896 -0.416763584 -0.253228414
v 0.115673436 -0.401689357 -0.251093575
v 0.129557630 -0.386113906 -0.248502241
v 0.142786755 -0.370058735 -0.245452584
v 0.155341472 -0.353559159 -0.241955784
v 0.167181456 -0.336637951 -0.238009714
v 0.178293903 -0.319334584 -0.233629734
v 0.188652228 -0.301680351 -0.228822456
v 0.198232874 -0.283708760 -0.223596537
v 0.207015371 -0.265454935 -0.217962385
v 0.214982298 -0.246955108 -0.211931873
v 0.222103408 -0.228242918 -0.205511142
v 0.228377144 -0.209359223 -0.198719425
v 0.233774468 -0.190339574 -0.191563875
v 0.238291012 -0.171224125 -0.184062063
v 0.241910829 -0.152051688 -0.176226742
v 0.244621938 -0.132862285 -0.168072336
v 0.246416045 -0.113696599 -0.159614559
v 0.247288257 -0.094595542 -0.150870084
v 0.247228690 -0.075601210 -0.141854063
v 0.246237819 -0.056755189 -0.132584605
v 0.244310209 -0.038100780 -0.123078148
v 0.241451046 -0.019679777 -0.113353690
v 0.237661527 -0.001535495 -0.103429085
v 0.232946561 0.016288863 -0.093322947
v 0.227314413 0.033750474 -0.083054414
v 0.220776396 0.050807092 -0.072642969
v 0.213343520 0.067415472 -0.062107940
v 0.205030052 0.083532935 -0.051469088
v 0.195859026 0.099121377 -0.040746942
v 0.185843642 0.114135652 -0.029961068
v 0.175014201 0.128541553 -0.019132265
v 0.163391636 0.142297615 -0.008280671
v 0.151006226 0.155369101 0.002573191
v 0.137889881 0.167722931 0.013408992
v 0.124070912 0.179321571 0.024206085
v 0.109590167 0.190141104 0.034944574
v 0.094478777 0.200146106 0.045603630
v 0.078781240 0.209318614 0.056164065
v 0.062531586 0.217625874 0.066604789
v 0.045776118 0.225054411 0.076907178
v 0.028556523 0.231584605 0.087051714
v 0.010915786 0.237199549 0.097019099
v -0.007101926 0.241885415 0.106790380
v -0.025451461 0.245631812 0.116347116
v -0.044086958 0.248432176 0.125671593
v -0.062962229 0.250284205 0.134747097
v -0.082032994 0.251178971 0.143554888
v -0.101252209 0.251124611 0.152080884
v -0.120575868 0.250111745 0.160305550
v -0.139957791 0.248153414 0.168216145
v -0.159353488 0.245254944 0.175797492
v -0.178718870 0.241425577 0.183035646
v -0.198010288 0.236674747 0.189916608
v -0.217183823 0.231010441 0.196425471
v -0.236199510 0.224460697 0.202555798
v -0.255012108 0.217024267 0.208288369
v -0.273583847 0.208732476 0.213618362
v -0.291874604 0.199603001 0.218534960
v -0.309844893 0.189655490 0.223028135
v -0.327456640 0.178912860 0.227089443
v -0.344673741 0.167401255 0.230712273
v -0.361462692 0.155149920 0.233892092
v -0.377782575 0.142176301 0.236616932
v -0.393605713 0.128518138 0.238887533
v -0.408897357 0.114201563 0.240697438
v -0.423632944 0.099264516 0.242048668
v -0.437767653 0.083723676 0.242926918
v -0.451286606 0.067625950 0.243341442
v -0.464160965 0.051003153 0.243290090
v -0.476363766 0.033889031 0.242772162
v -0.487870212 0.016319068 0.241788471
v -0.498657934 -0.001669778 0.240341385
v -0.508707247 -0.020039371 0.238434841
v -0.518001372 -0.038750757 0.236074331
v -0.526524866 -0.057765154 0.233265873
v -0.534235992 -0.077051450 0.230001070
v -0.541150417 -0.096560013 0.226303528
v -0.547254254 -0.116253053 0.222179585
v -0.552505424 -0.136095601 0.217621937
v -0.556943417 -0.156040609 0.212664025
v -0.560498565 -0.176053511 0.207285966
v -0.563226932 -0.196090297 0.201527641
v -0.565073508 -0.216111235 0.195377478
v -0.566066030 -0.236076714 0.188861124
v -0.566210994 -0.255948850 0.181994090
v -0.565459269 -0.275680207 0.174769997
v -0.563860514 -0.295238686 0.167221866
v -0.561415631 -0.314586221 0.159362741
v -0.558112331 -0.333679667 0.151201401
v -0.553949333 -0.352476972 0.142751230
v -0.548957673 -0.370948336 0.134036091
v -0.543146040 -0.389057182 0.125072028
v -0.536524973 -0.406767533 0.115875727
v -0.529106840 -0.424044125 0.106464454
v -0.520894090 -0.440844852 0.096853276
v -0.511907486 -0.457137677 0.087062167
v -0.502173926 -0.472895926 0.077112084
v -0.491712469 -0.488088309 0.067021977
v -0.480543719 -0.502684667 0.056811120
v -0.468689764 -0.516656048 0.046499055
v -0.456174122 -0.529974764 0.036105535
v -0.443021666 -0.542614453 0.025650488
v -0.429258565 -0.554550138 0.015153966
v -0.414912221 -0.565758269 0.004636088
v -0.400011199 -0.576216780 -0.005882995
v -0.384585158 -0.585905133 -0.016383140
v -0.368664795 -0.594804356 -0.026844279
v -0.352278754 -0.602891335 -0.037245895
v -0.335459061 -0.610147571 -0.047567477
v -0.318243247 -0.616566080 -0.057789867
v -0.300665503 -0.622134424 -0.067893609
v -0.282760710 -0.626841944 -0.077859528
v -0.264564364 -0.630679797 -0.087668784
v -0.246112478 -0.633640986 -0.097302931
v -0.227441490 -0.635720388 -0.106743950
v -0.208588161 -0.636914773 -0.115974315
v -0.189588298 -0.637213124 -0.124974375
v -0.170478889 -0.636601140 -0.133722867
v -0.151300859 -0.635103610 -0.142209688
v -0.132091453 -0.632725073 -0.150419713
v -0.112887681 -0.629471969 -0.158338554
v -0.093729174 -0.625319802 -0.165940455
v -0.074653667 -0.620296363 -0.173217789
v -0.055696236 -0.614427413 -0.180163447
v -0.036898524 -0.607698165 -0.186754029
v -0.018297727 -0.600126210 -0.192978824
v 0.000076955 -0.591752790 -0.198838491
v 0.018172013 -0.582541302 -0.204297206
v 0.035973150 -0.572570358 -0.209374624
v 0.053420457 -0.561800559 -0.214031188
v 0.070502132 -0.550303084 -0.218285237
v 0.087166672 -0.538066042 -0.222110073
v 0.103387270 -0.525126689 -0.225506196
v 0.119136211 -0.511516062 -0.228471672
v 0.134376033 -0.497252015 -0.230995899
v 0.149068179 -0.482354711 -0.233068584
v 0.163192361 -0.466864728 -0.234694270
v 0.176718396 -0.450810503 -0.235869120
v 0.189617840 -0.434222677 -0.236590810
v 0.201864217 -0.417133794 -0.236858518
v 0.213433180 -0.399577972 -0.236672893
v 0.224290085 -0.381583682 -0.236028169
v 0.234419426 -0.363191588 -0.234931063
v 0.243807673 -0.344441631 -0.233388906
v 0.252415936 -0.325362927 -0.231394263
v 0.260245211 -0.306001342 -0.228962794
v 0.267255953 -0.286388526 -0.226087570
v 0.273449479 -0.266569347 -0.222783996
v 0.278806475 -0.246582287 -0.219056234
v 0.283311151 -0.226467611 -0.214910522
v 0.286951190 -0.206266728 -0.210354938
v 0.289717667 -0.186021653 -0.205399165
v 0.291604881 -0.165774550 -0.200054255
v 0.292608318 -0.145567536 -0.194331649
v 0.292710127 -0.125444713 -0.188237383
v 0.291923081 -0.105447533 -0.181790022
v 0.290237763 -0.085620248 -0.174999022
v 0.287653089 -0.066007041 -0.167877279
v 0.284176170 -0.046650365 -0.160440533
v 0.279811113 -0.027593699 -0.152703251
v 0.274562084 -0.008881407 -0.144679898
v 0.268436360 0.009442331 -0.136385922
v 0.261452158 0.027338120 -0.127839832
v 0.253611906 0.044757597 -0.119055439
v 0.244939695 0.061663498 -0.110052461
v 0.235450126 0.078012634 -0.100847751
v 0.225161378 0.093762807 -0.091459007
v 0.214096009 0.108874034 -0.081904785
v 0.202278139 0.123306678 -0.072203787
v 0.189735577 0.137023567 -0.062375239
v 0.176498336 0.149989056 -0.052438517
v 0.162598644 0.162169282 -0.042413123
v 0.148066839 0.173526610 -0.032318299
v 0.132941558 0.184033167 -0.022174125
v 0.117261054 0.193660424 -0.012000422
v 0.101062875 0.202377318 -0.001817057
v 0.084392395 0.210166371 0.008356072
v 0.067288577 0.216996498 0.018498824
v 0.049800298 0.222858159 0.028591717
v 0.031970863 0.227728297 0.038614633
v 0.013848287 0.231596415 0.048548132
v -0.004519336 0.234454157 0.058373046
v -0.023084395 0.236291759 0.068069944
v -0.041798472 0.237102596 0.077619504
v -0.060612312 0.236888723 0.087003568
v -0.079477408 0.235651570 0.096203856
v -0.098345490 0.233394855 0.105202342
v -0.117168288 0.230121662 0.113980551
v -0.135898838 0.225848276 0.122522825
v -0.154490521 0.220584653 0.130812051
v -0.172897498 0.214345022 0.138831944
v -0.191074385 0.207144354 0.146566223
v -0.208978536 0.199006164 0.154001105
v -0.226567043 0.189950322 0.161121674
v -0.243798547 0.180000192 0.167914057
v -0.260633788 0.169182674 0.174365691
v -0.277034307 0.157524865 0.180464143
v -0.292958959 0.145049404 0.186194672
v -0.308379285 0.131798476 0.191551695
v -0.323254198 0.117793963 0.196519900
v -0.337553487 0.103073244 0.201091603
v -0.351247686 0.087672995 0.205259167
v -0.364306320 0.071628050 0.209013988
v -0.376701562 0.054975650 0.212348983
v -0.388408679 0.037755159 0.215258769
v -0.399404036 0.020006054 0.217738390
v -0.409653164 0.001761173 0.219776454
v -0.419154107 -0.016926527 0.221380474
v -0.427869519 -0.036025637 0.222537244
v -0.435802171 -0.055484085 0.223256268
v -0.442910724 -0.075269772 0.223522353
v -0.449199100 -0.095331995 0.223345222
v -0.454654327 -0.115627871 0.222725082
v -0.459263589 -0.136114320 0.221662206
v -0.463016690 -0.156747423 0.220158229
v -0.465906166 -0.177482715 0.218216172
v -0.467927396 -0.198275510 0.215840446
v -0.469078663 -0.219081252 0.213036839
v -0.469361154 -0.239855876 0.209812462
v -0.468778918 -0.260556195 0.206175679
v -0.467324447 -0.281137541 0.202129392
v -0.464995733 -0.301554272 0.197679329
v -0.461823218 -0.321769047 0.192845866
v -0.457793632 -0.341734662 0.187629417
v -0.452920608 -0.361409656 0.182042715
v -0.447228212 -0.380758700 0.176102694
v -0.440704787 -0.399730447 0.169811135
v -0.433390915 -0.418298189 0.163191778
v -0.425283821 -0.436413292 0.156250350
v -0.416406725 -0.454041197 0.149003226
v -0.406796935 -0.471158666 0.141472028
v -0.396430589 -0.487696788 0.133655099
v -0.385373185 -0.503654964 0.125584548
v -0.373642863 -0.518998220 0.117274313
v -0.361230339 -0.533660750 0.108729402
v -0.348196479 -0.547646776 0.099978951
v -0.334566464 -0.560927390 0.091039451
v -0.320356051 -0.573459818 0.081924796
v -0.305590774 -0.585210475 0.072652325
v -0.290316720 -0.596176890 0.063244907
v -0.274564394 -0.606336425 0.053720712
v -0.258365418 -0.615668135 0.044098209
v -0.241736914 -0.624117671 0.034393617
v -0.224730211 -0.631700671 0.024629729
v -0.207380450 -0.638403186 0.014825704
v -0.189722800 -0.644211645 0.005000655
v -0.171793083 -0.649114397 -0.004826262
v -0.153620199 -0.653067182 -0.014634565
v -0.135250406 -0.656092743 -0.024404999
v -0.116721796 -0.658188661 -0.034118656
v -0.098071892 -0.659351239 -0.043756727
v -0.079338328 -0.659577549 -0.053300469
v -0.060558576 -0.658827772 -0.062725909
v -0.041773870 -0.657144746 -0.072019171
v -0.023021878 -0.654532918 -0.081162582
v -0.004340019 -0.650998728 -0.090138890
v 0.014227847 -0.646507393 -0.098921784
v 0.032647478 -0.641106550 -0.107501516
v 0.050883396 -0.634813944 -0.115863436
v 0.068892155 -0.627616615 -0.123984614
v 0.086636089 -0.619531555 -0.131849260
v 0.104088105 -0.610603157 -0.139450674
v 0.121197476 -0.600810623 -0.146761299
v 0.137939073 -0.590199952 -0.153775650
v 0.154277870 -0.578790879 -0.160479663
v 0.170170605 -0.566589674 -0.166853357
v 0.185598211 -0.553645217 -0.172894630
v 0.200513124 -0.539959953 -0.178580905
v 0.214895470 -0.525578648 -0.183909125
v 0.228715194 -0.510528921 -0.188868840
v 0.241927837 -0.494825584 -0.193440818
v 0.254525551 -0.478521570 -0.197629035
v 0.266478366 -0.461645054 -0.201423207
v 0.277740451 -0.444214614 -0.204804040
v 0.288305537 -0.426280933 -0.207775981
v 0.298149617 -0.407879225 -0.210332692
v 0.307249829 -0.389046032 -0.212468592
v 0.315585495 -0.369819603 -0.214179416
v 0.323138272 -0.350239590 -0.215462227
v 0.329892252 -0.330346740 -0.216315432
v 0.335834021 -0.310182587 -0.216738752
v 0.340938050 -0.289785851 -0.216725678
v 0.345200016 -0.269201615 -0.216280815
v 0.348620651 -0.248474354 -0.215411096
v 0.351165840 -0.227644207 -0.214106074
v 0.352857449 -0.206757674 -0.212383091
v 0.353661050 -0.185857771 -0.210231925
v 0.353592976 -0.164989462 -0.207666971
v 0.352647793 -0.144196978 -0.204692022
v 0.350822555 -0.123525286 -0.201312116
v 0.348117943 -0.103019544 -0.197533993
v 0.344538079 -0.082724612 -0.193365914
v 0.340090269 -0.062684659 -0.188817476
v 0.334784754 -0.042942853 -0.183899432
v 0.328619064 -0.023548126 -0.178617104
v 0.321618353 -0.004538373 -0.172987383
v 0.313782483 0.014036380 -0.167016525
v 0.305136278 0.032138245 -0.160720901
v 0.295693518 0.049723179 -0.154112208
v 0.285471831 0.066748419 -0.147203564
v 0.274492255 0.083172801 -0.140009239
v 0.262778808 0.098956965 -0.132544407
v 0.250358124 0.114063487 -0.124824942
v 0.237251019 0.128447667 -0.116864471
v 0.223494084 0.142080778 -0.108681884
v 0.209111519 0.154918737 -0.100291571
v 0.194141732 0.166934088 -0.091712398
v 0.178618346 0.178092496 -0.082961343
v 0.162577837 0.188362143 -0.074056041
v 0.146059145 0.197713795 -0.065014615
v 0.129103336 0.206120833 -0.055855538
v 0.111753320 0.213559265 -0.046597523
v 0.094053603 0.220007741 -0.037259453
v 0.076050074 0.225447546 -0.027860309
v 0.057789710 0.229862097 -0.018419129
v 0.039319689 0.233231495 -0.008954995
v 0.020690680 0.235551724 0.000512724
v 0.001952428 0.236815089 0.009964931
v -0.016844829 0.237012278 0.019382341
v -0.035649909 0.236143098 0.028745834
v -0.054411885 0.234211761 0.038036600
v -0.073080012 0.231222396 0.047235838
v -0.091603773 0.227182216 0.056324882
v -0.109933108 0.222101608 0.065285267
v -0.128018683 0.215994227 0.074098786
v -0.145812204 0.208877086 0.082747591
v -0.163266783 0.200770626 0.091214308
v -0.180337356 0.191698769 0.099482185
v -0.196980770 0.181688134 0.107535082
v -0.213149543 0.170756824 0.115354423
v -0.228809194 0.158946413 0.122927660
v -0.243915178 0.146279585 0.130237005
v -0.258432033 0.132793301 0.137268708
v -0.272325277 0.118524214 0.144009122
v -0.285560921 0.103508701 0.150444512
v -0.298107877 0.087785759 0.156562193
v -0.309938452 0.071396793 0.162350747
v -0.321018079 0.054377188 0.167795355
v -0.331329626 0.036776264 0.172888922
v -0.340845862 0.018634350 0.177619501
v -0.349552728 0.000000000 0.181980941
l 1 2
l 2 3
l 3 4
l 4 5
l 5 6
l 6 7
l 7 8
l 8 9
l 9 10
l 10 11
l 11 12
l 12 13
l 13 14
l 14 15
l 15 16
l 16 17
l 17 18
l 18 19
l 19 20
l 20 21
l 21 22
l 22 23
l 23 24
l 24 25
l 25 26
l 26 27
l 27 28
l 28 29
l 29 30
l 30 31
l 31 32
l 32 33
l 33 34
l 34 35
l 35 36
l 36 37
l 37 38
l 38 39
l 39 40
l 40 41
l 41 42
l 42 43
l 43 44
l 44 45
l 45 46
l 46 47
l 47 48
l 48 49
l 49 50
l 50 51
l 51 52
l 52 53
l 53 54
l 54 55
l 55 56
l 56 57
l 57 58
l 58 59
l 59 60
l 60 61
l 61 62
l 62 63
l 63 64
l 64 65
l 65 66
l 66 67
l 67 68
l 68 69
l 69 70
l 70 71
l 71 72
l 72 73
l 73 74
l 74 75
l 75 76
l 76 77
l 77 78
l 78 79
l 79 80
l 80 81
l 81 82
l 82 83
l 83 84
l 84 85
l 85 86
l 86 87
l 87 88
l 88 89
l 89 90
l 90 91
l 91 92
l 92 93
l 93 94
l 94 95
l 95 96
l 96 97
l 97 98
l 98 99
l 99 100
l 100 101
l 101 102
l 102 103
l 103 104
l 104 105
l 105 106
l 106 107
l 107 108
l 108 109
l 109 110
l 110 111
l 111 112
l 112 113
l 113 114
l 114 115
l 115 116
l 116 117
l 117 118
l 118 119
l 119 120
l 120 121
l 121 122
l 122 123
l 123 124
l 124 125
l 125 126
l 126 127
l 127 128
l 128 129
l 129 130
l 130 131
l 131 132
l 132 133
l 133 134
l 134 135
l 135 136
l 136 137
l 137 138
l 138 139
l 139 140
l 140 141
l 141 142
l 142 143
l 143 144
l 144 145
l 145 146
l 146 147
l 147 148
l 148 149
l 149 150
l 150 151
l 151 152
l 152 153
l 153 154
l 154 155
l 155 156
l 156 157
l 157 158
l 158 159
l 159 160
l 160 161
l 161 162
l 162 163
l 163 164
l 164 165
l 165 166
l 166 167
l 167 168
l 168 169
l 169 170
l 170 171
l 171 172
l 172 173
l 173 174
l 174 175
l 175 176
l 176 177
l 177 178
l 178 179
l 179 180
l 180 181
l 181 182
l 182 183
l 183 184
l 184 185
l 185 186
l 186 187
l 187 188
l 188 189
l 189 190
l 190 191
l 191 192
l 192 193
l 193 194
l 194 195
l 195 196
l 196 197
l 197 198
l 198 199
l 199 200
l 200 201
l 201 202
l 202 203
l 203 204
l 204 205
l 205 206
l 206 207
l 207 208
l 208 209
l 209 210
l 210 211
l 211 212
l 212 213
l 213 214
l 214 215
l 215 216
l 216 217
l 217 218
l 218 219
l 219 220
l 220 221
l 221 222
l 222 223
l 223 224
l 224 225
l 225 226
l 226 227
l 227 228
l 228 229
l 229 230
l 230 231
l 231 232
l 232 233
l 233 234
l 234 235
l 235 236
l 236 237
l 237 238
l 238 239
l 239 240
l 240 241
l 241 242
l 242 243
l 243 244
l 244 245
l 245 246
l 246 247
l 247 248
l 248 249
l 249 250
l 250 251
l 251 252
l 252 253
l 253 254
l 254 255
l 255 256
l 256 257
l 257 258
l 258 259
l 259 260
l 260 261
l 261 262
l 262 263
l 263 264
l 264 265
l 265 266
l 266 267
l 267 268
l 268 269
l 269 270
l 270 271
l 271 272
l 272 273
l 273 274
l 274 275
l 275 276
l 276 277
l 277 278
l 278 279
l 279 280
l 280 281
l 281 282
l 282 283
l 283 284
l 284 285
l 285 286
l 286 287
l 287 288
l 288 289
l 289 290
l 290 291
l 291 292
l 292 293
l 293 294
l 294 295
l 295 296
l 296 297
l 297 298
l 298 299
l 299 300
l 300 301
l 301 302
l 302 303
l 303 304
l 304 305
l 305 306
l 306 307
l 307 308
l 308 309
l 309 310
l 310 311
l 311 312
l 312 313
l 313 314
l 314 315
l 315 316
l 316 317
l 317 318
l 318 319
l 319 320
l 320 321
l 321 322
l 322 323
l 323 324
l 324 325
l 325 326
l 326 327
l 327 328
l 328 329
l 329 330
l 330 331
l 331 332
l 332 333
l 333 334
l 334 335
l 335 336
l 336 337
l 337 338
l 338 339
l 339 340
l 340 341
l 341 342
l 342 343
l 343 344
l 344 345
l 345 346
l 346 347
l 347 348
l 348 349
l 349 350
l 350 351
l 351 352
l 352 353
l 353 354
l 354 355
l 355 356
l 356 357
l 357 358
l 358 359
l 359 360
l 360 361
l 361 362
l 362 363
l 363 364
l 364 365
l 365 366
l 366 367
l 367 368
l 368 369
l 369 370
l 370 371
l 371 372
l 372 373
l 373 374
l 374 375
l 375 376
l 376 377
l 377 378
l 378 379
l 379 380
l 380 381
l 381 382
l 382 383
l 383 384
l 384 385
l 385 386
l 386 387
l 387 388
l 388 389
l 389 390
l 390 391
l 391 392
l 392 393
l 393 394
l 394 395
l 395 396
l 396 397
l 397 398
l 398 399
l 399 400
l 400 401
l 401 402
l 402 403
l 403 404
l 404 405
l 405 406
l 406 407
l 407 408
l 408 409
l 409 410
l 410 411
l 411 412
l 412 413
l 413 414
l 414 415
l 415 416
l 416 417
l 417 418
l 418 419
l 419 420
l 420 421
l 421 422
l 422 423
l 423 424
l 424 425
l 425 426
l 426 427
l 427 428
l 428 429
l 429 430
l 430 431
l 431 432
l 432 433
l 433 434
l 434 435
l 435 436
l 436 437
l 437 438
l 438 439
l 439 440
l 440 441
l 441 442
l 442 443
l 443 444
l 444 445
l 445 446
l 446 447
l 447 448
l 448 449
l 449 450
l 450 451
l 451 452
l 452 453
l 453 454
l 454 455
l 455 456
l 456 457
l 457 458
l 458 459
l 459 460
l 460 461
l 461 462
l 462 463
l 463 464
l 464 465
l 465 466
l 466 467
l 467 468
l 468 469
l 469 470
l 470 471
l 471 472
l 472 473
l 473 474
l 474 475
l 475 476
l 476 477
l 477 478
l 478 479
l 479 480
l 480 481
l 481 482
l 482 483
l 483 484
l 484 485
l 485 486
l 486 487
l 487 488
l 488 489
l 489 490
l 490 491
l 491 492
l 492 493
l 493 494
l 494 495
l 495 496
l 496 497
l 497 498
l 498 499
l 499 500
l 500 501
l 501 502
l 502 503
l 503 504
l 504 505
l 505 506
l 506 507
l 507 508
l 508 509
l 509 510
l 510 511
l 511 512
l 512 513
l 513 514
l 514 515
l 515 516
l 516 517
l 517 518
l 518 519
l 519 520
l 520 521
l 521 522
l 522 523
l 523 524
l 524 525
l 525 526
l 526 527
l 527 528
l 528 529
l 529 530
l 530 531
l 531 532
l 532 533
l 533 534
l 534 535
l 535 536
l 536 537
l 537 538
l 538 539
l 539 540
l 540 541
l 541 542
l 542 543
l 543 544
l 544 545
l 545 546
l 546 547
l 547 548
l 548 549
l 549 550
l 550 551
l 551 552
l 552 553
l 553 554
l 554 555
l 555 556
l 556 557
l 557 558
l 558 559
l 559 560
l 560 561
l 561 562
l 562 563
l 563 564
l 564 565
l 565 566
l 566 567
l 567 568
l 568 569
l 569 570
l 570 571
l 571 572
l 572 573
l 573 574
l 574 575
l 575 576
l 576 577
l 577 578
l 578 579
l 579 580
l 580 581
l 581 582
l 582 583
l 583 584
l 584 585
l 585 586
l 586 587
l 587 588
l 588 589
l 589 590
l 590 591
l 591 592
l 592 593
l 593 594
l 594 595
l 595 596
l 596 597
l 597 598
l 598 599
l 599 600
l 600 601
l 601 602
l 602 603
l 603 604
l 604 605
l 605 606
l 606 607
l 607 608
l 608 609
l 609 610
l 610 611
l 611 612
l 612 613
l 613 614
l 614 615
l 615 616
l 616 617
l 617 618
l 618 619
l 619 620
l 620 621
l 621 622
l 622 623
l 623 624
l 624 625
l 625 626
l 626 627
l 627 628
l 628 629
l 629 630
l 630 631
l 631 632
l 632 633
l 633 634
l 634 635
l 635 636
l 636 637
l 637 638
l 638 639
l 639 640
l 640 641
l 641 642
l 642 643
l 643 644
l 644 645
l 645 646
l 646 647
l 647 648
l 648 649
l 649 650
l 650 651
l 651 652
l 652 653
l 653 654
l 654 655
l 655 656
l 656 657
l 657 658
l 658 659
l 659 660
l 660 661
l 661 662
l 662 663
l 663 664
l 664 665
l 665 666
l 666 667
l 667 668
l 668 669
l 669 670
l 670 671
l 671 672
l 672 673
l 673 674
l 674 675
l 675 676
l 676 677
l 677 678
l 678 679
l 679 680
l 680 681
l 681 682
l 682 683
l 683 684
l 684 685
l 685 686
l 686 687
l 687 688
l 688 689
l 689 690
l 690 691
l 691 692
l 692 693
l 693 694
l 694 695
l 695 696
l 696 697
l 697 698
l 698 699
l 699 700
l 700 701
l 701 702
l 702 703
l 703 704
l 704 705
l 705 706
l 706 707
l 707 708
l 708 709
l 709 710
l 710 711
l 711 712
l 712 713
l 713 714
l 714 715
l 715 716
l 716 717
l 717 718
l 718 719
l 719 720
l 720 721
l 721 722
l 722 723
l 723 724
l 724 725
l 725 726
l 726 727
l 727 728
l 728 729
l 729 730
l 730 731
l 731 732
l 732 733
l 733 734
l 734 735
l 735 736
l 736 737
l 737 738
l 738 739
l 739 740
l 740 741
l 741 742
l 742 743
l 743 744
l 744 745
l 745 746
l 746 747
l 747 748
l 748 749
l 749 750
l 750 751
l 751 752
l 752 753
l 753 754
l 754 755
l 755 756
l 756 757
l 757 758
l 758 759
l 759 760
l 760 761
l 761 762
l 762 763
l 763 764
l 764 765
l 765 766
l 766 767
l 767 768
l 768 769
l 769 770
l 770 771
l 771 772
l 772 773
l 773 774
l 774 775
l 775 776
l 776 777
l 777 778
l 778 779
l 779 780
l 780 781
l 781 782
l 782 783
l 783 784
l 784 785
l 785 786
l 786 787
l 787 788
l 788 789
l 789 790
l 790 791
l 791 792
l 792 793
l 793 794
l 794 795
l 795 796
l 796 797
l 797 798
l 798 799
l 799 800
l 800 801
l 801 802
l 802 803
l 803 804
l 804 805
l 805 806
l 806 807
l 807 808
l 808 809
l 809 810
l 810 811
l 811 812
l 812 813
l 813 814
l 814 815
l 815 816
l 816 817
l 817 818
l 818 819
l 819 820
l 820 821
l 821 822
l 822 823
l 823 824
l 824 825
l 825 826
l 826 827
l 827 828
l 828 829
l 829 830
l 830 831
l 831 832
l 832 833
l 833 834
l 834 835
l 835 836
l 836 837
l 837 838
l 838 839
l 839 840
l 840 841
l 841 842
l 842 843
l 843 844
l 844 845
l 845 846
l 846 847
l 847 848
l 848 849
l 849 850
l 850 851
l 851 852
l 852 853
l 853 854
l 854 855
l 855 856
l 856 857
l 857 858
l 858 859
l 859 860
l 860 861
l 861 862
l 862 863
l 863 864
l 864 865
l 865 866
l 866 867
l 867 868
l 868 869
l 869 870
l 870 871
l 871 872
l 872 873
l 873 874
l 874 875
l 875 876
l 876 877
l 877 878
l 878 879
l 879 880
l 880 881
l 881 882
l 882 883
l 883 884
l 884 885
l 885 886
l 886 887
l 887 888
l 888 889
l 889 890
l 890 891
l 891 892
l 892 893
l 893 894
l 894 895
l 895 896
l 896 897
l 897 898
l 898 899
l 899 900
l 900 901
l 901 902
l 902 903
l 903 904
l 904 905
l 905 906
l 906 907
l 907 908
l 908 909
l 909 910
l 910 911
l 911 912
l 912 913
l 913 914
l 914 915
l 915 916
l 916 917
l 917 918
l 918 919
l 919 920
l 920 921
l 921 922
l 922 923
l 923 924
l 924 925
l 925 926
l 926 927
l 927 928
l 928 929
l 929 930
l 930 931
l 931 932
l 932 933
l 933 934
l 934 935
l 935 936
l 936 937
l 937 938
l 938 939
l 939 940
l 940 941
l 941 942
l 942 943
l 943 944
l 944 945
l 945 946
l 946 947
l 947 948
l 948 949
l 949 950
l 950 951
l 951 952
l 952 953
l 953 954
l 954 955
l 955 956
l 956 957
l 957 958
l 958 959
l 959 960
l 960 961
l 961 962
l 962 963
l 963 964
l 964 965
l 965 966
l 966 967
l 967 968
l 968 969
l 969 970
l 970 971
l 971 972
l 972 973
l 973 974
l 974 975
l 975 976
l 976 977
l 977 978
l 978 979
l 979 980
l 980 981
l 981 982
l 982 983
l 983 984
l 984 985
l 985 986
l 986 987
l 987 988
l 988 989
l 989 990
l 990 991
l 991 992
l 992 993
l 993 994
l 994 995
l 995 996
l 996 997
l 997 998
l 998 999
l 999 1000
l 1000 1001
l 1001 1002
l 1002 1003
l 1003 1004
l 1004 1005
l 1005 1006
l 1006 1007
l 1007 1008
l 1008 1009
l 1009 1010
l 1010 1011
l 1011 1012
l 1012 1013
l 1013 1014
l 1014 1015
l 1015 1016
l 1016 1017
l 1017 1018
l 1018 1019
l 1019 1020
l 1020 1021
l 1021 1022
l 1022 1023
l 1023 1024
l 1024 1025
l 1025 1026
l 1026 1027
l 1027 1028
l 1028 1029
l 1029 1030
l 1030 1031
l 1031 1032
l 1032 1033
l 1033 1034
l 1034 1035
l 1035 1036
l 1036 1037
l 1037 1038
l 1038 1039
l 1039 1040
l 1040 1041
l 1041 1042
l 1042 1043
l 1043 1044
l 1044 1045
l 1045 1046
l 1046 1047
l 1047 1048
l 1048 1049
l 1049 1050
l 1050 1051
l 1051 1052
l 1052 1053
l 1053 1054
l 1054 1055
l 1055 1056
l 1056 1057
l 1057 1058
l 1058 1059
l 1059 1060
l 1060 1061
l 1061 1062
l 1062 1063
l 1063 1064
l 1064 1065
l 1065 1066
l 1066 1067
l 1067 1068
l 1068 1069
l 1069 1070
l 1070 1071
l 1071 1072
l 1072 1073
l 1073 1074
l 1074 1075
l 1075 1076
l 1076 1077
l 1077 1078
l 1078 1079
l 1079 1080
l 1080 1081
l 1081 1082
l 1082 1083
l 1083 1084
l 1084 1085
l 1085 1086
l 1086 1087
l 1087 1088
l 1088 1089
l 1089 1090
l 1090 1091
l 1091 1092
l 1092 1093
l 1093 1094
l 1094 1095
l 1095 1096
l 1096 1097
l 1097 1098
l 1098 1099
l 1099 1100
l 1100 1101
l 1101 1102
l 1102 1103
l 1103 1104
l 1104 1105
l 1105 1106
l 1106 1107
l 1107 1108
l 1108 1109
l 1109 1110
l 1110 1111
l 1111 1112
l 1112 1113
l 1113 1114
l 1114 1115
l 1115 1116
l 1116 1117
l 1117 1118
l 1118 1119
l 1119 1120
l 1120 1121
l 1121 1122
l 1122 1123
l 1123 1124
l 1124 1125
l 1125 1126
l 1126 1127
l 1127 1128
l 1128 1129
l 1129 1130
l 1130 1131
l 1131 1132
l 1132 1133
l 1133 1134
l 1134 1135
l 1135 1136
l 1136 1137
l 1137 1138
l 1138 1139
l 1139 1140
l 1140 1141
l 1141 1142
l 1142 1143
l 1143 1144
l 1144 1145
l 1145 1146
l 1146 1147
l 1147 1148
l 1148 1149
l 1149 1150
l 1150 1151
l 1151 1152
l 1152 1153
l 1153 1154
l 1154 1155
l 1155 1156
l 1156 1157
l 1157 1158
l 1158 1159
l 1159 1160
l 1160 1161
l 1161 1162
l 1162 1163
l 1163 1164
l 1164 1165
l 1165 1166
l 1166 1167
l 1167 1168
l 1168 1169
l 1169 1170
l 1170 1171
l 1171 1172
l 1172 1173
l 1173 1174
l 1174 1175
l 1175 1176
l 1176 1177
l 1177 1178
l 1178 1179
l 1179 1180
l 1180 1181
l 1181 1182
l 1182 1183
l 1183 1184
l 1184 1185
l 1185 1186
l 1186 1187
l 1187 1188
l 1188 1189
l 1189 1190
l 1190 1191
l 1191 1192
l 1192 1193
l 1193 1194
l 1194 1195
l 1195 1196
l 1196 1197
l 1197 1198
l 1198 1199
l 1199 1200
l 1200 1201
l 1201 1202
l 1202 1203
l 1203 1204
l 1204 1205
l 1205 1206
l 1206 1207
l 1207 1208
l 1208 1209
l 1209 1210
l 1210 1211
l 1211 1212
l 1212 1213
l 1213 1214
l 1214 1215
l 1215 1216
l 1216 1217
l 1217 1218
l 1218 1219
l 1219 1220
l 1220 1221
l 1221 1222
l 1222 1223
l 1223 1224
l 1224 1225
l 1225 1226
l 1226 1227
l 1227 1228
l 1228 1229
l 1229 1230
l 1230 1231
l 1231 1232
l 1232 1233
l 1233 1234
l 1234 1235
l 1235 1236
l 1236 1237
l 1237 1238
l 1238 1239
l 1239 1240
l 1240 1241
l 1241 1242
l 1242 1243
l 1243 1244
l 1244 1245
l 1245 1246
l 1246 1247
l 1247 1248
l 1248 1249
l 1249 1250
l 1250 1251
l 1251 1252
l 1252 1253
l 1253 1254
l 1254 1255
l 1255 1256
l 1256 1257
l 1257 1258
l 1258 1259
l 1259 1260
l 1260 1261
l 1261 1262
l 1262 1263
l 1263 1264
l 1264 1265
l 1265 1266
l 1266 1267
l 1267 1268
l 1268 1269
l 1269 1270
l 1270 1271
l 1271 1272
l 1272 1273
l 1273 1274
l 1274 1275
l 1275 1276
l 1276 1277
l 1277 1278
l 1278 1279
l 1279 1280
l 1280 1281
l 1281 1282
l 1282 1283
l 1283 1284
l 1284 1285
l 1285 1286
l 1286 1287
l 1287 1288
l 1288 1289
l 1289 1290
l 1290 1291
l 1291 1292
l 1292 1293
l 1293 1294
l 1294 1295
l 1295 1296
l 1296 1297
l 1297 1298
l 1298 1299
l 1299 1300
l 1300 1301
l 1301 1302
l 1302 1303
l 1303 1304
l 1304 1305
l 1305 1306
l 1306 1307
l 1307 1308
l 1308 1309
l 1309 1310
l 1310 1311
l 1311 1312
l 1312 1313
l 1313 1314
l 1314 1315
l 1315 1316
l 1316 1317
l 1317 1318
l 1318 1319
l 1319 1320
l 1320 1321
l 1321 1322
l 1322 1323
l 1323 1324
l 1324 1325
l 1325 1326
l 1326 1327
l 1327 1328
l 1328 1329
l 1329 1330
l 1330 1331
l 1331 1332
l 1332 1333
l 1333 1334
l 1334 1335
l 1335 1336
l 1336 1337
l 1337 1338
l 1338 1339
l 1339 1340
l 1340 1341
l 1341 1342
l 1342 1343
l 1343 1344
l 1344 1345
l 1345 1346
l 1346 1347
l 1347 1348
l 1348 1349
l 1349 1350
l 1350 1351
l 1351 1352
l 1352 1353
l 1353 1354
l 1354 1355
l 1355 1356
l 1356 1357
l 1357 1358
l 1358 1359
l 1359 1360
l 1360 1361
l 1361 1362
l 1362 1363
l 1363 1364
l 1364 1365
l 1365 1366
l 1366 1367
l 1367 1368
l 1368 1369
l 1369 1370
l 1370 1371
l 1371 1372
l 1372 1373
l 1373 1374
l 1374 1375
l 1375 1376
l 1376 1377
l 1377 1378
l 1378 1379
l 1379 1380
l 1380 1381
l 1381 1382
l 1382 1383
l 1383 1384
l 1384 1385
l 1385 1386
l 1386 1387
l 1387 1388
l 1388 1389
l 1389 1390
l 1390 1391
l 1391 1392
l 1392 1393
l 1393 1394
l 1394 1395
l 1395 1396
l 1396 1397
l 1397 1398
l 1398 1399
l 1399 1400
l 1400 1401
l 1401 1402
l 1402 1403
l 1403 1404
l 1404 1405
l 1405 1406
l 1406 1407
l 1407 1408
l 1408 1409
l 1409 1410
l 1410 1411
l 1411 1412
l 1412 1413
l 1413 1414
l 1414 1415
l 1415 1416
l 1416 1417
l 1417 1418
l 1418 1419
l 1419 1420
l 1420 1421
l 1421 1422
l 1422 1423
l 1423 1424
l 1424 1425
l 1425 1426
l 1426 1427
l 1427 1428
l 1428 1429
l 1429 1430
l 1430 1431
l 1431 1432
l 1432 1433
l 1433 1434
l 1434 1435
l 1435 1436
l 1436 1437
l 1437 1438
l 1438 1439
l 1439 1440
l 1440 1441
l 1441 1442
l 1442 1443
l 1443 1444
l 1444 1445
l 1445 1446
l 1446 1447
l 1447 1448
l 1448 1449
l 1449 1450
l 1450 1451
l 1451 1452
l 1452 1453
l 1453 1454
l 1454 1455
l 1455 1456
l 1456 1457
l 1457 1458
l 1458 1459
l 1459 1460
l 1460 1461
l 1461 1462
l 1462 1463
l 1463 1464
l 1464 1465
l 1465 1466
l 1466 1467
l 1467 1468
l 1468 1469
l 1469 1470
l 1470 1471
l 1471 1472
l 1472 1473
l 1473 1474
l 1474 1475
l 1475 1476
l 1476 1477
l 1477 1478
l 1478 1479
l 1479 1480
l 1480 1481
l 1481 1482
l 1482 1483
l 1483 1484
l 1484 1485
l 1485 1486
l 1486 1487
l 1487 1488
l 1488 1489
l 1489 1490
l 1490 1491
l 1491 1492
l 1492 1493
l 1493 1494
l 1494 1495
l 1495 1496
l 1496 1497
l 1497 1498
l 1498 1499
l 1499 1500
l 1500 1501
