# Hopf drift winding s64_150 (Shallow 150°), 10 circuits, unit ball; ccsim.geometry.hopf_drift('s64_150', 10)
o drift
v 0.000000000 1.000000000 0.000000000
v -0.015382376 0.999474119 -0.015817079
v -0.030741897 0.998148331 -0.031608346
v -0.046058734 0.996024684 -0.047353689
v -0.061313159 0.993106395 -0.063033098
v -0.076474520 0.989312992 -0.078615211
v -0.091524538 0.984694342 -0.094081646
v -0.106448546 0.979298785 -0.109417687
v -0.121227676 0.973134387 -0.124604221
v -0.135825133 0.966135504 -0.139603710
v -0.150223758 0.958336074 -0.154398871
v -0.164417471 0.949800455 -0.168983757
v -0.178388996 0.940541202 -0.183340898
v -0.192080523 0.930460190 -0.197411356
v -0.205505839 0.919670588 -0.211209507
v -0.218654731 0.908203786 -0.224725115
v -0.231477781 0.896004158 -0.237907915
v -0.243964789 0.883109758 -0.250747721
v -0.256126933 0.869593926 -0.263256141
v -0.267904220 0.855397337 -0.275372202
v -0.279300381 0.840577008 -0.287099919
v -0.290328113 0.825195916 -0.298452414
v -0.300893643 0.809163983 -0.309334422
v -0.311067890 0.792622076 -0.319818330
v -0.320775305 0.775515673 -0.329827485
v -0.330040504 0.757913579 -0.339387124
v -0.338825132 0.739814335 -0.348458485
v -0.347136131 0.721261642 -0.357048829
v -0.354937357 0.702261251 -0.365121690
v -0.362257965 0.682871827 -0.372706872
v -0.369023293 0.663073121 -0.379728888
v -0.375290322 0.642940946 -0.386245764
v -0.381013101 0.622477690 -0.392211169
v -0.386176859 0.601711318 -0.397610428
v -0.390802849 0.580685672 -0.402465334
v -0.394877606 0.559425255 -0.406762536
v -0.398371084 0.537951396 -0.410471956
v -0.401288343 0.516299947 -0.413599050
v -0.403634108 0.494504157 -0.416148931
v -0.405402172 0.472593807 -0.418115683
v -0.406588313 0.450599539 -0.419495421
v -0.407190273 0.428552458 -0.420286261
v -0.407207698 0.406483781 -0.420488263
v -0.406642051 0.384424510 -0.420103337
v -0.405475882 0.362407643 -0.419114402
v -0.403723968 0.340464218 -0.417536824
v -0.401399514 0.318623039 -0.415384372
v -0.398483596 0.296919802 -0.412638605
v -0.394994839 0.275381837 -0.409318773
v -0.390926362 0.254043911 -0.405418602
v -0.386298125 0.232930756 -0.400958687
v -0.381098602 0.212080246 -0.395928177
v -0.375340716 0.191520449 -0.390340689
v -0.369035248 0.171279340 -0.384207694
v -0.362189364 0.151386790 -0.377537077
v -0.354812881 0.131871061 -0.370339364
v -0.346903596 0.112770504 -0.362613182
v -0.338486858 0.094101695 -0.354384473
v -0.329566025 0.075899163 -0.345657369
v -0.320158050 0.058185217 -0.336449421
v -0.310268318 0.040994433 -0.326766735
v -0.299913873 0.024349562 -0.316626857
v -0.289107166 0.008278683 -0.306042726
v -0.277863033 -0.007192494 -0.295029525
v -0.266201563 -0.022045970 -0.283607438
v -0.254130796 -0.036244550 -0.271784681
v -0.241673463 -0.049773248 -0.259583635
v -0.228846288 -0.062607127 -0.247020538
v -0.215668023 -0.074723838 -0.234113294
v -0.202155556 -0.086095153 -0.220877582
v -0.188332768 -0.096707291 -0.207335505
v -0.174219650 -0.106536187 -0.193504815
v -0.159838515 -0.115561193 -0.179404933
v -0.145213618 -0.123765469 -0.165056547
v -0.130369022 -0.131128669 -0.150479361
v -0.115331183 -0.137636385 -0.135694702
v -0.100126632 -0.143270529 -0.120723011
v -0.084783706 -0.148016786 -0.105585650
v -0.069332039 -0.151863992 -0.090304437
v -0.053802111 -0.154801725 -0.074901142
v -0.038225263 -0.156817817 -0.059397351
v -0.022634074 -0.157907315 -0.043815426
v -0.007061632 -0.158065914 -0.028177586
v 0.008458414 -0.157290559 -0.012506085
v 0.023892060 -0.155580957 0.003176703
v 0.039204998 -0.152938107 0.018848301
v 0.054363529 -0.149368666 0.034486275
v 0.069334312 -0.144880412 0.050068267
v 0.084084900 -0.139484100 0.065572077
v 0.098582651 -0.133188934 0.080975159
v 0.112797791 -0.126012554 0.096255816
v 0.126699593 -0.117967762 0.111391556
v 0.140260922 -0.109075543 0.126361107
v 0.153454818 -0.099354942 0.141142856
v 0.166256655 -0.088828282 0.155715906
v 0.178640104 -0.077513260 0.170057881
v 0.190586151 -0.065439483 0.184149985
v 0.202072099 -0.052628205 0.197970903
v 0.213077717 -0.039103892 0.211500238
v 0.223586115 -0.024894607 0.224719230
v 0.233581370 -0.010028166 0.237609427
v 0.243047292 0.005468917 0.250151872
v 0.251967643 0.021570678 0.262327214
v 0.260330148 0.038247382 0.274118487
v 0.268121606 0.055470910 0.285507856
v 0.275338000 0.073205781 0.296483957
v 0.281957440 0.091432254 0.307022272
v 0.287979512 0.110112951 0.317113821
v 0.293395013 0.129218459 0.326743152
v 0.298197883 0.148717474 0.335897122
v 0.302378922 0.168580779 0.344560035
v 0.305931520 0.188777299 0.352718041
v 0.308858981 0.209271724 0.360365424
v 0.311155316 0.230033713 0.367488933
v 0.312809840 0.251034064 0.374071152
v 0.313830762 0.272236783 0.380110606
v 0.314216815 0.293609945 0.385597935
v 0.313969953 0.315120980 0.390526614
v 0.313082771 0.336738744 0.394881679
v 0.311559475 0.358429435 0.398658367
v 0.309419745 0.380159610 0.401866531
v 0.306640825 0.401897577 0.404476630
v 0.303259050 0.423611276 0.406514506
v 0.299242272 0.445265493 0.407940896
v 0.294630602 0.466831291 0.408785999
v 0.289426257 0.488277105 0.409043766
v 0.283620322 0.509566793 0.408696530
v 0.277228940 0.530669668 0.407751559
v 0.270268504 0.551556555 0.406216756
v 0.262748804 0.572196487 0.404093376
v 0.254681426 0.592559231 0.401384554
v 0.246079685 0.612615633 0.398095338
v 0.236958523 0.632337977 0.394232684
v 0.227312596 0.651682827 0.389780479
v 0.217171000 0.670630518 0.384761056
v 0.206556964 0.689160478 0.379191013
v 0.195490764 0.707252066 0.373084163
v 0.183963707 0.724852682 0.366418949
v 0.172004075 0.741945203 0.359217627
v 0.159652926 0.758536247 0.351520517
v 0.146886169 0.774543940 0.343284164
v 0.133757592 0.789992590 0.334565375
v 0.120275802 0.804846145 0.325363116
v 0.106453036 0.819065436 0.315678992
v 0.092327043 0.832665998 0.305552502
v 0.077898396 0.845581487 0.294967395
v 0.063206531 0.857837356 0.283967282
v 0.048263210 0.869388118 0.272551748
v 0.033090262 0.880216209 0.260736937
v 0.017724124 0.890354980 0.248565646
v 0.002160147 0.899681947 0.236002531
v -0.013549374 0.908310286 0.223125538
v -0.029399335 0.916137305 0.209913531
v -0.045361886 0.923173335 0.196395410
v -0.061406841 0.929471187 0.182613011
v -0.077521143 0.934903800 0.168546564
v -0.093674424 0.939541647 0.154242545
v -0.109843744 0.943412664 0.139729674
v -0.126005263 0.946404247 0.125002024
v -0.142134901 0.948572118 0.110096411
v -0.158212574 0.949956225 0.095041901
v -0.174210151 0.950491225 0.079848558
v -0.190099853 0.950153683 0.064536708
v -0.205869489 0.949027556 0.049139074
v -0.221498657 0.947113634 0.033675131
v -0.236934767 0.944273848 0.018159685
v -0.252183588 0.940650510 0.002623235
v -0.267225912 0.936250582 -0.012914313
v -0.282020918 0.931013459 -0.028429706
v -0.296543263 0.924941500 -0.043898408
v -0.310796282 0.918116076 -0.059303016
v -0.324760617 0.910543604 -0.074623626
v -0.338361246 0.902106352 -0.089819114
v -0.351634215 0.892950215 -0.104886684
v -0.364563164 0.883088062 -0.119807639
v -0.377080365 0.872440070 -0.134538182
v -0.389197620 0.861081110 -0.149070562
v -0.400920372 0.849064549 -0.163396455
v -0.412181547 0.836328192 -0.177468245
v -0.422986088 0.822925724 -0.191277064
v -0.433352892 0.808923352 -0.204824058
v -0.443194518 0.794247209 -0.218045352
v -0.452551650 0.778989267 -0.230956166
v -0.461417169 0.763176984 -0.243542879
v -0.469710329 0.746761293 -0.255741709
v -0.477510982 0.729860544 -0.267598189
v -0.484718388 0.712414634 -0.279032476
v -0.491393893 0.694513406 -0.290079836
v -0.497478919 0.676143126 -0.300688538
v -0.502997169 0.657355090 -0.310868065
v -0.507911543 0.638157703 -0.320581390
v -0.512250237 0.618600742 -0.329842625
v -0.515954749 0.598683665 -0.338596853
v -0.519090926 0.578473172 -0.346889420
v -0.521567459 0.557957029 -0.354637479
v -0.523446892 0.537196803 -0.361884571
v -0.524726974 0.516219463 -0.368621895
v -0.525341253 0.495036159 -0.374784225
v -0.525345086 0.473696482 -0.380411355
v -0.524733879 0.452228785 -0.385491984
v -0.523502421 0.430662480 -0.390013986
v -0.521643370 0.409028216 -0.393962947
v -0.519150615 0.387358626 -0.397325142
v -0.516044026 0.365686875 -0.400111146
v -0.512326372 0.344044486 -0.402315891
v -0.508002444 0.322463082 -0.403936201
v -0.503076097 0.300974657 -0.404967955
v -0.497541055 0.279614399 -0.405396761
v -0.491420598 0.258411039 -0.405237586
v -0.484727015 0.237394138 -0.404494887
v -0.477467331 0.216594876 -0.403167810
v -0.469630202 0.196054124 -0.401235936
v -0.461262312 0.175785272 -0.398740003
v -0.452335379 0.155840721 -0.395640962
v -0.442894436 0.136231460 -0.391978614
v -0.432943920 0.116991366 -0.387749146
v -0.422484379 0.098160832 -0.382943562
v -0.411543777 0.079758292 -0.377583890
v -0.400136017 0.061812790 -0.371676430
v -0.388277491 0.044351273 -0.365230324
v -0.375976700 0.027410972 -0.358244868
v -0.363260648 0.011007239 -0.350741938
v -0.350146351 -0.004833191 -0.342731312
v -0.336649139 -0.020080055 -0.334220320
v -0.322789022 -0.034708902 -0.325222041
v -0.308588158 -0.048699470 -0.315752503
v -0.294066520 -0.062027369 -0.305824636
v -0.279246108 -0.074671863 -0.295454041
v -0.264145644 -0.086602645 -0.284650845
v -0.248792459 -0.097811420 -0.273438328
v -0.233205631 -0.108265198 -0.261825941
v -0.217411869 -0.117953248 -0.249835371
v -0.201435468 -0.126856548 -0.237483767
v -0.185300624 -0.134951357 -0.224786673
v -0.169034953 -0.142229421 -0.211766206
v -0.152664224 -0.148667388 -0.198438557
v -0.136216780 -0.154255891 -0.184825232
v -0.119720958 -0.158981429 -0.170946094
v -0.103206004 -0.162826597 -0.156820114
v -0.086702112 -0.165788581 -0.142470192
v -0.070240499 -0.167850377 -0.127915583
v -0.053852802 -0.169009136 -0.113178855
v -0.037571576 -0.169258323 -0.098281539
v -0.021430571 -0.168591055 -0.083245195
v -0.005462713 -0.167010591 -0.068092721
v 0.010296788 -0.164512481 -0.052845932
v 0.025814475 -0.161103548 -0.037527745
v 0.041055349 -0.156786776 -0.022160616
v 0.055984619 -0.151568560 -0.006767314
v 0.070569214 -0.145461235 0.008629282
v 0.084776092 -0.138477405 0.024006385
v 0.098573350 -0.130632438 0.039341249
v 0.111928779 -0.121941285 0.054610920
v 0.124813700 -0.112425281 0.069792812
v 0.137200648 -0.102106674 0.084864506
v 0.149062475 -0.091007413 0.099803400
v 0.160374157 -0.079151814 0.114587101
v 0.171114130 -0.066567677 0.129193927
v 0.181261844 -0.053282644 0.143602277
v 0.190795413 -0.039322032 0.157789649
v 0.199701841 -0.024719596 0.171736476
v 0.207961001 -0.009500712 0.185420128
v 0.215562505 0.006300807 0.198821576
v 0.222494788 0.022653680 0.211921185
v 0.228740873 0.039531269 0.224696380
v 0.234300903 0.056894992 0.237132578
v 0.239160388 0.074717646 0.249207879
v 0.243315406 0.092965322 0.260905489
v 0.246758113 0.111607034 0.272206355
v 0.249487072 0.130608729 0.283094855
v 0.251502889 0.149936384 0.293556713
v 0.252800786 0.169558768 0.303574330
v 0.253377555 0.189443868 0.313130799
v 0.253239644 0.209556699 0.322215457
v 0.252384900 0.229865475 0.330812012
v 0.250814290 0.250337218 0.338906017
v 0.248545249 0.270936525 0.346495092
v 0.245561266 0.291633633 0.353551972
v 0.241887673 0.312393036 0.360080457
v 0.237526311 0.333182775 0.366066970
v 0.232481836 0.353970162 0.371499816
v 0.226761970 0.374722190 0.376369602
v 0.220377723 0.395406074 0.380669673
v 0.213343555 0.415989921 0.384396569
v 0.205677459 0.436443553 0.387550491
v 0.197377118 0.456731787 0.390112831
v 0.188466534 0.476825556 0.392089165
v 0.178957560 0.496693356 0.393474093
v 0.168873900 0.516308400 0.394274038
v 0.158208542 0.535628964 0.394463488
v 0.147003014 0.554637903 0.394067879
v 0.135270889 0.573304804 0.393083740
v 0.123027532 0.591599550 0.391509194
v 0.110287363 0.609490119 0.389340709
v 0.097071477 0.626949225 0.386582406
v 0.083406101 0.643955420 0.383245347
v 0.069309354 0.660479584 0.379330398
v 0.054799262 0.676490689 0.374837454
v 0.039903840 0.691970274 0.369780470
v 0.024648242 0.706898010 0.364170209
v 0.009058149 0.721256063 0.358019049
v -0.006840568 0.735029295 0.351340806
v -0.023042704 0.748155137 0.344110102
v -0.039506871 0.760645202 0.336366018
v -0.056201155 0.772503988 0.328136589
v -0.073118613 0.783658384 0.319392886
v -0.090220848 0.794125797 0.310174327
v -0.107478671 0.803913785 0.300508203
v -0.124880034 0.812927936 0.290359685
v -0.142380153 0.821269176 0.279812879
v -0.159968967 0.828788686 0.268805644
v -0.177606199 0.835620943 0.257434285
v -0.195272762 0.841609260 0.245640296
v -0.212939055 0.846898593 0.233516261
v -0.230574738 0.851314603 0.221004501
v -0.248160242 0.855005845 0.208191140
v -0.265659474 0.857853195 0.195049284
v -0.283052844 0.859916175 0.181623013
v -0.300315344 0.861195906 0.167933230
v -0.317405507 0.861612314 0.153975878
v -0.334322660 0.861282992 0.139807076
v -0.351013587 0.860097383 0.125417945
v -0.367467595 0.858113919 0.110844814
v -0.383677125 0.855384692 0.096118465
v -0.399564579 0.851765393 0.081233941
v -0.415156284 0.847399975 0.066237824
v -0.430427443 0.842284918 0.051148667
v -0.445300573 0.836310506 0.035977770
v -0.459814925 0.829617937 0.020759880
v -0.473935720 0.822187365 0.005513970
v -0.487592301 0.813944429 -0.009737511
v -0.500829660 0.805015073 -0.024971709
v -0.513604906 0.795373076 -0.040166056
v -0.525857818 0.784974854 -0.055292063
v -0.537637816 0.773932737 -0.070336925
v -0.548887075 0.762208748 -0.085271463
v -0.559570812 0.749800718 -0.100068356
v -0.569735900 0.736801121 -0.114722113
v -0.579295234 0.723150414 -0.129189890
v -0.588269366 0.708907560 -0.143460588
v -0.596685092 0.694131307 -0.157528296
v -0.604413169 0.678738524 -0.171326998
v -0.611565455 0.662861777 -0.184885224
v -0.618060983 0.646466623 -0.198153303
v -0.623905687 0.629590607 -0.211118363
v -0.629120235 0.612280153 -0.223775342
v -0.633626192 0.594515029 -0.236069950
v -0.637514735 0.576382952 -0.248035058
v -0.640661313 0.557844013 -0.259588137
v -0.643187171 0.538993247 -0.270783087
v -0.644964616 0.519799537 -0.281530705
v -0.646101182 0.500341503 -0.291881476
v -0.646510685 0.480614237 -0.301767651
v -0.646242754 0.460667423 -0.311206251
v -0.645296230 0.440528282 -0.320183573
v -0.643620820 0.420216309 -0.328649622
v -0.641285529 0.399777221 -0.336639059
v -0.638267007 0.379235101 -0.344121657
v -0.634535605 0.358619353 -0.351059591
v -0.630143211 0.337966258 -0.357478076
v -0.625089193 0.317305288 -0.363362858
v -0.619375336 0.296667212 -0.368701055
v -0.612996289 0.276085016 -0.373472976
v -0.605964647 0.255591302 -0.377673703
v -0.598301429 0.235216055 -0.381306394
v -0.590016627 0.214990364 -0.384364757
v -0.581122239 0.194945016 -0.386844290
v -0.571632108 0.175110209 -0.388742282
v -0.561542383 0.155524483 -0.390037806
v -0.550885802 0.136211244 -0.390746694
v -0.539681466 0.117197842 -0.390871891
v -0.527948992 0.098510491 -0.390417306
v -0.515675301 0.080199536 -0.389349166
v -0.502916247 0.062266345 -0.387712343
v -0.489662469 0.044761923 -0.385475837
v -0.475956357 0.027693045 -0.382671118
v -0.461799913 0.011104835 -0.379279187
v -0.447221803 -0.004983361 -0.375314612
v -0.432245769 -0.020548654 -0.370786338
v -0.416892634 -0.035564233 -0.365699155
v -0.401185410 -0.050005834 -0.360060812
v -0.385148685 -0.063851879 -0.353881581
v -0.368803561 -0.077073255 -0.347165449
v -0.352176273 -0.089650244 -0.339924875
v -0.335294280 -0.101567036 -0.332175087
v -0.318182005 -0.112800533 -0.323925476
v -0.300864159 -0.123324919 -0.315184389
v -0.283369858 -0.133129501 -0.305970608
v -0.265726054 -0.142196498 -0.296297838
v -0.247959160 -0.150500463 -0.286175723
v -0.230098984 -0.158036093 -0.275625759
v -0.212173461 -0.164782153 -0.264660452
v -0.194211996 -0.170729052 -0.253298630
v -0.176244058 -0.175861196 -0.241556165
v -0.158299765 -0.180167842 -0.229451378
v -0.140409380 -0.183641540 -0.217003879
v -0.122604788 -0.186264365 -0.204229286
v -0.104916790 -0.188036133 -0.191150108
v -0.087377558 -0.188948334 -0.177785533
v -0.070019422 -0.188996347 -0.164156076
v -0.052876033 -0.188173805 -0.150281765
v -0.035979839 -0.186482283 -0.136184718
v -0.019365998 -0.183917236 -0.121885429
v -0.003067479 -0.180483899 -0.107406564
v 0.012881492 -0.176185859 -0.092770141
v 0.028444810 -0.171025203 -0.077997959
v 0.043590235 -0.165014555 -0.063113300
v 0.058282538 -0.158161899 -0.048138610
v 0.072489654 -0.150482521 -0.033096999
v 0.086175776 -0.141986948 -0.018011242
v 0.099311558 -0.132696830 -0.002904706
v 0.111866273 -0.122631832 0.012199520
v 0.123810060 -0.111813264 0.027278269
v 0.135113934 -0.100263960 0.042308219
v 0.145754913 -0.088013188 0.057266525
v 0.155706926 -0.075086467 0.072129929
v 0.164950497 -0.061515291 0.086875908
v 0.173462614 -0.047327390 0.101481117
v 0.181228753 -0.032556956 0.115923592
v 0.188233327 -0.017236202 0.130181033
v 0.194464229 -0.001398912 0.144231771
v 0.199905086 0.014924398 0.158052538
v 0.204554171 0.031695288 0.171624184
v 0.208401022 0.048881491 0.184924760
v 0.211438599 0.066449307 0.197933031
v 0.213664286 0.084363645 0.210629123
v 0.215080924 0.102588296 0.222995359
v 0.215680340 0.121091683 0.235009285
v 0.215470009 0.139837353 0.246654997
v 0.214450764 0.158791767 0.257913688
v 0.212628200 0.177920652 0.268768755
v 0.210004093 0.197190879 0.279201543
v 0.206588604 0.216568198 0.289197751
v 0.202384842 0.236019666 0.298739161
v 0.197407232 0.255511616 0.307814085
v 0.191664659 0.275011323 0.316407729
v 0.185170379 0.294486366 0.324508120
v 0.177931517 0.313904099 0.332099126
v 0.169963235 0.333232289 0.339169881
v 0.161283943 0.352439969 0.345712302
v 0.151912913 0.371497075 0.351719367
v 0.141850792 0.390368538 0.357168974
v 0.131127948 0.409027095 0.362062840
v 0.119762629 0.427443022 0.366393383
v 0.107775342 0.445587758 0.370155178
v 0.095174493 0.463426226 0.373330918
v 0.081991006 0.480934271 0.375924585
v 0.068256158 0.498090864 0.377942396
v 0.053971130 0.514854039 0.379358002
v 0.039182569 0.531214468 0.380194896
v 0.023891321 0.547126483 0.380424129
v 0.008145822 0.562586777 0.380074222
v -0.008040994 0.577558918 0.379129847
v -0.024648552 0.592011080 0.377583493
v -0.041638366 0.605934676 0.375453997
v -0.058985031 0.619305903 0.372742100
v -0.076661780 0.632102246 0.369450247
v -0.094640650 0.644302701 0.365582624
v -0.112892689 0.655887995 0.361145172
v -0.131388183 0.666840794 0.356145571
v -0.150096934 0.677145880 0.350593185
v -0.168988547 0.686790313 0.344498978
v -0.188032758 0.695763538 0.337875379
v -0.207204561 0.704019593 0.330708670
v -0.226468193 0.711565386 0.323026044
v -0.245791791 0.718408814 0.314852855
v -0.265146946 0.724545966 0.306204665
v -0.284502197 0.729889945 0.297045530
v -0.303826782 0.734518314 0.287445003
v -0.323092607 0.738409954 0.277407379
v -0.342260665 0.741498157 0.266914550
v -0.361314803 0.743874861 0.256036035
v -0.380206501 0.745432863 0.244733721
v -0.398923950 0.746259632 0.233071490
v -0.417423012 0.746291314 0.221036367
v -0.435685844 0.745571460 0.208667803
v -0.453673026 0.744066380 0.195969256
v -0.471368585 0.741814722 0.182975829
v -0.488726351 0.738774259 0.169689798
v -0.505748169 0.735015855 0.156155656
v -0.522362070 0.730453180 0.142363742
v -0.538606993 0.725216295 0.128373009
v -0.554370153 0.719161689 0.114163022
v -0.569712114 0.712440824 0.099792720
v -0.584552393 0.704976744 0.085263928
v -0.598889279 0.696813171 0.070605930
v -0.612722755 0.687991912 0.055845694
v -0.625959202 0.678437378 0.040994331
v -0.638671277 0.668276750 0.026087394
v -0.650755452 0.657432032 0.011140779
v -0.662241633 0.645973252 -0.003819481
v -0.673124236 0.633929280 -0.018771203
v -0.683309008 0.621247832 -0.033687845
v -0.692886133 0.608043526 -0.048553161
v -0.701741289 0.594254185 -0.063334163
v -0.709924219 0.579952539 -0.078015764
v -0.717419980 0.565158542 -0.092575552
v -0.724157022 0.549854772 -0.106979039
v -0.730231861 0.534134424 -0.121227841
v -0.735491121 0.517935883 -0.135263670
v -0.740065411 0.501364162 -0.149102319
v -0.743849710 0.484393587 -0.162693248
v -0.746898819 0.467080367 -0.176035266
v -0.749174386 0.449437299 -0.189095652
v -0.750685238 0.431496708 -0.201859244
v -0.751427037 0.413287214 -0.214304868
v -0.751398346 0.394836425 -0.226413857
v -0.750591555 0.376172711 -0.238163122
v -0.749033848 0.357330579 -0.249547843
v -0.746675115 0.338330079 -0.260523174
v -0.743604194 0.319214889 -0.271117759
v -0.739708849 0.299999665 -0.281250599
v -0.735095588 0.280727057 -0.290962289
v -0.729747765 0.261422610 -0.300225843
v -0.723621043 0.242118010 -0.308992690
v -0.716789425 0.222843499 -0.317290677
v -0.709254308 0.203627352 -0.325102610
v -0.700986732 0.184505057 -0.332387333
v -0.692021521 0.165505868 -0.339148379
v -0.682383724 0.146657298 -0.345384168
v -0.672083783 0.127989502 -0.351082132
v -0.661134534 0.109532769 -0.356231161
v -0.649551089 0.091317205 -0.360821731
v -0.637350683 0.073372433 -0.364845999
v -0.624552493 0.055727333 -0.368297856
v -0.611177429 0.038409797 -0.371172947
v -0.597247919 0.021446536 -0.373468656
v -0.582787678 0.004862908 -0.375184072
v -0.567821486 -0.011317212 -0.376319925
v -0.552349064 -0.027046187 -0.376845873
v -0.536421284 -0.042322533 -0.376793579
v -0.520057812 -0.057117705 -0.376157609
v -0.503272962 -0.071394113 -0.374923400
v -0.486105493 -0.085143809 -0.373110828
v -0.468578012 -0.098339785 -0.370717382
v -0.450711712 -0.110948293 -0.367735413
v -0.432542795 -0.122962422 -0.364183869
v -0.414097628 -0.134358557 -0.360064855
v -0.395404639 -0.145115975 -0.355383643
v -0.376493620 -0.155216933 -0.350148268
v -0.357395130 -0.164646648 -0.344369131
v -0.338137505 -0.173379567 -0.338048415
v -0.318753115 -0.181406551 -0.331201234
v -0.299273045 -0.188712890 -0.323838348
v -0.279728720 -0.195288552 -0.315973651
v -0.260151318 -0.201112043 -0.307613611
v -0.240573225 -0.206176953 -0.298774918
v -0.221026886 -0.210469388 -0.289469495
v -0.201544803 -0.213982387 -0.279713566
v -0.182158509 -0.216715170 -0.269526506
v -0.162903281 -0.218644611 -0.258915802
v -0.143810331 -0.219776906 -0.247904649
v -0.124913328 -0.220104478 -0.236508864
v -0.106245451 -0.219624510 -0.224746663
v -0.087841549 -0.218331074 -0.212634983
v -0.069733842 -0.216227901 -0.200194823
v -0.051958188 -0.213310750 -0.187443915
v -0.034546921 -0.209585895 -0.174403947
v -0.017533913 -0.205057152 -0.161095414
v -0.000956475 -0.199724166 -0.147537555
v 0.015156007 -0.193602481 -0.133754255
v 0.030765567 -0.186694487 -0.119765388
v 0.045840391 -0.179014384 -0.105593905
v 0.060347467 -0.170575624 -0.091262213
v 0.074251836 -0.161390871 -0.076792483
v 0.087523362 -0.151480088 -0.062208066
v 0.100131268 -0.140863294 -0.047532022
v 0.112043577 -0.129560471 -0.032787360
v 0.123232810 -0.117597012 -0.017997596
v 0.133673237 -0.105000185 -0.003186155
v 0.143336164 -0.091795485 0.011623483
v 0.152200921 -0.078015047 0.026407781
v 0.160247946 -0.063691380 0.041143432
v 0.167453248 -0.048854357 0.055806578
v 0.173807439 -0.033542306 0.070374599
v 0.179289361 -0.017786584 0.084823408
v 0.183892792 -0.001625812 0.099130695
v 0.187607573 0.014904203 0.113273526
v 0.190426897 0.031766827 0.127229327
v 0.192347998 0.048924775 0.140976229
v 0.193364377 0.066342501 0.154491169
v 0.193482470 0.083981662 0.167754297
v 0.192699836 0.101807016 0.180743205
v 0.191020686 0.119782349 0.193437159
v 0.188449750 0.137871995 0.205815421
v 0.185000063 0.156040249 0.217860322
v 0.180674080 0.174252925 0.229550067
v 0.175487273 0.192475611 0.240867984
v 0.169449408 0.210674725 0.251795056
v 0.162574985 0.228817242 0.262314378
v 0.154879834 0.246870904 0.272409863
v 0.146372975 0.264802614 0.282061550
v 0.137078437 0.282581992 0.291257783
v 0.127013788 0.300178253 0.299983579
v 0.116196370 0.317560669 0.308223724
v 0.104647588 0.334699866 0.315965625
v 0.092393073 0.351568695 0.323200058
v 0.079444278 0.368134107 0.329907145
v 0.065838894 0.384375043 0.336087251
v 0.051585668 0.400256276 0.341717539
v 0.036722901 0.415758810 0.346800063
v 0.021273192 0.430855327 0.351323809
v 0.005261847 0.445519873 0.355279917
v -0.011283244 0.459728378 0.358662041
v -0.028331823 0.473459268 0.361466711
v -0.045851636 0.486694113 0.363693691
v -0.063822260 0.499400765 0.365327268
v -0.082207402 0.511564410 0.366371656
v -0.100971264 0.523173488 0.366833329
v -0.120092159 0.534193169 0.366695073
v -0.139530927 0.544617518 0.365969073
v -0.159251343 0.554439669 0.364665559
v -0.179233730 0.563611920 0.362756694
v -0.199434971 0.572142336 0.360267005
v -0.219821600 0.580018757 0.357201544
v -0.240360886 0.587226228 0.353562939
v -0.261019273 0.593751519 0.349355487
v -0.281762615 0.599583275 0.344585172
v -0.302556424 0.604712144 0.339259650
v -0.323366147 0.609130870 0.333388209
v -0.344157460 0.612834373 0.326981698
v -0.364896563 0.615819766 0.320052417
v -0.385550488 0.618086351 0.312613975
v -0.406084982 0.619624178 0.304673523
v -0.426458558 0.620401498 0.296224769
v -0.446646411 0.620459433 0.287309599
v -0.466619784 0.619805116 0.277945789
v -0.486335210 0.618405160 0.268126682
v -0.505757813 0.616262389 0.257869433
v -0.524876976 0.613427910 0.247217428
v -0.543635316 0.609848432 0.236154903
v -0.562013547 0.605557486 0.224715641
v -0.580001760 0.600592708 0.212932508
v -0.597516923 0.594877467 0.200783076
v -0.614601040 0.588528758 0.188338139
v -0.631152341 0.581451877 0.175569624
v -0.647212883 0.573751506 0.162538954
v -0.662697677 0.565366196 0.149236098
v -0.677633040 0.556370759 0.135706573
v -0.691945555 0.546725861 0.121952170
v -0.705662767 0.536499913 0.108013014
v -0.718704882 0.525654535 0.093894382
v -0.731119582 0.514269443 0.079636299
v -0.742801858 0.502292316 0.065244336
v -0.753838021 0.489825295 0.050758890
v -0.764080571 0.476794038 0.036187137
v -0.773657208 0.463319416 0.021565842
v -0.782403350 0.449327780 0.006910089
v -0.790442833 0.434925555 -0.007752678
v -0.797651065 0.420073632 -0.022398381
v -0.804100179 0.404839995 -0.037006477
v -0.809723536 0.389222691 -0.051549671
v -0.814540787 0.373259751 -0.066007533
v -0.818540161 0.356976200 -0.080355953
v -0.821696187 0.340391037 -0.094569492
v -0.824040809 0.323544688 -0.108631216
v -0.825518709 0.306448337 -0.122508743
v -0.826186914 0.289146956 -0.136192522
v -0.825982470 0.271653307 -0.149645686
v -0.824962668 0.254008775 -0.162861532
v -0.823084418 0.236233373 -0.175806268
v -0.820376105 0.218361182 -0.188466274
v -0.816845237 0.200419946 -0.200823737
v -0.812459918 0.182438363 -0.212843124
v -0.807309923 0.164446231 -0.224540574
v -0.801271792 0.146475128 -0.235838879
v -0.794477731 0.128551216 -0.246775258
v -0.786894144 0.110704092 -0.257312797
v -0.778500165 0.092969285 -0.267415589
v -0.769368731 0.075366486 -0.277100209
v -0.759496458 0.057925415 -0.286342716
v -0.748848987 0.040689175 -0.295095683
v -0.737499845 0.023671638 -0.303380379
v -0.725460552 0.006901048 -0.311180446
v -0.712745105 -0.009594070 -0.318480395
v -0.699367316 -0.025783831 -0.325263647
v -0.685335293 -0.041633246 -0.331507321
v -0.670691766 -0.057126087 -0.337217675
v -0.655458642 -0.072236294 -0.342384560
v -0.639659721 -0.086938719 -0.346999355
v -0.623320495 -0.101209333 -0.351055028
v -0.606467098 -0.115024595 -0.354545217
v -0.589113707 -0.128347780 -0.357448471
v -0.571302855 -0.141170161 -0.359776724
v -0.553065377 -0.153473705 -0.361529847
v -0.534432551 -0.165242147 -0.362709260
v -0.515413692 -0.176423684 -0.363280166
v -0.496063469 -0.187036590 -0.363280129
v -0.476399472 -0.197038276 -0.362684918
v -0.456463423 -0.206432871 -0.361515883
v -0.436276071 -0.215174404 -0.359747685
v -0.415880246 -0.223273075 -0.357406745
v -0.395306556 -0.230708571 -0.354491298
v -0.374587785 -0.237463836 -0.351002990
v -0.353758073 -0.243525107 -0.346946539
v -0.332852218 -0.248881843 -0.342329375
v -0.311905104 -0.253526591 -0.337161283
v -0.290951229 -0.257454794 -0.331454045
v -0.270025987 -0.260644419 -0.325206754
v -0.249163456 -0.263104434 -0.318441102
v -0.228400749 -0.264812558 -0.311156707
v -0.207771466 -0.265776678 -0.303374175
v -0.187311293 -0.265989611 -0.295103695
v -0.167055528 -0.265448678 -0.286358583
v -0.147038489 -0.264155131 -0.277154563
v -0.127298437 -0.262100521 -0.267501698
v -0.107865775 -0.259297971 -0.257422618
v -0.088780921 -0.255737468 -0.246926787
v -0.070074851 -0.251431329 -0.236036068
v -0.051782389 -0.246383793 -0.224767665
v -0.033940822 -0.240596696 -0.213137701
v -0.016581419 -0.234082720 -0.201167479
v 0.000259486 -0.226847834 -0.188874975
v 0.016549926 -0.218905281 -0.176281283
v 0.032255864 -0.210266575 -0.163406515
v 0.047345497 -0.200947010 -0.150272076
v 0.061782390 -0.190958388 -0.136897938
v 0.075539906 -0.180323561 -0.123307716
v 0.088584139 -0.169059300 -0.109522611
v 0.100884653 -0.157187021 -0.095565134
v 0.112411847 -0.144729996 -0.081458072
v 0.123139244 -0.131714785 -0.067224756
v 0.133042093 -0.118169772 -0.052888577
v 0.142091766 -0.104121953 -0.038472563
v 0.150269701 -0.089604934 -0.024000626
v 0.157550132 -0.074649110 -0.009496231
v 0.163919715 -0.059291367 0.005016734
v 0.169358528 -0.043565834 0.019514512
v 0.173854643 -0.027510142 0.033973325
v 0.177398046 -0.011162317 0.048369547
v 0.179978227 0.005439806 0.062679354
v 0.181591083 0.022256958 0.076879355
v 0.182234774 0.039249982 0.090946384
v 0.181907587 0.056380192 0.104857129
v 0.180611155 0.073608869 0.118588558
v 0.178351006 0.090897578 0.132118212
v 0.175137223 0.108208620 0.145424636
v 0.170971147 0.125504866 0.158483953
v 0.165870837 0.142750116 0.171276468
v 0.159846918 0.159908849 0.183780499
v 0.152914335 0.176946494 0.195975531
v 0.145091876 0.193829906 0.207842469
v 0.136389133 0.210524499 0.219358435
v 0.126833707 0.227000198 0.230507753
v 0.116443884 0.243225600 0.241271114
v 0.105241030 0.259170536 0.251630502
v 0.093251082 0.274807152 0.261570404
v 0.080491705 0.290104474 0.271070705
v 0.066998730 0.305040361 0.280122055
v 0.052784848 0.319581354 0.288700789
v 0.037887399 0.333707480 0.296799197
v 0.022334046 0.347394353 0.304403774
v 0.006151424 0.360616888 0.311500098
v -0.010633695 0.373349471 0.318073235
v -0.027978209 0.385581611 0.324123825
v -0.045867848 0.397276303 0.329624914
v -0.064255393 0.408428932 0.334582618
v -0.083111951 0.419017407 0.338985016
v -0.102406280 0.429021395 0.342822055
v -0.122104975 0.438422751 0.346085880
v -0.142172761 0.447205991 0.348771155
v -0.162572901 0.455358782 0.350875393
v -0.183267756 0.462872451 0.352399257
v -0.204219502 0.469742480 0.353346817
v -0.225403192 0.475923481 0.353686253
v -0.246768076 0.481450814 0.353456723
v -0.268287992 0.486273761 0.352622317
v -0.289918105 0.490424560 0.351218450
v -0.311626062 0.493864718 0.349220431
v -0.333372821 0.496598976 0.346640127
v -0.355121144 0.498633974 0.343490584
v -0.376834659 0.499963161 0.339773945
v -0.398476478 0.500581812 0.335493956
v -0.420009427 0.500487128 0.330655991
v -0.441395191 0.499674019 0.325263810
v -0.462599565 0.498154929 0.319334596
v -0.483584248 0.495925138 0.312872424
v -0.504313096 0.492989382 0.305888624
v -0.524751900 0.489356554 0.298397518
v -0.544867240 0.485035808 0.290413488
v -0.564627222 0.480038050 0.281952028
v -0.584001682 0.474375761 0.273029567
v -0.602957089 0.468055285 0.263658242
v -0.621433933 0.461050639 0.253829272
v -0.639433399 0.453420822 0.243590470
v -0.656932180 0.445183425 0.232961024
v -0.673865234 0.436311412 0.221932468
v -0.690219677 0.426840538 0.210536627
v -0.705999781 0.416815513 0.198809051
v -0.721115882 0.406195337 0.186735046
v -0.735590514 0.395042462 0.174360819
v -0.749406617 0.383377898 0.161707067
v -0.762477167 0.371176470 0.148771460
v -0.774875500 0.358524322 0.135608910
v -0.786474356 0.345374091 0.122207418
v -0.797348119 0.331806167 0.108616986
v -0.807417238 0.317807458 0.094843589
v -0.816695076 0.303419171 0.080918045
v -0.825162797 0.288662301 0.066861427
v -0.832784341 0.273554083 0.052695346
v -0.839590713 0.258135977 0.038447138
v -0.845506491 0.242412418 0.024136215
v -0.850603936 0.226435574 0.009790007
v -0.854775255 0.210204721 -0.004569503
v -0.858129066 0.193776130 -0.018919151
v -0.860527965 0.177148918 -0.033230890
v -0.862116653 0.160378951 -0.047489442
v -0.862725977 0.143468714 -0.061657367
v -0.862526400 0.126468765 -0.075729118
v -0.861355119 0.109391965 -0.089660127
v -0.859357302 0.092277317 -0.103448979
v -0.856426103 0.075148952 -0.117053642
v -0.852639940 0.058037375 -0.130465662
v -0.847974856 0.040970496 -0.143657283
v -0.842422622 0.023980278 -0.156600741
v -0.836062644 0.007085871 -0.169297062
v -0.828779384 -0.009665203 -0.181683358
v -0.820708438 -0.026264398 -0.193781064
v -0.811809581 -0.042675333 -0.205552150
v -0.802077589 -0.058862756 -0.216966837
v -0.791585945 -0.074816397 -0.228032174
v -0.780311475 -0.090497640 -0.238711906
v -0.768258672 -0.105871901 -0.248978864
v -0.755490230 -0.120930682 -0.258839305
v -0.742020058 -0.135647511 -0.268274648
v -0.727841121 -0.149981792 -0.277250457
v -0.712985509 -0.163911350 -0.285755489
v -0.697494580 -0.177422656 -0.293787474
v -0.681390482 -0.190491134 -0.301331156
v -0.664697508 -0.203092950 -0.308372342
v -0.647441967 -0.215205233 -0.314898063
v -0.629652014 -0.226806287 -0.320896706
v -0.611357450 -0.237875770 -0.326358118
v -0.592589498 -0.248394842 -0.331273685
v -0.573380570 -0.258346289 -0.335636376
v -0.553764016 -0.267714615 -0.339440766
v -0.533773889 -0.276486098 -0.342683038
v -0.513440318 -0.284639907 -0.345352806
v -0.492791410 -0.292147253 -0.347432847
v -0.471874979 -0.299022840 -0.348945312
v -0.450719821 -0.305240043 -0.349874911
v -0.429360479 -0.310783120 -0.350216405
v -0.407836364 -0.315652631 -0.349978780
v -0.386182388 -0.319836356 -0.349159754
v -0.364434136 -0.323313458 -0.347750267
v -0.342630697 -0.326094332 -0.345767225
v -0.320808267 -0.328167909 -0.343209615
v -0.299004142 -0.329526704 -0.340079567
v -0.277255986 -0.330166652 -0.336382061
v -0.255601213 -0.330086889 -0.332124614
v -0.234076503 -0.329289488 -0.327316955
v -0.212719263 -0.327772676 -0.321965865
v -0.191569425 -0.325528654 -0.316073814
v -0.170659938 -0.322573548 -0.309661012
v -0.150028953 -0.318905530 -0.302734301
v -0.129716311 -0.314522610 -0.295300719
v -0.109754754 -0.309438816 -0.287378607
v -0.090180387 -0.303660395 -0.278980689
v -0.071033851 -0.297187799 -0.270115896
v -0.052343500 -0.290041414 -0.260806440
v -0.034149407 -0.282224411 -0.251063031
v -0.016482405 -0.273753468 -0.240905082
v 0.000621195 -0.264638882 -0.230347806
v 0.017127800 -0.254895237 -0.219409011
v 0.033006625 -0.244540488 -0.208108310
v 0.048222795 -0.233589476 -0.196463278
v 0.062748187 -0.222063799 -0.184495124
v 0.076547943 -0.209980406 -0.172222177
v 0.089593189 -0.197362083 -0.159665707
v 0.101854243 -0.184231856 -0.146846732
v 0.113306932 -0.170616942 -0.133787968
v 0.123919194 -0.156540919 -0.120509951
v 0.133669260 -0.142034093 -0.107036025
v 0.142531286 -0.127125472 -0.093388471
v 0.150482558 -0.111846575 -0.079590280
v 0.157503187 -0.096230890 -0.065664835
v 0.163575444 -0.080313340 -0.051635666
v 0.168677557 -0.064128653 -0.037526027
v 0.172802851 -0.047716158 -0.023360262
v 0.175932383 -0.031112824 -0.009161957
v 0.178064412 -0.014359310 0.005044755
v 0.179185240 0.002505256 0.019235830
v 0.179298679 0.019439680 0.033387448
v 0.178397616 0.036403623 0.047475344
v 0.176490522 0.053356414 0.061476125
v 0.173577612 0.070257696 0.075365647
v 0.169668037 0.087067708 0.089120473
v 0.164773208 0.103747595 0.102717462
v 0.158905946 0.120259375 0.116133630
v 0.152080062 0.136565804 0.129346000
v 0.144311444 0.152630558 0.142331773
v 0.135622701 0.168419984 0.155069817
v 0.126033645 0.183900523 0.167538296
v 0.115564767 0.199039335 0.179715346
v 0.104240491 0.213805674 0.191580259
v 0.092089571 0.228171746 0.203114153
v 0.079135320 0.242107822 0.214295997
v 0.065409509 0.255589388 0.225108536
v 0.050938035 0.268589201 0.235531848
v 0.035750424 0.281082532 0.245547666
v 0.019879949 0.293048042 0.255140101
v 0.003362627 0.304467993 0.264295831
v -0.013779338 0.315312456 0.272991530
v -0.031503177 0.325570786 0.281219062
v -0.049776523 0.335223506 0.288963042
v -0.068565191 0.344253109 0.296209492
v -0.087832463 0.352645651 0.302947147
v -0.107539525 0.360391550 0.309168115
v -0.127659949 0.367460734 0.314848023
v -0.148141993 0.373866712 0.319997277
v -0.168960570 0.379574734 0.324587600
v -0.190070035 0.384590865 0.328623344
v -0.211432973 0.388905745 0.332096469
v -0.233011503 0.392510658 0.334999422
v -0.254766694 0.395399898 0.337327033
v -0.276659082 0.397571093 0.339076802
v -0.298649304 0.399025513 0.340249156
v -0.320699298 0.399749853 0.340832761
v -0.342768610 0.399746212 0.340828682
v -0.364819325 0.399037456 0.340254793
v -0.386809330 0.397582744 0.339077449
v -0.408704523 0.395431579 0.337336101
v -0.430461589 0.392556361 0.335007783
v -0.452043493 0.388972435 0.332104321
v -0.473416151 0.384698822 0.328640560
v -0.494541887 0.379739285 0.324618971
v -0.515374358 0.374081492 0.320028904
v -0.535883083 0.367752231 0.314891551
v -0.556033738 0.360765743 0.309217924
v -0.575790843 0.353133646 0.303016902
v -0.595119876 0.344869342 0.296298833
v -0.613987502 0.335987934 0.289075458
v -0.632361777 0.326506103 0.281359825
v -0.650212341 0.316441971 0.273166176
v -0.667501683 0.305806659 0.264503002
v -0.684189170 0.294611075 0.255378583
v -0.700262544 0.282891230 0.245821899
v -0.715698078 0.270670101 0.235851231
v -0.730474151 0.257971230 0.225485357
v -0.744543194 0.244801516 0.214729250
v -0.757870807 0.231180703 0.203598459
v -0.770473058 0.217155548 0.192131052
v -0.782335636 0.202751061 0.180347107
v -0.793350654 0.187952535 0.168233358
v -0.803589797 0.172828437 0.155846171
v -0.813036458 0.157401356 0.143203642
v -0.821578379 0.141666126 0.130300195
v -0.829308485 0.125686368 0.117188541
v -0.836170067 0.109474741 0.103878244
v -0.842122067 0.093054787 0.090387878
v -0.847238734 0.076471421 0.076754769
v -0.851391344 0.059732772 0.062983928
v -0.854676730 0.042884938 0.049113913
v -0.857049238 0.025950278 0.035162294
v -0.858481151 0.008958679 0.021152962
v -0.859055286 -0.008058701 0.007112195
v -0.858624460 -0.025072468 -0.006937988
v -0.857339481 -0.042054655 -0.020973057
v -0.855105860 -0.058972659 -0.034967747
v -0.851967010 -0.075798193 -0.048898597
v -0.847951269 -0.092507208 -0.062745766
v -0.842980211 -0.109055689 -0.076474547
v -0.837174217 -0.125435613 -0.090076967
v -0.830444394 -0.141597700 -0.103514186
v -0.822858546 -0.157525675 -0.116772196
v -0.814450937 -0.173201203 -0.129835732
v -0.805138525 -0.188562798 -0.142656012
v -0.795040731 -0.203619971 -0.155239299
v -0.784143655 -0.218337165 -0.167556984
v -0.772418030 -0.232664451 -0.179569012
v -0.759951721 -0.246609292 -0.191280386
v -0.746758391 -0.260146856 -0.202670866
v -0.732791303 -0.273210005 -0.213686711
v -0.718142684 -0.285816597 -0.224341304
v -0.702831636 -0.297942965 -0.234615309
v -0.686879220 -0.309565676 -0.244489566
v -0.670283779 -0.320638569 -0.253926817
v -0.653097157 -0.331160027 -0.262925208
v -0.635353477 -0.341116311 -0.271473299
v -0.617080889 -0.350488000 -0.279555139
v -0.598309335 -0.359256906 -0.287155767
v -0.579070394 -0.367406253 -0.294261361
v -0.559397106 -0.374920827 -0.300859356
v -0.539323764 -0.381787101 -0.306938553
v -0.518885693 -0.387993326 -0.312489193
v -0.498119015 -0.393529605 -0.317503017
v -0.477060413 -0.398387922 -0.321973298
v -0.455746895 -0.402562160 -0.325894848
v -0.434206332 -0.406013131 -0.329235951
v -0.412487206 -0.408768333 -0.332018435
v -0.390626906 -0.410828248 -0.334242474
v -0.368657424 -0.412149372 -0.335872921
v -0.346622548 -0.412770517 -0.336940785
v -0.324558620 -0.412656987 -0.337418022
v -0.302504436 -0.411839590 -0.337329265
v -0.280500113 -0.410285471 -0.336647978
v -0.258583761 -0.408016087 -0.335391315
v -0.236793499 -0.405034439 -0.333561612
v -0.215168367 -0.401341302 -0.331159425
v -0.193747217 -0.396940945 -0.328188133
v -0.172568131 -0.391840812 -0.324653679
v -0.151667965 -0.386051171 -0.320564285
v -0.131084655 -0.379579715 -0.315926101
v -0.110860631 -0.372427347 -0.310739799
v -0.091023250 -0.364622351 -0.305028082
v -0.071617848 -0.356162359 -0.298788947
v -0.052676531 -0.347067391 -0.292038382
v -0.034233547 -0.337353341 -0.284788998
v -0.016324224 -0.327035164 -0.277052582
v 0.001018686 -0.316131105 -0.268843484
v 0.017756412 -0.304654352 -0.260171855
v 0.033862449 -0.292629998 -0.251057318
v 0.049300015 -0.280074579 -0.241512405
v 0.064042237 -0.267013080 -0.231556280
v 0.078057093 -0.253467011 -0.221205041
v 0.091316187 -0.239461031 -0.210477050
v 0.103791236 -0.225020421 -0.199390836
v 0.115451867 -0.210170260 -0.187964336
v 0.126275025 -0.194940065 -0.176218704
v 0.136235915 -0.179358964 -0.164174271
v 0.145310490 -0.163457221 -0.151851737
v 0.153478425 -0.147267141 -0.139272934
v 0.160712287 -0.130820022 -0.126457988
v 0.167001601 -0.114152541 -0.113431208
v 0.172325332 -0.097299380 -0.100214237
v 0.176667080 -0.080297398 -0.086829865
v 0.180015247 -0.063184988 -0.073301618
v 0.182358051 -0.046001283 -0.059652896
v 0.183689461 -0.028786472 -0.045907660
v 0.184005306 -0.011581171 -0.032089807
v 0.183295830 0.005572952 -0.018223032
v 0.181569140 0.022634769 -0.004331783
v 0.178821420 0.039561844 0.009559857
v 0.175063832 0.056313428 0.023427741
v 0.170300885 0.072847630 0.037247576
v 0.164546151 0.089124436 0.050995350
v 0.157815156 0.105104820 0.064647271
v 0.150121803 0.120749457 0.078179207
v 0.141486245 0.136021463 0.091567588
v 0.131931599 0.150885896 0.104789317
v 0.121478761 0.165307332 0.117820708
v 0.110155434 0.179254331 0.130639375
v 0.097990744 0.192697415 0.143223479
v 0.085011173 0.205606222 0.155550334
v 0.071246748 0.217953243 0.167598162
v 0.056731680 0.229715066 0.179346862
v 0.041495311 0.240865197 0.190774351
v 0.025574476 0.251384251 0.201861909
v 0.009003309 0.261251602 0.212589880
v -0.008181631 0.270449901 0.222940132
v -0.025945898 0.278960176 0.232893328
v -0.044252295 0.286767140 0.242431969
v -0.063061097 0.293860091 0.251541127
v -0.082335839 0.300224649 0.260203508
v -0.102036486 0.305852636 0.268405463
v -0.122127280 0.310728604 0.276128596
v -0.142565365 0.314851494 0.283363570
v -0.163311527 0.318214603 0.290097440
v -0.184325341 0.320815499 0.296320056
v -0.205570592 0.322636876 0.302010970
v -0.227001809 0.323694774 0.307172520
v -0.248581408 0.323977209 0.311787759
v -0.270267065 0.323497845 0.315857787
v -0.292020264 0.322241190 0.319362725
v -0.313799367 0.320220176 0.322303180
v -0.335564207 0.317441748 0.324675578
v -0.357274954 0.313911917 0.326475696
v -0.378892341 0.309640003 0.327701886
v -0.400374917 0.304624485 0.328343918
v -0.421683086 0.298878744 0.328403075
v -0.442782723 0.292429253 0.327891596
v -0.463629943 0.285270177 0.326795485
v -0.484190228 0.277425717 0.325125197
v -0.504424213 0.268905373 0.322879162
v -0.524303463 0.259739908 0.320074075
v -0.543772653 0.249914627 0.316686820
v -0.562816550 0.239479595 0.312751396
v -0.581399572 0.228449856 0.308271216
v -0.599479155 0.216834410 0.303243663
v -0.617017921 0.204651149 0.297673893
v -0.633995359 0.191934359 0.291583004
v -0.650380149 0.178706051 0.284980569
v -0.666142355 0.164989712 0.277877576
v -0.681253603 0.150810172 0.270286365
v -0.695687237 0.136193452 0.262220543
v -0.709418444 0.121166587 0.253694893
v -0.722424356 0.105757451 0.244725247
v -0.734684111 0.089994557 0.235328366
v -0.746152441 0.073897035 0.225508677
v -0.756820848 0.057500712 0.215291114
v -0.766682822 0.040839630 0.204699718
v -0.775725271 0.023944135 0.193754337
v -0.783937037 0.006844365 0.182475087
v -0.791256653 -0.010438312 0.170864565
v -0.797699194 -0.027865077 0.158955110
v -0.803278468 -0.045401973 0.146775148
v -0.807983868 -0.063020052 0.134344042
v -0.811727099 -0.080691000 0.121663758
v -0.814590154 -0.098377872 0.108779824
v -0.816572863 -0.116052512 0.095713288
v -0.817576872 -0.133678473 0.082470026
v -0.817686351 -0.151227499 0.069089536
v -0.816915918 -0.168673321 0.055594677
v -0.815157720 -0.185967919 0.041997930
v -0.812519754 -0.203095843 0.028334392
v -0.809001266 -0.220029079 0.014624881
v -0.804515549 -0.236712499 0.000891809
v -0.799176722 -0.253144065 -0.012838444
v -0.792959211 -0.269286468 -0.026543504
v -0.785827109 -0.285091663 -0.040195207
v -0.777872542 -0.300562017 -0.053775265
v -0.769061206 -0.315651162 -0.067256430
v -0.759395324 -0.330322823 -0.080611057
v -0.748948329 -0.344580040 -0.093825442
v -0.737695465 -0.358374970 -0.106869164
v -0.725646290 -0.371673445 -0.119714574
v -0.712869062 -0.384482205 -0.132351877
v -0.699369908 -0.396769563 -0.144756038
v -0.685126312 -0.408475237 -0.156886863
v -0.670220359 -0.419622057 -0.168743607
v -0.654673206 -0.430188348 -0.180305478
v -0.638496058 -0.440140584 -0.191544991
v -0.621700886 -0.449440218 -0.202430751
v -0.604347564 -0.458101481 -0.212960437
v -0.586463470 -0.466106306 -0.223114636
v -0.568077680 -0.473437683 -0.232874373
v -0.549220928 -0.480079854 -0.242221258
v -0.529925533 -0.486018496 -0.251137639
v -0.510219537 -0.491229535 -0.259599530
v -0.490147264 -0.495718253 -0.267601347
v -0.469744593 -0.499476791 -0.275129539
v -0.449047669 -0.502497875 -0.282170947
v -0.428093404 -0.504776121 -0.288713671
v -0.406914967 -0.506290480 -0.294734952
v -0.385555090 -0.507051594 -0.300233624
v -0.364052497 -0.507060361 -0.305202132
v -0.342445718 -0.506319564 -0.309634384
v -0.320772903 -0.504833878 -0.313525793
v -0.299072008 -0.502569719 -0.316843342
v -0.277383476 -0.499566898 -0.319608166
v -0.255745613 -0.495825249 -0.321812098
v -0.234199767 -0.491330895 -0.323436141
v -0.212781974 -0.486114907 -0.324495909
v -0.191532824 -0.480173220 -0.324979907
v -0.170493479 -0.473510446 -0.324883010
v -0.149697852 -0.466151856 -0.324217006
v -0.129185343 -0.458104420 -0.322978927
v -0.108994974 -0.449378876 -0.321168703
v -0.089164777 -0.439989310 -0.318788977
v -0.069731310 -0.429952734 -0.315844890
v -0.050729292 -0.419288653 -0.312343826
v -0.032191336 -0.408018656 -0.308295155
v -0.014160469 -0.396152422 -0.303697213
v 0.003336915 -0.383719403 -0.298566498
v 0.020260225 -0.370734240 -0.292905510
v 0.036584164 -0.357226411 -0.286730939
v 0.052273415 -0.343216353 -0.280050610
v 0.067295743 -0.328728070 -0.272875587
v 0.081622204 -0.313788282 -0.265219552
v 0.095227194 -0.298425693 -0.257098259
v 0.108077686 -0.282665290 -0.248523016
v 0.120152724 -0.266538710 -0.239512451
v 0.131418264 -0.250072191 -0.230078226
v 0.141856998 -0.233299565 -0.220240956
v 0.151445285 -0.216252181 -0.210017810
v 0.160156486 -0.198961460 -0.199425040
v 0.167974315 -0.181462304 -0.188483355
v 0.174877903 -0.163789008 -0.177211606
v 0.180851570 -0.145977483 -0.165630523
v 0.185877519 -0.128064060 -0.153760160
v 0.189942367 -0.110086387 -0.141621963
v 0.193036602 -0.092082872 -0.129238244
v 0.195141804 -0.074092915 -0.116629267
v 0.196258469 -0.056156448 -0.103819506
v 0.196377704 -0.038314272 -0.090831153
v 0.195494925 -0.020607942 -0.077687272
v 0.193609329 -0.003079373 -0.064411448
v 0.190723465 0.014229441 -0.051027559
v 0.186842877 0.031276634 -0.037559618
v 0.181974093 0.048020011 -0.024031633
v 0.176124506 0.064416818 -0.010467766
v 0.169312376 0.080427950 0.003107567
v 0.161548345 0.096010963 0.016670040
v 0.152854472 0.111128239 0.030195373
v 0.143253029 0.125742704 0.043659467
v 0.132762612 0.139814928 0.057037665
v 0.121413994 0.153313118 0.070306355
v 0.109234881 0.166204300 0.083441674
v 0.096255441 0.178457758 0.096420010
v 0.082508397 0.190045546 0.109218205
v 0.068026120 0.200940084 0.121812898
v 0.052844092 0.211117404 0.134181449
v 0.036999346 0.220556297 0.146301844
v 0.020529704 0.229237630 0.158152521
v 0.003472289 0.237142387 0.169711644
v -0.014133536 0.244255455 0.180958536
v -0.032246323 0.250566508 0.191874284
v -0.050830277 0.256056682 0.202436063
v -0.069840357 0.260724538 0.212628373
v -0.089237690 0.264558944 0.222431339
v -0.108981647 0.267552720 0.231826600
v -0.129030211 0.269703368 0.240797932
v -0.149340571 0.271013888 0.249332005
v -0.169874735 0.271470802 0.257406545
v -0.190587767 0.271088969 0.265014492
v -0.211439604 0.269866143 0.272139525
v -0.232389184 0.267803773 0.278767135
v -0.253394960 0.264907438 0.284885112
v -0.274415583 0.261187258 0.290484093
v -0.295410790 0.256658254 0.295558146
v -0.316339264 0.251317150 0.300089197
v -0.337162824 0.245192933 0.304080859
v -0.357837971 0.238276499 0.307510366
v -0.378328718 0.230600463 0.310384387
v -0.398595816 0.222176923 0.312695222
v -0.418600462 0.213021003 0.314437241
v -0.438304819 0.203150882 0.315607111
v -0.457672594 0.192587740 0.316203994
v -0.476669684 0.181355618 0.316229723
v -0.495259513 0.169473597 0.315681993
v -0.513398103 0.156952940 0.314550609
v -0.531071217 0.143843383 0.312861541
v -0.548224515 0.130143971 0.310592741
v -0.564850172 0.115906771 0.307774189
v -0.580887622 0.101130341 0.304381077
v -0.596338666 0.085870603 0.300449639
v -0.611158760 0.070142589 0.295971857
v -0.625310022 0.053969955 0.290947828
v -0.638786211 0.037396296 0.285402797
v -0.651560274 0.020450447 0.279344434
v -0.663606622 0.003162605 0.272781857
v -0.674901294 -0.014435799 0.265725617
v -0.685422102 -0.032312257 0.258187654
v -0.695147590 -0.050433655 0.250180591
v -0.704062976 -0.068764937 0.241720920
v -0.712148558 -0.087272316 0.232822397
v -0.719391438 -0.105920439 0.223502458
v -0.725779701 -0.124674090 0.213778844
v -0.731303567 -0.143498070 0.203670138
v -0.735955351 -0.162357362 0.193195628
v -0.739729377 -0.181217289 0.182375188
v -0.742621877 -0.200043644 0.171229147
v -0.744630861 -0.218802789 0.159778170
v -0.745707194 -0.237454036 0.148028871
v -0.745885461 -0.255965526 0.136015188
v -0.745178250 -0.274306094 0.123761963
v -0.743590161 -0.292444325 0.111291054
v -0.741089792 -0.310338063 0.098617002
v -0.737680320 -0.327951118 0.085764156
v -0.733408199 -0.345264121 0.072763171
v -0.728283072 -0.362248433 0.059636127
v -0.722250673 -0.378845389 0.046399104
v -0.715369902 -0.395042913 0.033083005
v -0.707671456 -0.410821950 0.019712081
v -0.699143690 -0.426141157 0.006308139
v -0.689772738 -0.440952051 -0.007103333
v -0.679631516 -0.455261367 -0.020497925
v -0.668736555 -0.469044805 -0.033853620
v -0.657043797 -0.482228342 -0.047140520
v -0.644629748 -0.494827248 -0.060338258
v -0.631523896 -0.506826562 -0.073425683
v -0.617730919 -0.518188398 -0.086376787
v -0.603251118 -0.528863979 -0.099160337
v -0.588152781 -0.538875078 -0.111763365
v -0.572459945 -0.548202136 -0.124163951
v -0.556188875 -0.556814157 -0.136335939
v -0.539350677 -0.564666961 -0.148246809
v -0.522005816 -0.571784613 -0.159888152
v -0.504183239 -0.578151742 -0.171238812
v -0.485913231 -0.583754086 -0.182277824
v -0.467227418 -0.588578656 -0.192984516
v -0.448149870 -0.592593350 -0.203329012
v -0.428724931 -0.595806601 -0.213299320
v -0.408991008 -0.598218574 -0.222880513
v -0.388983628 -0.599823121 -0.232054790
v -0.368739202 -0.600615939 -0.240805186
v -0.348294883 -0.600594661 -0.249115691
v -0.327688388 -0.599758914 -0.256971359
v -0.306957818 -0.598110358 -0.264358400
v -0.286141465 -0.595652700 -0.271264265
v -0.265277612 -0.592391674 -0.277677715
v -0.244405241 -0.588308884 -0.283571908
v -0.223564047 -0.583432698 -0.288949483
v -0.202791642 -0.577778551 -0.293805679
v -0.182124761 -0.571360249 -0.298135054
v -0.161609150 -0.564151212 -0.301903014
v -0.141275550 -0.556202471 -0.305130149
v -0.121164466 -0.547516000 -0.307802089
v -0.101315415 -0.538101652 -0.309909878
v -0.081764026 -0.527982071 -0.311454218
v -0.062541897 -0.517183814 -0.312439868
v -0.043700521 -0.505698811 -0.312841913
v -0.025262269 -0.493572240 -0.312680550
v -0.007264312 -0.480821082 -0.311952352
v 0.010257390 -0.467465835 -0.310656608
v 0.027268574 -0.453530001 -0.308795187
v 0.043737045 -0.439039599 -0.306372362
v 0.059632938 -0.424022672 -0.303394592
v 0.074925853 -0.408506578 -0.299867696
v 0.089573607 -0.392510924 -0.295788032
v 0.103568341 -0.376079811 -0.291180705
v 0.116859120 -0.359228913 -0.286036178
v 0.129434927 -0.341999043 -0.280376195
v 0.141266758 -0.324419995 -0.274208541
v 0.152328139 -0.306523730 -0.267543291
v 0.162596416 -0.288344224 -0.260393187
v 0.172052671 -0.269916726 -0.252773125
v 0.180668053 -0.251274299 -0.244692659
v 0.188433645 -0.232455216 -0.236172189
v 0.195320017 -0.213494037 -0.227221656
v 0.201319322 -0.194429481 -0.217861769
v 0.206415193 -0.175299105 -0.208108956
v 0.210595285 -0.156141328 -0.197981464
v 0.213839183 -0.136995520 -0.187494627
v 0.216149765 -0.117901020 -0.176672517
v 0.217509296 -0.098898645 -0.165531595
v 0.217914943 -0.080028987 -0.154093573
v 0.217363878 -0.061332940 -0.142379846
v 0.215848466 -0.042853377 -0.130410513
v 0.213374885 -0.024630807 -0.118209182
v 0.209942146 -0.006708263 -0.105797477
v 0.205557424 0.010872887 -0.093198694
v 0.200225874 0.028069717 -0.080435576
v 0.193956753 0.044839870 -0.067531556
v 0.186762895 0.061141767 -0.054510479
v 0.178660276 0.076934752 -0.041396417
v 0.169667683 0.092179210 -0.028213551
v 0.159806447 0.106836647 -0.014986111
v 0.149095918 0.120866304 -0.001738363
v 0.137565801 0.134234652 0.011505175
v 0.125245150 0.146907981 0.024720211
v 0.112161300 0.158850565 0.037882166
v 0.098349526 0.170034187 0.050966866
v 0.083845084 0.180431316 0.063950241
v 0.068684194 0.190015964 0.076808286
v 0.052904927 0.198764964 0.089517232
v 0.036547139 0.206658456 0.102053731
v 0.019651779 0.213679453 0.114394874
v 0.002257503 0.219807606 0.126516591
v -0.015589972 0.225036903 0.138398192
v -0.033849419 0.229354828 0.150017212
v -0.052478789 0.232751352 0.161351509
v -0.071434841 0.235220600 0.172379918
v -0.090673496 0.236761599 0.183082779
v -0.110150820 0.237377025 0.193441808
v -0.129825745 0.237058880 0.203434376
v -0.149653951 0.235816219 0.213044311
v -0.169592871 0.233654023 0.222253892
v -0.189600220 0.230579848 0.231046479
v -0.209634140 0.226599417 0.239404433
v -0.229652715 0.221722573 0.247311859
v -0.249614982 0.215965739 0.254756355
v -0.269480661 0.209343612 0.261724806
v -0.289209192 0.201867493 0.268202103
v -0.308760411 0.193552637 0.274175134
v -0.328095217 0.184418477 0.279633262
v -0.347176419 0.174488751 0.284568838
v -0.365969740 0.163791499 0.288977752
v -0.384429168 0.152327712 0.292836421
v -0.402530148 0.140146097 0.296155802
v -0.420229861 0.127256235 0.298918070
v -0.437494514 0.113686350 0.301119214
v -0.454294378 0.099469358 0.302759615
v -0.470596533 0.084632586 0.303835218
v -0.486370080 0.069205882 0.304344240
v -0.501586649 0.053221349 0.304287320
v -0.516215921 0.036708954 0.303663006
v -0.530218539 0.019693027 0.302462324
v -0.543587553 0.002222300 0.300705299
v -0.556292010 -0.015674373 0.298389590
v -0.568295612 -0.033968321 0.295509938
v -0.579596950 -0.052612994 0.292088238
v -0.590156088 -0.071580860 0.288116756
v -0.599958935 -0.090832253 0.283607333
v -0.609005049 -0.110324572 0.278580465
v -0.617246854 -0.130029005 0.273025012
v -0.624680150 -0.149903565 0.266959194
v -0.631302913 -0.169907912 0.260401582
v -0.637100233 -0.190004718 0.253362477
v -0.642059149 -0.210155989 0.245853536
v -0.646168733 -0.230323245 0.237887737
v -0.649420150 -0.250467701 0.229479320
v -0.651806706 -0.270550455 0.220643717
v -0.653323856 -0.290532670 0.211397474
v -0.653969203 -0.310375756 0.201758157
v -0.653742464 -0.330041534 0.191744250
v -0.652645406 -0.349492394 0.181375057
v -0.650681778 -0.368691429 0.170670586
v -0.647857206 -0.387602549 0.159651442
v -0.644179083 -0.406190576 0.148338727
v -0.639656442 -0.424421304 0.136753936
v -0.634299831 -0.442261543 0.124918873
v -0.628121177 -0.459679129 0.112855573
v -0.621091506 -0.476616842 0.100576686
v -0.613262933 -0.493062808 0.088115591
v -0.604654774 -0.508989542 0.075495950
v -0.595284408 -0.524368955 0.062740697
v -0.585170127 -0.539173935 0.049872771
v -0.574283172 -0.553335014 0.036910934
v -0.562692236 -0.566863704 0.023885904
v -0.550420714 -0.579737528 0.010821050
v -0.537491087 -0.591933488 -0.002260483
v -0.523904462 -0.603402937 -0.015334318
v -0.509688842 -0.614122838 -0.028374376
v -0.494892813 -0.624099029 -0.041357810
v -0.479542671 -0.633312752 -0.054261541
v -0.463665553 -0.641746111 -0.067062469
v -0.447261902 -0.649333532 -0.079728310
v -0.430392374 -0.656105571 -0.092241930
v -0.413089112 -0.662051720 -0.104581209
v -0.395383062 -0.667159179 -0.116723543
v -0.377306130 -0.671416385 -0.128646428
v -0.358885479 -0.674796575 -0.140322453
v -0.340157070 -0.677290429 -0.151728084
v -0.321163690 -0.678913132 -0.162848159
v -0.301940412 -0.679659786 -0.173661791
v -0.282523059 -0.679527229 -0.184148552
v -0.262948122 -0.678514146 -0.194288571
v -0.243252657 -0.676621159 -0.204062642
v -0.223474149 -0.673850904 -0.213452319
v -0.203650374 -0.670208086 -0.222440027
v -0.183819236 -0.665699505 -0.231009161
v -0.164018596 -0.660334064 -0.239144172
v -0.144286099 -0.654122749 -0.246830660
v -0.124658996 -0.647078585 -0.254055437
v -0.105173970 -0.639216570 -0.260806592
v -0.085872799 -0.630532135 -0.267060009
v -0.066791709 -0.621049801 -0.272808696
v -0.047962059 -0.610803464 -0.278052802
v -0.029418259 -0.599812457 -0.282783786
v -0.011213193 -0.588058779 -0.286965232
v 0.006640340 -0.575612394 -0.290624660
v 0.024090243 -0.562462967 -0.293729847
v 0.041118140 -0.548659848 -0.296295361
v 0.057672151 -0.534202191 -0.298293771
v 0.073739471 -0.519142800 -0.299744271
v 0.089279675 -0.503497500 -0.300633590
v 0.104254088 -0.487288672 -0.300952596
v 0.118644182 -0.470557931 -0.300712071
v 0.132419622 -0.453334594 -0.299910648
v 0.145552376 -0.435650491 -0.298549398
v 0.158016956 -0.417539427 -0.296631687
v 0.169788532 -0.399035650 -0.294161449
v 0.180829900 -0.380168202 -0.291133635
v 0.191137889 -0.360982441 -0.287568868
v 0.200678780 -0.341509790 -0.283465059
v 0.209442930 -0.321790942 -0.278837145
v 0.217394057 -0.301859264 -0.273682604
v 0.224528811 -0.281757287 -0.268020469
v 0.230828554 -0.261523362 -0.261859725
v 0.236278841 -0.241197068 -0.255212063
v 0.240866487 -0.220818443 -0.248089959
v 0.244571519 -0.200428194 -0.240502563
v 0.247399587 -0.180067111 -0.232472276
v 0.249327520 -0.159777212 -0.224006900
v 0.250356239 -0.139599740 -0.215126222
v 0.250480823 -0.119576397 -0.205846976
v 0.249698612 -0.099748974 -0.196186848
v 0.248001489 -0.080161562 -0.186161436
v 0.245398644 -0.060854118 -0.175793091
v 0.241885397 -0.041871439 -0.165098771
v 0.237471107 -0.023254208 -0.154100426
v 0.232160682 -0.005045366 -0.142818235
v 0.225963430 0.012713228 -0.131273664
v 0.218889963 0.029979524 -0.119488389
v 0.210951168 0.046710427 -0.107484083
v 0.202166470 0.062867288 -0.095284352
v 0.192553484 0.078409678 -0.082912034
v 0.182131613 0.093297274 -0.070390240
v 0.170923852 0.107491482 -0.057742643
v 0.158956290 0.120955500 -0.044993249
v 0.146257711 0.133654366 -0.032166250
v 0.132859274 0.145554987 -0.019285935
v 0.118794274 0.156626188 -0.006376635
v 0.104097134 0.166837572 0.006537273
v 0.088803826 0.176159961 0.019431240
v 0.072955487 0.184571895 0.032280917
v 0.056592436 0.192051154 0.045062004
v 0.039756380 0.198578123 0.057750263
v 0.022490284 0.204136075 0.070321580
v 0.004838228 0.208711512 0.082752066
v -0.013154791 0.212294592 0.095018219
v -0.031443132 0.214879627 0.107097168
v -0.049982471 0.216457854 0.118965198
v -0.068726183 0.217032700 0.130601020
v -0.087630224 0.216597461 0.141980753
v -0.106648586 0.215161076 0.153084242
v -0.125736822 0.212728884 0.163890430
v -0.144850910 0.209306957 0.174378250
v -0.163947062 0.204903800 0.184527117
v -0.182982670 0.199537301 0.194319802
v -0.201915737 0.193220370 0.203737341
v -0.220704194 0.185964738 0.212759969
v -0.239307608 0.177790729 0.221371375
v -0.257685781 0.168717023 0.229554526
v -0.275801821 0.158771534 0.237297090
v -0.293615861 0.147970743 0.244580986
v -0.311094118 0.136347013 0.251396720
v -0.328196956 0.123917649 0.257726219
v -0.344891208 0.110714221 0.263559749
v -0.361145012 0.096768514 0.268888287
l 1 2
l 2 3
l 3 4
l 4 5
l 5 6
l 6 7
l 7 8
l 8 9
l 9 10
l 10 11
l 11 12
l 12 13
l 13 14
l 14 15
l 15 16
l 16 17
l 17 18
l 18 19
l 19 20
l 20 21
l 21 22
l 22 23
l 23 24
l 24 25
l 25 26
l 26 27
l 27 28
l 28 29
l 29 30
l 30 31
l 31 32
l 32 33
l 33 34
l 34 35
l 35 36
l 36 37
l 37 38
l 38 39
l 39 40
l 40 41
l 41 42
l 42 43
l 43 44
l 44 45
l 45 46
l 46 47
l 47 48
l 48 49
l 49 50
l 50 51
l 51 52
l 52 53
l 53 54
l 54 55
l 55 56
l 56 57
l 57 58
l 58 59
l 59 60
l 60 61
l 61 62
l 62 63
l 63 64
l 64 65
l 65 66
l 66 67
l 67 68
l 68 69
l 69 70
l 70 71
l 71 72
l 72 73
l 73 74
l 74 75
l 75 76
l 76 77
l 77 78
l 78 79
l 79 80
l 80 81
l 81 82
l 82 83
l 83 84
l 84 85
l 85 86
l 86 87
l 87 88
l 88 89
l 89 90
l 90 91
l 91 92
l 92 93
l 93 94
l 94 95
l 95 96
l 96 97
l 97 98
l 98 99
l 99 100
l 100 101
l 101 102
l 102 103
l 103 104
l 104 105
l 105 106
l 106 107
l 107 108
l 108 109
l 109 110
l 110 111
l 111 112
l 112 113
l 113 114
l 114 115
l 115 116
l 116 117
l 117 118
l 118 119
l 119 120
l 120 121
l 121 122
l 122 123
l 123 124
l 124 125
l 125 126
l 126 127
l 127 128
l 128 129
l 129 130
l 130 131
l 131 132
l 132 133
l 133 134
l 134 135
l 135 136
l 136 137
l 137 138
l 138 139
l 139 140
l 140 141
l 141 142
l 142 143
l 143 144
l 144 145
l 145 146
l 146 147
l 147 148
l 148 149
l 149 150
l 150 151
l 151 152
l 152 153
l 153 154
l 154 155
l 155 156
l 156 157
l 157 158
l 158 159
l 159 160
l 160 161
l 161 162
l 162 163
l 163 164
l 164 165
l 165 166
l 166 167
l 167 168
l 168 169
l 169 170
l 170 171
l 171 172
l 172 173
l 173 174
l 174 175
l 175 176
l 176 177
l 177 178
l 178 179
l 179 180
l 180 181
l 181 182
l 182 183
l 183 184
l 184 185
l 185 186
l 186 187
l 187 188
l 188 189
l 189 190
l 190 191
l 191 192
l 192 193
l 193 194
l 194 195
l 195 196
l 196 197
l 197 198
l 198 199
l 199 200
l 200 201
l 201 202
l 202 203
l 203 204
l 204 205
l 205 206
l 206 207
l 207 208
l 208 209
l 209 210
l 210 211
l 211 212
l 212 213
l 213 214
l 214 215
l 215 216
l 216 217
l 217 218
l 218 219
l 219 220
l 220 221
l 221 222
l 222 223
l 223 224
l 224 225
l 225 226
l 226 227
l 227 228
l 228 229
l 229 230
l 230 231
l 231 232
l 232 233
l 233 234
l 234 235
l 235 236
l 236 237
l 237 238
l 238 239
l 239 240
l 240 241
l 241 242
l 242 243
l 243 244
l 244 245
l 245 246
l 246 247
l 247 248
l 248 249
l 249 250
l 250 251
l 251 252
l 252 253
l 253 254
l 254 255
l 255 256
l 256 257
l 257 258
l 258 259
l 259 260
l 260 261
l 261 262
l 262 263
l 263 264
l 264 265
l 265 266
l 266 267
l 267 268
l 268 269
l 269 270
l 270 271
l 271 272
l 272 273
l 273 274
l 274 275
l 275 276
l 276 277
l 277 278
l 278 279
l 279 280
l 280 281
l 281 282
l 282 283
l 283 284
l 284 285
l 285 286
l 286 287
l 287 288
l 288 289
l 289 290
l 290 291
l 291 292
l 292 293
l 293 294
l 294 295
l 295 296
l 296 297
l 297 298
l 298 299
l 299 300
l 300 301
l 301 302
l 302 303
l 303 304
l 304 305
l 305 306
l 306 307
l 307 308
l 308 309
l 309 310
l 310 311
l 311 312
l 312 313
l 313 314
l 314 315
l 315 316
l 316 317
l 317 318
l 318 319
l 319 320
l 320 321
l 321 322
l 322 323
l 323 324
l 324 325
l 325 326
l 326 327
l 327 328
l 328 329
l 329 330
l 330 331
l 331 332
l 332 333
l 333 334
l 334 335
l 335 336
l 336 337
l 337 338
l 338 339
l 339 340
l 340 341
l 341 342
l 342 343
l 343 344
l 344 345
l 345 346
l 346 347
l 347 348
l 348 349
l 349 350
l 350 351
l 351 352
l 352 353
l 353 354
l 354 355
l 355 356
l 356 357
l 357 358
l 358 359
l 359 360
l 360 361
l 361 362
l 362 363
l 363 364
l 364 365
l 365 366
l 366 367
l 367 368
l 368 369
l 369 370
l 370 371
l 371 372
l 372 373
l 373 374
l 374 375
l 375 376
l 376 377
l 377 378
l 378 379
l 379 380
l 380 381
l 381 382
l 382 383
l 383 384
l 384 385
l 385 386
l 386 387
l 387 388
l 388 389
l 389 390
l 390 391
l 391 392
l 392 393
l 393 394
l 394 395
l 395 396
l 396 397
l 397 398
l 398 399
l 399 400
l 400 401
l 401 402
l 402 403
l 403 404
l 404 405
l 405 406
l 406 407
l 407 408
l 408 409
l 409 410
l 410 411
l 411 412
l 412 413
l 413 414
l 414 415
l 415 416
l 416 417
l 417 418
l 418 419
l 419 420
l 420 421
l 421 422
l 422 423
l 423 424
l 424 425
l 425 426
l 426 427
l 427 428
l 428 429
l 429 430
l 430 431
l 431 432
l 432 433
l 433 434
l 434 435
l 435 436
l 436 437
l 437 438
l 438 439
l 439 440
l 440 441
l 441 442
l 442 443
l 443 444
l 444 445
l 445 446
l 446 447
l 447 448
l 448 449
l 449 450
l 450 451
l 451 452
l 452 453
l 453 454
l 454 455
l 455 456
l 456 457
l 457 458
l 458 459
l 459 460
l 460 461
l 461 462
l 462 463
l 463 464
l 464 465
l 465 466
l 466 467
l 467 468
l 468 469
l 469 470
l 470 471
l 471 472
l 472 473
l 473 474
l 474 475
l 475 476
l 476 477
l 477 478
l 478 479
l 479 480
l 480 481
l 481 482
l 482 483
l 483 484
l 484 485
l 485 486
l 486 487
l 487 488
l 488 489
l 489 490
l 490 491
l 491 492
l 492 493
l 493 494
l 494 495
l 495 496
l 496 497
l 497 498
l 498 499
l 499 500
l 500 501
l 501 502
l 502 503
l 503 504
l 504 505
l 505 506
l 506 507
l 507 508
l 508 509
l 509 510
l 510 511
l 511 512
l 512 513
l 513 514
l 514 515
l 515 516
l 516 517
l 517 518
l 518 519
l 519 520
l 520 521
l 521 522
l 522 523
l 523 524
l 524 525
l 525 526
l 526 527
l 527 528
l 528 529
l 529 530
l 530 531
l 531 532
l 532 533
l 533 534
l 534 535
l 535 536
l 536 537
l 537 538
l 538 539
l 539 540
l 540 541
l 541 542
l 542 543
l 543 544
l 544 545
l 545 546
l 546 547
l 547 548
l 548 549
l 549 550
l 550 551
l 551 552
l 552 553
l 553 554
l 554 555
l 555 556
l 556 557
l 557 558
l 558 559
l 559 560
l 560 561
l 561 562
l 562 563
l 563 564
l 564 565
l 565 566
l 566 567
l 567 568
l 568 569
l 569 570
l 570 571
l 571 572
l 572 573
l 573 574
l 574 575
l 575 576
l 576 577
l 577 578
l 578 579
l 579 580
l 580 581
l 581 582
l 582 583
l 583 584
l 584 585
l 585 586
l 586 587
l 587 588
l 588 589
l 589 590
l 590 591
l 591 592
l 592 593
l 593 594
l 594 595
l 595 596
l 596 597
l 597 598
l 598 599
l 599 600
l 600 601
l 601 602
l 602 603
l 603 604
l 604 605
l 605 606
l 606 607
l 607 608
l 608 609
l 609 610
l 610 611
l 611 612
l 612 613
l 613 614
l 614 615
l 615 616
l 616 617
l 617 618
l 618 619
l 619 620
l 620 621
l 621 622
l 622 623
l 623 624
l 624 625
l 625 626
l 626 627
l 627 628
l 628 629
l 629 630
l 630 631
l 631 632
l 632 633
l 633 634
l 634 635
l 635 636
l 636 637
l 637 638
l 638 639
l 639 640
l 640 641
l 641 642
l 642 643
l 643 644
l 644 645
l 645 646
l 646 647
l 647 648
l 648 649
l 649 650
l 650 651
l 651 652
l 652 653
l 653 654
l 654 655
l 655 656
l 656 657
l 657 658
l 658 659
l 659 660
l 660 661
l 661 662
l 662 663
l 663 664
l 664 665
l 665 666
l 666 667
l 667 668
l 668 669
l 669 670
l 670 671
l 671 672
l 672 673
l 673 674
l 674 675
l 675 676
l 676 677
l 677 678
l 678 679
l 679 680
l 680 681
l 681 682
l 682 683
l 683 684
l 684 685
l 685 686
l 686 687
l 687 688
l 688 689
l 689 690
l 690 691
l 691 692
l 692 693
l 693 694
l 694 695
l 695 696
l 696 697
l 697 698
l 698 699
l 699 700
l 700 701
l 701 702
l 702 703
l 703 704
l 704 705
l 705 706
l 706 707
l 707 708
l 708 709
l 709 710
l 710 711
l 711 712
l 712 713
l 713 714
l 714 715
l 715 716
l 716 717
l 717 718
l 718 719
l 719 720
l 720 721
l 721 722
l 722 723
l 723 724
l 724 725
l 725 726
l 726 727
l 727 728
l 728 729
l 729 730
l 730 731
l 731 732
l 732 733
l 733 734
l 734 735
l 735 736
l 736 737
l 737 738
l 738 739
l 739 740
l 740 741
l 741 742
l 742 743
l 743 744
l 744 745
l 745 746
l 746 747
l 747 748
l 748 749
l 749 750
l 750 751
l 751 752
l 752 753
l 753 754
l 754 755
l 755 756
l 756 757
l 757 758
l 758 759
l 759 760
l 760 761
l 761 762
l 762 763
l 763 764
l 764 765
l 765 766
l 766 767
l 767 768
l 768 769
l 769 770
l 770 771
l 771 772
l 772 773
l 773 774
l 774 775
l 775 776
l 776 777
l 777 778
l 778 779
l 779 780
l 780 781
l 781 782
l 782 783
l 783 784
l 784 785
l 785 786
l 786 787
l 787 788
l 788 789
l 789 790
l 790 791
l 791 792
l 792 793
l 793 794
l 794 795
l 795 796
l 796 797
l 797 798
l 798 799
l 799 800
l 800 801
l 801 802
l 802 803
l 803 804
l 804 805
l 805 806
l 806 807
l 807 808
l 808 809
l 809 810
l 810 811
l 811 812
l 812 813
l 813 814
l 814 815
l 815 816
l 816 817
l 817 818
l 818 819
l 819 820
l 820 821
l 821 822
l 822 823
l 823 824
l 824 825
l 825 826
l 826 827
l 827 828
l 828 829
l 829 830
l 830 831
l 831 832
l 832 833
l 833 834
l 834 835
l 835 836
l 836 837
l 837 838
l 838 839
l 839 840
l 840 841
l 841 842
l 842 843
l 843 844
l 844 845
l 845 846
l 846 847
l 847 848
l 848 849
l 849 850
l 850 851
l 851 852
l 852 853
l 853 854
l 854 855
l 855 856
l 856 857
l 857 858
l 858 859
l 859 860
l 860 861
l 861 862
l 862 863
l 863 864
l 864 865
l 865 866
l 866 867
l 867 868
l 868 869
l 869 870
l 870 871
l 871 872
l 872 873
l 873 874
l 874 875
l 875 876
l 876 877
l 877 878
l 878 879
l 879 880
l 880 881
l 881 882
l 882 883
l 883 884
l 884 885
l 885 886
l 886 887
l 887 888
l 888 889
l 889 890
l 890 891
l 891 892
l 892 893
l 893 894
l 894 895
l 895 896
l 896 897
l 897 898
l 898 899
l 899 900
l 900 901
l 901 902
l 902 903
l 903 904
l 904 905
l 905 906
l 906 907
l 907 908
l 908 909
l 909 910
l 910 911
l 911 912
l 912 913
l 913 914
l 914 915
l 915 916
l 916 917
l 917 918
l 918 919
l 919 920
l 920 921
l 921 922
l 922 923
l 923 924
l 924 925
l 925 926
l 926 927
l 927 928
l 928 929
l 929 930
l 930 931
l 931 932
l 932 933
l 933 934
l 934 935
l 935 936
l 936 937
l 937 938
l 938 939
l 939 940
l 940 941
l 941 942
l 942 943
l 943 944
l 944 945
l 945 946
l 946 947
l 947 948
l 948 949
l 949 950
l 950 951
l 951 952
l 952 953
l 953 954
l 954 955
l 955 956
l 956 957
l 957 958
l 958 959
l 959 960
l 960 961
l 961 962
l 962 963
l 963 964
l 964 965
l 965 966
l 966 967
l 967 968
l 968 969
l 969 970
l 970 971
l 971 972
l 972 973
l 973 974
l 974 975
l 975 976
l 976 977
l 977 978
l 978 979
l 979 980
l 980 981
l 981 982
l 982 983
l 983 984
l 984 985
l 985 986
l 986 987
l 987 988
l 988 989
l 989 990
l 990 991
l 991 992
l 992 993
l 993 994
l 994 995
l 995 996
l 996 997
l 997 998
l 998 999
l 999 1000
l 1000 1001
l 1001 1002
l 1002 1003
l 1003 1004
l 1004 1005
l 1005 1006
l 1006 1007
l 1007 1008
l 1008 1009
l 1009 1010
l 1010 1011
l 1011 1012
l 1012 1013
l 1013 1014
l 1014 1015
l 1015 1016
l 1016 1017
l 1017 1018
l 1018 1019
l 1019 1020
l 1020 1021
l 1021 1022
l 1022 1023
l 1023 1024
l 1024 1025
l 1025 1026
l 1026 1027
l 1027 1028
l 1028 1029
l 1029 1030
l 1030 1031
l 1031 1032
l 1032 1033
l 1033 1034
l 1034 1035
l 1035 1036
l 1036 1037
l 1037 1038
l 1038 1039
l 1039 1040
l 1040 1041
l 1041 1042
l 1042 1043
l 1043 1044
l 1044 1045
l 1045 1046
l 1046 1047
l 1047 1048
l 1048 1049
l 1049 1050
l 1050 1051
l 1051 1052
l 1052 1053
l 1053 1054
l 1054 1055
l 1055 1056
l 1056 1057
l 1057 1058
l 1058 1059
l 1059 1060
l 1060 1061
l 1061 1062
l 1062 1063
l 1063 1064
l 1064 1065
l 1065 1066
l 1066 1067
l 1067 1068
l 1068 1069
l 1069 1070
l 1070 1071
l 1071 1072
l 1072 1073
l 1073 1074
l 1074 1075
l 1075 1076
l 1076 1077
l 1077 1078
l 1078 1079
l 1079 1080
l 1080 1081
l 1081 1082
l 1082 1083
l 1083 1084
l 1084 1085
l 1085 1086
l 1086 1087
l 1087 1088
l 1088 1089
l 1089 1090
l 1090 1091
l 1091 1092
l 1092 1093
l 1093 1094
l 1094 1095
l 1095 1096
l 1096 1097
l 1097 1098
l 1098 1099
l 1099 1100
l 1100 1101
l 1101 1102
l 1102 1103
l 1103 1104
l 1104 1105
l 1105 1106
l 1106 1107
l 1107 1108
l 1108 1109
l 1109 1110
l 1110 1111
l 1111 1112
l 1112 1113
l 1113 1114
l 1114 1115
l 1115 1116
l 1116 1117
l 1117 1118
l 1118 1119
l 1119 1120
l 1120 1121
l 1121 1122
l 1122 1123
l 1123 1124
l 1124 1125
l 1125 1126
l 1126 1127
l 1127 1128
l 1128 1129
l 1129 1130
l 1130 1131
l 1131 1132
l 1132 1133
l 1133 1134
l 1134 1135
l 1135 1136
l 1136 1137
l 1137 1138
l 1138 1139
l 1139 1140
l 1140 1141
l 1141 1142
l 1142 1143
l 1143 1144
l 1144 1145
l 1145 1146
l 1146 1147
l 1147 1148
l 1148 1149
l 1149 1150
l 1150 1151
l 1151 1152
l 1152 1153
l 1153 1154
l 1154 1155
l 1155 1156
l 1156 1157
l 1157 1158
l 1158 1159
l 1159 1160
l 1160 1161
l 1161 1162
l 1162 1163
l 1163 1164
l 1164 1165
l 1165 1166
l 1166 1167
l 1167 1168
l 1168 1169
l 1169 1170
l 1170 1171
l 1171 1172
l 1172 1173
l 1173 1174
l 1174 1175
l 1175 1176
l 1176 1177
l 1177 1178
l 1178 1179
l 1179 1180
l 1180 1181
l 1181 1182
l 1182 1183
l 1183 1184
l 1184 1185
l 1185 1186
l 1186 1187
l 1187 1188
l 1188 1189
l 1189 1190
l 1190 1191
l 1191 1192
l 1192 1193
l 1193 1194
l 1194 1195
l 1195 1196
l 1196 1197
l 1197 1198
l 1198 1199
l 1199 1200
l 1200 1201
l 1201 1202
l 1202 1203
l 1203 1204
l 1204 1205
l 1205 1206
l 1206 1207
l 1207 1208
l 1208 1209
l 1209 1210
l 1210 1211
l 1211 1212
l 1212 1213
l 1213 1214
l 1214 1215
l 1215 1216
l 1216 1217
l 1217 1218
l 1218 1219
l 1219 1220
l 1220 1221
l 1221 1222
l 1222 1223
l 1223 1224
l 1224 1225
l 1225 1226
l 1226 1227
l 1227 1228
l 1228 1229
l 1229 1230
l 1230 1231
l 1231 1232
l 1232 1233
l 1233 1234
l 1234 1235
l 1235 1236
l 1236 1237
l 1237 1238
l 1238 1239
l 1239 1240
l 1240 1241
l 1241 1242
l 1242 1243
l 1243 1244
l 1244 1245
l 1245 1246
l 1246 1247
l 1247 1248
l 1248 1249
l 1249 1250
l 1250 1251
l 1251 1252
l 1252 1253
l 1253 1254
l 1254 1255
l 1255 1256
l 1256 1257
l 1257 1258
l 1258 1259
l 1259 1260
l 1260 1261
l 1261 1262
l 1262 1263
l 1263 1264
l 1264 1265
l 1265 1266
l 1266 1267
l 1267 1268
l 1268 1269
l 1269 1270
l 1270 1271
l 1271 1272
l 1272 1273
l 1273 1274
l 1274 1275
l 1275 1276
l 1276 1277
l 1277 1278
l 1278 1279
l 1279 1280
l 1280 1281
l 1281 1282
l 1282 1283
l 1283 1284
l 1284 1285
l 1285 1286
l 1286 1287
l 1287 1288
l 1288 1289
l 1289 1290
l 1290 1291
l 1291 1292
l 1292 1293
l 1293 1294
l 1294 1295
l 1295 1296
l 1296 1297
l 1297 1298
l 1298 1299
l 1299 1300
l 1300 1301
l 1301 1302
l 1302 1303
l 1303 1304
l 1304 1305
l 1305 1306
l 1306 1307
l 1307 1308
l 1308 1309
l 1309 1310
l 1310 1311
l 1311 1312
l 1312 1313
l 1313 1314
l 1314 1315
l 1315 1316
l 1316 1317
l 1317 1318
l 1318 1319
l 1319 1320
l 1320 1321
l 1321 1322
l 1322 1323
l 1323 1324
l 1324 1325
l 1325 1326
l 1326 1327
l 1327 1328
l 1328 1329
l 1329 1330
l 1330 1331
l 1331 1332
l 1332 1333
l 1333 1334
l 1334 1335
l 1335 1336
l 1336 1337
l 1337 1338
l 1338 1339
l 1339 1340
l 1340 1341
l 1341 1342
l 1342 1343
l 1343 1344
l 1344 1345
l 1345 1346
l 1346 1347
l 1347 1348
l 1348 1349
l 1349 1350
l 1350 1351
l 1351 1352
l 1352 1353
l 1353 1354
l 1354 1355
l 1355 1356
l 1356 1357
l 1357 1358
l 1358 1359
l 1359 1360
l 1360 1361
l 1361 1362
l 1362 1363
l 1363 1364
l 1364 1365
l 1365 1366
l 1366 1367
l 1367 1368
l 1368 1369
l 1369 1370
l 1370 1371
l 1371 1372
l 1372 1373
l 1373 1374
l 1374 1375
l 1375 1376
l 1376 1377
l 1377 1378
l 1378 1379
l 1379 1380
l 1380 1381
l 1381 1382
l 1382 1383
l 1383 1384
l 1384 1385
l 1385 1386
l 1386 1387
l 1387 1388
l 1388 1389
l 1389 1390
l 1390 1391
l 1391 1392
l 1392 1393
l 1393 1394
l 1394 1395
l 1395 1396
l 1396 1397
l 1397 1398
l 1398 1399
l 1399 1400
l 1400 1401
l 1401 1402
l 1402 1403
l 1403 1404
l 1404 1405
l 1405 1406
l 1406 1407
l 1407 1408
l 1408 1409
l 1409 1410
l 1410 1411
l 1411 1412
l 1412 1413
l 1413 1414
l 1414 1415
l 1415 1416
l 1416 1417
l 1417 1418
l 1418 1419
l 1419 1420
l 1420 1421
l 1421 1422
l 1422 1423
l 1423 1424
l 1424 1425
l 1425 1426
l 1426 1427
l 1427 1428
l 1428 1429
l 1429 1430
l 1430 1431
l 1431 1432
l 1432 1433
l 1433 1434
l 1434 1435
l 1435 1436
l 1436 1437
l 1437 1438
l 1438 1439
l 1439 1440
l 1440 1441
l 1441 1442
l 1442 1443
l 1443 1444
l 1444 1445
l 1445 1446
l 1446 1447
l 1447 1448
l 1448 1449
l 1449 1450
l 1450 1451
l 1451 1452
l 1452 1453
l 1453 1454
l 1454 1455
l 1455 1456
l 1456 1457
l 1457 1458
l 1458 1459
l 1459 1460
l 1460 1461
l 1461 1462
l 1462 1463
l 1463 1464
l 1464 1465
l 1465 1466
l 1466 1467
l 1467 1468
l 1468 1469
l 1469 1470
l 1470 1471
l 1471 1472
l 1472 1473
l 1473 1474
l 1474 1475
l 1475 1476
l 1476 1477
l 1477 1478
l 1478 1479
l 1479 1480
l 1480 1481
l 1481 1482
l 1482 1483
l 1483 1484
l 1484 1485
l 1485 1486
l 1486 1487
l 1487 1488
l 1488 1489
l 1489 1490
l 1490 1491
l 1491 1492
l 1492 1493
l 1493 1494
l 1494 1495
l 1495 1496
l 1496 1497
l 1497 1498
l 1498 1499
l 1499 1500
l 1500 1501
